<svg id="SvgjsSvg1592" width="360" height="360" xmlns="http://www.w3.org/2000/svg" version="1.1" xmlns:xlink="http://www.w3.org/1999/xlink" xmlns:svgjs="http://svgjs.com/svgjs"><defs id="SvgjsDefs1593"></defs><g id="SvgjsG1594"><svg xmlns="http://www.w3.org/2000/svg" data-name="Layer 1" viewBox="0 0 700 550" width="360" height="360"><path fill="#fcefee" d="M229.7 504.458c42.939-16.553 90.884-10.914 136.355-3.832s92.488 15.307 136.936 3.384c18.437-4.945 36.662-13.897 47.867-29.35 6.04-8.331 9.757-18.191 11.749-28.287 4.953-25.114-.557-51.221-9.445-75.227s-21.104-46.659-30.287-70.553c-17.162-44.656-23.373-92.61-33.448-139.378-5.99-27.807-14.552-57.215-36.53-75.271-31.104-25.554-76.331-19.302-116.03-25.976-21.816-3.667-42.688-11.57-64.263-16.462-21.576-4.892-44.84-6.606-65.279 1.86-26.75 11.082-44.841 40.244-42.887 69.132 1.302 19.253 10.545 37.629 9.642 56.904-1.672 35.663-37.025 63.047-38.505 98.719-.975 23.496 13.147 44.88 28.689 62.529s33.457 34.027 42.99 55.525a84.628 84.628 0 0 1 6.52 44.934c-1.427 10.982-5.007 21.589-6.572 32.551s-10.514 36.481 22.498 38.798Z" class="colorffe2df svgShape"></path><path fill="#c5e3f6" d="M502.99 504.008c-50.375 11.522-67.042 5.37-112.244.447-28.481-3.102 4.522-16.127 34.134-25.804a3.606 3.606 0 0 0 2.15 2.001 6.023 6.023 0 0 0 2.603.015c2.298-.335 3.787-.876 4.762-2.989.09-.193.641.124.693-.084a20.046 20.046 0 0 0 4.252-1.04 3.074 3.074 0 0 0 1.949-2.046 4.23 4.23 0 0 0 .096-.774c1.406.618 6.555-.608 6.756-3.833 0 0 2.592.901 3.883-2.13 1.795-4.218 9.142-.035 8.515-.084-4.415-.343 48.05 35.04 42.45 36.321Z" class="colorfecec8 svgShape"></path><path fill="#fc5c9c" d="M429.63 480.664a5.958 5.958 0 0 1-2.602-.01c-2.128-.658-2.793-3.296-3.052-5.508-.35-2.994-.873-9.869-1.035-13.023-.05-.954-5.015 4.577-6.8 1.127-1.235-2.385 1.031-1.633 1.022-4.34-.006-1.79 5.757-6.646 5.778-8.424.046-3.985 3.403-8.767 3.51-12.538l-6.715-.171c-.587-1.587-.352-5.404-.207-6.98.144-1.577 1.936-9.686 1.936-9.686l-.812.486c-3.774 3.342-23.616-1.28-23.616-1.28s-7.644-.612-9.352-6.405c-1.708-5.793-1.962-17.304-1.962-17.304-5.21 2.743-17.76 1.704-17.76 1.704 6.754 14.89 8.31 18.023 7.522 18.554-.787.532-2.426-.219-6.197 2.27s-4.358 1.77-4.358 1.77 1.3 2.48 2.744 20.464c1.444 17.984 4.424 22.344 6.468 26.5s2.733 2.445 3.346 5.457c.614 3.013-4.594 6.921-4.594 6.921a185.23 185.23 0 0 0 1.753 21.722c19.652 3.075 39.543 6.109 59.344 7.412.39-10.84.628-27.863.767-31.74l-.363.036a8.17 8.17 0 0 1-4.765 2.986Z" class="colorfe8f83 svgShape"></path><path fill="#c5e3f6" d="M385.36 204.733s-2.99-77.893 32.853-83.956c19.953-3.375 29.139 41.515 40.24 76.48s-15.254 50.714-23.365 47.66-32.935-38.909-49.728-40.184Z" class="colorfecec8 svgShape"></path><path fill="#feb7d7" d="M522.875 300.593c-8.433-21.946-14.22-44.688-19.124-67.694-9.354-30.165-26.46-62.368-35.104-67.299-16.899-9.64-30.051 81.162-30.051 81.162l16.47 73.266s32.162-1.047 59.222.028c6.503.259 11.2-1.71 14.591-4.847-2.09-4.835-4.114-9.699-6.004-14.616Z" class="colorfec0b7 svgShape"></path><path fill="#c5e3f6" d="M310.167 295.967s-63.917-29.285-69.704 27.038c0 0-.008 0 0 .007-.945 9-21.482-29.284-21.482-29.284s11.566-128.043 29.641-114.341c4.277 3.243 9.982 11.477 16.186 22.158a27.725 27.725 0 0 0-9.915 1.413 20.08 20.08 0 0 1 7.646 12.259c.543 2.893.469 5.988 1.815 8.613 1.25 2.425 3.548 4.114 5.274 6.226.863 1.049 1.577 2.604.751 3.675-1.227 1.584-4.06.067-5.683 1.242-1.182.863-1.056 2.693-.505 4.046a10.345 10.345 0 0 0 9.275 6.293 3.996 3.996 0 0 0 2.73-.81 2.883 2.883 0 0 0 .692-2.745c2.9 10.19 11.544 17.51 19.615 24.367.282.238.572.484.855.73 7.58 16.736 12.809 29.113 12.809 29.113Z" class="colorfecec8 svgShape"></path><path fill="#feb7d7" d="M247.965 333.81s-62.791-91.95-77.251-88.816c-8.621 1.869-14.671 41.388-18.153 73.001a180.422 180.422 0 0 0 11.703 14.655c15.542 17.649 33.457 34.027 42.99 55.525a83.987 83.987 0 0 1 5.754 18.6c6.607 3.855 11.998 6.069 14.992 5.437 13.856-2.921 19.965-78.401 19.965-78.401Z" class="colorfec0b7 svgShape"></path><path fill="#c5e3f6" d="M537.225 488.267a68.532 68.532 0 0 0 13.633-13.608c6.04-8.33 9.757-18.19 11.749-28.286 4.953-25.114-.557-51.221-9.445-75.227-7.735-20.894-17.99-40.763-26.574-61.317-20.867-14.166-42.118-20.026-52.481-13.342-10.323 6.658-11.22 26.641-9.027 54.129h1.034a120.043 120.043 0 0 0 15.412 35.782l-2.39 1.463 44.86 79.477ZM254.568 315.104c.193.99 7.37 50.301 7.571 51.29q1.953 9.473 4.552 18.79c2.767 9.93 6.085 19.703 8.39 29.745 3.929 17.044 2.933 52.759-.065 79.381l-.017.144c-15.222 1.345-30.92 4.46-45.3 10.004-33.01-2.317-24.061-27.835-22.496-38.798s5.144-21.57 6.57-32.55a83.906 83.906 0 0 0 .37-17.976 113.275 113.275 0 0 0 11.465-43.669c1.712-26.92-5.35-47.829 6.427-55.697Z" class="colorfecec8 svgShape"></path><path fill="#fc5c9c" d="M382.039 371.408q1.214 6.366 2.156 12.778l-.003-.022c-5.979 2.436-12.368 1.02-18.685 2.673l9.226-10.386ZM355.27 349.774a40.819 40.819 0 0 0 5.607-3.698c3.8-2.89 8.49-6.782 13.089-8.063l-.163-.566c-6.367-22.007-14.41-43.646-22.65-65.009a27.194 27.194 0 0 1-2.19-8.05c-.209-3.52.958-6.96 2.11-10.293l10.978-31.776-.158.445 1.069-7.833-.568-1.513a51.57 51.57 0 0 1-22.064 19.648 2.01 2.01 0 0 1-1.031.265c-.72-.076-1.126-.843-1.42-1.505a56.086 56.086 0 0 0-2.677-5.236h-.04c-3.818 5.44-3.854 14.529-1.68 20.809s5.288 11.341 5.9 17.96a28.3 28.3 0 0 1 2.249 3.153 40.746 40.746 0 0 1 4.678 12.294 147.045 147.045 0 0 1 2.638 18.894c.837 8.745 1.675 17.528 1.205 26.3a88.466 88.466 0 0 1-1.277 10.96Z" class="colorfe8f83 svgShape"></path><path fill="#fccde2" d="M454.904 288.99c-7.862-24.207-15.127-49.537-31.66-68.887-4.692-5.493-10.404-10.588-17.438-12.24-7.348-1.725-16.424.022-21.348-5.698l1.302 3.016c.637.102 1.266.22 1.882.366 7.033 1.651 12.745 6.746 17.438 12.239 16.532 19.35 23.798 44.68 31.66 68.886 6.162 18.975 13.047 38.537 10.845 58.366-1.099 9.892-4.444 19.45-5.291 29.368-.512 5.989-.12 12.138-1.863 17.89-1.053 3.477-2.858 6.7-3.791 10.21-2.306 8.678.96 17.83.56 26.8a6.586 6.586 0 0 1-.802 3.313c-1.207 1.874-3.752 2.231-5.976 2.38q-5.501.367-11.014.52a17.37 17.37 0 0 0 .327 2.258 285.12 285.12 0 0 0 28.852-.461c2.223-.149 4.769-.506 5.976-2.38a6.586 6.586 0 0 0 .802-3.313c.4-8.97-2.866-18.122-.56-26.8.932-3.511 2.738-6.733 3.791-10.21 1.743-5.753 1.351-11.901 1.863-17.89.847-9.918 4.192-19.476 5.29-29.368 2.203-19.83-4.682-39.39-10.845-58.366ZM376.607 471.52c-22.181-7.49-29.925-54.159-63.3-69.898-33.368-15.747-46.192-89.073-46.192-89.073-8.762-2.202-15.42 11.403-20.373 29.976a86.463 86.463 0 0 0 15.397 23.87q1.953 9.472 4.552 18.788c2.767 9.93 6.085 19.704 8.39 29.746 3.936 17.075 2.93 52.888-.082 79.525 26.124-2.21 42.865-.853 69.194 2.987 13.632-3.254 18.706-9.637 22.518-12.135 14.243-9.334 9.896-13.786 9.896-13.786Z" class="colorffd9d7 svgShape"></path><path fill="#fd4d93" d="M363.871 210.714a27.548 27.548 0 0 0 1.262-3.109 5.568 5.568 0 0 0-5.632-6.909c-1.178.049-2.308.468-3.477.63a3.668 3.668 0 0 1-3.276-.885h-.477c3.15 3.003 6.448 6.243 9.746 9.483a3.03 3.03 0 0 1 .996 1.473Z" class="colorfd544d svgShape"></path><path fill="#fc5c9c" d="M537.225 488.267c-20.309-29.232-39.467-71.939-58.089-100.406-7.9 5.207-15.576 10.488-23.37 15.844l-.96 1.116c-2.306 8.68.96 17.829.558 26.8a6.583 6.583 0 0 1-.804 3.317 5.089 5.089 0 0 1-2.99 1.95c.513 7.742.759 16.646 1.606 24.36a15.09 15.09 0 0 1-1.247 6.904c1.58 1.193 19.715 25.105 30.57 39.977a168.614 168.614 0 0 0 20.492-4.118c12.158-3.262 24.212-8.282 34.234-15.744Zm-45.481-.51c-.826.194-1.904-.089-2.083-.914a2.15 2.15 0 0 1 .12-.99l1.182-4.061c-.915-.134-1.711.55-2.551.945-.834.386-2.157.26-2.291-.655-.112-.759.721-1.331.848-2.09-.44-.179-.87-.365-1.31-.55a1.68 1.68 0 0 1 1.741-1.399 118 118 0 0 1 10.74-11.663c.804-.759 1.816-1.562 2.887-1.317q-.268 2.076-.565 4.143a35.998 35.998 0 0 1 4.515-2.923c.394-.216.892-.424 1.264-.17.38.26.357.817.298 1.271a524.694 524.694 0 0 1-.454 3.34 17.818 17.818 0 0 1 6.218-3.853c.73.907-.156 2.194-.996 2.998q-8.279 7.943-16.55 15.873a6.966 6.966 0 0 1-3.013 2.015Z" class="colorfe8f83 svgShape"></path><path fill="#fe5599" d="M295.644 177.603a18.99 18.99 0 0 0-.287-3.676c-.046-1.233.547-2.696 1.768-2.871 1.52-.217 2.46 1.606 3.815 2.326 1.882 1 4.122-.287 5.845-1.54q6.344-4.62 12.481-9.514c.848-.676 1.902-1.398 2.928-1.048a3.019 3.019 0 0 1 1.43 1.363c2.146 3.366 4.108 7.98 8.099 8.042.37-1.798-.873-3.471-1.758-5.078s-1.294-3.961.218-5.002c.43-.296.952-.426 1.4-.694 1.934-1.159 1.507-4.263-.075-5.87s-3.85-2.3-5.754-3.508a56.282 56.282 0 0 1-4.671-3.82c-6.641-5.296-15.7-6.067-24.177-6.621-3.99-.26-8.537-.32-11.314 2.557-2.264 2.346-2.802 6.192-5.565 7.922-1.218.764-2.726.999-3.881 1.854-2.489 1.844-2.317 5.552-3.497 8.416-1.445 3.51-5.21 6.569-4.22 10.233.46 1.705 1.91 3.01 2.361 4.718.868 3.287-2.127 7.189-.117 9.932.96 1.31 2.821 1.834 3.53 3.296a9.288 9.288 0 0 1 .465 2.884 6.188 6.188 0 0 0 10.737 3.316c2.296-2.555 2.151-6.566 4.181-9.337 1.171-1.6 2.958-2.631 4.3-4.09 1.342-1.458 2.188-3.769 1.758-4.19Z" class="colorfe6c55 svgShape"></path><path fill="#fd4d93" d="M286.754 194.114a56.994 56.994 0 0 1 9.167 6.702c1.425 1.25 2.776 2.616 4.08 3.966a24.345 24.345 0 0 0 4.062 3.608 22.029 22.029 0 0 0 4.87 2.308 50.332 50.332 0 0 0 5.322 1.573 37.365 37.365 0 0 0 16.648.295 8.45 8.45 0 0 0 2.532-.924 6.042 6.042 0 0 0 1.887-1.788 13.56 13.56 0 0 0 1.863-5.032 81.55 81.55 0 0 0 .928-5.504 79.359 79.359 0 0 0 .766-11.116c.004-3.675-.24-7.393-1.987-10.391l-.406-.698.559-.548c.773-.758 1.597-1.357 2.218-1.986a4.902 4.902 0 0 0 1.292-2.176 4.341 4.341 0 0 0-.089-2.509c-.23-.942-.527-1.876-.839-2.814a35.005 35.005 0 0 0-2.256-5.464 8.875 8.875 0 0 0-1.735-2.288 2.307 2.307 0 0 0-2.551-.581l-.114-.165a1.95 1.95 0 0 1 1.545-.346 3.94 3.94 0 0 1 1.47.627 9.336 9.336 0 0 1 2.161 2.264 35.888 35.888 0 0 1 2.803 5.444 27.36 27.36 0 0 1 1.077 2.89 9.307 9.307 0 0 1 .373 1.606 4.502 4.502 0 0 1-.116 1.808 6.8 6.8 0 0 1-1.62 3.019c-.76.83-1.544 1.449-2.19 2.11l.152-1.245a15.41 15.41 0 0 1 2.027 5.656 32.04 32.04 0 0 1 .321 5.811 77.015 77.015 0 0 1-1.127 11.365 74.183 74.183 0 0 1-1.238 5.574 14.945 14.945 0 0 1-2.45 5.317 7 7 0 0 1-2.314 1.916 10.503 10.503 0 0 1-2.802.861 55.74 55.74 0 0 1-5.65.653 55.13 55.13 0 0 1-11.374-.398 42.78 42.78 0 0 1-5.609-1.219 19.539 19.539 0 0 1-5.345-2.415 24.566 24.566 0 0 1-4.28-3.962 104.813 104.813 0 0 0-3.815-4.101 105.088 105.088 0 0 0-8.33-7.538Z" class="colorfd544d svgShape"></path><path fill="#fe5599" d="M332.705 347.172c-1.376 2.008-3.786 3.607-6.152 3.042-2.008-.476-3.362-2.313-4.492-4.039-6.673-10.198-12.184-21.154-19.474-30.913-7.297-9.76-16.773-18.477-28.466-21.899-1.986-.58-4.396-.907-5.884.528-1.272 1.228-1.31 3.221-1.175 4.984.342 4.567 1.25 9.246.052 13.672-1.004 3.719-3.407 6.895-4.902 10.443-2.529 5.966-2.395 12.682-2.06 19.154q.636 12.195 2.06 24.33c-.022-.03-.052-.052-.074-.081a86.468 86.468 0 0 1-15.397-23.87 101.499 101.499 0 0 1-6.278-19.51c-.008-.008 0-.008 0-.008a102.7 102.7 0 0 1-1.175-6.33c-2.827-18.32-1.154-37.14 3.02-55.207a12.176 12.176 0 0 1-12.296-8.42 23.55 23.55 0 0 1-.484-7.952q.324-6.36.662-12.727c.201-3.815.41-7.698 1.696-11.298 3.519-9.849 14-15.212 22.94-18.165.022.015.044.038.067.052a20.08 20.08 0 0 1 7.646 12.259c.543 2.893.469 5.988 1.815 8.613 1.25 2.425 3.548 4.114 5.274 6.226.863 1.049 1.577 2.604.751 3.675-1.227 1.584-4.06.067-5.683 1.242-1.182.863-1.056 2.693-.505 4.046a10.345 10.345 0 0 0 9.275 6.293 3.996 3.996 0 0 0 2.73-.81 2.883 2.883 0 0 0 .692-2.745c2.9 10.19 11.544 17.51 19.615 24.367.282.238.573.484.855.73 7.795 6.679 15.68 14.303 17.621 24.33 1.05 5.415.246 11.113 1.756 16.416 2.075 7.268 8.093 12.593 12.63 18.64 4.537 6.04 7.632 14.706 3.34 20.932Z" class="colorfe6c55 svgShape"></path><path fill="#fd4d93" d="M253.668 215.727a15.875 15.875 0 0 1 .493 6.843 19.315 19.315 0 0 1-2.213 6.602 28.026 28.026 0 0 1-4.067 5.553 37.484 37.484 0 0 1-5.051 4.55c1.213-1.931 2.56-3.727 3.84-5.534a54.676 54.676 0 0 0 3.522-5.523 23.796 23.796 0 0 0 1.395-2.906 24.19 24.19 0 0 0 1.05-3.05 32.836 32.836 0 0 0 1.03-6.535ZM257.852 258.578l4.432-1.035a65.036 65.036 0 0 0 8.385-2.708l4.202-1.749a13.566 13.566 0 0 1-3.481 3.133 18.075 18.075 0 0 1-8.882 2.863 13.633 13.633 0 0 1-4.656-.504ZM241.96 261.755a6.674 6.674 0 0 1 1.42-.99 8.74 8.74 0 0 1 1.387-.582 8.47 8.47 0 0 1 1.466-.334 6.555 6.555 0 0 1 1.732-.016 3.51 3.51 0 0 1-1.087 1.45 4.597 4.597 0 0 1-1.501.804 4.655 4.655 0 0 1-1.69.215 3.538 3.538 0 0 1-1.726-.547Z" class="colorfd544d svgShape"></path><path fill="#fd4d93" d="M246.252 261.11c1.848 2.937 3.761 5.772 5.841 8.47a82.631 82.631 0 0 0 14.302 14.44c2.679 2.105 5.494 4.047 8.411 5.926a41.84 41.84 0 0 1-9.322-4.66 50.35 50.35 0 0 1-14.662-14.81 41.972 41.972 0 0 1-4.57-9.366ZM271.68 266.367a85.318 85.318 0 0 0 9.207 8.632c3.249 2.664 6.591 5.236 9.866 7.946a69.747 69.747 0 0 1 9.15 8.966 32.282 32.282 0 0 1 6.249 11.139 46.17 46.17 0 0 0-7.42-10.106 107.304 107.304 0 0 0-9.26-8.465c-3.217-2.713-6.53-5.37-9.616-8.316a46.862 46.862 0 0 1-8.175-9.796ZM249.423 284.925a29.539 29.539 0 0 1 1.682 11.15c-.044 3.787-.54 7.516-.945 11.203a74.953 74.953 0 0 0-.65 10.997 29.645 29.645 0 0 0 2.19 10.753 22.195 22.195 0 0 1-3.746-10.64 50.941 50.941 0 0 1 .22-11.339c.45-3.723 1.022-7.387 1.379-11.056a45.628 45.628 0 0 0-.13-11.068ZM243.537 262.058c-6.414-1.577-13.862-1.048-18.68 3.47-.617.578-1.128 1.709-.396 2.131a1.334 1.334 0 0 0 .857.082 18.604 18.604 0 0 0 3.67-1.076 74.562 74.562 0 0 1 11.412-3.513c-3.655 1.483-4.143 2.497-7.184 5.01a18.629 18.629 0 0 0-6.453 9.675 2.7 2.7 0 0 0 .268 2.44c.877.985 2.513.38 3.555-.43 5.778-4.49 7.353-12.894 12.95-17.789ZM292.84 233.565a22.744 22.744 0 0 0 6.285-6.08l2.712-3.548c.89-1.166 1.903-2.37 2.716-3.485a3.471 3.471 0 0 0 .687-3.398 6.68 6.68 0 0 0-2.415-3.146 107.877 107.877 0 0 0-7.374-5.01l.442-.149a6 6 0 0 1-4.182 3.775l-.677.152.238-.684a12.022 12.022 0 0 0 .532-5.782l1.105.424a5.984 5.984 0 0 1-2.52 1.629 2.586 2.586 0 0 1-1.857-.163 2.735 2.735 0 0 1-1.26-1.372c-.442-1.032-.483-1.935-.786-2.491a1.617 1.617 0 0 0-1.4-.854c-1.35-.197-2.695.77-4.452 1.577a9.868 9.868 0 0 1-5.82.653 23.582 23.582 0 0 1-5.13-2.043 16.593 16.593 0 0 0-4.874-1.258 30.893 30.893 0 0 0-10.385.905l-.06-.19a25.753 25.753 0 0 1 10.546-2.241 16.743 16.743 0 0 1 5.478 1.032 27.074 27.074 0 0 0 4.799 1.73 8.393 8.393 0 0 0 4.606-.542c.741-.312 1.532-.738 2.437-1.102a5.914 5.914 0 0 1 3.114-.45 4.052 4.052 0 0 1 1.628.596 3.237 3.237 0 0 1 1.186 1.396 24.654 24.654 0 0 1 .697 2.61.942.942 0 0 0 1.173.697 5.175 5.175 0 0 0 1.989-1.103l1.036-.846.07 1.27a13.557 13.557 0 0 1-1.12 6.208l-.439-.532a4.956 4.956 0 0 0 3.763-3.216l.127-.343.314.193q1.907 1.171 3.85 2.282c1.305.742 2.616 1.404 3.93 2.228a7.875 7.875 0 0 1 3.262 3.588 4.826 4.826 0 0 1 .295 2.657 6.097 6.097 0 0 1-1.09 2.356 173.469 173.469 0 0 1-5.829 6.88 18.176 18.176 0 0 1-7.266 5.372Z" class="colorfd544d svgShape"></path><path fill="#fd4d93" d="M298.778 228.634a29.58 29.58 0 0 1 1.817 3.442 76.21 76.21 0 0 1 2.848 7.016 29.116 29.116 0 0 1 1.09 3.737 14.626 14.626 0 0 1-2.494-3.055 21.729 21.729 0 0 1-2.92-7.211 14.738 14.738 0 0 1-.341-3.929ZM305.875 183.711a23.028 23.028 0 0 1 2.129 3.682 39.591 39.591 0 0 1 1.606 3.866 9.117 9.117 0 0 0 1.61 3.296 2.695 2.695 0 0 0 1.446.768 2.039 2.039 0 0 0 1.793-.42 2.12 2.12 0 0 1-1.773 1.401 3.401 3.401 0 0 1-2.442-.532 7.319 7.319 0 0 1-2.519-3.845 39.522 39.522 0 0 1-1.186-4.015 23.028 23.028 0 0 1-.664-4.2ZM322.176 176.881a3.842 3.842 0 0 1 .672 1.453 4.65 4.65 0 0 1 .105 1.409 4.563 4.563 0 0 1-.322 1.374 3.797 3.797 0 0 1-.894 1.33 3.797 3.797 0 0 1-.674-1.454 4.563 4.563 0 0 1-.103-1.408 4.65 4.65 0 0 1 .325-1.374 3.841 3.841 0 0 1 .891-1.33ZM324.537 177.394a3.099 3.099 0 0 1 .9 1.384 3.926 3.926 0 0 1 .18 1.51 3.876 3.876 0 0 1-.403 1.467 3.075 3.075 0 0 1-1.1 1.233 5.316 5.316 0 0 1-.447-1.515 6.076 6.076 0 0 1-.043-1.335 6.26 6.26 0 0 1 .246-1.314 5.414 5.414 0 0 1 .667-1.43ZM301.138 198.505a3.163 3.163 0 0 1 .876-.865 2.492 2.492 0 0 1 .872-.357 2.433 2.433 0 0 1 .94.005 3.123 3.123 0 0 1 1.136.482 2.232 2.232 0 0 1-1.699 1.477 2.247 2.247 0 0 1-2.125-.742Z" class="colorfd544d svgShape"></path><path fill="#fd4d93" d="M301.92 200.49a2.574 2.574 0 0 1 .747-.985 2.28 2.28 0 0 1 .88-.432 2.238 2.238 0 0 1 .978-.015 2.552 2.552 0 0 1 1.113.542 2.551 2.551 0 0 1-.747.987 2.24 2.24 0 0 1-.88.43 2.28 2.28 0 0 1-.98.013 2.574 2.574 0 0 1-1.111-.54ZM284.67 239.248a7.375 7.375 0 0 1 2.307-1.479 7.236 7.236 0 0 1 2.69-.514 2.622 2.622 0 0 1-.681 1.493 3.37 3.37 0 0 1-1.269.878 3.403 3.403 0 0 1-1.525.234 2.641 2.641 0 0 1-1.521-.612ZM275.532 220.419a2.745 2.745 0 0 1 .518-1.245 3.14 3.14 0 0 1 .854-.786 3.083 3.083 0 0 1 1.081-.421 2.716 2.716 0 0 1 1.347.088 3.22 3.22 0 0 1-.553 1.27 2.91 2.91 0 0 1-.82.76 2.967 2.967 0 0 1-1.045.396 3.25 3.25 0 0 1-1.382-.062ZM277.48 221.917a2.374 2.374 0 0 1 .196-1.143 1.862 1.862 0 0 1 .544-.695 1.826 1.826 0 0 1 .806-.355.79.79 0 1 1 .963 1.244 1.826 1.826 0 0 1-.545.692 1.863 1.863 0 0 1-.808.353 2.373 2.373 0 0 1-1.156-.096ZM268.68 205.14c-.078 1.143-.192 2.17-.239 3.19a30.894 30.894 0 0 0-.035 2.996c.038.989.116 1.975.242 2.982.067.494.134 1.033.215 1.517a2.292 2.292 0 0 0 .193.666.726.726 0 0 0 .533.453.871.871 0 0 1-.917-.053 2.484 2.484 0 0 1-.7-.653 8.988 8.988 0 0 1-.838-1.507 9.442 9.442 0 0 1-.726-3.338 9.327 9.327 0 0 1 .497-3.376 7.215 7.215 0 0 1 1.775-2.877ZM272.003 208.116a8.66 8.66 0 0 1 2.616-.821l.36-.063.371.505a6.087 6.087 0 0 1 1.163 3.506 5.428 5.428 0 0 1-.282 1.835 4.127 4.127 0 0 1-.943 1.6c-.133-.623-.227-1.177-.325-1.71l-.31-1.534a30.882 30.882 0 0 0-.773-2.916l.731.442a8.66 8.66 0 0 1-2.608-.844ZM314.498 257.117c1.687 3.92 4.26 7.294 6.789 10.71a85.326 85.326 0 0 1 6.77 10.89 86.352 86.352 0 0 1 5.077 11.806c1.397 4.053 2.515 8.17 3.689 12.244a240.836 240.836 0 0 0 8.082 24.043q4.693 11.797 10.477 23.175a167.23 167.23 0 0 1-11.918-22.575 184.626 184.626 0 0 1-8.564-24.098c-1.14-4.1-2.245-8.186-3.555-12.187a96.256 96.256 0 0 0-4.679-11.714 99.648 99.648 0 0 0-6.184-11.034c-2.245-3.578-4.719-7.17-5.984-11.26Z" class="colorfd544d svgShape"></path><path fill="#fd4d93" d="M333.296 353.87a12.64 12.64 0 0 1 5.04-2.693 16.312 16.312 0 0 1 5.79-.36 20.553 20.553 0 0 0 5.382-.032 17.036 17.036 0 0 0 5.004-1.747c3.232-1.615 6.111-3.99 9.232-6.136a45.256 45.256 0 0 1 4.856-2.986 18.717 18.717 0 0 1 5.366-1.903c-3.49 1.458-6.379 3.809-9.284 6.138a176.662 176.662 0 0 1-4.397 3.547 34.964 34.964 0 0 1-4.868 3.122 18.189 18.189 0 0 1-5.626 1.832 19.378 19.378 0 0 1-5.84-.29 17.638 17.638 0 0 0-5.42-.228 15.076 15.076 0 0 0-5.235 1.735Z" class="colorfd544d svgShape"></path><path fill="#fd4d93" d="M361.435 345.65a39.416 39.416 0 0 1 2.656 4.636 141.254 141.254 0 0 1 2.307 4.799c1.493 3.216 2.861 6.482 4.221 9.747l3.938 9.815c.167.392.344.808.52 1.135.02.066.134.185.016.085a.404.404 0 0 0-.114-.06.681.681 0 0 0-.31-.059.633.633 0 0 0-.344.129l.07-.044.141-.088.568-.347 2.28-1.374c1.537-.893 3.07-1.792 4.655-2.616-1.329 1.187-2.71 2.3-4.086 3.417l-2.09 1.642-.525.407-.132.1-.066.05a.809.809 0 0 1-.736.07 1.09 1.09 0 0 1-.18-.11 1.867 1.867 0 0 1-.378-.446c-.281-.43-.482-.818-.699-1.222-1.65-3.194-3.006-6.455-4.378-9.726-1.324-3.286-2.614-6.582-3.809-9.915-.61-1.661-1.185-3.336-1.768-5.008-.579-1.675-1.107-3.365-1.757-5.017ZM275.016 494.31c.27-3.95.57-7.892.783-11.84l.296-5.921c.103-1.974.206-3.946.274-5.92.305-7.896.411-15.794.388-23.682a229.818 229.818 0 0 0-1.272-23.575 83.734 83.734 0 0 0-2.09-11.548c-.937-3.823-2.001-7.621-3.1-11.415-2.121-7.608-4.383-15.221-6.084-22.964-.835-3.876-1.65-7.746-2.27-11.667l-1.487-11.775-5.886-47.097 6.059 47.075 1.53 11.765c.807 3.856 1.846 7.685 2.882 11.493 2.058 7.63 4.484 15.137 6.876 22.69 1.144 3.792 2.257 7.601 3.246 11.451a85.768 85.768 0 0 1 2.26 11.76 195.097 195.097 0 0 1 1.127 23.802c.007 7.933-.384 15.855-.962 23.755q-.409 5.927-1.071 11.833a296.819 296.819 0 0 1-1.5 11.78ZM274.7 364.535c-.12 2.472-.339 4.893-.405 7.291a37.992 37.992 0 0 0 .386 7.08 23.548 23.548 0 0 0 2.054 6.66 19.157 19.157 0 0 0 4.23 5.727 12.87 12.87 0 0 1-5.587-4.956 18.555 18.555 0 0 1-2.672-7.12 25.098 25.098 0 0 1 .04-7.528 31.399 31.399 0 0 1 1.954-7.154ZM271.41 333.92a14.722 14.722 0 0 1-.867-3.905 12.608 12.608 0 0 1 .265-4.07 9.21 9.21 0 0 1 1.86-3.752 5.95 5.95 0 0 1 3.482-2.165 12.042 12.042 0 0 0-2.189 3.037 15.79 15.79 0 0 0-1.21 3.35c-.281 1.167-.478 2.38-.654 3.637a31.857 31.857 0 0 1-.686 3.867Z" class="colorfd544d svgShape"></path><path fill="#fd4d93" d="M288.415 398.085a24.647 24.647 0 0 1 5.975-.817 39.436 39.436 0 0 1 6.046.475c3.995.659 7.88 1.76 11.738 2.763 1.932.495 3.864.944 5.797 1.332a46.072 46.072 0 0 0 5.838.72 46.953 46.953 0 0 0 11.71-.795 52.924 52.924 0 0 0 11.255-3.44 47.702 47.702 0 0 0 5.266-2.63 77.25 77.25 0 0 0 4.965-3.236 103.064 103.064 0 0 0 9.25-7.528 111.593 111.593 0 0 0 4.348-4.12 162.85 162.85 0 0 0 4.13-4.358 88.878 88.878 0 0 1-16.799 17.26 60.066 60.066 0 0 1-4.99 3.483 49.614 49.614 0 0 1-5.41 2.864 53.417 53.417 0 0 1-11.644 3.669 47.658 47.658 0 0 1-12.207.716 55.329 55.329 0 0 1-11.925-2.439c-3.855-1.143-7.632-2.43-11.505-3.304a38.69 38.69 0 0 0-5.876-.905 29.33 29.33 0 0 0-5.962.29Z" class="colorfd544d svgShape"></path><path fill="#fd4d93" d="M325.988 396.227a10.207 10.207 0 0 1 2.436-.82 16.559 16.559 0 0 1 2.42-.327 16.204 16.204 0 0 1 2.443.029 10.056 10.056 0 0 1 2.517.523 8.153 8.153 0 0 1-2.375 1.043 12.059 12.059 0 0 1-2.463.4 12.232 12.232 0 0 1-2.495-.102 8.24 8.24 0 0 1-2.483-.746ZM291.085 434.881c.775 3.263 1.625 6.457 2.66 9.582a84.72 84.72 0 0 0 8.302 17.8c1.73 2.802 3.628 5.506 5.628 8.2a40.999 40.999 0 0 1-6.918-7.321 49.636 49.636 0 0 1-8.509-18.257 41.137 41.137 0 0 1-1.163-10.004ZM303.134 449.02l2.303 4.536a93.006 93.006 0 0 0 5.031 8.55l2.842 4.218a17.285 17.285 0 0 1-4.06-3.245 23.047 23.047 0 0 1-5.251-8.934 17.37 17.37 0 0 1-.865-5.125ZM344.63 497.441a65.955 65.955 0 0 0 14.096-6.933 86.694 86.694 0 0 0 12.368-9.604q1.43-1.337 2.797-2.735c.464-.458.894-.948 1.347-1.416l.336-.354c.117-.126.229-.235.285-.314a3.936 3.936 0 0 0 .411-.689 2.981 2.981 0 0 0-.112-2.94c-.232-.373-.751-.993-1.131-1.515-.39-.555-.784-1.108-1.14-1.685a44.207 44.207 0 0 1-5.61-15.048 146.8 146.8 0 0 1-1.81-15.792c-.202-2.621-.421-5.232-.74-7.823q-.501-3.88-1.211-7.752c-1.885-10.298-4.52-20.659-4.684-31.24a114.879 114.879 0 0 0 2.667 15.534c1.153 5.129 2.469 10.228 3.56 15.402a121.955 121.955 0 0 1 2.304 15.715 152.77 152.77 0 0 0 1.87 15.575 43.31 43.31 0 0 0 5.244 14.44c.324.552.686 1.077 1.043 1.606.382.552.728.933 1.193 1.676a4.875 4.875 0 0 1 .653 2.3 4.698 4.698 0 0 1-.547 2.316 5.576 5.576 0 0 1-.624.99 5.473 5.473 0 0 1-.383.412l-.35.357c-.47.47-.927.953-1.413 1.408q-1.432 1.389-2.929 2.705c-7.966 6.984-17.282 12.65-27.49 15.404Z" class="colorfd544d svgShape"></path><path fill="#fd4d93" d="M364.857 420.553a1.776 1.776 0 0 0 1.284.232 3.442 3.442 0 0 0 1.184-.546c.738-.497 1.388-1.14 2.175-1.676a13.19 13.19 0 0 1 5.23-2.128 1.213 1.213 0 0 0 .435-.13c.042-.046-.006 0 .004-.052a3.533 3.533 0 0 0-.349-.976 61.996 61.996 0 0 0-1.109-2.474 215.555 215.555 0 0 0-2.384-4.9 108.517 108.517 0 0 1-4.599-10.036 42.41 42.41 0 0 1-1.59-5.389 26.667 26.667 0 0 1-.495-5.658l.015-.663.63-.156a27.01 27.01 0 0 1 4.824-.662c1.603-.103 3.192-.088 4.767-.101a30.99 30.99 0 0 0 9.313-1.074 18.45 18.45 0 0 1-4.52 1.538 41.57 41.57 0 0 1-4.737.655c-1.58.144-3.15.27-4.692.448a29.857 29.857 0 0 0-4.517.868l.645-.82a30.18 30.18 0 0 0 2.214 10.315c1.277 3.352 2.873 6.615 4.393 9.945.755 1.667 1.53 3.335 2.2 5.054.348.853.67 1.72.981 2.59a3.65 3.65 0 0 1 .352 1.646 1.363 1.363 0 0 1-.726 1.039 2.412 2.412 0 0 1-.883.219 13.348 13.348 0 0 0-5.02 1.522c-.77.42-1.515.976-2.356 1.403a3.374 3.374 0 0 1-1.361.407 1.884 1.884 0 0 1-1.308-.44Z" class="colorfd544d svgShape"></path><path fill="#fd4d93" d="M367.638 397.467a22.536 22.536 0 0 0 4.542.388c1.492-.004 2.981-.112 4.47-.247 1.492-.146 2.978-.304 4.46-.553 1.483-.246 2.989-.58 4.58-.782a15.987 15.987 0 0 1-4.177 2.289 18.293 18.293 0 0 1-4.679 1.037 17.334 17.334 0 0 1-4.802-.196 9.109 9.109 0 0 1-4.394-1.936ZM324.993 213.695a137.147 137.147 0 0 1-4.106 17.532 80.876 80.876 0 0 1-3.178 8.47q-.906 2.08-1.997 4.081c-.348.674-.738 1.326-1.124 1.981-.378.668-.804 1.286-1.071 1.88a2.294 2.294 0 0 0 .697 3.053 10.116 10.116 0 0 0 3.783 1.55 45.279 45.279 0 0 1 8.726 2.692 34.764 34.764 0 0 1 14.474 11.156 31.84 31.84 0 0 1 4.247 8.201 58.81 58.81 0 0 1 2.325 8.829 175.311 175.311 0 0 1 2.095 17.937c.498 5.974.934 11.98.903 18a86.985 86.985 0 0 1-1.892 17.902q.635-4.452.877-8.932c.151-2.985.147-5.973.028-8.955-.202-5.968-.844-11.912-1.476-17.867-.668-5.955-1.205-11.912-2.4-17.721-1.161-5.786-2.868-11.553-6.32-16.218a33.222 33.222 0 0 0-13.612-10.61 43.461 43.461 0 0 0-8.383-2.726 11.291 11.291 0 0 1-4.418-1.957 4.064 4.064 0 0 1-1.464-2.32 4.156 4.156 0 0 1 .422-2.67c.375-.763.829-1.369 1.2-1.997.391-.626.786-1.25 1.142-1.899.372-.64.732-1.286 1.068-1.947q.53-.976 1.007-1.983a84.781 84.781 0 0 0 3.437-8.236 161.109 161.109 0 0 0 5.01-17.226Z" class="colorfd544d svgShape"></path><path fill="#fd4d93" d="M335.163 226.59a22.049 22.049 0 0 0-2.278 9.603 32.245 32.245 0 0 0 1.167 9.701c.45 1.532 1.05 3.125 1.66 4.672.58 1.573 1.234 3.133 1.786 4.748a27.283 27.283 0 0 1 1.884 10.044 47.275 47.275 0 0 0-3.356-9.454 76.011 76.011 0 0 1-3.887-9.463 27.008 27.008 0 0 1-.783-10.367 17.337 17.337 0 0 1 3.807-9.483Z" class="colorfd544d svgShape"></path><path fill="#fd4d93" d="M324.993 213.695a48.67 48.67 0 0 1 7.442 8.31 58.683 58.683 0 0 1 5.633 9.662c.345.824.908 1.677 1.7 1.344.792-.333 1.653-.79 2.46-1.21a50.95 50.95 0 0 0 4.742-2.873 51.755 51.755 0 0 0 8.407-7.183 52.626 52.626 0 0 0 6.67-8.784 3.078 3.078 0 0 0 .44-1.088 1.19 1.19 0 0 0-.271-.914 8.445 8.445 0 0 0-.9-.94l-1.005-.966-4.021-3.868c-2.7-2.575-5.296-5.211-8.171-7.538-2.849-2.376-5.785-4.642-8.69-7.005a.708.708 0 0 1 .786-1.17l.018.01a26.48 26.48 0 0 0 8.567 2.688 25.413 25.413 0 0 0 8.942-.05c1.435-.337 2.977-.834 4.579-1.069a8.258 8.258 0 0 1 5.045.548 5.714 5.714 0 0 1 2.051 1.754 6.345 6.345 0 0 1 1.035 2.453 12.356 12.356 0 0 1-.211 4.96 39.545 39.545 0 0 1-1.386 4.532l-1.507 4.39-3.016 8.783-6.03 17.565-6.031 17.565a37.17 37.17 0 0 0-2.288 8.722c-.296 2.898.573 5.742 1.656 8.603 4.424 11.551 8.81 23.154 12.895 34.854 4.09 11.7 7.902 23.507 11.212 35.463a351.407 351.407 0 0 1 8.034 36.325c1.02 6.119 1.798 12.277 2.407 18.45.185 1.54.278 3.089.39 4.636l.325 4.64c.205 3.078.26 6.196 1.354 9.012a8.221 8.221 0 0 0 2.55 3.573 9.892 9.892 0 0 0 4.099 1.75c3.005.59 6.092 1.044 9.135 1.573l4.58.766c1.525.256 3.048.511 4.584.641a17.976 17.976 0 0 0 4.607-.122 9.45 9.45 0 0 0 4.218-1.789 9.512 9.512 0 0 1-4.196 1.906 18.143 18.143 0 0 1-4.646.241c-1.551-.091-3.092-.306-4.622-.537l-4.593-.679c-3.066-.473-6.115-.86-9.195-1.404a10.534 10.534 0 0 1-4.395-1.792 8.963 8.963 0 0 1-2.855-3.833c-1.218-2.98-1.318-6.183-1.585-9.244-.297-3.075-.46-6.162-.835-9.229-.677-6.14-1.523-12.262-2.609-18.343a362.679 362.679 0 0 0-8.392-36.083c-3.342-11.897-7.188-23.652-11.313-35.309-4.122-11.662-8.537-23.21-13.014-34.764a32.039 32.039 0 0 1-1.436-4.561 15.925 15.925 0 0 1-.33-4.91 38.799 38.799 0 0 1 2.423-9.19l6.098-17.542 6.097-17.541 3.05-8.77 1.524-4.386a37.962 37.962 0 0 0 1.348-4.336 10.723 10.723 0 0 0 .222-4.252 4.15 4.15 0 0 0-2.182-3.034 6.764 6.764 0 0 0-4.034-.421c-1.469.198-2.89.637-4.47.996a26.87 26.87 0 0 1-9.525-.022 27.852 27.852 0 0 1-9.033-2.947l.804-1.16c2.848 2.362 5.784 4.672 8.629 7.09 1.418 1.212 2.843 2.446 4.175 3.765l3.982 3.919 3.981 3.918.995.98a9.094 9.094 0 0 1 1.01 1.091 2.303 2.303 0 0 1 .453 1.705 4.076 4.076 0 0 1-.595 1.484 50.714 50.714 0 0 1-6.94 8.863 52.56 52.56 0 0 1-8.673 7.133 51.594 51.594 0 0 1-4.856 2.817c-.851.42-1.642.833-2.571 1.2a1.418 1.418 0 0 1-1.536-.387 4.19 4.19 0 0 1-.756-1.269 59.84 59.84 0 0 0-5.416-9.704 48.532 48.532 0 0 0-7.224-8.462Z" class="colorfd544d svgShape"></path><path fill="#fd4d93" d="M365.892 192.095a34.595 34.595 0 0 1 11.778 4.214 32.742 32.742 0 0 1 5.16 3.698 11.07 11.07 0 0 1 3.564 5.508 12.99 12.99 0 0 1-.289 6.573 54 54 0 0 1-2.162 5.963c-1.568 3.858-3.197 7.68-4.703 11.54-1.545 3.843-2.972 7.723-4.188 11.661a93.207 93.207 0 0 0-1.652 5.95l-.678 3.036a10.19 10.19 0 0 1-1.198 3.153 6.627 6.627 0 0 1-2.589 2.318 9.748 9.748 0 0 1-3.192.968 27.066 27.066 0 0 1-6.36-.222 13.16 13.16 0 0 0-6.014.382 7.218 7.218 0 0 0-2.559 1.587 4.722 4.722 0 0 0-1.428 2.662 4.875 4.875 0 0 1 1.207-2.868 7.562 7.562 0 0 1 2.577-1.87 13.859 13.859 0 0 1 6.283-.87 26.634 26.634 0 0 0 6.085-.096 6.556 6.556 0 0 0 4.658-2.805 8.66 8.66 0 0 0 .89-2.694l.61-3.069a94.985 94.985 0 0 1 1.547-6.107c1.183-4.028 2.616-7.967 4.143-11.853 1.554-3.877 3.193-7.705 4.818-11.529a52.552 52.552 0 0 0 2.223-5.71 11.921 11.921 0 0 0 .457-5.746 9.864 9.864 0 0 0-2.948-4.916 32.562 32.562 0 0 0-4.777-3.816 37.042 37.042 0 0 0-11.263-5.042Z" class="colorfd544d svgShape"></path><path fill="#fd4d93" d="M392.937 221.812a18.74 18.74 0 0 0-2.725 6.366 27.54 27.54 0 0 0-.6 6.912 59.02 59.02 0 0 0 2.411 13.674c2.485 8.954 6.226 17.488 10.012 25.973 3.8 8.48 7.637 17.003 10.393 25.94a138.338 138.338 0 0 1 5.5 55.428c-.948 9.301-2.967 18.433-2.846 27.625a38.25 38.25 0 0 0 2.402 13.352 54.537 54.537 0 0 0 2.979 6.201 23.61 23.61 0 0 1 2.523 6.747 22.86 22.86 0 0 1 .084 7.228c-.307 2.368-.836 4.663-1.345 6.93-1.016 4.498-2.014 9.06-1.068 13.39l-.889-.743q9.5.31 19.007-.005 4.75-.156 9.492-.478a10.842 10.842 0 0 0 4.235-.873 3.13 3.13 0 0 0 1.31-1.22 4.838 4.838 0 0 0 .505-1.892 52.938 52.938 0 0 0-.382-9.31c-.345-3.141-.777-6.317-.901-9.562a29.417 29.417 0 0 1 1.077-9.754c.972-3.16 2.47-5.996 3.42-8.92 1.924-5.86 1.443-12.285 2.057-18.696.612-6.436 2.216-12.651 3.541-18.839.669-3.095 1.267-6.194 1.65-9.31.184-1.557.296-3.123.41-4.687.03-1.57.146-3.138.079-4.71a94.503 94.503 0 0 0-2.247-18.738c-2.595-12.379-6.896-24.376-10.677-36.519-3.848-12.112-7.693-24.238-12.872-35.817-5.18-11.524-11.684-22.654-20.625-31.658a34.184 34.184 0 0 0-7.551-5.665 24.222 24.222 0 0 0-4.353-1.831 27.847 27.847 0 0 0-4.643-.93c-3.144-.403-6.337-.499-9.48-1.047a18.759 18.759 0 0 1-4.564-1.378 11.252 11.252 0 0 1-3.798-2.831 11.213 11.213 0 0 0 3.828 2.767 18.653 18.653 0 0 0 4.558 1.302c3.136.5 6.321.548 9.49.905a28.153 28.153 0 0 1 4.71.873 24.604 24.604 0 0 1 4.45 1.795 34.672 34.672 0 0 1 7.742 5.63 57.551 57.551 0 0 1 3.351 3.426c1.078 1.18 2.054 2.442 3.078 3.667a96.88 96.88 0 0 1 5.62 7.745 125.02 125.02 0 0 1 9.165 16.787c5.31 11.612 9.269 23.753 13.218 35.833 1.96 6.048 4.001 12.063 5.935 18.135 1.926 6.07 3.74 12.198 5.076 18.458a96.208 96.208 0 0 1 2.336 19.067c.072 1.607-.041 3.216-.068 4.824-.112 1.605-.223 3.214-.408 4.812-.383 3.198-.985 6.35-1.65 9.47-1.32 6.24-2.883 12.392-3.457 18.637-.297 3.114-.313 6.285-.504 9.492a38.576 38.576 0 0 1-1.585 9.62c-1.017 3.13-2.5 5.962-3.384 8.893a27.497 27.497 0 0 0-.97 9.117c.236 6.23 1.78 12.508 1.309 19.141a6.759 6.759 0 0 1-.757 2.671 5.12 5.12 0 0 1-2.118 1.996 12.557 12.557 0 0 1-5.027 1.084q-4.776.304-9.558.455-9.566.3-19.135-.048a.944.944 0 0 1-.889-.743 22.05 22.05 0 0 1-.213-7.25 66.844 66.844 0 0 1 1.322-6.947c1.027-4.506 2.103-9.053 1.286-13.414-.727-4.365-3.722-8.126-5.376-12.644a39.999 39.999 0 0 1-2.483-13.965c-.096-9.471 1.97-18.65 2.995-27.824a136.961 136.961 0 0 0-4.998-54.922c-2.666-8.876-6.409-17.394-10.065-25.944-3.662-8.543-7.293-17.167-9.655-26.196a59.291 59.291 0 0 1-2.22-13.775 27.676 27.676 0 0 1 .705-6.94 18.79 18.79 0 0 1 2.825-6.343Z" class="colorfd544d svgShape"></path><path fill="#fd4d93" d="M398.488 218.784a25.14 25.14 0 0 1 9.662 6.871 76.295 76.295 0 0 1 7.152 9.484c2.158 3.298 4.225 6.655 6.116 10.112a106.386 106.386 0 0 1 5.174 10.627c-2.24-3.25-4.372-6.542-6.512-9.823l-6.445-9.813c-2.153-3.274-4.277-6.539-6.665-9.574a33.932 33.932 0 0 0-8.483-7.884ZM414.008 284.238a59.364 59.364 0 0 1 3.085-8.45c.598-1.383 1.329-2.707 2.058-4.036a41.162 41.162 0 0 1 2.524-3.804 26.563 26.563 0 0 1 6.674-6.286 11.43 11.43 0 0 1 4.36-1.725 5.215 5.215 0 0 1 4.396 1.113 5.366 5.366 0 0 0-4.177-.155 12.163 12.163 0 0 0-3.679 2.043 31.91 31.91 0 0 0-3.18 2.923 31.557 31.557 0 0 0-2.804 3.299 67.697 67.697 0 0 0-4.79 7.34c-1.487 2.55-2.885 5.18-4.467 7.738ZM456.103 343.767a6.732 6.732 0 0 1 2.43 2.767 9.067 9.067 0 0 1 .271 7.338 6.704 6.704 0 0 1-2.223 2.938 25.51 25.51 0 0 0 .707-3.357 18.965 18.965 0 0 0 .158-3.205 18.696 18.696 0 0 0-.39-3.186 24.958 24.958 0 0 0-.953-3.295ZM398.488 267.552a214.554 214.554 0 0 0-20.647 7.414q-2.523 1.063-5.023 2.172l-2.484 1.128c-.81.375-1.233.722-1.375 1.29a3.959 3.959 0 0 0 .215 2.14 24.737 24.737 0 0 0 1.03 2.447l2.26 4.998 2.22 5.016 1.11 2.508.554 1.255a5.438 5.438 0 0 0 .242.512c.07.097-.006-.005-.1-.014-.08-.002.01.011.162-.049.146-.053.393-.163.595-.246l1.265-.537 2.531-1.072 5.073-2.122q10.147-4.239 20.447-8.121-9.837 4.954-19.828 9.554l-4.996 2.297-2.503 1.138-1.252.568c-.22.097-.387.183-.668.296a2.153 2.153 0 0 1-1.18.154 1.775 1.775 0 0 1-1.16-.821 5.448 5.448 0 0 1-.364-.72l-.568-1.255-1.136-2.51-2.27-5.022-2.23-5.04a25.468 25.468 0 0 1-1.073-2.63 5.539 5.539 0 0 1-.186-3.261 3.337 3.337 0 0 1 1.02-1.571 5.6 5.6 0 0 1 1.407-.835l2.551-1.08a123.3 123.3 0 0 1 5.145-2.013 128.55 128.55 0 0 1 21.216-5.968Z" class="colorfd544d svgShape"></path><path fill="#fd4d93" d="M376.737 299.508c2.228 4.694 4.322 9.43 6.402 14.17l6.195 14.23a3.987 3.987 0 0 0 .323.67c.11.119.01.028-.003.048a8.075 8.075 0 0 0 1.363-.62l3.484-1.719c2.338-1.114 4.66-2.262 7.014-3.343 4.692-2.197 9.416-4.33 14.23-6.287-4.441 2.7-8.97 5.223-13.531 7.682-2.272 1.248-4.577 2.428-6.866 3.642l-3.456 1.773-.865.442a3.101 3.101 0 0 1-1.337.407 1.873 1.873 0 0 1-.98-.248 2.172 2.172 0 0 1-.656-.599 5.168 5.168 0 0 1-.556-1.057c-2.035-4.77-3.998-9.572-5.8-14.437-1.812-4.86-3.506-9.765-4.96-14.754Z" class="colorfd544d svgShape"></path><path fill="#fd4d93" d="M390.733 301.828a30.858 30.858 0 0 1 2.329 3.767 63.264 63.264 0 0 1 3.603 7.912 30.406 30.406 0 0 1 1.306 4.232 20.987 20.987 0 0 1-2.705-3.539 32.658 32.658 0 0 1-2.087-3.882 33.039 33.039 0 0 1-1.553-4.126 21.149 21.149 0 0 1-.893-4.364ZM399.377 300.96a14.706 14.706 0 0 1 1.762 2.807 23.924 23.924 0 0 1 1.224 2.986 23.504 23.504 0 0 1 .817 3.123 14.521 14.521 0 0 1 .273 3.304 14.509 14.509 0 0 1-1.765-2.807 23.54 23.54 0 0 1-1.222-2.987 23.923 23.923 0 0 1-.814-3.123 14.703 14.703 0 0 1-.275-3.303ZM422.796 412.213a49.665 49.665 0 0 1 7.524-1.808 70.578 70.578 0 0 1 15.409-.873 49.288 49.288 0 0 1 7.68.952c-2.578.291-5.128.452-7.674.609l-7.622.449-7.624.409c-2.547.13-5.1.258-7.693.262ZM466.114 350.616c1.02 3.106 2.053 6.193 3.245 9.219a148.389 148.389 0 0 0 3.763 8.973c1.33 2.954 2.801 5.839 4.324 8.692a146.83 146.83 0 0 0 4.904 8.37l.511.814-.797.533q-6.447 4.307-13.012 8.438-3.278 2.075-6.599 4.086c-2.226 1.324-4.426 2.687-6.686 3.965 2.034-1.607 4.127-3.129 6.193-4.69q3.118-2.316 6.282-4.567 6.319-4.512 12.747-8.869l-.287 1.347c-1.8-2.752-3.444-5.605-4.968-8.518-1.536-2.907-2.887-5.908-4.138-8.944a101.311 101.311 0 0 1-3.238-9.292 92.47 92.47 0 0 1-2.244-9.557ZM398.75 423.652a18.728 18.728 0 0 0 6.985 4.65c1.298.558 2.643 1.104 3.984 1.741a14.732 14.732 0 0 1 3.798 2.426 91.75 91.75 0 0 1-4.327-.958 26.713 26.713 0 0 1-4.252-1.376 13.265 13.265 0 0 1-3.88-2.514 7.37 7.37 0 0 1-2.307-3.97ZM464.438 402.566c1.183 1.457 2.31 2.865 3.497 4.207a56.464 56.464 0 0 0 7.788 7.27c1.421 1.092 2.902 2.121 4.434 3.204a17.146 17.146 0 0 1-5.28-1.893 22.23 22.23 0 0 1-8.187-7.65 17.23 17.23 0 0 1-2.252-5.138ZM471.792 436.316a4.148 4.148 0 0 1-.105 1.673 5.22 5.22 0 0 1-.589 1.376 5.126 5.126 0 0 1-.955 1.152 4.105 4.105 0 0 1-1.444.853 4.112 4.112 0 0 1 .102-1.674 5.118 5.118 0 0 1 .592-1.375 5.21 5.21 0 0 1 .958-1.15 4.15 4.15 0 0 1 1.441-.855ZM475.17 435.617a6.356 6.356 0 0 1-.134 2.125 9.168 9.168 0 0 1-.647 1.883 9 9 0 0 1-1.036 1.7 6.287 6.287 0 0 1-1.554 1.456 6.28 6.28 0 0 1 .13-2.126 8.997 8.997 0 0 1 .65-1.881 9.16 9.16 0 0 1 1.04-1.7 6.357 6.357 0 0 1 1.551-1.457ZM390.75 478.884a13.281 13.281 0 0 1 2.636-.567 24.336 24.336 0 0 1 2.551-.17 23.627 23.627 0 0 1 2.556.096 13.045 13.045 0 0 1 2.651.497 8.072 8.072 0 0 1-2.528 1.071 11.625 11.625 0 0 1-2.65.336 11.773 11.773 0 0 1-2.66-.265 8.148 8.148 0 0 1-2.557-.998ZM392.154 482.534a4.275 4.275 0 0 1 1.565-.676 5.432 5.432 0 0 1 1.525-.11 5.331 5.331 0 0 1 1.495.318 4.23 4.23 0 0 1 1.456.89 4.227 4.227 0 0 1-1.565.679 5.335 5.335 0 0 1-1.525.107 5.437 5.437 0 0 1-1.495-.32 4.276 4.276 0 0 1-1.456-.888ZM440.069 462.123a21.32 21.32 0 0 1 1.76 5.687c.168.972.314 1.944.406 2.918a14.672 14.672 0 0 1 .097 3.152l.01-.119a4.49 4.49 0 0 1-.31 1.366 3.214 3.214 0 0 1-.848 1.172 4.667 4.667 0 0 1-2.321 1.04 20.382 20.382 0 0 1-2.227.309 12.368 12.368 0 0 1-2.241.03c.715-.199 1.4-.468 2.091-.711a75.569 75.569 0 0 0 2.038-.767 3.27 3.27 0 0 0 1.493-1.042 1.982 1.982 0 0 0 .411-1.45l.011-.12c.02-.687-.117-1.725-.181-2.685-.082-.969-.115-1.94-.156-2.906a95.722 95.722 0 0 1-.07-2.91c-.012-.974-.02-1.955.037-2.964Z" class="colorfd544d svgShape"></path><path fill="#fd4d93" d="m441.341 473.72.044.001.006.001a5.946 5.946 0 0 0 2.033-.462 18.745 18.745 0 0 0 1.885-.788 8.112 8.112 0 0 0 .8-.46c.254-.194.18-.146.28-.389a5.737 5.737 0 0 0 .17-1.72c-.026-1.311-.174-2.706-.297-4.11a25.531 25.531 0 0 1-.146-4.34 22.787 22.787 0 0 1 1.673 4.04 16.216 16.216 0 0 1 .769 4.384 5.865 5.865 0 0 1-.427 2.494 2.538 2.538 0 0 1-.475.692l-.189.175-.16.107a2.141 2.141 0 0 1-.311.181 4.882 4.882 0 0 1-1.15.418 9.581 9.581 0 0 1-2.257.298 4.035 4.035 0 0 1-2.209-.495h.005ZM352.748 200.441a2.942 2.942 0 0 0 1.85.618 5.884 5.884 0 0 0 1.914-.312c.637-.186 1.288-.42 2.001-.597a6.163 6.163 0 0 1 2.295-.137 6.292 6.292 0 0 1 4.069 2.26 6.566 6.566 0 0 1 1.394 4.519 12.818 12.818 0 0 1-1.47 4.145 17.895 17.895 0 0 0-1.02 3.764c-.517 2.701-1.104 5.397-1.888 8.063-.04-2.78.115-5.53.342-8.276a15.828 15.828 0 0 1 .808-4.254 12.352 12.352 0 0 0 1.236-3.594 4.773 4.773 0 0 0-.896-3.213 4.973 4.973 0 0 0-2.847-1.883 10.203 10.203 0 0 0-3.835.16 6.093 6.093 0 0 1-2.182-.1 2.907 2.907 0 0 1-1.771-1.163ZM304.95 105.06a70.677 70.677 0 0 1 5.945 5.988c1.882 2.085 3.647 4.268 5.366 6.486 1.69 2.24 3.331 4.518 4.849 6.881a70.06 70.06 0 0 1 4.21 7.313c-1.928-2.069-3.716-4.223-5.474-6.397-1.767-2.166-3.466-4.377-5.174-6.584-1.677-2.229-3.364-4.45-4.988-6.725-1.635-2.268-3.244-4.56-4.735-6.962ZM315.119 100.398c1.698 2.171 3.224 4.44 4.69 6.742 1.476 2.296 2.85 4.65 4.205 7.014 1.322 2.383 2.623 4.779 3.821 7.231 1.21 2.447 2.358 4.928 3.333 7.507-1.7-2.17-3.227-4.438-4.692-6.74-1.476-2.297-2.85-4.65-4.204-7.017-1.32-2.384-2.62-4.78-3.818-7.232-1.21-2.447-2.359-4.927-3.335-7.505ZM238.494 135.266a65.408 65.408 0 0 1 6.332 2.353c2.07.858 4.093 1.806 6.113 2.76 2.004.987 4.004 1.983 5.963 3.071a64.524 64.524 0 0 1 5.778 3.5 50.89 50.89 0 0 1-6.437-2.085c-2.1-.803-4.145-1.726-6.173-2.687-2.011-.993-4.006-2.022-5.94-3.168a51.396 51.396 0 0 1-5.636-3.744ZM249.729 128.997a23.497 23.497 0 0 1 4.1 2.371 36.428 36.428 0 0 1 3.661 2.94 35.98 35.98 0 0 1 3.254 3.383 23.262 23.262 0 0 1 2.724 3.876 35.198 35.198 0 0 1-3.817-2.761 75.895 75.895 0 0 1-6.832-6.255 35.72 35.72 0 0 1-3.09-3.554ZM259.664 122.883a29.282 29.282 0 0 1 2.565 3.69q1.148 1.901 2.14 3.87a54.775 54.775 0 0 1 1.828 4.026 28.925 28.925 0 0 1 1.424 4.264 22.793 22.793 0 0 1-2.804-3.534 36.601 36.601 0 0 1-2.235-3.859 37.079 37.079 0 0 1-1.757-4.098 23 23 0 0 1-1.161-4.359ZM234.714 195.977a5.913 5.913 0 0 1 1.674-1.77 8.24 8.24 0 0 1 2.109-1.078 8.15 8.15 0 0 1 2.327-.44 5.86 5.86 0 0 1 2.407.378 12.105 12.105 0 0 1-2.057 1.155c-.677.305-1.348.567-2.031.799-.682.232-1.374.436-2.097.608a12.343 12.343 0 0 1-2.332.348ZM233.819 203.23a5.977 5.977 0 0 1 1.022-2.315 8.288 8.288 0 0 1 1.722-1.782 8.199 8.199 0 0 1 2.168-1.2 5.93 5.93 0 0 1 2.503-.38 14.855 14.855 0 0 1-1.71 1.738 33.644 33.644 0 0 1-3.584 2.74 15.222 15.222 0 0 1-2.121 1.199ZM224.935 350.347a7.533 7.533 0 0 1 2.176.84 11.247 11.247 0 0 1 1.806 1.27 11.039 11.039 0 0 1 1.525 1.595 7.44 7.44 0 0 1 1.152 2.03 7.439 7.439 0 0 1-2.178-.838 11.048 11.048 0 0 1-1.804-1.272 11.252 11.252 0 0 1-1.524-1.598 7.532 7.532 0 0 1-1.153-2.027ZM228 346.326a7.887 7.887 0 0 1 2.135 1.075 11.88 11.88 0 0 1 1.728 1.47 11.665 11.665 0 0 1 1.42 1.769 7.786 7.786 0 0 1 1.008 2.168 7.784 7.784 0 0 1-2.137-1.073 11.65 11.65 0 0 1-1.726-1.472 11.845 11.845 0 0 1-1.417-1.77 7.872 7.872 0 0 1-1.01-2.167ZM239.206 386.425a22.148 22.148 0 0 1 5.172 2.923 29.104 29.104 0 0 1 7.886 8.851 22.021 22.021 0 0 1 2.304 5.477l-3.595-4.6a105.798 105.798 0 0 0-7.61-8.55ZM259.69 464.339a18.056 18.056 0 0 1-.54 4.238 27.177 27.177 0 0 1-1.284 4.033 26.869 26.869 0 0 1-1.894 3.786 17.926 17.926 0 0 1-2.577 3.41 31.464 31.464 0 0 1 1.163-4.072 74.567 74.567 0 0 1 3.124-7.668 31.983 31.983 0 0 1 2.008-3.727ZM500.496 344.218a36.449 36.449 0 0 1 3.65 7.385 45.996 45.996 0 0 1 2.845 16.219 36.255 36.255 0 0 1-.923 8.186c-.192-2.743-.365-5.436-.636-8.113-.284-2.675-.622-5.332-1.101-7.966-.443-2.64-1.03-5.254-1.67-7.866-.656-2.61-1.41-5.202-2.165-7.845ZM519.893 347.825a24.638 24.638 0 0 1 2.072 7.224 30.494 30.494 0 0 1-1.707 14.93 24.54 24.54 0 0 1-3.654 6.569c.829-2.363 1.576-4.684 2.166-7.038a55.579 55.579 0 0 0 1.645-14.34c-.042-2.426-.247-4.857-.522-7.345ZM413.03 177.255a13.237 13.237 0 0 1 3.24 1.397 19.592 19.592 0 0 1 2.825 2.02 19.366 19.366 0 0 1 2.428 2.483 13.102 13.102 0 0 1 1.872 2.99 21.345 21.345 0 0 1-2.956-1.851 42.65 42.65 0 0 1-2.646-2.104 43.98 43.98 0 0 1-2.48-2.297 21.74 21.74 0 0 1-2.283-2.638ZM422.731 173.973a10.81 10.81 0 0 1 2.954 1.863 15.25 15.25 0 0 1 4.033 5.57 10.72 10.72 0 0 1 .844 3.388 30.258 30.258 0 0 1-2.206-2.603c-.673-.874-1.32-1.747-1.956-2.628a113.178 113.178 0 0 1-1.883-2.682 31.16 31.16 0 0 1-1.786-2.908ZM449.006 200.339a9.752 9.752 0 0 1 1.518 2.204 15.17 15.17 0 0 1 .976 2.374 14.9 14.9 0 0 1 .567 2.504 9.628 9.628 0 0 1 .02 2.677 9.637 9.637 0 0 1-1.52-2.203 14.904 14.904 0 0 1-.973-2.376 15.167 15.167 0 0 1-.565-2.505 9.752 9.752 0 0 1-.023-2.675ZM455.726 200.848a11.7 11.7 0 0 1 1.04 2.754 18.638 18.638 0 0 1 .474 2.805 18.326 18.326 0 0 1 .047 2.844 11.555 11.555 0 0 1-.524 2.897 11.544 11.544 0 0 1-1.042-2.753 18.326 18.326 0 0 1-.472-2.806 18.638 18.638 0 0 1-.044-2.844 11.7 11.7 0 0 1 .521-2.897ZM359.14 172.567a11.566 11.566 0 0 1 2.831.735 18.392 18.392 0 0 1 2.548 1.225 18.07 18.07 0 0 1 2.333 1.597 11.416 11.416 0 0 1 2.046 2.093 11.421 11.421 0 0 1-2.834-.732 18.067 18.067 0 0 1-2.546-1.228 18.39 18.39 0 0 1-2.332-1.6 11.562 11.562 0 0 1-2.047-2.09ZM363.466 169.6a6.648 6.648 0 0 1 2.402.342 6.965 6.965 0 0 1 2.138 1.145 5.655 5.655 0 0 1 1.585 1.951 3.637 3.637 0 0 1 .319 2.5 21.374 21.374 0 0 0-1.597-1.583c-.51-.459-1.025-.88-1.553-1.304-.533-.426-1.087-.858-1.652-1.339a9.922 9.922 0 0 1-1.642-1.712ZM287.624 257.971a37.663 37.663 0 0 0 9.316-6.782 35.075 35.075 0 0 0 6.656-9.184.938.938 0 0 1 1.592-.143l.015.02c1.909 2.587 3.833 5.161 5.703 7.775l2.817 3.941a13.136 13.136 0 0 1 1.26 2.257 9.607 9.607 0 0 1 .663 2.572 11.263 11.263 0 0 1-.643 5.1 14.227 14.227 0 0 1-2.484 4.361 32.506 32.506 0 0 1-7.442 6.266 43.801 43.801 0 0 0 6.523-6.95 12.274 12.274 0 0 0 2.312-8.547 8.667 8.667 0 0 0-1.767-3.968l-2.837-3.87c-1.91-2.585-3.765-5.21-5.636-7.824l1.606-.122a32.334 32.334 0 0 1-7.45 9.278 30.34 30.34 0 0 1-10.204 5.82Z" class="colorfd544d svgShape"></path><path fill="#fd4d93" d="M291.329 256.566a15.112 15.112 0 0 1 2.635 2.087 24.641 24.641 0 0 1 2.19 2.438 24.248 24.248 0 0 1 1.85 2.704 14.918 14.918 0 0 1 1.401 3.057 14.92 14.92 0 0 1-2.637-2.086 24.234 24.234 0 0 1-2.187-2.44 24.67 24.67 0 0 1-1.85-2.705 15.119 15.119 0 0 1-1.402-3.055ZM294.604 255.445a40.738 40.738 0 0 1 3.58 3.668q1.675 1.905 3.229 3.891a82.435 82.435 0 0 1 2.992 4.077 40.21 40.21 0 0 1 2.685 4.365 28.036 28.036 0 0 1-3.889-3.372 44.067 44.067 0 0 1-3.365-3.84 44.636 44.636 0 0 1-2.904-4.199 28.315 28.315 0 0 1-2.328-4.59ZM296.896 253.783a30.417 30.417 0 0 1 3.671 3.243q1.705 1.73 3.242 3.596a52.018 52.018 0 0 1 2.9 3.875 30.076 30.076 0 0 1 2.468 4.232 30.08 30.08 0 0 1-3.673-3.241 52.117 52.117 0 0 1-3.24-3.597q-1.537-1.867-2.898-3.878a30.42 30.42 0 0 1-2.47-4.23ZM298.853 251.206a31.83 31.83 0 0 1 3.7 3.383q1.717 1.798 3.265 3.73a54.54 54.54 0 0 1 2.92 4.006 31.489 31.489 0 0 1 2.483 4.356 31.488 31.488 0 0 1-3.702-3.382 54.572 54.572 0 0 1-3.263-3.731q-1.548-1.933-2.918-4.008a31.85 31.85 0 0 1-2.485-4.354ZM301.668 249.222a26.114 26.114 0 0 1 3.134 2.863 49.315 49.315 0 0 1 5.232 6.479 25.771 25.771 0 0 1 2.134 3.67 20.429 20.429 0 0 1-3.327-2.664 32.691 32.691 0 0 1-2.843-3.1 33.131 33.131 0 0 1-2.427-3.435 20.63 20.63 0 0 1-1.903-3.813ZM303.507 246.762a20.952 20.952 0 0 1 3.106 2.604 35.84 35.84 0 0 1 2.675 2.953 35.252 35.252 0 0 1 2.331 3.23 20.74 20.74 0 0 1 1.896 3.584 20.727 20.727 0 0 1-3.11-2.602 35.255 35.255 0 0 1-2.672-2.955 35.857 35.857 0 0 1-2.329-3.232 20.957 20.957 0 0 1-1.897-3.582ZM317.526 202.456a69.117 69.117 0 0 1 6.31-6.36.8.8 0 0 1 .656-.284.71.71 0 0 1 .423.43 8.242 8.242 0 0 1 .517 2.336 11.753 11.753 0 0 0 1.107 3.458.897.897 0 0 1 .142.52c-.052.336-.449.479-.782.544a31.52 31.52 0 0 1-6.94.32 1.815 1.815 0 0 1-1.024-.236 1.255 1.255 0 0 1-.41-.728ZM313.082 172.817l-1.943-.2c-.417.773.1 1.71.657 2.388a4.693 4.693 0 0 0 2.971 1.95 1.397 1.397 0 0 0 1.273-.441 1.22 1.22 0 0 0 .057-1.21 3.14 3.14 0 0 0-.8-.975 16.302 16.302 0 0 0-1.858-1.45c-.293-.195-.732-.365-.357-.062ZM296.585 187.623a11.698 11.698 0 0 0-2.165.316 3.692 3.692 0 0 0 .894 2.826 7.733 7.733 0 0 0 2.419 1.83 2.522 2.522 0 0 0 .888.325.945.945 0 0 0 .855-.314 1.186 1.186 0 0 0 .17-.812 4.403 4.403 0 0 0-.942-2.303 7.961 7.961 0 0 0-2.119-1.868ZM321.938 283.117a1.796 1.796 0 0 0 0 3.589 1.796 1.796 0 0 0 0-3.59ZM329.302 301.808a1.796 1.796 0 0 0 0 3.59 1.796 1.796 0 0 0 0-3.59ZM342.046 333.811a1.796 1.796 0 0 0 0 3.589 1.796 1.796 0 0 0 0-3.589ZM357.056 271.222a1.796 1.796 0 0 0 0 3.589 1.796 1.796 0 0 0 0-3.59ZM370.933 306.906a1.796 1.796 0 0 0 0 3.59 1.796 1.796 0 0 0 0-3.59ZM392.74 283.683a1.796 1.796 0 0 0 0 3.59 1.796 1.796 0 0 0 0-3.59ZM384.103 352.361a1.796 1.796 0 0 0 0 3.59 1.796 1.796 0 0 0 0-3.59ZM394.865 392.01a1.796 1.796 0 0 0 0 3.59 1.796 1.796 0 0 0 0-3.59ZM450.881 413.658a1.796 1.796 0 0 0 0 3.589 1.796 1.796 0 0 0 0-3.59ZM450.881 421.002a1.796 1.796 0 0 0 0 3.589 1.796 1.796 0 0 0 0-3.589ZM450.881 428.433a1.796 1.796 0 0 0 0 3.589 1.796 1.796 0 0 0 0-3.59ZM358.614 416.65a1.796 1.796 0 0 0 0 3.589 1.796 1.796 0 0 0 0-3.59ZM362.012 446.953a1.796 1.796 0 0 0 0 3.589 1.796 1.796 0 0 0 0-3.59ZM275.071 241.415a1.414 1.414 0 1 1-1.414-1.414 1.414 1.414 0 0 1 1.414 1.413ZM381.07 391.414c.667 3.453-.25 6.533-2.05 6.88s-3.796-2.17-4.462-5.623.251-6.533 2.05-6.88 3.796 2.17 4.462 5.623ZM446.696 469.208a4.312 4.312 0 0 0 2.211.443 2.852 2.852 0 0 0 1.839-.885 5.886 5.886 0 0 0 1.11-1.803 9.081 9.081 0 0 0 .595-2.067 8.575 8.575 0 0 0-.032-2.14l-.226-2.342-.368-4.69c-.191-3.13-.358-6.26-.408-9.4-.062-3.138-.054-6.28.153-9.437.624 3.1 1.05 6.215 1.405 9.334.367 3.117.618 6.243.844 9.37l.258 4.697.086 2.351a11.848 11.848 0 0 1 .01 1.254 8.139 8.139 0 0 1-.194 1.29 9.25 9.25 0 0 1-.954 2.359 6.793 6.793 0 0 1-1.647 1.968 3.511 3.511 0 0 1-2.48.692 4.082 4.082 0 0 1-2.202-.994Z" class="colorfd544d svgShape"></path><path fill="#feb7d7" d="M312.17 54.309c-13.18-3.612-26.239-7.781-39.566-10.803a165.348 165.348 0 0 0-23.274-3.68 32.676 32.676 0 1 0 62.84 14.483Z" class="colorfec0b7 svgShape"></path><path fill="#fd4d93" d="M432.967 463.933c.807 3.156 1.436 6.337 2.007 9.55l.185 1.218.078.626a3.199 3.199 0 0 1 .004.87c.03-.113.017-.077.023-.046l.008.118.024.284.052.626c.007.113.013.225.01.374a1.385 1.385 0 0 1-.047.36 1.427 1.427 0 0 1-.06.169l-.017.04-.036.079a6.233 6.233 0 0 1-.308.632 5.09 5.09 0 0 1-2.11 2.085 9.407 9.407 0 0 1-2.621.852 9.592 9.592 0 0 1-2.772.244 4.484 4.484 0 0 1-2.906-1.567 7.402 7.402 0 0 1-1.374-2.616 15.876 15.876 0 0 1-.554-2.603c-.403-3.287-.614-6.512-.842-9.759l-.121-2.433-.004-.07a.395.395 0 0 0 .008.077.796.796 0 0 0 .247.452.782.782 0 0 0 .632.195.824.824 0 0 0 .324-.118c.011-.005.067-.05.037-.028l-.065.048-.13.097-.532.38a13.421 13.421 0 0 1-2.376 1.343 6.036 6.036 0 0 1-1.535.435 3.178 3.178 0 0 1-2.106-.41 3.088 3.088 0 0 1-1.268-1.76 4.204 4.204 0 0 1-.097-1.781 9.485 9.485 0 0 1 .88-2.685 25.884 25.884 0 0 1 2.711-4.297 49.35 49.35 0 0 1 3.161-3.81l.421-.453.191-.2a.213.213 0 0 0-.03.096.16.16 0 0 0 .002.043l.016-.16.033-.332a5.569 5.569 0 0 1 .087-.655 13.01 13.01 0 0 1 .681-2.477c1.162-3.146 3.088-5.772 3.573-9.018a11.41 11.41 0 0 1-.172 2.45 24.197 24.197 0 0 1-.61 2.389c-.476 1.566-1.057 3.082-1.42 4.604a13.393 13.393 0 0 0-.379 2.256 4.294 4.294 0 0 0-.019.553V450.618a1.595 1.595 0 0 1-.33.98l-.202.262-.36.477c-.947 1.284-1.895 2.568-2.744 3.9a30.218 30.218 0 0 0-2.228 4.052 6.952 6.952 0 0 0-.561 1.935 1.49 1.49 0 0 0 .043.624c.076.201.142.218.102.18-.039-.03.024.005.244-.03a3.295 3.295 0 0 0 .787-.249 10.678 10.678 0 0 0 1.826-1.078l.451-.332.112-.086.056-.043.162-.114a2.129 2.129 0 0 1 .889-.327 2.167 2.167 0 0 1 1.75.558 2.125 2.125 0 0 1 .54.783 2.147 2.147 0 0 1 .128.455l.027.228.005.081.156 2.416c.175 3.216.369 6.457.67 9.608a7.8 7.8 0 0 0 1.127 3.867 1.92 1.92 0 0 0 1.226.755 7.496 7.496 0 0 0 2.059-.061 7.348 7.348 0 0 0 2.03-.479 3.248 3.248 0 0 0 1.398-1.175 4.37 4.37 0 0 0 .27-.434c.085-.21-.042.22.003.072.008-.053.014-.143.017-.233l.01-.588.006-.322.007-.185a1.81 1.81 0 0 1 .047-.35c-.016.092.01-.18.005-.34l-.014-.586-.056-1.198Z" class="colorfd544d svgShape"></path></svg></g></svg>