<svg id="SvgjsSvg1062" width="360" height="360" xmlns="http://www.w3.org/2000/svg" version="1.1" xmlns:xlink="http://www.w3.org/1999/xlink" xmlns:svgjs="http://svgjs.com/svgjs"><defs id="SvgjsDefs1063"></defs><g id="SvgjsG1064"><svg xmlns="http://www.w3.org/2000/svg" data-name="Layer 1" viewBox="0 0 700 550" width="360" height="360"><path fill="#f7e8e8" d="M198.008 169.296c-16.9 25.934-21.845 25.937-26.26 39.546-10.307 31.757 5.655 65.525 21.411 89.732 9.423 28.603 8.983 50.784 6.844 65.747-4.68 32.723-19.169 42.699-12.895 66.502 4.786 18.157 20.017 38.156 23.839 43.173a121.914 121.914 0 0 0 11.356 13.4c21.18 20.728 52.287 22.631 71.77 23.572 36.727 1.773 41.406-7.914 78.018-3.585 16.507 1.951 17.168 4.111 35.157 5.637 26.519 2.25 47.395 4.022 62.819-8.202 9.222-7.309 12.562-16.753 19.242-35.643 5.57-15.754 4.795-21.77 11.412-53.002 3.579-16.894 6.914-29.805 8.071-34.217 11.467-43.709 16.737-44.196 17.518-61.697.938-20.988-6.465-24.22-10.562-54.162-2.565-18.752-1.054-34.605-.074-53.983.919-18.175 1.378-27.263 3.582-39.395 5.166-28.437 11.583-30.058 12.167-48.251.275-8.545.977-30.388-13.84-46.562-14.616-15.956-37.279-18.696-45.8-19.726-1.928-.233-5.773-.428-13.461-.817-19.75-1-33.701-1.016-37.504-1.074-23.187-.352-30.346-7.75-64.451-14.387-31.976-6.223-47.963-9.334-65.367-3.26-19.678 6.868-30.185 21.28-45.858 42.777-24.77 33.978-19.981 46.208-47.134 87.877Z" class="colorfff2e2 svgShape"></path><path fill="#f090d9" d="M461.183 434.514q-.289 2.582-.513 5.17l.6.016c3.042 1.22 6.54-1.303 7.59-4.407l.01-.233a23.84 23.84 0 0 0-7.911-1.256ZM438.686 178.306a31.746 31.746 0 0 1-4.787-.01c-1.766-.14-.986-1.31-1.214-1.61l.074-.076a16.997 16.997 0 0 1 9.597-5.3 13.335 13.335 0 0 1-3.465 6.845ZM279.103 131.893q-.586-.827-1.121-1.689c-.701-1.128-1.148-2.955.066-3.492a2.015 2.015 0 0 1 2.165.794c.544.619.81 1.285 1.517 1.708-.806 1.429-1.488 1.695-2.627 2.679Z" class="colorfb8801 svgShape"></path><path fill="#f2a2e4" d="M250.255 482.722a4.338 4.338 0 0 0 2.527 1.932l9.968 4.207a1.797 1.797 0 0 0 .645.098 3.022 3.022 0 0 1 .994-2.165 13.52 13.52 0 0 1 18.946-1.11l.288-.149a1.657 1.657 0 0 1-.168-2.42 2.698 2.698 0 0 1 2.559-.647 7.957 7.957 0 0 1 2.477 1.194 30.99 30.99 0 0 1 5.915 4.454 5.433 5.433 0 0 0-5.121 3.773c-1.914-2.532-5.39-3.49-8.542-3.127a23.414 23.414 0 0 0-8.806 3.432c-.672.387-1.415.898-1.478 1.67a36.051 36.051 0 0 0 9.802 2.08c2.91.066 5.786-.573 8.685-.847a36.904 36.904 0 0 0 5.279-.62 7.275 7.275 0 0 0 4.41-2.754 3.103 3.103 0 0 1-.357 4.663 5.752 5.752 0 0 1-1.876.695 88.332 88.332 0 0 1-11.053 1.906c-4.072.439-8.306.574-12.142-.862a43.6 43.6 0 0 1-6.207-3.292 125.461 125.461 0 0 0-13.48-6.254c-1.426-.605-2.994-1.366-3.515-2.826a5.58 5.58 0 0 1 .22-3.354ZM284.794 474.993a4.135 4.135 0 0 0 2.521 5.582c4.814 2.699 10.048 4.615 14.75 7.502 2.567 1.576 5.034 3.466 7.958 4.19a20.216 20.216 0 0 0 6.548.21q5.52-.464 10.995-1.343c2.276-.366 4.93-1.096 5.7-3.268a1.032 1.032 0 0 0-.16-1.162 1.179 1.179 0 0 0-.792-.149c-5.34.285-10.597 1.536-15.94 1.744s-11.04-.783-15.029-4.344a23.186 23.186 0 0 1 5.428-2.955c2.379-.909 5.13-1.398 7.418-.282 1.786.872 3.002 2.578 4.059 4.65a11.334 11.334 0 0 1-.314-2.79 3.814 3.814 0 0 1 1.032-2.548 4.358 4.358 0 0 1 2.387-1.039 8.36 8.36 0 0 1 5.55 1.01c-.647-2.614-2.83-4.585-5.18-5.897a9.6 9.6 0 0 0-5.42-1.452 4.821 4.821 0 0 0-4.284 3.209 6.127 6.127 0 0 0-3.699-1.998 10.435 10.435 0 0 0-4.254.277 16.326 16.326 0 0 0-9.216 6.294c-3.158-1.827-7.07-2.319-9.827-4.707Z" class="colorfea613 svgShape"></path><path fill="#f090d9" d="M417.997 491.625c14.525-3.702 30.548 2.64 44.608-2.559a5.522 5.522 0 0 1-2.313 6.406 10.464 10.464 0 0 1-4.674 1.084 222.725 222.725 0 0 1-32.986-.343 6.497 6.497 0 0 1-3.73-1.1 3.383 3.383 0 0 1-.905-3.488ZM372.376 486.699c-1.839 1.417-2.57 4.424-1.067 6.193 1.137 1.34 2.953 1.85 4.668 2.231 7.201 1.6 14.59 2.128 21.949 2.652a131.481 131.481 0 0 0 14.346.496 9.151 9.151 0 0 0 3.068-.496 3.409 3.409 0 0 0 2.105-2.153c.315-1.193-.248-2.534.25-3.663v-.127a9.372 9.372 0 0 1-5.156 2.013c-7.365 1.087-14.873.431-22.252-.556a95.835 95.835 0 0 1-14.422-2.833c-1.677-.495-3.667-1.52-3.579-3.266Z" class="colorfb8801 svgShape"></path><path fill="#fec7c7" d="M328.403 163.143s-15.758 104.502-42.375 121.234c0 0 27.334 3.878 28.805 2.821 1.453-1.044 14.778-6.076 15.007-9.133.804-10.745-1.867-17.086-1.81-18.652.08-2.217.782-4.852.903-8.908.253-8.487-.06-19.438-.06-19.438ZM438.128 438.253a38.461 38.461 0 0 1-12.633.891c-9.453-1.163-17.65-7.449-27.073-8.797-8.47-1.22-16.908 1.651-25.186 3.81-3.768.984-8.204 1.69-11.192-.798-2.691-2.233-3.1-6.304-2.16-9.67.947-3.359 2.97-6.297 4.499-9.44 3.625-7.425 4.448-15.857 6.52-23.856 2.692-10.388 7.505-20.076 11.613-29.994 11.91-28.768 18.047-59.93 29.937-88.532l.031-.05s-24.784 144.22 25.644 166.436Z" class="colorfee8c7 svgShape"></path><path fill="#f090d9" d="M270.362 212.183a2.406 2.406 0 0 1-.658-.093 1 1 0 0 1-.729-.948c-.004-.282.005-.658.014-1.051.013-.535.028-1.107.006-1.487a1 1 0 0 1 1.316-1.007 3.4 3.4 0 0 1 2.076 1.533 2.078 2.078 0 0 1-.3 2.232 2.2 2.2 0 0 1-1.725.82ZM250.705 210.516a78.32 78.32 0 0 1 .397-3.922 40.546 40.546 0 0 0-10.723 2.892l-.217.138a2.254 2.254 0 0 0 .408 1.319 2.452 2.452 0 0 0 2.199.465l7.845-.907ZM329.718 279.4a1 1 0 0 1-.996-1.09 35.866 35.866 0 0 0 .164-3.757 1 1 0 0 1 .717-.963 2.105 2.105 0 0 1 2.195.71 2.807 2.807 0 0 1 .616 2.772 5.11 5.11 0 0 1-2.168 2.178 1.008 1.008 0 0 1-.528.15Z" class="colorfb8801 svgShape"></path><path fill="#ea7dc7" d="M276.542 318.574a16.89 16.89 0 0 1 .163-1.743 39.254 39.254 0 0 1-.156 1.861.676.676 0 0 1-.007-.118ZM276.705 316.831c.044-.697.059-1.327.044-1.75a2.153 2.153 0 0 0-.037-.445 4.394 4.394 0 0 1 .237-1.869 1.351 1.351 0 0 0 .297.037 42.172 42.172 0 0 1-.245 1.966c-.103.682-.207 1.409-.296 2.061Z" class="colorfec165 svgShape"></path><path fill="#ea7dc7" d="M322.978 339.56c-8.246 36.93-11.25 74.815-13.623 112.575-.081 1.372-.252 2.915-1.312 3.79a5.115 5.115 0 0 1-2.751.838l-18.561 1.935c-.98.104-2.121.148-2.774-.586a3.099 3.099 0 0 1-.578-1.935 375.188 375.188 0 0 1 1.557-69.254l-.66 1.713c-1.023 4.234-3.256 8.068-4.279 12.302-1.49 6.14-2.692 12.355-3.863 18.561-2.551 13.534-4.976 27.26-4.042 41 .097 1.343.119 2.923-.927 3.76a3.897 3.897 0 0 1-1.972.668 44.045 44.045 0 0 1-22.877-2.922 3.317 3.317 0 0 1-2.73-3.87c.401-10.256 2.448-20.371 4.495-30.427q2.87-14.204 5.754-28.394c1.194-15.342 2.84-16.989 3.812-30.151a134.063 134.063 0 0 0-.141-16.1 1147.81 1147.81 0 0 1-1.09-72.516c.853.06 1.602.067 2.454.133 3.864.32 7.557 1.647 11.205 2.952l.408.037c2.195 6.674 3.886 13.474 3.752 20.415q0 .934-.067 1.869a18.568 18.568 0 0 0-.051 3.27v.007c-.067.823-.149 1.543-.208 2.128a19.355 19.355 0 0 0 .104 3.627c.081.815.178 1.653.274 2.44.082.682.156 1.32.208 1.876.222 2.187 1.045 2.157 1.527 1.801a6.338 6.338 0 0 0 .52-2.395c.059 1.298.667 6.415 1.52 8.29a2.044 2.044 0 0 0 .304.52.492.492 0 0 0 .363.2c.215-.015.408-.282.571-.704.074-.193.141-.438.215-.697a23.897 23.897 0 0 0 .527-4.175c.066-1.558.356-4.539.578-6.37.022.015.607-2.255.629-2.247.208.089-.073 2.388.216 2.35.045 3.441.349 11.287 1.29 14.023a3.423 3.423 0 0 0 .297.653.606.606 0 0 0 .379.311c.497.067.882-1.03 1.171-2.67a74.105 74.105 0 0 0 .757-10.003c.037-4.597.66-4.456.993-4.76.112 2.432.534 9.573.875 11.931.304 2.062.734 3.597 1.387 3.738.771.17 1.276-1.87 1.528-4.39.022-.245.044-.482.059-.727a37.393 37.393 0 0 0 .074-4.71c-.015-.4-.044-.77-.081-1.126a8.418 8.418 0 0 1-.045-.66c.193-.29 0-1.978.016-6.434l.422-8.138c.578 1.506.949.4 4.493 6.874.156.267.304.527.445.787.067.118.134.237.2.348 1.224 2.18 2.796 1.69 3.56 1.268a2.566 2.566 0 0 0 .386-.245c.044-.037.074-.059.074-.059a1.266 1.266 0 0 1-.104-.096 2.973 2.973 0 0 1-.274-.334c-1.135-1.542-1.113-4.212-1.788-5.332-.4-.652-.852-1.327-1.297-2.047a17.68 17.68 0 0 1-1.113-2.039c-6.822-7.964-9.84-14.69-10.381-15.113l-1.06-2.165c7.83-.326 15.69.23 23.529-.222 7.83-.453 15.795-1.988 22.461-6.133l.23.92c3.47 20.058-2.528 40.37-6.97 60.236Z" class="colorfec165 svgShape"></path><path fill="#f090d9" d="M423.614 139.88a1.43 1.43 0 1 1 1.43 1.431 1.43 1.43 0 0 1-1.43-1.43Z" class="colorfb8801 svgShape"></path><circle cx="435.525" cy="143.399" r="1.624" fill="#f090d9" class="colorfb8801 svgShape"></circle><path fill="#f090d9" d="M269.972 463.593a50.611 50.611 0 0 0 2.433 5.729 24.094 24.094 0 0 0 3.246 5.004 41.477 41.477 0 0 0 4.44 4.148l4.89 3.932a24.492 24.492 0 0 1-5.8-2.663 22.994 22.994 0 0 1-5.024-4.089 18.573 18.573 0 0 1-4.185-12.061Z" class="colorfb8801 svgShape"></path><path fill="#f090d9" d="M263.296 488.968a2.406 2.406 0 0 1 .345-1.487 6.456 6.456 0 0 1 .908-1.205 13.393 13.393 0 0 1 2.238-1.99 13.57 13.57 0 0 1 5.547-2.334 14.127 14.127 0 0 1 11.525 3.134l-.89-.107.286-.154-.063 1.384a2.148 2.148 0 0 1-.906-1.244 2.632 2.632 0 0 1 .007-1.41 2.529 2.529 0 0 1 .754-1.216 3.057 3.057 0 0 1 1.171-.648 4.155 4.155 0 0 1 2.432.056 8.728 8.728 0 0 1 1.952.95 31.67 31.67 0 0 1 6.445 4.803.888.888 0 0 1-.024 1.255.897.897 0 0 1-.627.249 4.516 4.516 0 0 0-2.657.854 4.632 4.632 0 0 0-1.703 2.254l-.015.045a.773.773 0 0 1-1.361.204 7.435 7.435 0 0 0-3.953-2.679 10.948 10.948 0 0 0-5.017-.239 19.257 19.257 0 0 0-4.934 1.653c-.794.379-1.575.791-2.35 1.218-.762.402-1.568.89-1.632 1.576l-.221-.328a43.394 43.394 0 0 0 7.074 1.804 22.217 22.217 0 0 0 7.221-.177c1.207-.185 2.419-.395 3.651-.551 1.236-.159 2.465-.234 3.651-.4a11.804 11.804 0 0 0 3.362-.896 5.837 5.837 0 0 0 2.492-2.043.75.75 0 0 1 1.123-.154l.018.016a3.705 3.705 0 0 1 1.175 2.812 3.86 3.86 0 0 1-1.198 2.817 5.84 5.84 0 0 1-2.617 1.17q-1.212.312-2.435.575a88.123 88.123 0 0 1-9.888 1.573 26.57 26.57 0 0 1-10.216-.61 21.598 21.598 0 0 1-4.732-2.12c-1.459-.854-2.824-1.711-4.253-2.478-2.86-1.538-5.842-2.895-8.854-4.234l-2.265-1a21.447 21.447 0 0 1-2.32-1.126 5.222 5.222 0 0 1-2.055-2.027 4.389 4.389 0 0 1-.314-2.905 24.616 24.616 0 0 1 .709-2.46l.768-2.359c.512-1.568 1.017-3.132 1.462-4.71a34.88 34.88 0 0 0 1.587-9.67.1.1 0 0 1 .2-.01 32.418 32.418 0 0 1-.864 9.913c-.365 1.623-.79 3.228-1.218 4.824l-.638 2.39a23.813 23.813 0 0 0-.542 2.33 2.916 2.916 0 0 0 .24 1.92 3.66 3.66 0 0 0 1.492 1.333 20.15 20.15 0 0 0 2.168.958l2.298.926a97.109 97.109 0 0 1 9.118 4.084c3.023 1.534 5.675 3.527 8.62 4.377a26.088 26.088 0 0 0 9.433.658 86.248 86.248 0 0 0 9.693-1.36l2.4-.503a4.394 4.394 0 0 0 1.905-.71 2.35 2.35 0 0 0 .12-3.254l1.14-.138a7.088 7.088 0 0 1-3.218 2.436 13.046 13.046 0 0 1-3.764.818c-1.252.11-2.476.131-3.678.236-1.207.1-2.42.257-3.645.393a25.678 25.678 0 0 1-7.434-.002 56.995 56.995 0 0 1-7.16-1.862.317.317 0 0 1-.221-.328 2.005 2.005 0 0 1 .768-1.337 8.1 8.1 0 0 1 1.16-.772 46.949 46.949 0 0 1 2.346-1.312 21.908 21.908 0 0 1 5.071-1.969 12.062 12.062 0 0 1 5.556-.016 8.864 8.864 0 0 1 4.865 2.984l-1.376.249a5.97 5.97 0 0 1 2.198-3.174 6.067 6.067 0 0 1 3.685-1.263l-.65 1.503a34.26 34.26 0 0 0-6.091-4.546 3.796 3.796 0 0 0-2.976-.863 1.103 1.103 0 0 0-.818.693.773.773 0 0 0 .171.846.772.772 0 0 1-.027 1.367l-.035.017-.29.146-.017.008a.787.787 0 0 1-.874-.116 13.176 13.176 0 0 0-10.312-3.26 14.073 14.073 0 0 0-5.323 1.855 12.8 12.8 0 0 0-2.281 1.734 3.433 3.433 0 0 0-1.4 2.338.1.1 0 0 1-.095.104.102.102 0 0 1-.103-.086Z" class="colorfb8801 svgShape"></path><path fill="#f090d9" d="M258.695 476.644a2.736 2.736 0 0 1-1.515-.204 2.775 2.775 0 0 1-1.152-.955 2.446 2.446 0 0 1-.447-1.584 1.877 1.877 0 0 1 .274-.85 1.015 1.015 0 0 1 .737-.494 1.964 1.964 0 0 0 .537 1.064c.199.263.367.47.545.73a8.725 8.725 0 0 1 .55.92 4.705 4.705 0 0 1 .47 1.373ZM298.646 492.012a4.87 4.87 0 0 0-1.912-2.31 3.97 3.97 0 0 0-2.516-.59 5.38 5.38 0 0 0-2.455.88 4.972 4.972 0 0 0-.945.963c-.312.394-.627.799-.929 1.253l.08-.327a25.855 25.855 0 0 1-.297 1.612 2.929 2.929 0 0 0-.01 1.543 2.397 2.397 0 0 1-.801-1.526c-.13-.561-.163-1.11-.26-1.614a.295.295 0 0 1 .016-.166l.064-.161a7.756 7.756 0 0 1 1.865-3.077 5.728 5.728 0 0 1 3.582-1.309 4.747 4.747 0 0 1 3.504 1.484 3.952 3.952 0 0 1 1.014 3.345ZM288.065 458.795a27.904 27.904 0 0 1-.5 6.75c-.386 2.23-.954 4.413-1.485 6.585a82.85 82.85 0 0 0-.724 3.256 3.983 3.983 0 0 0 .184 2.806 5.774 5.774 0 0 0 2.305 1.797 66.992 66.992 0 0 0 2.97 1.499c4.007 1.92 8.213 3.625 12.104 6.067a44.913 44.913 0 0 0 5.665 3.343 13.853 13.853 0 0 0 6.242.998c4.43-.202 8.922-.614 13.324-1.26a10.145 10.145 0 0 0 3.082-.974 3.995 3.995 0 0 0 1.205-.975 2.669 2.669 0 0 0 .614-1.323c.023-.463-.218-.545-.828-.496-.556.03-1.113.062-1.668.12-1.11.108-2.219.247-3.327.4-2.216.31-4.432.668-6.668.95a43.852 43.852 0 0 1-6.778.47 25.623 25.623 0 0 1-6.798-.984 16.53 16.53 0 0 1-6.163-3.282.776.776 0 0 1 .036-1.205l.023-.017a24.142 24.142 0 0 1 4.463-2.664 15.477 15.477 0 0 1 5.099-1.474 7.654 7.654 0 0 1 5.397 1.437 12.49 12.49 0 0 1 3.306 4.292l-1.882.651a9.887 9.887 0 0 1-.258-3.87 4.738 4.738 0 0 1 .895-2.042 4.295 4.295 0 0 1 1.854-1.334 8.941 8.941 0 0 1 3.95-.45 9.436 9.436 0 0 1 3.734 1.207l-1.572 1.185a7.352 7.352 0 0 0-2.238-3.524 13.805 13.805 0 0 0-3.778-2.42 6.905 6.905 0 0 0-4.121-.593 3.765 3.765 0 0 0-2.853 2.375l-.008.027a.878.878 0 0 1-1.526.307 5.483 5.483 0 0 0-3.78-1.843 11.873 11.873 0 0 0-4.598.641 15.793 15.793 0 0 0-7.721 5.485l-.015.019a.469.469 0 0 1-.616.117 35.057 35.057 0 0 0-4.9-2.262 15.18 15.18 0 0 1-4.752-2.785.1.1 0 0 1 .13-.151 15.893 15.893 0 0 0 4.837 2.367 32.144 32.144 0 0 1 5.165 2.001l-.63.137a16.996 16.996 0 0 1 8.024-6.298 12.854 12.854 0 0 1 5.203-.888 7.165 7.165 0 0 1 5.012 2.322l-1.534.333a4.997 4.997 0 0 1 1.584-2.466 6.314 6.314 0 0 1 2.52-1.302 8.52 8.52 0 0 1 5.364.584 15.815 15.815 0 0 1 4.407 2.742 9.173 9.173 0 0 1 2.901 4.56 1.07 1.07 0 0 1-1.572 1.185 7.294 7.294 0 0 0-2.887-.94 6.932 6.932 0 0 0-2.962.31 2.248 2.248 0 0 0-.979.66 2.661 2.661 0 0 0-.507 1.135 8.083 8.083 0 0 0 .2 3.08l.003.011a1.004 1.004 0 0 1-1.885.64 10.644 10.644 0 0 0-2.69-3.679 5.75 5.75 0 0 0-4.082-1.127 14.67 14.67 0 0 0-4.543 1.215 22.501 22.501 0 0 0-4.229 2.357l.06-1.222c3.149 2.88 7.571 4.187 11.952 4.42a43 43 0 0 0 6.65-.204c2.221-.234 4.439-.57 6.67-.846a83.617 83.617 0 0 1 3.36-.355l1.687-.126a1.773 1.773 0 0 1 .993.126 1.06 1.06 0 0 1 .497 1.007 3.997 3.997 0 0 1-2.11 2.86 10.828 10.828 0 0 1-3.273 1.149c-4.445.842-8.873 1.495-13.395 1.904a20.384 20.384 0 0 1-3.49.006 12.018 12.018 0 0 1-3.473-.85 37.704 37.704 0 0 1-5.969-3.388c-3.72-2.341-7.844-4.075-11.874-6.127a68.697 68.697 0 0 1-2.997-1.611 6.686 6.686 0 0 1-2.797-2.451 3.965 3.965 0 0 1-.443-1.959 8.42 8.42 0 0 1 .26-1.801c.273-1.11.572-2.195.885-3.278.62-2.163 1.294-4.295 1.848-6.453a31.52 31.52 0 0 0 1.014-6.593.1.1 0 0 1 .103-.097.102.102 0 0 1 .097.094Z" class="colorfb8801 svgShape"></path><path fill="#f090d9" d="M290.967 466.074c.361.438.588.737.8 1.014a6.032 6.032 0 0 1 .496.779 5.683 5.683 0 0 1 .353.85c.106.333.218.692.368 1.24a1.838 1.838 0 0 1-1.493-.14 2.473 2.473 0 0 1-1.265-2.442 1.846 1.846 0 0 1 .741-1.301ZM304.604 456.97a9.715 9.715 0 0 0 1.158 4.66 17.45 17.45 0 0 0 2.811 3.787c1.1 1.177 2.305 2.348 3.445 3.605a32.77 32.77 0 0 1 3.188 4.003 32.794 32.794 0 0 1-4.246-2.855 31.563 31.563 0 0 1-3.853-3.394 12.084 12.084 0 0 1-2.787-4.566 6.758 6.758 0 0 1 .284-5.24ZM308.388 487.688a3.201 3.201 0 0 1 .007-3.736 5.206 5.206 0 0 1 3.354-2.16 6.041 6.041 0 0 1 3.862.515 4.91 4.91 0 0 1 2.517 2.706 9.376 9.376 0 0 0-3.05-1.226 7.424 7.424 0 0 0-2.936-.035 5.394 5.394 0 0 0-2.53 1.188 3.609 3.609 0 0 0-1.224 2.748ZM333.27 486.812a.813.813 0 0 0-.143-.849 1.013 1.013 0 0 0-.698-.36.649.649 0 0 0-.582.2.371.371 0 0 0-.068.403.392.392 0 0 1-.267.662l-.27.01-.333.014a.49.49 0 0 1-.509-.469.496.496 0 0 1 .012-.126l.065-.285a.484.484 0 0 0-.286-.484 1.165 1.165 0 0 0-.862-.167.606.606 0 0 0-.436.378.856.856 0 0 0 .168.64.85.85 0 0 1-.174 1.181l-.095.071-.387.292a.945.945 0 0 1-1.429-1.148l.011-.023a.751.751 0 0 0-.186-.716 1.078 1.078 0 0 0-.862-.262 1.199 1.199 0 0 0-.866.467.666.666 0 0 0-.07.655l.08.132a.898.898 0 0 1-1.126 1.293l-.461-.203-.065-.028a.839.839 0 0 1-.5-.744 2.96 2.96 0 0 0-.466-1.639 1.53 1.53 0 0 0-1.404-.556 2.002 2.002 0 0 0-1.518.958 3.102 3.102 0 0 0-.42 2.092 3.032 3.032 0 0 1-.215-2.38 2.787 2.787 0 0 1 1.9-1.831 2.886 2.886 0 0 1 1.444-.068 2.755 2.755 0 0 1 1.347.735 4.095 4.095 0 0 1 1.115 2.57l-.565-.773.476.165-1.045 1.426a2.417 2.417 0 0 1-.127-2.864 3.138 3.138 0 0 1 2.269-1.381 2.907 2.907 0 0 1 2.55.934 2.648 2.648 0 0 1 .464 2.788l-1.418-1.17.409-.26-.269 1.253a2.586 2.586 0 0 1-.195-2.246 2.19 2.19 0 0 1 1.876-1.319 2.64 2.64 0 0 1 1.945.681 1.653 1.653 0 0 1 .315 2.191l-.432-.88.33.048-.539.672a1.305 1.305 0 0 1 .553-1.345 1.377 1.377 0 0 1 1.275-.136 1.485 1.485 0 0 1 .83.787.967.967 0 0 1-.147 1.014Z" class="colorfb8801 svgShape"></path><path fill="#f090d9" d="m326.759 479.848 2.403 1.138a15.836 15.836 0 0 1 2.275 1.336 7.346 7.346 0 0 1 1.97 2.045 2.344 2.344 0 0 1 .32 1.67 2.394 2.394 0 0 1-.575 1.358 4.358 4.358 0 0 0-.4-1.241c-.153-.367-.382-.741-.545-.771-.62-.5-1.266-.951-1.948-1.446a16.12 16.12 0 0 1-2.028-1.69 5.516 5.516 0 0 1-1.472-2.399ZM234.11 281.244a11.8 11.8 0 0 1 1.435 2.203 20.456 20.456 0 0 1 1.002 2.284 19.92 19.92 0 0 1 .72 2.386 11.626 11.626 0 0 1 .334 2.61 7.988 7.988 0 0 1-1.78-1.99 11.607 11.607 0 0 1-1.15-2.316 11.756 11.756 0 0 1-.623-2.51 8.067 8.067 0 0 1 .062-2.667ZM236.937 269.064c.224 1.33.334 2.599.446 3.857l.335 3.739.329 3.739c.11 1.258.224 2.527.233 3.876a12.436 12.436 0 0 1-1.762-3.56 17.476 17.476 0 0 1-.69-7.837 12.515 12.515 0 0 1 1.109-3.814ZM230.485 381.956a15.254 15.254 0 0 1-6.378-3.657 6.559 6.559 0 0 1-1.65-2.108 2.857 2.857 0 0 1-.195-.785 2.234 2.234 0 0 1 .098-.894 2.148 2.148 0 0 1 1.245-1.383 1.835 1.835 0 0 1 1.093-.053 2.371 2.371 0 0 1 .833.424 6.795 6.795 0 0 1 .954.952 183.9 183.9 0 0 1 3.241 3.696l-1.697.901a28.455 28.455 0 0 1-1.398-6.36c-.06-.54-.102-1.083-.134-1.625l-.018-.413a4.77 4.77 0 0 1 .013-.493 4.216 4.216 0 0 1 .196-1.002 2.464 2.464 0 0 1 .666-1.064 1.784 1.784 0 0 1 1.476-.423 1.99 1.99 0 0 1 1.173.7 3.639 3.639 0 0 1 .536.88 18.22 18.22 0 0 1 1.282 6.436 14.6 14.6 0 0 1-1.336 6.27Zm0 0a18.4 18.4 0 0 0 .266-6.2 19.584 19.584 0 0 0-1.736-5.789c-.176-.394-.487-.622-.458-.553-.018.014.016.005.014.014a.936.936 0 0 0-.123.285 2.423 2.423 0 0 0-.073.552 2.865 2.865 0 0 0 .008.298l.028.377c.04.509.086 1.018.151 1.524a35.07 35.07 0 0 0 1.319 5.974.977.977 0 0 1-1.679.924l-.018-.022a173.534 173.534 0 0 1-3.013-3.693 6.117 6.117 0 0 0-.706-.803c-.215-.173-.27-.166-.321-.174-.074-.002-.256.143-.337.343a.737.737 0 0 0-.067.295 1.384 1.384 0 0 0 .061.393 6.176 6.176 0 0 0 1.163 1.793 18.523 18.523 0 0 0 1.62 1.7 19.25 19.25 0 0 0 3.901 2.762ZM235.557 456.753a18.495 18.495 0 0 1-2.63-4.928 24.119 24.119 0 0 1-1.304-11.073 18.397 18.397 0 0 1 1.42-5.403c.05 1.87.062 3.672.14 5.463a73.844 73.844 0 0 0 1.242 10.596c.338 1.76.746 3.515 1.132 5.345ZM234.293 463.593a2.958 2.958 0 0 1 1.283.457 3.028 3.028 0 0 1 .818.785 2.972 2.972 0 0 1 .468 1.033 2.93 2.93 0 0 1 0 1.363 2.93 2.93 0 0 1-1.285-.456 2.971 2.971 0 0 1-.816-.787 3.027 3.027 0 0 1-.466-1.034 2.96 2.96 0 0 1-.002-1.361ZM369.424 214.167a12.229 12.229 0 0 1-3.583-3.032 13.26 13.26 0 0 1-2.29-4.222 12.513 12.513 0 0 1-.327-1.178 3.408 3.408 0 0 1-.114-1.465 1.648 1.648 0 0 1 .582-1.003 1.503 1.503 0 0 1 1.3-.266 2.582 2.582 0 0 1 1.383 1.08 27.601 27.601 0 0 1 2.328 4.144l-1.864.568a15.007 15.007 0 0 1-.08-5.677 6.822 6.822 0 0 1 .51-1.452 5.487 5.487 0 0 1 .436-.74 1.925 1.925 0 0 1 .467-.444 1.33 1.33 0 0 1 1.763.23 2.184 2.184 0 0 1 .3.439 4.573 4.573 0 0 1 .329.757 6.122 6.122 0 0 1 .288 1.494 24.533 24.533 0 0 1-.279 5.492 50.327 50.327 0 0 1-1.15 5.275Zm0 0c.001-1.801.114-3.59.119-5.36a31.827 31.827 0 0 0-.308-5.202 6.07 6.07 0 0 0-.297-1.113 2.824 2.824 0 0 0-.231-.458c-.047-.08-.084-.12-.08-.11a.4.4 0 0 0 .242.123.501.501 0 0 0 .32-.054c.035-.02.017-.007-.003.028-.03.042-.139.283-.209.432a7.045 7.045 0 0 0-.336 1.083 15.271 15.271 0 0 0 .148 4.972l.004.03a.984.984 0 0 1-1.868.538 37.068 37.068 0 0 0-2.063-3.971 2.115 2.115 0 0 0-.327-.403.27.27 0 0 0 .207-.062c.071-.065.048-.096.027-.019a2.02 2.02 0 0 0 .021.823c.042.36.115.716.192 1.071a15.087 15.087 0 0 0 4.442 7.652ZM394.137 222.911a11.925 11.925 0 0 1-.462 2.937 19.028 19.028 0 0 1-.98 2.704 18.693 18.693 0 0 1-1.372 2.527 11.776 11.776 0 0 1-1.893 2.293 11.77 11.77 0 0 1 .46-2.938 18.68 18.68 0 0 1 .982-2.703 19.024 19.024 0 0 1 1.373-2.526 11.926 11.926 0 0 1 1.892-2.294ZM336.234 204.75c4.755 12.239 9.328 24.5 13.818 36.817l3.302 9.26 3.254 9.26a145.99 145.99 0 0 0 7.668 18.035 92.471 92.471 0 0 1-9.128-17.47c-2.505-6.088-4.71-12.252-6.975-18.405-2.21-6.172-4.39-12.359-6.4-18.605q-3.06-9.352-5.54-18.892Z" class="colorfb8801 svgShape"></path><path fill="#f090d9" d="M364.77 304.444c.157.216.28.439.41.658a.661.661 0 0 0 .397.316.546.546 0 0 0 .694-.323 3.792 3.792 0 0 0 .341-1.29c.044-.435.004-.952.004-1.46-.026-1.012.002-2.025 0-3.037.008-1.013.038-2.025.085-3.038V296.257a.43.43 0 0 1 .764-.262 6.84 6.84 0 0 1 1.271 3.573c.075.61.121 1.21.18 1.797.028.293.058.583.097.868.022.14.038.285.066.422a3.174 3.174 0 0 0 .07.33c.013.151.363.11.352-.013a.183.183 0 0 0 .008-.065c.005-.023 0-.135 0-.198l-.008-.449-.015-.897-.06-3.588a.61.61 0 0 1 1.22-.061v.014a11.367 11.367 0 0 0 .52 2.585c.068.209.143.416.222.621l.125.306.064.149c.011.006.01.024.019.026 0 .043.142.022.141-.011 0-.007.007-.007.006-.03a.548.548 0 0 0 .008-.105l.007-.167.019-.672q.01-.672-.03-1.343a21.298 21.298 0 0 0-.34-2.665l.025.086c-.219-.782-.402-1.573-.6-2.354l-.008-.034a.573.573 0 0 1 1.1-.319l.003.009.71 2.346-.023-.08a15.6 15.6 0 0 0 .927 1.985l.275.474c.02.033.053.092.064.103.009.005.012.016.017.02.011.005.014.009.02.008.009.015.11-.034.088-.038 0 0-.003.002-.002-.004a.785.785 0 0 0-.017-.119l-.097-.536a17.1 17.1 0 0 0-.248-1.067 24.711 24.711 0 0 0-.676-2.111c-.51-1.392-1.133-2.793-1.718-4.172a19.456 19.456 0 0 0-2.12-3.835 7.102 7.102 0 0 0-3.213-2.518 14.598 14.598 0 0 0-4.28-.593 20.594 20.594 0 0 1-2.342-.2 8.483 8.483 0 0 1-2.331-.745 5.8 5.8 0 0 1-1.97-1.497 3.74 3.74 0 0 1-.918-2.329l-.007-.06a.335.335 0 0 1 .422-.356l.022.006a23.19 23.19 0 0 0 5.227.994 8.228 8.228 0 0 0 2.542-.248 7.797 7.797 0 0 0 2.306-1.103 6.621 6.621 0 0 1 1.323-.658 4.894 4.894 0 0 1 1.502-.222 3.201 3.201 0 0 0 1.134-.173 2.929 2.929 0 0 0 .911-.643c1.172-1.252 2.382-2.694 3.584-4.02 4.842-5.394 9.591-10.849 14.375-16.266q3.516-4.122 6.845-8.397 3.371-4.24 6.555-8.63 6.377-8.768 12.15-17.984a.075.075 0 0 1 .13.075 202.272 202.272 0 0 1-11.3 18.6q-3.082 4.492-6.361 8.847a232.593 232.593 0 0 1-6.831 8.494c-2.34 2.781-4.789 5.454-7.217 8.152-2.423 2.703-4.886 5.356-7.333 8.028-1.247 1.343-2.41 2.64-3.748 4a4.107 4.107 0 0 1-1.328.864 4.319 4.319 0 0 1-1.539.217 3.773 3.773 0 0 0-1.18.131 5.56 5.56 0 0 0-1.116.525 8.854 8.854 0 0 1-2.61 1.152 9.207 9.207 0 0 1-2.85.205 23.576 23.576 0 0 1-5.372-1.282l.444-.35.008.048a3.965 3.965 0 0 0 2.664 2.858 11.146 11.146 0 0 0 4.25.616 14.448 14.448 0 0 1 4.732.572 8.57 8.57 0 0 1 3.894 3 20.862 20.862 0 0 1 2.308 4.124 66.378 66.378 0 0 1 1.715 4.286c.256.733.492 1.48.684 2.244.094.383.183.767.253 1.159l.097.587a1.834 1.834 0 0 1 .024.448 1.355 1.355 0 0 1-.161.539 1.44 1.44 0 0 1-1.884.6 1.416 1.416 0 0 1-.434-.33 1.971 1.971 0 0 1-.153-.21l-.082-.141-.28-.524a16.865 16.865 0 0 1-.93-2.18l-.014-.045-.01-.035-.589-2.219 1.104-.31.009.03c.23.72.473 1.43.682 2.148l.024.084v.001a16.795 16.795 0 0 1 .423 2.854q.046.72.039 1.443-.004.362-.026.722l-.012.18a1.897 1.897 0 0 1-.027.242 1.371 1.371 0 0 1-.257.607 1.414 1.414 0 0 1-2.263-.018 1.622 1.622 0 0 1-.156-.274l-.07-.173-.132-.343c-.084-.23-.162-.461-.234-.695a12.612 12.612 0 0 1-.521-2.881l1.22-.047-.009 3.588-.002.897v.449c-.003.086.003.124-.005.25a1.282 1.282 0 0 1-.07.374 1.3 1.3 0 0 1-2.424.054 3.071 3.071 0 0 1-.12-.546c-.028-.157-.042-.31-.063-.465a20.491 20.491 0 0 1-.085-.917l-.114-1.779a5.976 5.976 0 0 0-.962-3.144l.764-.268v.008a76.68 76.68 0 0 1 .09 3.037c0 1.013.03 2.025.006 3.037-.018.504.01 1.003-.062 1.576a4.713 4.713 0 0 1-.495 1.612 1.359 1.359 0 0 1-.814.7 1.3 1.3 0 0 1-1.053-.136 1.196 1.196 0 0 1-.548-.82 7.694 7.694 0 0 1-.056-.787.078.078 0 0 1 .08-.078.086.086 0 0 1 .064.035Z" class="colorfb8801 svgShape"></path><path fill="#f090d9" d="M329.56 233.61a101.706 101.706 0 0 1 11.91 20.63c1.602 3.637 3.062 7.323 4.535 11.004a45.37 45.37 0 0 1 1.948 5.671 30.893 30.893 0 0 1 1.12 5.927c.339 4.015-.186 8 .293 11.836.214 1.907.827 3.765 1.203 5.781a13.19 13.19 0 0 1 .241 3.116c-.055 1.05-.224 2.048-.355 3.005a6.813 6.813 0 0 0-.108 1.294c.063.332.088.304.205.333a.593.593 0 0 0 .308-.087.698.698 0 0 0 .263-.27 3.25 3.25 0 0 0 .34-1.142l.959-5.864a23.61 23.61 0 0 1 .6-2.972 5.005 5.005 0 0 1 1.716-2.681 4.173 4.173 0 0 1 2.946-1.069 3.376 3.376 0 0 1 2.44 1.81.1.1 0 0 1-.166.112 3.14 3.14 0 0 0-2.308-1.4 3.75 3.75 0 0 0-2.41 1.149 4.112 4.112 0 0 0-1.26 2.336c-.209.907-.266 1.895-.402 2.88l-.724 5.899a4.298 4.298 0 0 1-.482 1.69 2.125 2.125 0 0 1-1.87 1.08 1.628 1.628 0 0 1-1.186-.555 1.967 1.967 0 0 1-.447-1.082 7.596 7.596 0 0 1 .096-1.663c.136-1.005.326-1.96.385-2.887a12.714 12.714 0 0 0-.158-2.799c-.291-1.887-.87-3.835-1.044-5.88-.384-4.063.298-8.014.067-11.909a19.965 19.965 0 0 0-1.174-5.701c-.694-1.829-1.487-3.62-2.3-5.42l-4.952-10.785c-3.24-7.205-6.547-14.338-10.395-21.278a.1.1 0 0 1 .166-.11ZM417.913 246.816q-5.418 6.71-11.317 13.001c-3.913 4.209-7.969 8.28-12.106 12.268-2.087 1.974-4.175 3.948-6.305 5.876l-3.212 2.873c-1.07.958-2.143 1.87-3.086 2.876a12.264 12.264 0 0 0-2.302 3.33 27.06 27.06 0 0 0-1.306 3.997 23.718 23.718 0 0 1-3.632 7.845 25.826 25.826 0 0 0 2.727-8.051 24.701 24.701 0 0 1 1.03-4.274 12.743 12.743 0 0 1 2.332-3.867 37.527 37.527 0 0 1 3.061-3.138l3.106-2.968 6.204-5.941 12.375-11.92q6.161-5.992 12.43-11.907Z" class="colorfb8801 svgShape"></path><path fill="#f090d9" d="M359.99 289.901a2.993 2.993 0 0 1 1.999-.613 1.43 1.43 0 0 1 .926.63 2.762 2.762 0 0 1 .389 1.047 3.427 3.427 0 0 1-.401 2.226 6.046 6.046 0 0 1-1.573 1.751l-.01.006-.758-1.492a9.822 9.822 0 0 1 2.17-.445 3.993 3.993 0 0 1 1.203.05 1.693 1.693 0 0 1 1.183 1.083 1.647 1.647 0 0 1 .068.88 1.841 1.841 0 0 1-.388.77c-.254.304-.47.499-.707.755-.47.479-.925.98-1.382 1.492l-.013.013-.777-1.889c.553.02 1.101.027 1.647.024a3.882 3.882 0 0 1 1.02.082 1.717 1.717 0 0 1 1.126.89 2.315 2.315 0 0 1-.205 2.234 12.497 12.497 0 0 1-1.4 1.362c-.006.008-.01.017-.021.018l-.58-1.524a6.667 6.667 0 0 1 1.156.034 1.927 1.927 0 0 1 1.184.63 1.756 1.756 0 0 1 .434 1.192 3.387 3.387 0 0 1-.215 1.059 6.626 6.626 0 0 1-2.301 3.205 3.986 3.986 0 0 1-3.936.471 4.923 4.923 0 0 1-1.734-1.2 7.114 7.114 0 0 1-1.152-1.737 27.522 27.522 0 0 1-1.466-3.6 13.014 13.014 0 0 1-.678-3.922 5.507 5.507 0 0 1 .338-2.116 3.708 3.708 0 0 1 1.407-1.61 33.629 33.629 0 0 1 3.447-1.756Zm.102.172a12.276 12.276 0 0 0-3.128 2.07 2.687 2.687 0 0 0-.791 1.44 5.105 5.105 0 0 0 .119 1.668c.426 2.348 1.303 4.688 1.973 7.114a4.338 4.338 0 0 0 1.91 2.746 3.077 3.077 0 0 0 1.65.41 3.253 3.253 0 0 0 1.64-.577 4.937 4.937 0 0 0 1.917-2.976c.16-.59.1-1.14-.238-1.332-.339-.222-.674-.073-1.261.216a.711.711 0 0 1-.907-1.03l.327-.494c.005-.008.016-.007.025-.008a1.211 1.211 0 0 0 1.033-.629.938.938 0 0 0 .02-.815c-.046-.042-.032-.002-.12-.009a3.732 3.732 0 0 0-.566.078c-.51.096-1.018.203-1.52.324a.972.972 0 0 1-1.048-1.466l.27-.423.013-.01c.5-.345 1.001-.702 1.489-1.08.232-.181.522-.388.71-.55.077-.067.073-.074.078-.06.006.007.018-.025.01-.07-.037-.11-.019-.13-.153-.193a1.875 1.875 0 0 0-.712-.055 2.693 2.693 0 0 0-1.518.59.774.774 0 0 1-1.092-1.087l.334-.406.008-.004a3.113 3.113 0 0 0 1.574-.808 2.298 2.298 0 0 0 .657-1.64 1.386 1.386 0 0 0-.866-1.456 2.7 2.7 0 0 0-1.837.522ZM361.057 312.71a39.132 39.132 0 0 0 4.931-.358 25.15 25.15 0 0 0 8.932-3.103 39.661 39.661 0 0 0 4.094-2.773 11.85 11.85 0 0 1-3.196 4.049 14.468 14.468 0 0 1-9.745 3.38 11.892 11.892 0 0 1-5.016-1.195Z" class="colorfb8801 svgShape"></path><path fill="#f090d9" d="M368.072 318.554c1.366-1.006 2.652-1.976 3.863-3.02a37.256 37.256 0 0 0 3.379-3.325 37.712 37.712 0 0 0 2.932-3.725c.904-1.317 1.728-2.701 2.58-4.168a13.001 13.001 0 0 1-1.218 4.93 16.886 16.886 0 0 1-6.77 7.554 13.057 13.057 0 0 1-4.766 1.754ZM370.042 346.412a11.31 11.31 0 0 1-5.12-8.566 10.288 10.288 0 0 1-.044-1.359 2.452 2.452 0 0 1 .209-.884 1.818 1.818 0 0 1 .785-.848 1.54 1.54 0 0 1 1.389-.048 2.117 2.117 0 0 1 .803.714 6.294 6.294 0 0 1 .69 1.285 18.868 18.868 0 0 1 .718 2.496l.596 2.423-1.973.246a16.936 16.936 0 0 1 .476-5.245 7.84 7.84 0 0 1 .541-1.303 3.935 3.935 0 0 1 .428-.683 2.088 2.088 0 0 1 .865-.656 1.47 1.47 0 0 1 1.44.224 1.81 1.81 0 0 1 .588.967 7.138 7.138 0 0 1 .127 1.423 15.472 15.472 0 0 1-.754 5.12c-.543 1.642-1.369 3.063-1.764 4.694Zm0 0a27.429 27.429 0 0 1 .81-4.933 17.248 17.248 0 0 0 .147-4.782 6.12 6.12 0 0 0-.18-1.05c-.036-.113-.095-.152-.038-.089a.295.295 0 0 0 .261.06c.042-.016-.03.031-.09.123a2.46 2.46 0 0 0-.204.391 5.987 5.987 0 0 0-.356 1.022 16.068 16.068 0 0 0-.3 4.666.998.998 0 0 1-1.97.255l-.002-.009-.545-2.407c-.18-.807-.36-1.612-.586-2.288a4.505 4.505 0 0 0-.424-.925c-.069-.119-.134-.163-.08-.137.058.034.21.008.195-.007 0-.006-.028.002-.05.04a.955.955 0 0 0-.093.312 8.916 8.916 0 0 0-.064 1.12 12.632 12.632 0 0 0 3.57 8.638ZM417.58 114.142a27.32 27.32 0 0 1-3.412-13.419c.01-.61.002-1.131.074-1.82a2.68 2.68 0 0 1 .407-1.155 1.906 1.906 0 0 1 1.255-.82 1.653 1.653 0 0 1 1.574.645 2.962 2.962 0 0 1 .491 1.12l.37 1.72c.475 2.272.795 4.573 1.064 6.878l-1.959-.063a30.02 30.02 0 0 1 2.033-7.647 11.6 11.6 0 0 1 1.025-1.83 3.672 3.672 0 0 1 .904-.904 2.544 2.544 0 0 1 1.406-.446 2.03 2.03 0 0 1 1.518.648 2.618 2.618 0 0 1 .602 1.28 6.948 6.948 0 0 1 .013 2.179 18.05 18.05 0 0 1-1.103 3.856 32.922 32.922 0 0 1-1.65 3.55 27.326 27.326 0 0 1-4.611 6.228Zm0 0a36.1 36.1 0 0 0 3.692-6.672 31.69 31.69 0 0 0 1.28-3.552 16.765 16.765 0 0 0 .79-3.58 6.24 6.24 0 0 0-.088-1.65.907.907 0 0 0-.205-.44c-.063-.051-.084-.055-.208-.056-.253.015-.524.197-.811.63a12.882 12.882 0 0 0-.8 1.549 31.523 31.523 0 0 0-1.836 7.192l-.004.02a.988.988 0 0 1-1.954-.083c-.219-2.261-.558-4.508-.91-6.754l-.288-1.659a1.498 1.498 0 0 0-.152-.465c-.044-.041.06.018.077-.005-.039-.01-.25.085-.328.543-.08.45-.123 1.078-.164 1.615a33.265 33.265 0 0 0 1.91 13.367Z" class="colorfb8801 svgShape"></path><path fill="#ea7dc7" d="M368.218 133.975a29.897 29.897 0 0 1-2.597-14.61 2.73 2.73 0 0 1 .308-1.244.994.994 0 0 1 1.095-.489c.476.162.647.735.747 1.228q.836 4.152 1.286 8.368c.51-2.962 1.044-5.992 2.532-8.604a3.435 3.435 0 0 1 1.02-1.224 1.416 1.416 0 0 1 1.517-.09 1.848 1.848 0 0 1 .662 1.395 10.494 10.494 0 0 1-.597 4.186 31.854 31.854 0 0 1-5.973 11.084ZM215.22 252.045a29.897 29.897 0 0 1-6.011-13.566 2.729 2.729 0 0 1 .001-1.282.993.993 0 0 1 .947-.736c.501.043.804.559 1.018 1.014q1.804 3.831 3.248 7.819c-.212-2.999-.417-6.069.403-8.96a3.434 3.434 0 0 1 .7-1.433 1.416 1.416 0 0 1 1.45-.449 1.848 1.848 0 0 1 .977 1.196 10.494 10.494 0 0 1 .42 4.208 31.856 31.856 0 0 1-3.153 12.189ZM492.87 321.277a29.898 29.898 0 0 1-6.011-13.566 2.73 2.73 0 0 1 .001-1.282.994.994 0 0 1 .947-.736c.501.044.804.559 1.018 1.014q1.804 3.831 3.248 7.819c-.212-2.998-.418-6.069.403-8.96a3.436 3.436 0 0 1 .7-1.433 1.416 1.416 0 0 1 1.45-.449 1.848 1.848 0 0 1 .977 1.196 10.494 10.494 0 0 1 .42 4.208 31.857 31.857 0 0 1-3.153 12.19ZM330.468 415.036a29.897 29.897 0 0 1-6.01-13.566 2.73 2.73 0 0 1 0-1.282.994.994 0 0 1 .947-.736c.501.044.804.56 1.019 1.014q1.803 3.832 3.247 7.819c-.212-2.998-.417-6.069.403-8.96a3.435 3.435 0 0 1 .7-1.433 1.416 1.416 0 0 1 1.45-.449 1.848 1.848 0 0 1 .977 1.196 10.493 10.493 0 0 1 .42 4.208 31.855 31.855 0 0 1-3.153 12.19Z" class="colorfec165 svgShape"></path><path fill="#fec7c7" d="M487.926 219.4a29.896 29.896 0 0 1-6.011-13.567 2.728 2.728 0 0 1 .001-1.282.993.993 0 0 1 .947-.736c.5.044.804.56 1.018 1.014q1.804 3.832 3.247 7.819c-.212-2.998-.417-6.069.404-8.96a3.435 3.435 0 0 1 .699-1.433 1.416 1.416 0 0 1 1.451-.449 1.848 1.848 0 0 1 .977 1.196 10.491 10.491 0 0 1 .42 4.208 31.856 31.856 0 0 1-3.153 12.19ZM239.05 490.672a29.897 29.897 0 0 1-6.011-13.566 2.73 2.73 0 0 1 0-1.282.993.993 0 0 1 .948-.736c.5.044.804.56 1.018 1.014q1.804 3.832 3.247 7.82c-.212-3-.417-6.07.404-8.961a3.435 3.435 0 0 1 .699-1.433 1.416 1.416 0 0 1 1.451-.448 1.848 1.848 0 0 1 .976 1.196 10.494 10.494 0 0 1 .42 4.207 31.856 31.856 0 0 1-3.152 12.19ZM373.733 475.208a29.897 29.897 0 0 1-6.011-13.566 2.73 2.73 0 0 1 .001-1.282.994.994 0 0 1 .947-.736c.5.044.804.56 1.018 1.014q1.804 3.832 3.247 7.82c-.212-3-.417-6.07.404-8.961a3.436 3.436 0 0 1 .699-1.433 1.416 1.416 0 0 1 1.451-.448 1.848 1.848 0 0 1 .976 1.196 10.494 10.494 0 0 1 .42 4.207 31.856 31.856 0 0 1-3.152 12.19ZM356.955 75.073a29.897 29.897 0 0 1-6.01-13.566 2.73 2.73 0 0 1 0-1.282.993.993 0 0 1 .947-.736c.501.043.804.559 1.019 1.014q1.803 3.831 3.247 7.819c-.212-2.999-.417-6.069.403-8.96a3.434 3.434 0 0 1 .7-1.433 1.416 1.416 0 0 1 1.45-.449 1.848 1.848 0 0 1 .977 1.196 10.493 10.493 0 0 1 .42 4.208 31.855 31.855 0 0 1-3.153 12.189ZM490.823 92.31a29.897 29.897 0 0 1-6.011-13.566 2.73 2.73 0 0 1 .001-1.282.994.994 0 0 1 .947-.735c.5.043.804.558 1.018 1.013q1.804 3.832 3.247 7.82c-.212-3-.417-6.07.404-8.961a3.435 3.435 0 0 1 .699-1.432 1.416 1.416 0 0 1 1.451-.45 1.848 1.848 0 0 1 .977 1.197 10.494 10.494 0 0 1 .42 4.207 31.857 31.857 0 0 1-3.153 12.19ZM239.05 321.277a29.897 29.897 0 0 1-6.011-13.566 2.73 2.73 0 0 1 0-1.282.993.993 0 0 1 .948-.736c.5.044.804.559 1.018 1.014q1.804 3.831 3.247 7.819c-.212-2.998-.417-6.069.404-8.96a3.435 3.435 0 0 1 .699-1.433 1.416 1.416 0 0 1 1.451-.449 1.848 1.848 0 0 1 .976 1.196 10.494 10.494 0 0 1 .42 4.208 31.856 31.856 0 0 1-3.152 12.19ZM338.125 335.743a29.897 29.897 0 0 1-6.011-13.566 2.728 2.728 0 0 1 .001-1.282.994.994 0 0 1 .947-.736c.501.044.804.559 1.019 1.014q1.803 3.832 3.247 7.819c-.212-2.999-.418-6.069.403-8.96a3.436 3.436 0 0 1 .7-1.433 1.416 1.416 0 0 1 1.45-.449 1.848 1.848 0 0 1 .977 1.196 10.494 10.494 0 0 1 .42 4.208 31.857 31.857 0 0 1-3.153 12.19ZM474.552 400.396a29.897 29.897 0 0 1-6.01-13.566 2.73 2.73 0 0 1 0-1.282.994.994 0 0 1 .947-.736c.501.043.804.559 1.019 1.014q1.803 3.831 3.247 7.819c-.212-2.999-.417-6.07.404-8.96a3.436 3.436 0 0 1 .699-1.433 1.416 1.416 0 0 1 1.45-.449 1.848 1.848 0 0 1 .977 1.196 10.491 10.491 0 0 1 .42 4.208 31.857 31.857 0 0 1-3.153 12.189Z" class="colorfee8c7 svgShape"></path><path fill="#f090d9" d="M474.827 102.016a15.768 15.768 0 0 1 1.153 2.04 36.77 36.77 0 0 1 1.631 3.976 15.365 15.365 0 0 1 .608 2.264 5.373 5.373 0 0 1-1.963-1.467 7.524 7.524 0 0 1-1.796-4.39 5.417 5.417 0 0 1 .367-2.423ZM481.456 102.022a8.439 8.439 0 0 1 1.39 2.236 12.547 12.547 0 0 1 .77 2.418 12.368 12.368 0 0 1 .273 2.522 8.35 8.35 0 0 1-.373 2.607 10.404 10.404 0 0 1-1.175-2.33 16.901 16.901 0 0 1-.681-2.388 17.29 17.29 0 0 1-.336-2.459 10.56 10.56 0 0 1 .132-2.606ZM325.097 457.753a8.546 8.546 0 0 1 .267-2.482 13.043 13.043 0 0 1 .784-2.247 12.818 12.818 0 0 1 1.175-2.069 8.44 8.44 0 0 1 1.696-1.832 8.447 8.447 0 0 1-.265 2.483 12.832 12.832 0 0 1-.786 2.246 13.057 13.057 0 0 1-1.178 2.068 8.552 8.552 0 0 1-1.693 1.833ZM339.08 425.86a24.65 24.65 0 0 0 3.613 10.712 22.989 22.989 0 0 0 7.86 7.725c3.18 1.878 6.89 2.807 10.633 3.627a63.852 63.852 0 0 1 11.254 3.01c-3.829-.703-7.655-.937-11.525-1.473a30.692 30.692 0 0 1-11.368-3.436 21.758 21.758 0 0 1-8.205-8.683 19.864 19.864 0 0 1-2.263-11.481ZM481.714 416.173a20.279 20.279 0 0 1 .748 4.716 29.343 29.343 0 0 1-.135 4.75 29.04 29.04 0 0 1-.898 4.665 20.113 20.113 0 0 1-1.759 4.44c-.02-1.616.093-3.171.223-4.717a172.941 172.941 0 0 1 1.016-9.2c.21-1.539.436-3.082.805-4.654ZM486.19 430.817a5.902 5.902 0 0 1 .303 2.02 8.34 8.34 0 0 1-.248 1.883 8.197 8.197 0 0 1-.665 1.78 5.832 5.832 0 0 1-1.22 1.64 5.829 5.829 0 0 1-.305-2.022 8.195 8.195 0 0 1 .25-1.882 8.339 8.339 0 0 1 .668-1.779 5.898 5.898 0 0 1 1.217-1.64ZM479.13 260.831a10.155 10.155 0 0 1 .651 2.654 15.888 15.888 0 0 1 .086 2.626 15.608 15.608 0 0 1-.344 2.605 10.026 10.026 0 0 1-.916 2.576 10.03 10.03 0 0 1-.655-2.655 15.608 15.608 0 0 1-.082-2.625 15.886 15.886 0 0 1 .346-2.605 10.15 10.15 0 0 1 .914-2.576ZM484.098 264.754a5.595 5.595 0 0 1 .301 1.962 7.797 7.797 0 0 1-.248 1.82 7.662 7.662 0 0 1-.664 1.71 5.529 5.529 0 0 1-1.22 1.569 5.53 5.53 0 0 1-.303-1.963 7.668 7.668 0 0 1 .251-1.818 7.805 7.805 0 0 1 .667-1.711 5.598 5.598 0 0 1 1.216-1.57ZM417.191 348.332a15.428 15.428 0 0 1 3.332.665 25.217 25.217 0 0 1 3.095 1.182 24.784 24.784 0 0 1 2.917 1.571 15.23 15.23 0 0 1 2.677 2.093 15.233 15.233 0 0 1-3.333-.663 24.782 24.782 0 0 1-3.094-1.184 25.213 25.213 0 0 1-2.915-1.574 15.417 15.417 0 0 1-2.679-2.09ZM423.738 357.976a4.868 4.868 0 0 1 1.758-1.416 6.682 6.682 0 0 1 2.101-.63 6.613 6.613 0 0 1 2.193.08 4.83 4.83 0 0 1 2.057.933 11.641 11.641 0 0 1-2.064.64 22.231 22.231 0 0 1-3.887.493 11.91 11.91 0 0 1-2.158-.1ZM493.252 180.807a20.207 20.207 0 0 1-.16 3.975c-.063.653-.196 1.29-.296 1.935a36.136 36.136 0 0 1-.403 1.909l-1.944-.47c.156-.63.32-1.26.509-1.883.207-.62.377-1.247.62-1.857a19.983 19.983 0 0 1 1.674-3.609Zm0 0a19.983 19.983 0 0 1-.157 3.975c-.062.654-.198 1.29-.296 1.935a36.474 36.474 0 0 1-.406 1.909 1 1 0 1 1-1.947-.455l.003-.015c.158-.63.32-1.26.512-1.882.205-.62.377-1.247.62-1.857a20.206 20.206 0 0 1 1.67-3.61ZM495.46 153.874a10.831 10.831 0 0 1 .54 3.889 14.747 14.747 0 0 1-2.266 7.456 10.768 10.768 0 0 1-2.618 2.927c.382-1.273.811-2.442 1.214-3.607a103.892 103.892 0 0 0 2.131-6.993c.316-1.192.61-2.402.999-3.672ZM407.474 148.118a8.497 8.497 0 0 1 .28 2.224 13.36 13.36 0 0 1-.16 2.08 13.037 13.037 0 0 1-.48 2.031 8.369 8.369 0 0 1-.947 2.033 6.067 6.067 0 0 1-.616-2.196 8.585 8.585 0 0 1 .068-2.176 8.705 8.705 0 0 1 .601-2.092 6.13 6.13 0 0 1 1.254-1.904ZM328.973 68.667a8.262 8.262 0 0 1 2.564 1.55 11.572 11.572 0 0 1 1.964 2.206 11.451 11.451 0 0 1 1.347 2.629 8.192 8.192 0 0 1 .513 2.953 20.757 20.757 0 0 1-1.899-2.21 53.843 53.843 0 0 1-1.611-2.243 57.062 57.062 0 0 1-1.504-2.316 21.256 21.256 0 0 1-1.374-2.57ZM240.86 146.016a11.665 11.665 0 0 1-.18 2.933 18.553 18.553 0 0 1-.718 2.749 18.226 18.226 0 0 1-1.123 2.609 11.513 11.513 0 0 1-1.665 2.423 11.519 11.519 0 0 1 .178-2.935 18.24 18.24 0 0 1 .72-2.748 18.568 18.568 0 0 1 1.125-2.608 11.659 11.659 0 0 1 1.663-2.423ZM433.24 123.993c-1.822 1.84-3.74 3.528-5.42 5.376a21.855 21.855 0 0 0-4.075 6.037 19.494 19.494 0 0 0-1.476 7.284 50.932 50.932 0 0 0 .314 7.657 40.159 40.159 0 0 0 1.368 7.352 9.064 9.064 0 0 0 4.043 5.354 10.577 10.577 0 0 0 6.803.955 31.775 31.775 0 0 0 7.147-2.358.1.1 0 0 1 .1.173 20.965 20.965 0 0 1-6.902 3.722 11.145 11.145 0 0 1-8.163-.616 8.747 8.747 0 0 1-3.168-2.895 12.82 12.82 0 0 1-1.663-3.796 25.988 25.988 0 0 1-.66-7.843c.064-2.582.184-5.146.132-7.711-.034-2.544-.3-5.227.566-7.864a15.738 15.738 0 0 1 4.54-6.548 32.358 32.358 0 0 1 6.394-4.439.101.101 0 0 1 .12.16Z" class="colorfb8801 svgShape"></path><path fill="#f090d9" d="M424.756 132.893a3.217 3.217 0 0 1 2.451.675 5.043 5.043 0 0 1 1.62 2.148 9.68 9.68 0 0 1 .251 5.135 50.175 50.175 0 0 1-1.025 4.686c-.181.768-.494 1.577-.61 2.224a1.47 1.47 0 0 0 .092.944 1.017 1.017 0 0 0 .842.605 1.177 1.177 0 0 1-1.267-.248 2.093 2.093 0 0 1-.65-1.28 14.227 14.227 0 0 1 .055-2.509 51.76 51.76 0 0 1 .59-4.747 12.707 12.707 0 0 0 .236-4.35 4.286 4.286 0 0 0-2.585-3.283ZM432.583 138.814a2.649 2.649 0 0 1 1.1-1.232 3.429 3.429 0 0 1 1.486-.47 3.393 3.393 0 0 1 1.541.232 2.63 2.63 0 0 1 1.277 1.05 7.547 7.547 0 0 1-2.663.712 7.729 7.729 0 0 1-1.242-.009 7.61 7.61 0 0 1-1.499-.283ZM429.078 153.365a4.13 4.13 0 0 0 2.762-.335 4.421 4.421 0 0 1-1.23 2.081 2.223 2.223 0 0 1-1.86.998 2.15 2.15 0 0 1-1.673-1.019c-.393-.575-.64-2.254-.138-2.597s1.168.697 2.139.872ZM439.419 149.06a2.455 2.455 0 0 1 .544-.876 1.244 1.244 0 0 1 .592-.338 1.217 1.217 0 0 1 .68.052 2.433 2.433 0 0 1 .865.565 1.877 1.877 0 0 1-.455.953 1.268 1.268 0 0 1-.655.381 1.292 1.292 0 0 1-.756-.07 1.89 1.89 0 0 1-.815-.667Z" class="colorfb8801 svgShape"></path><path fill="#f090d9" d="M441.075 150.166a2.428 2.428 0 0 1 .24-.935.922.922 0 0 1 .406-.417.9.9 0 0 1 .579-.05 2.405 2.405 0 0 1 .875.41 1.777 1.777 0 0 1-.14.98.98.98 0 0 1-.46.468.998.998 0 0 1-.657.056 1.789 1.789 0 0 1-.843-.512Z" class="colorfb8801 svgShape"></path><path fill="#f090d9" d="M433.855 122.671a4.56 4.56 0 0 1 1.346 1.922 9.147 9.147 0 0 1 .496 2.303c.16 1.55.1 3.092.304 4.537a15.894 15.894 0 0 0 3.754 7.816c3.718 4.62 9.144 7.814 12.902 12.968a17.412 17.412 0 0 1 3.304 8.797 39.98 39.98 0 0 1-.578 9.212 2.8 2.8 0 0 0 .378 1.975 1.221 1.221 0 0 0 1.642.433 17.245 17.245 0 0 0 1.86-1.243 4.313 4.313 0 0 1 2.289-.836c1.686-.024 3.1.791 4.514 1.01a3.773 3.773 0 0 0 2.015-.158 7.329 7.329 0 0 0 1.819-1.098 12.206 12.206 0 0 1 4.036-2.584c1.748-.462 3.353.033 4.552-.278a3.46 3.46 0 0 0 1.583-.956 12.821 12.821 0 0 1 1.859-1.585 14.308 14.308 0 0 1 2.218-.963 4.37 4.37 0 0 0 1.547-1.081 9.273 9.273 0 0 0 1.91-3.629 16.214 16.214 0 0 0 .706-4.232 18.096 18.096 0 0 0-1.734-8.37 21.028 21.028 0 0 0-5.224-6.898 79.55 79.55 0 0 0-7.393-5.177 25.847 25.847 0 0 1-3.644-2.957 18.904 18.904 0 0 1-2.886-3.722 18.205 18.205 0 0 1-2.548-8.853.1.1 0 0 1 .098-.102.102.102 0 0 1 .102.088 19.078 19.078 0 0 0 3.201 8.323 17.749 17.749 0 0 0 2.927 3.311 28.471 28.471 0 0 0 3.614 2.596 67.935 67.935 0 0 1 7.784 5.016 22.334 22.334 0 0 1 5.896 7.461 19.317 19.317 0 0 1 1.89 9.38 18.246 18.246 0 0 1-.902 4.746 11.118 11.118 0 0 1-2.444 4.327 6.264 6.264 0 0 1-2.209 1.468 16.897 16.897 0 0 0-2.003.782 11.822 11.822 0 0 0-1.657 1.328 5.082 5.082 0 0 1-2.36 1.25c-1.814.312-3.306-.248-4.555.053a11.379 11.379 0 0 0-3.718 2.141 8.3 8.3 0 0 1-2.15 1.14 4.715 4.715 0 0 1-2.497.078c-1.571-.365-2.916-1.181-4.33-1.176a3.467 3.467 0 0 0-1.956.682 17.022 17.022 0 0 1-1.954 1.27 1.895 1.895 0 0 1-1.32.15 2.058 2.058 0 0 1-1.074-.765 3.413 3.413 0 0 1-.528-2.4 32.697 32.697 0 0 0 .118-9.022 16.283 16.283 0 0 0-3.53-7.933 53.936 53.936 0 0 0-6.316-6.36 47.073 47.073 0 0 1-6.474-6.65 16.22 16.22 0 0 1-3.593-8.667c-.124-1.592.096-3.11.076-4.604a5.858 5.858 0 0 0-1.299-4.117.1.1 0 0 1 .136-.147ZM421.933 138.814a11.127 11.127 0 0 1-2.026 5.228c-1.01 1.581-2.122 3.075-3.005 4.61a9.391 9.391 0 0 0-.977 2.328 6.05 6.05 0 0 0-.068 2.404 6.805 6.805 0 0 0 2.28 4.15 9.706 9.706 0 0 0 2.192 1.292 6.02 6.02 0 0 1 1.363.931 4.32 4.32 0 0 1 .998 1.434 9.215 9.215 0 0 1 .638 3.014 8.247 8.247 0 0 1-.303 3.036 4.654 4.654 0 0 1-4.75 3.546c-2.342-.187-3.371-3.396-1.703-4.588a2.106 2.106 0 0 0-.145 2.452 2.071 2.071 0 0 0 1.917 1.157 3.06 3.06 0 0 0 2.087-.928 3.865 3.865 0 0 0 1.086-2.041 7.838 7.838 0 0 0 .066-2.479 7.512 7.512 0 0 0-.61-2.372 2.922 2.922 0 0 0-1.538-1.424c-.378-.19-.81-.376-1.266-.617a7.976 7.976 0 0 1-4.183-6.312 7.866 7.866 0 0 1 .25-3.104 9.411 9.411 0 0 1 1.345-2.698c1.087-1.605 2.368-2.953 3.536-4.366a12.941 12.941 0 0 0 2.816-4.653Z" class="colorfb8801 svgShape"></path><path fill="#f090d9" d="M427.077 163.908a3.774 3.774 0 0 1-.2 2.295 5.232 5.232 0 0 1-3.311 3.04 3.753 3.753 0 0 1-2.305-.001c.588-.55 1.097-.965 1.576-1.393l1.376-1.226 1.343-1.263c.468-.44.925-.913 1.52-1.452ZM423.626 133.937a9.9 9.9 0 0 1-1.564-9.963 12.609 12.609 0 0 1 7.558-7.194c3.421-1.213 6.87-.773 10.128-1.352a62.29 62.29 0 0 0 9.646-2.782 31.134 31.134 0 0 1 10.068-1.997 15.554 15.554 0 0 1 10.098 3.117 7.385 7.385 0 0 1 1.793 2.28 12.408 12.408 0 0 1 .91 2.554c.22.832.402 1.61.665 2.359.252.76.557 1.52.882 2.285a32.814 32.814 0 0 1 1.757 4.811 8.989 8.989 0 0 1-.077 5.137.1.1 0 0 1-.194-.049 9.587 9.587 0 0 0-.696-4.79 38.752 38.752 0 0 0-2.213-4.433c-.394-.75-.788-1.519-1.128-2.33-.344-.818-.597-1.664-.854-2.44a13.203 13.203 0 0 0-.866-2.15 5.262 5.262 0 0 0-1.357-1.605 14.88 14.88 0 0 0-8.743-2.865 40.691 40.691 0 0 0-9.752 1.17c-3.268.726-6.507 1.674-9.82 2.366-3.31.72-6.764.923-9.632 2.261a13.062 13.062 0 0 0-6.74 6.238 10.348 10.348 0 0 0 .293 9.254.1.1 0 0 1-.037.137.102.102 0 0 1-.125-.02Z" class="colorfb8801 svgShape"></path><path fill="#f090d9" d="M460.13 125.552c.617.913 1.08 1.815 1.577 2.66a23.842 23.842 0 0 0 1.52 2.379 24.428 24.428 0 0 0 1.843 2.14 21.845 21.845 0 0 1 2.025 2.372 9.61 9.61 0 0 1-3-1.137 7.956 7.956 0 0 1-3.85-5.19 8.03 8.03 0 0 1-.115-3.224ZM452.255 121.943a25.402 25.402 0 0 0 3.368 12.403 75.409 75.409 0 0 0 7.456 10.657 64.914 64.914 0 0 1 7.436 11.07 28.14 28.14 0 0 1 2.279 6.335 22.859 22.859 0 0 1 .443 3.332c.015.56.03 1.117-.001 1.673a3.056 3.056 0 0 1-.353 1.62 2.936 2.936 0 0 0 .051-1.609 20.846 20.846 0 0 0-.248-1.618 25.457 25.457 0 0 0-.839-3.137 32.985 32.985 0 0 0-2.708-5.862 92.417 92.417 0 0 0-7.635-10.572 56.637 56.637 0 0 1-7.275-11.2c-1.859-4.063-2.9-8.721-1.974-13.092ZM441.435 119.867c.097 1.201.209 2.366.415 3.51a29.253 29.253 0 0 0 3.57 9.61 43.795 43.795 0 0 0 3.94 5.676c1.436 1.856 2.94 3.96 3.356 6.367a27.037 27.037 0 0 0-4.53-5.34 33.99 33.99 0 0 1-2.44-2.675 29.723 29.723 0 0 1-2.061-3.037 27.647 27.647 0 0 1-1.56-3.331 22.095 22.095 0 0 1-.97-3.549 19.19 19.19 0 0 1-.28-3.652 15.31 15.31 0 0 1 .56-3.58ZM456.512 148.284a75.278 75.278 0 0 1 3.49 4.932 34.912 34.912 0 0 1 2.912 5.356 19.324 19.324 0 0 1 1.52 6.024 11.523 11.523 0 0 1-1.033 6.068 25.062 25.062 0 0 0-2.33-11.316c-.755-1.789-1.607-3.566-2.434-5.387a33.41 33.41 0 0 1-2.125-5.677ZM469.181 143.853a20.802 20.802 0 0 1 4.717 4.54 26.236 26.236 0 0 1 5.154 12.03 20.71 20.71 0 0 1 .025 6.548c-.471-2.132-.952-4.192-1.549-6.21a54.352 54.352 0 0 0-4.921-11.502c-1.047-1.825-2.207-3.594-3.426-5.406ZM475.978 142.596a31.354 31.354 0 0 1 4.092 4.286 27.664 27.664 0 0 1 3.226 5.03 20.083 20.083 0 0 1 1.846 5.753 13.307 13.307 0 0 1-.32 5.982 31.308 31.308 0 0 0-1.201-5.632 38.098 38.098 0 0 0-2.121-5.224c-.831-1.695-1.755-3.361-2.716-5.036-.96-1.674-1.954-3.356-2.806-5.16ZM447.014 147.464a32.846 32.846 0 0 1 .897 4.193 22.664 22.664 0 0 1 .235 4.346 12.835 12.835 0 0 1-1 4.397 9.601 9.601 0 0 1-2.796 3.716l-.223-1.677a7.665 7.665 0 0 0 3.007.635 7.92 7.92 0 0 0 3.071-.604 8.63 8.63 0 0 0 4.508-4.725 7.685 7.685 0 0 1-3.829 6.056 8.21 8.21 0 0 1-3.694 1.106 8.421 8.421 0 0 1-3.85-.657.979.979 0 0 1-.258-1.647l.035-.03a8.729 8.729 0 0 0 2.285-2.976 13.475 13.475 0 0 0 1.175-3.76 33.495 33.495 0 0 0 .338-4.125c.063-1.403.05-2.817.1-4.248ZM438.686 163.738a10.027 10.027 0 0 1 3.064 2.947 11.055 11.055 0 0 1 1.058 1.897 5.685 5.685 0 0 1 .54 2.318 7.785 7.785 0 0 1-1.436 4.263 10.038 10.038 0 0 1-3.021 2.992c.584-1.297 1.162-2.509 1.64-3.72a10.13 10.13 0 0 0 .818-3.526 10.797 10.797 0 0 0-.963-3.478c-.493-1.21-1.094-2.403-1.7-3.693ZM441.891 193.296a42.276 42.276 0 0 0-5.953 8.373 100.59 100.59 0 0 0-4.369 9.296c-1.374 3.166-2.691 6.386-4.337 9.495a21.93 21.93 0 0 1-2.975 4.424 10.005 10.005 0 0 1-4.366 2.965c3.015-1.853 4.589-4.968 5.934-8.064l3.907-9.606a57.667 57.667 0 0 1 4.878-9.32 26.727 26.727 0 0 1 7.281-7.563Z" class="colorfb8801 svgShape"></path><path fill="#f090d9" d="M442.434 171.409a18.014 18.014 0 0 0-3.365 1.196 17.594 17.594 0 0 0-2.99 1.875 25.632 25.632 0 0 0-4.866 5.08 47.062 47.062 0 0 0-3.756 6.024c-1.094 2.111-2.102 4.28-3.126 6.464-1.036 2.177-2.086 4.367-3.22 6.521-1.139 2.156-2.391 4.23-3.541 6.35a47.117 47.117 0 0 0-3.009 6.544 23.743 23.743 0 0 0-.967 3.443 12.403 12.403 0 0 0-.307 3.466 6.847 6.847 0 0 0 1.072 3.147c.59.984 1.327 2.015 1.883 3.136a23.632 23.632 0 0 1 2.384 7.092c.81 4.986.08 9.886.85 14.42a5.54 5.54 0 0 0 .965 2.792 5.654 5.654 0 0 0 2.776 1.06 65.06 65.06 0 0 0 7.066.99 58.194 58.194 0 0 1 7.24 1.085 22.192 22.192 0 0 1 3.518 1.124c.557.237 1.142.525 1.647.774.496.247 1.12.274 1.712.504a.1.1 0 0 1 .06.129.102.102 0 0 1-.114.064 13.834 13.834 0 0 1-1.833-.214c-.618-.194-1.137-.402-1.718-.57a29.616 29.616 0 0 0-3.474-.76c-2.353-.35-4.744-.408-7.158-.527a55.348 55.348 0 0 1-7.327-.672 16.203 16.203 0 0 1-1.88-.417 4.667 4.667 0 0 1-1.99-1.126 4.986 4.986 0 0 1-1.142-1.964 14.748 14.748 0 0 1-.459-1.908c-.855-5.038.065-9.9-.586-14.502a24.08 24.08 0 0 0-1.943-6.685c-.477-1.067-1.08-2.057-1.65-3.191a8.152 8.152 0 0 1-.968-3.735 13.325 13.325 0 0 1 .561-3.705 33.197 33.197 0 0 1 1.157-3.483c.884-2.274 1.963-4.453 3.054-6.613 1.082-2.166 2.16-4.33 3.1-6.537.954-2.204 1.8-4.46 2.71-6.706a48.748 48.748 0 0 1 7.195-12.767 23.35 23.35 0 0 1 5.478-4.997 15.159 15.159 0 0 1 6.93-2.4.1.1 0 0 1 .109.093.103.103 0 0 1-.078.106Z" class="colorfb8801 svgShape"></path><path fill="#f090d9" d="M454.91 172.024a4.316 4.316 0 0 1-1.56 2.89 10.18 10.18 0 0 1-2.87 1.72 36.912 36.912 0 0 1-6.167 1.88c-1.059.2-2.123.38-3.199.494a28.428 28.428 0 0 1-3.242.127 22.946 22.946 0 0 1-3.228-.3l-.798-.155a2.35 2.35 0 0 1-.86-.335.953.953 0 0 1-.429-.864c.012-.302.185-.537.128-.795.157.238.085.552.173.77a.518.518 0 0 0 .392.401 5.1 5.1 0 0 0 1.446-.002 61.58 61.58 0 0 0 3.104-.28 70.633 70.633 0 0 0 6.109-1.018c2.022-.4 4.061-.908 6.067-1.393a12.57 12.57 0 0 0 2.804-1.044 4.763 4.763 0 0 0 2.13-2.096ZM454.75 184.829c-1.875 1.081-2.833 3.02-3.62 4.926a51.191 51.191 0 0 0-2.04 5.923 101.125 101.125 0 0 0-2.46 12.316l-1.88 12.537c-.302 2.089-.613 4.177-.872 6.273a6.69 6.69 0 0 0 .018 2.991 2.248 2.248 0 0 0 .857 1.145 1.637 1.637 0 0 0 1.45.278 1.787 1.787 0 0 1-1.6-.016 2.66 2.66 0 0 1-1.216-1.187 7.043 7.043 0 0 1-.489-3.279q.046-3.195.3-6.38c.331-4.249.857-8.444 1.456-12.66a67.583 67.583 0 0 1 2.955-12.49 38.448 38.448 0 0 1 2.643-5.88 14.765 14.765 0 0 1 1.846-2.679 6.16 6.16 0 0 1 2.652-1.818Z" class="colorfb8801 svgShape"></path><path fill="#f090d9" d="m448.997 321.367-1.508 13.973.001-.134c.072.852.175 1.6.22 2.536a22.121 22.121 0 0 1-.128 2.588l-.283 2.51a24.396 24.396 0 0 1-.369 2.582 2.776 2.776 0 0 1-.335.764 1.343 1.343 0 0 1-1.026.63 1.366 1.366 0 0 1-.62-.127 1.616 1.616 0 0 1-.234-.137l-.06-.043a1.068 1.068 0 0 1-.13-.128 1.127 1.127 0 0 1-.12-.18 3.142 3.142 0 0 1-.243-.773 20.822 20.822 0 0 1-.311-2.567 17.574 17.574 0 0 1-.076-2.623 1.888 1.888 0 0 1 .037-.234l.01-.068a1.715 1.715 0 0 0 .001-.222 3.789 3.789 0 0 0-.068-.53 4.681 4.681 0 0 0-.134-.532 1.907 1.907 0 0 0-.079-.209c-.002-.004-.01-.02-.002-.005l.026.032a.553.553 0 0 0 .13.107.605.605 0 0 0 .687-.058.527.527 0 0 0 .132-.153.536.536 0 0 0 .036-.075l.018-.06.002-.008a.559.559 0 0 0-.002-.178l.005.157a5.346 5.346 0 0 0 .04.583l.082.695.188 1.413.188 1.423a10.67 10.67 0 0 1 .105 1.52l-.005-.108.002.013.001.01a.51.51 0 0 1 .004.098 38.304 38.304 0 0 1-.654 5.289c-.098.44-.194.88-.337 1.322a5.552 5.552 0 0 1-.261.704 1.262 1.262 0 0 1-.875.66 1.29 1.29 0 0 1-1.057-.249 1.469 1.469 0 0 1-.487-.838 14.64 14.64 0 0 1-.295-1.328 19.552 19.552 0 0 1-.303-2.67 63.021 63.021 0 0 0-.193-2.592c-.08-.866-.162-1.734-.271-2.596l-.18-1.28a2.988 2.988 0 0 0-.126-.551.833.833 0 0 0-.077-.167c-.004-.01-.006.008.064.047a.37.37 0 0 0 .417-.057l.052-.051c.12-.187.042-.084.058-.048a2.002 2.002 0 0 0-.004.2l.02.507.007 1.037-.03 2.056q-.05 2.053-.167 4.105a60.587 60.587 0 0 1-.37 4.114 19.77 19.77 0 0 1-.373 2.081l-.15.535a2.562 2.562 0 0 1-.295.593 2.938 2.938 0 0 1-.406.526.914.914 0 0 1-.147.115.772.772 0 0 1-.237.097.63.63 0 0 1-.13.014.92.92 0 0 1-.392-.067 1.157 1.157 0 0 1-.444-.338 3.34 3.34 0 0 1-.544-1.153 11.454 11.454 0 0 1-.256-1.053 28.951 28.951 0 0 1-.29-2.071c-.154-1.375-.208-2.748-.257-4.12-.04-1.37-.054-2.739-.06-4.113l.016-1.04.03-.535a2.675 2.675 0 0 0 0-.431 2.381 2.381 0 0 0-.216-.808 1.17 1.17 0 0 0-.188-.285c-.008-.018-.076-.031.068.012a.397.397 0 0 0 .303-.095c.047-.053.055-.068.065-.08l.012-.028.004-.014a.562.562 0 0 0 .015-.206l-.01.195a11.89 11.89 0 0 0-.088 1.102l-.05 1.198-.093 2.409c-.062 1.61-.136 3.222-.294 4.842a27.534 27.534 0 0 1-.33 2.442 10.216 10.216 0 0 1-.306 1.252 4.204 4.204 0 0 1-.28.67 1.43 1.43 0 0 1-.822.733 1.015 1.015 0 0 1-.866-.137 1.441 1.441 0 0 1-.395-.423 3.34 3.34 0 0 1-.32-.7 9.078 9.078 0 0 1-.312-1.265 28.61 28.61 0 0 1-.318-2.452 59.14 59.14 0 0 1-.243-4.865l.002-.625.047-.632c.025-.385.042-.776.05-1.17l.023-2.381c-.009-3.191-.146-6.396-.294-9.595l.952.394a13.973 13.973 0 0 0-1.858 2.45c-.58.9-1.135 1.824-1.683 2.753l-.803 1.406a5.59 5.59 0 0 1-1.015 1.442 2.45 2.45 0 0 1-1.827.702 2.83 2.83 0 0 1-.947-.227 3.36 3.36 0 0 1-.826-.496.464.464 0 0 1-.06-.653l.028-.032.006-.006a4.474 4.474 0 0 0 1.016-2.174 20.156 20.156 0 0 1 .668-2.7 5.628 5.628 0 0 1 .364-.641l.354-.575c.224-.385.484-.768.68-1.156l.596-1.164q.307-.618.65-1.219a36.027 36.027 0 0 1 3.151-4.48l1.66-2.125.854-1.051.442-.525.232-.267a3.455 3.455 0 0 1 .344-.344l-.315.469c2.512-9.119 2.59-18.729 3.292-28.299.178-2.398.398-4.8.698-7.2.313-2.399.701-4.782 1.149-7.148.886-4.734 1.964-9.406 2.914-14.079 1.89-9.26 1.751-18.85 2.686-28.467.491-4.789 1.2-9.704 3.182-14.324a19.612 19.612 0 0 1 4.209-6.34 14.349 14.349 0 0 1 3.144-2.331 9.888 9.888 0 0 1 3.876-1.247 6.496 6.496 0 0 1 2.204.167 5.283 5.283 0 0 1 2.075 1.081 7.297 7.297 0 0 1 2.105 3.713 26.624 26.624 0 0 1 .638 3.724q.201 1.847.223 3.702c.026 1.246-.052 2.446-.098 3.649l-.152 3.613c-.127 2.407-.361 4.805-.537 7.209a252.103 252.103 0 0 1-4.606 28.47c-3.952 18.78-9.313 37.21-12.007 56.096Zm-1.508-.18c2.463-19.11 7.527-37.657 11.291-56.376a279.508 279.508 0 0 0 4.344-28.247c.174-2.371.406-4.74.532-7.113l.152-3.561c.046-1.19.122-2.38.098-3.528q-.023-1.738-.208-3.464a24.421 24.421 0 0 0-.565-3.349 4.909 4.909 0 0 0-1.326-2.474 3.21 3.21 0 0 0-2.442-.655 9.932 9.932 0 0 0-5.519 2.874 17.192 17.192 0 0 0-3.702 5.536c-1.837 4.203-2.572 8.89-3.077 13.594-.98 9.42-.888 19.119-2.893 28.666-.986 4.703-2.09 9.357-2.995 14.03a124.279 124.279 0 0 0-1.174 7.023c-.308 2.349-.54 4.714-.731 7.088-.761 9.476-.882 19.222-3.532 28.634a.803.803 0 0 1-.184.33l-.13.14-.344.368-.438.492-.88 1.005-1.768 2.018c-.581.675-1.193 1.357-1.736 2.021a22.992 22.992 0 0 0-1.513 2.13q-.348.553-.665 1.126l-.684 1.2c-.228.404-.49.753-.732 1.132l-.366.562a5.426 5.426 0 0 0-.317.515c-.607 1.414-.51 3.568-1.996 5.092l-.026-.69a2.528 2.528 0 0 0 .568.327 1.868 1.868 0 0 0 .624.148 1.47 1.47 0 0 0 1.11-.449 4.706 4.706 0 0 0 .824-1.214l.799-1.419a84.54 84.54 0 0 1 1.637-2.828 14.417 14.417 0 0 1 2.01-2.746.558.558 0 0 1 .949.353l.003.04c.243 3.212.487 6.419.582 9.65.021.808.046 1.618.028 2.435q-.008.611-.043 1.235l-.04.57.002.577c.033 1.584.07 3.181.195 4.756.063.786.141 1.57.268 2.327a9.211 9.211 0 0 0 .241 1.077 2.12 2.12 0 0 0 .161.4c.022.044.046.056.001.025a.427.427 0 0 0-.295-.046c-.145.078-.033.03.022-.083a2.931 2.931 0 0 0 .194-.435 8.96 8.96 0 0 0 .295-1.078c.165-.755.282-1.537.381-2.32.2-1.571.32-3.166.43-4.762l.135-2.401.07-1.208a10.375 10.375 0 0 1 .134-1.294l-.01.195a.589.589 0 0 1 .021-.237l.017-.043.04-.085a.538.538 0 0 1 .137-.183.639.639 0 0 1 .534-.164.89.89 0 0 1 .495.276 2.1 2.1 0 0 1 .375.563 3.358 3.358 0 0 1 .294 1.16 4.05 4.05 0 0 1-.005.59l-.02.485-.004 1.005c.006 1.351.086 2.708.183 4.06.098 1.35.241 2.697.397 4.03.082.666.184 1.327.31 1.973.059.321.127.639.212.936a2.454 2.454 0 0 0 .286.701c.017.028.014.003-.05-.02a.339.339 0 0 0-.144-.024l-.066.011a.584.584 0 0 0-.18.07.26.26 0 0 0-.047.035 2.115 2.115 0 0 0 .214-.284 1.397 1.397 0 0 0 .169-.313l.132-.449a18.615 18.615 0 0 0 .373-1.936c.193-1.325.319-2.673.422-4.023q.149-2.027.225-4.063l.06-2.032.008-1.007-.012-.515a2.998 2.998 0 0 1 .013-.31.906.906 0 0 1 .198-.533.18.18 0 0 1 .035-.038l.017-.014a.652.652 0 0 1 .726-.069.847.847 0 0 1 .297.274 1.745 1.745 0 0 1 .203.423 4.001 4.001 0 0 1 .16.727l.165 1.318.287 2.618c.085.875.169 1.746.22 2.636a18.509 18.509 0 0 0 .31 2.532c.08.417.17.831.285 1.228.072.26.077.242.126.29a.222.222 0 0 0 .18.035.178.178 0 0 0 .132-.105c.04-.1.133-.348.183-.528.123-.391.21-.807.298-1.22a37.017 37.017 0 0 0 .557-5.12l.005.108-.002-.013a.5.5 0 0 1-.006-.088v-.02a10.118 10.118 0 0 0-.118-1.323l-.206-1.403-.21-1.415-.096-.72a5.053 5.053 0 0 1-.054-.84l.005.157a.768.768 0 0 1 .002-.217l.009-.048a.723.723 0 0 1 .038-.134.642.642 0 0 1 .051-.11.749.749 0 0 1 .155-.186.67.67 0 0 1 .76-.056.752.752 0 0 1 .187.16.81.81 0 0 1 .072.095 1.283 1.283 0 0 1 .075.131 2.977 2.977 0 0 1 .152.374 5.955 5.955 0 0 1 .183.68 5.064 5.064 0 0 1 .1.71 2.774 2.774 0 0 1 0 .404 2.029 2.029 0 0 1-.036.242l-.01.076a17.03 17.03 0 0 0 .095 2.383 19.883 19.883 0 0 0 .305 2.405 2.507 2.507 0 0 0 .12.423.199.199 0 0 0-.034-.048.356.356 0 0 0-.077-.073c-.008-.006.005.002.005.002a.318.318 0 0 0 .035.022c.018.006.014-.001-.012.002-.075-.002-.084.055-.02-.038a1.542 1.542 0 0 0 .155-.385c.158-.64.202-1.563.31-2.38l.261-2.475a20.858 20.858 0 0 0 .105-2.418c-.038-.732-.158-1.643-.233-2.456a.66.66 0 0 1 0-.124l.001-.01Z" class="colorfb8801 svgShape"></path><path fill="#f090d9" d="M460.707 439.592a5.351 5.351 0 0 0 4.122-.393 7.57 7.57 0 0 0 3.11-2.773 8.09 8.09 0 0 0 1.005-4.012 20.294 20.294 0 0 0-.432-4.243c-1.25-5.663-2.673-11.359-4.005-17.028-2.62-11.353-6.07-22.552-7.891-34.184a107.014 107.014 0 0 1-1.241-17.569c.051-2.934.175-5.865.435-8.783.215-2.922.552-5.832.935-8.733.824-5.795 1.9-11.548 3.177-17.257 1.303-5.7 2.79-11.368 4.323-16.995a112.736 112.736 0 0 0 3.442-17.044 47.362 47.362 0 0 0 .141-8.594 40.256 40.256 0 0 0-1.603-8.399c-.806-2.748-1.914-5.45-2.755-8.32a36.748 36.748 0 0 1-1.47-8.85 65.511 65.511 0 0 1 1.643-17.664 41.187 41.187 0 0 1 2.797-8.505 48.73 48.73 0 0 1 2.024-3.986l1.077-1.893c.364-.613.684-1.248.991-1.89a38.65 38.65 0 0 0 3.87-16.544 49.299 49.299 0 0 0-2.878-16.954c-1.91-5.463-4.435-10.853-5.453-16.65a.1.1 0 0 1 .197-.038c1.274 5.712 4.088 10.862 6.207 16.338a49.084 49.084 0 0 1 3.493 17.308 40.404 40.404 0 0 1-3.694 17.368c-.309.682-.632 1.357-1 2.01-.353.666-.71 1.318-1.063 1.927a46.73 46.73 0 0 0-1.923 3.831 39.11 39.11 0 0 0-2.629 8.116 67.331 67.331 0 0 0-1.578 17.124 34.637 34.637 0 0 0 1.293 8.405c.767 2.746 1.848 5.475 2.655 8.342a40.42 40.42 0 0 1 1.555 8.799 49.028 49.028 0 0 1-.324 8.894 105.894 105.894 0 0 1-3.967 17.162c-3.424 11.158-6.458 22.46-7.857 34.05a112.882 112.882 0 0 0 .818 34.723c.956 5.727 2.368 11.375 3.705 17.051 1.367 5.668 2.777 11.352 4.038 17.06.65 2.85 1.226 5.716 1.817 8.577.573 2.872 1.198 5.7 1.717 8.613a19.028 19.028 0 0 1 .282 4.468 10.963 10.963 0 0 1-.38 2.236 6.728 6.728 0 0 1-.94 2.092 8.125 8.125 0 0 1-3.475 2.832 5.62 5.62 0 0 1-4.385.16.1.1 0 0 1 .074-.185Z" class="colorfb8801 svgShape"></path><path fill="#f090d9" d="M468.838 435.155a24.407 24.407 0 0 0-7.673-1.04 40.325 40.325 0 0 0-7.693.974c-5.084 1.047-10.048 2.694-15.194 3.85a.609.609 0 0 1-.12.014h-.03l.145-.015a43.94 43.94 0 0 1-8.588 1.178 28.997 28.997 0 0 1-8.678-1.045c-5.636-1.528-10.746-4.189-16.005-6.117a33.996 33.996 0 0 0-8.078-1.935 37.492 37.492 0 0 0-8.33.232c-5.578.734-11.015 2.438-16.608 3.714a21.458 21.458 0 0 1-4.327.512 9.904 9.904 0 0 1-4.329-.86 7.027 7.027 0 0 1-3.2-3.06 9.555 9.555 0 0 1-1.026-4.272c-.086-2.965 1.096-5.744 2.389-8.268l2.009-3.77a41.38 41.38 0 0 0 1.746-3.856c2.06-5.277 2.92-10.924 4.062-16.507a97.557 97.557 0 0 1 4.77-16.492c2.04-5.348 4.338-10.573 6.529-15.813 1.111-2.614 2.117-5.265 3.164-7.902.975-2.665 1.99-5.315 2.9-8.005 3.715-10.732 7.026-21.616 10.336-32.516 3.288-10.905 6.802-21.771 10.82-32.46 1.04-2.66 2.083-5.316 3.21-7.94 1.085-2.64 2.26-5.244 3.467-7.83a169.36 169.36 0 0 1 8.081-15.082.1.1 0 0 1 .174.1 216.186 216.186 0 0 0-13.541 31.264 412.892 412.892 0 0 0-5.342 16.19l-4.925 16.345c-3.286 10.901-6.464 21.866-10.389 32.6-.943 2.695-1.994 5.354-3.004 8.026-1.084 2.645-2.127 5.308-3.272 7.924-2.267 5.24-4.678 10.392-6.789 15.654a97.753 97.753 0 0 0-5.152 16.16c-1.248 5.535-2.34 11.186-4.44 16.544a42.063 42.063 0 0 1-1.812 3.906l-2.042 3.751a15.724 15.724 0 0 0-2.287 7.96 8.876 8.876 0 0 0 .992 3.95 6.282 6.282 0 0 0 2.899 2.706 8.61 8.61 0 0 0 3.989.707 20.57 20.57 0 0 0 4.125-.619c5.464-1.423 10.893-3.31 16.605-4.235a34.716 34.716 0 0 1 8.701-.428 35.712 35.712 0 0 1 8.513 1.95c5.468 1.893 10.47 4.693 15.853 6.175a27.356 27.356 0 0 0 8.207 1.086 48.57 48.57 0 0 0 8.334-.992l.023-.004a.63.63 0 0 1 .122-.01h.006l-.143.014c5.086-.988 10.114-2.499 15.302-3.416a40.972 40.972 0 0 1 7.875-.642 23.153 23.153 0 0 1 7.734 1.456.1.1 0 0 1-.065.19Z" class="colorfb8801 svgShape"></path><path fill="#f090d9" d="M431.847 258.295c-1.121 6.428-2.534 12.809-4.13 19.143q-2.489 9.474-5.375 18.838c-3.811 12.49-8.132 24.802-11.9 37.267-1.98 6.203-3.777 12.456-5.457 18.738-.793 3.152-1.616 6.298-2.292 9.477q-1.086 4.753-1.984 9.538a121.659 121.659 0 0 0-2.106 19.332 78.66 78.66 0 0 0 1.781 19.375 73.69 73.69 0 0 1-2.762-19.38 121.557 121.557 0 0 1 1.57-19.583 290.965 290.965 0 0 1 9.343-38.088c3.94-12.46 8.232-24.78 12.348-37.142a496.963 496.963 0 0 0 5.894-18.632c1.91-6.23 3.507-12.546 5.07-18.883ZM437.923 359.232a247.513 247.513 0 0 0 .147 38.412c.523 6.373 1.358 12.72 2.418 19.034q1.63 9.465 3.905 18.854a130.977 130.977 0 0 1-5.438-18.558 151.104 151.104 0 0 1-2.877-19.161 142.265 142.265 0 0 1 1.845-38.581ZM442.805 437.392a64.524 64.524 0 0 1 1.981 14.553 73.43 73.43 0 0 1-1.112 14.715 15.92 15.92 0 0 1-2.761 7.177 18.356 18.356 0 0 1-6.07 4.614 25.423 25.423 0 0 1-7.084 2.36 26.602 26.602 0 0 1-3.689.357 7.7 7.7 0 0 0-3.515.677 7.266 7.266 0 0 1 3.46-1.229 29.51 29.51 0 0 0 3.528-.763 27.964 27.964 0 0 0 6.553-2.773 18.098 18.098 0 0 0 5.314-4.395 14.39 14.39 0 0 0 2.297-6.38 100.384 100.384 0 0 0 1.524-14.366 122.31 122.31 0 0 0-.426-14.547ZM460.959 433.804c-.101 4.625-.224 9.22-.26 13.813-.024 4.592-.008 9.179.132 13.763.102 4.586.326 9.168.577 13.755l.887 13.79a114.294 114.294 0 0 1-2.441-13.651c-.571-4.592-.883-9.214-1.022-13.841-.1-4.628-.03-9.262.313-13.878a107.333 107.333 0 0 1 1.814-13.75Z" class="colorfb8801 svgShape"></path><path fill="#f090d9" d="M403.923 432.16c.08 7.283-.07 14.551-.36 21.81-.16 3.652-.266 7.21-.572 10.938a20.269 20.269 0 0 1-1.249 5.648 13.773 13.773 0 0 1-3.328 4.903c-5.75 5.12-12.865 7.83-20.1 9.074-1.786.368-3.76.241-4.908 1.372a1.805 1.805 0 0 0-.54 1.976 3.235 3.235 0 0 0 1.725 1.537 13.445 13.445 0 0 0 2.491.802c.874.215 1.756.4 2.639.578 1.766.35 3.546.636 5.333.88a135.044 135.044 0 0 0 21.49 1.28 52.194 52.194 0 0 0 5.274-.517 9.897 9.897 0 0 0 4.421-1.428 3.3 3.3 0 0 0 1.096-1.45 8.664 8.664 0 0 0 .47-2.231l.54-5.4c1.564-14.444 3.377-28.863 5.757-43.225a.15.15 0 0 1 .298.03c-.496 14.55-1.559 29.043-2.871 43.51l-.545 5.441a11.643 11.643 0 0 1-.693 3.073 6.327 6.327 0 0 1-2.216 2.783 12.625 12.625 0 0 1-5.855 1.844 55.13 55.13 0 0 1-5.579.39 74.294 74.294 0 0 1-11.044-.662c-3.644-.441-7.226-1.102-10.817-1.82a91.555 91.555 0 0 1-5.351-1.24 74.085 74.085 0 0 1-2.643-.758 14.384 14.384 0 0 1-2.65-.968 4.33 4.33 0 0 1-2.153-2.111 2.6 2.6 0 0 1-.06-1.637 3.101 3.101 0 0 1 .85-1.336 5.256 5.256 0 0 1 2.68-1.224l2.69-.447a35.352 35.352 0 0 0 10.05-3.633 39.126 39.126 0 0 0 4.508-2.82 26.315 26.315 0 0 0 3.928-3.408 12.484 12.484 0 0 0 2.624-4.128 20.901 20.901 0 0 0 1.096-4.959c.198-1.737.3-3.562.44-5.373l.454-5.43c.623-7.238 1.386-14.468 2.38-21.683a.15.15 0 0 1 .3.019Z" class="colorfb8801 svgShape"></path><path fill="#f090d9" d="M373.542 485.211a2.132 2.132 0 0 1 2.207-.816 2.539 2.539 0 0 1 1.775 2.076 3.632 3.632 0 0 1-.001 1.229 4.66 4.66 0 0 1-.32 1.042 3.805 3.805 0 0 1-1.338 1.714 19.69 19.69 0 0 1-.204-2.022 11.537 11.537 0 0 0-.106-1.613 1.98 1.98 0 0 0-.403-.977 3.233 3.233 0 0 0-1.61-.633Z" class="colorfb8801 svgShape"></path><path fill="#f090d9" d="M385.604 492.657c-.641-.58-1.27-1.17-1.938-1.665a6.248 6.248 0 0 0-2.11-1.092 11.82 11.82 0 0 0-2.397-.272 12.2 12.2 0 0 1-2.7-.336.86.86 0 0 1 .048-1.667l.055-.012c1.908-.418 3.823-.792 5.743-1.14 1.921-.34 3.844-.672 5.778-.943 1.923-.288 3.889-.518 5.797-.733 1.858-.24 3.754-.675 5.079-2.19a5.13 5.13 0 0 1-2.012 2.227 10.316 10.316 0 0 1-2.818 1.177c-1.926.51-3.81.923-5.728 1.323-1.91.407-3.83.753-5.752 1.09-1.923.33-3.851.634-5.787.893l.103-1.68a14.074 14.074 0 0 0 2.349.524 10.116 10.116 0 0 1 2.628.684 6.335 6.335 0 0 1 2.171 1.668 14.761 14.761 0 0 1 1.491 2.144ZM315.566 96.625a4.8 4.8 0 0 1 1.759-1.331 4.946 4.946 0 0 1 2.204-.435 4.123 4.123 0 0 1 2.236.749 2.663 2.663 0 0 1 1.191 1.982 7.602 7.602 0 0 0-1.859-.559 12.69 12.69 0 0 0-1.65-.174c-.56-.024-1.145-.024-1.784-.033a10.521 10.521 0 0 1-2.097-.199Z" class="colorfb8801 svgShape"></path><ellipse cx="319.547" cy="102.808" fill="#f090d9" rx="1.779" ry="1.701" class="colorfb8801 svgShape"></ellipse><path fill="#f090d9" d="M310.18 104.251a2.63 2.63 0 0 1 1.405-.253 2.995 2.995 0 0 1 1.192.373 2.95 2.95 0 0 1 .935.828 2.61 2.61 0 0 1 .503 1.337 3.776 3.776 0 0 1-1.379-.03 3.593 3.593 0 0 1-1.045-.395 3.678 3.678 0 0 1-.874-.696 3.826 3.826 0 0 1-.737-1.164Z" class="colorfb8801 svgShape"></path><path fill="#f090d9" d="M310.384 105.762a3.238 3.238 0 0 1 1.537-.14 3.862 3.862 0 0 1 1.297.435 3.8 3.8 0 0 1 1.063.86 3.208 3.208 0 0 1 .704 1.375 3.923 3.923 0 0 1-1.517-.03 4.392 4.392 0 0 1-1.214-.453 4.486 4.486 0 0 1-1.032-.784 3.972 3.972 0 0 1-.838-1.263Z" class="colorfb8801 svgShape"></path><path fill="#f090d9" d="M326.413 83.502a21.441 21.441 0 0 0 1.241 8.767c.252.696.556 1.415.775 2.218a5.925 5.925 0 0 1 .154 2.644 8.062 8.062 0 0 1-.974 2.327 5.511 5.511 0 0 0-.7 1.83 8.702 8.702 0 0 0 .538 4.141c.23.715.491 1.438.716 2.183.112.373.23.746.322 1.128a3.115 3.115 0 0 1 .11 1.277 1.965 1.965 0 0 1-.706 1.129 7.336 7.336 0 0 1-.996.677c-.68.399-1.392.687-2.033 1.06a4.404 4.404 0 0 0-1.6 1.357 8.125 8.125 0 0 0-.834 1.976c-.818 2.826-.847 5.892-1.9 8.984a4.668 4.668 0 0 1-1.602 2.29 7.96 7.96 0 0 1-2.333 1.168l-.573.186c-.196.058-.348.112-.622.173a5.222 5.222 0 0 1-1.428.09 15.543 15.543 0 0 1-2.417-.424 30.446 30.446 0 0 1-8.653-3.592 22.25 22.25 0 0 1-3.757-2.824 6.874 6.874 0 0 1-2.228-4.116.1.1 0 0 1 .091-.11.102.102 0 0 1 .105.07 7.085 7.085 0 0 0 2.692 3.39 24.66 24.66 0 0 0 3.853 2.208 37.71 37.71 0 0 0 8.378 2.895 16.594 16.594 0 0 0 2.078.375 3.114 3.114 0 0 0 .845-.042c.25-.06.69-.172 1.004-.265a6.056 6.056 0 0 0 1.78-.772 2.682 2.682 0 0 0 1.025-1.36c1.017-2.656 1.386-5.783 2.636-8.707a8.935 8.935 0 0 1 1.174-2.112 5.987 5.987 0 0 1 1.968-1.438c.706-.34 1.406-.634 2.05-.99.628-.349 1.287-.819 1.364-1.382a2.216 2.216 0 0 0-.168-.972c-.117-.35-.244-.7-.396-1.041-.305-.683-.651-1.358-.98-2.06a9.677 9.677 0 0 1-1.157-4.744 6.229 6.229 0 0 1 .777-2.463 8.66 8.66 0 0 0 .817-1.86c.273-1.141-.234-2.53-.668-4.021a16.184 16.184 0 0 1 .036-9.285.1.1 0 0 1 .196.037ZM288.524 104.442c.17.689.779 1.536 1.192 2.567a4.414 4.414 0 0 1 .242.861 6.32 6.32 0 0 1 .046.809 14.07 14.07 0 0 0 .07 1.405 2.808 2.808 0 0 0 1.21 2.191 1.454 1.454 0 0 0 2.144-.897 1.708 1.708 0 0 1-2.352 1.368 3.55 3.55 0 0 1-2.007-2.44 14.957 14.957 0 0 1-.343-1.49 2.844 2.844 0 0 0-.393-1.155 26.311 26.311 0 0 1-1.683-2.52l-.01-.02a1.007 1.007 0 0 1 1.812-.876 1.064 1.064 0 0 1 .072.197ZM292.133 102.278a1.361 1.361 0 0 0-.012 1.372c.164.244.423.488.803.936a3.275 3.275 0 0 1 .885 1.973c-.016.87-.416 1.19-.579 1.868-.65-.412-.728-1.305-.965-1.572-.196-.263-.487-.526-.875-.986a3.012 3.012 0 0 1-.83-2.077 1.534 1.534 0 0 1 1.573-1.514ZM294.46 109.55a.877.877 0 0 0 .057-.618c-.012-.181-.043-.363-.042-.533a3.791 3.791 0 0 1 .105-1.013 3.842 3.842 0 0 1 .388-.972c.18-.34.435-.594.725-1.062a1.772 1.772 0 0 1 .84 1.22 2.724 2.724 0 0 1-.012 1.293 2.772 2.772 0 0 1-.614 1.17 2.43 2.43 0 0 1-.6.472c-.246.111-.597.243-.847.043ZM279.402 132.893a1 1 0 0 1-.654-1.757 10.386 10.386 0 0 0 2.714-3.751c.292-.87 2.697-12.152 3.127-15.665a1 1 0 0 1 1.986.244c-.436 3.553-2.819 14.868-3.217 16.057a12.293 12.293 0 0 1-3.303 4.628.996.996 0 0 1-.653.244ZM262.839 66.67a15.09 15.09 0 0 1 1.589 2.33 29.16 29.16 0 0 1 1.209 2.395c.365.811.695 1.638.987 2.495a14.819 14.819 0 0 1 .681 2.738 8.593 8.593 0 0 1-2.068-1.996 12.368 12.368 0 0 1-1.425-2.418 12.517 12.517 0 0 1-.856-2.674 8.672 8.672 0 0 1-.117-2.87ZM265.703 67.317a10.149 10.149 0 0 1 1.283 1.82 17.299 17.299 0 0 1 .897 1.844 16.77 16.77 0 0 1 .675 1.936 9.978 9.978 0 0 1 .38 2.195 5.477 5.477 0 0 1-1.771-1.46 7.6 7.6 0 0 1-1.13-1.904 7.694 7.694 0 0 1-.547-2.146 5.527 5.527 0 0 1 .213-2.285Z" class="colorfb8801 svgShape"></path><path fill="#f090d9" d="M281.827 129.399a4.935 4.935 0 0 1-1.537-1.243 2.981 2.981 0 0 0-1.347-.936.684.684 0 0 0-.879.34 2.097 2.097 0 0 0 .147 1.303 5.647 5.647 0 0 0 .861 1.453c.347.514.7 1.024 1.087 1.509a71.291 71.291 0 0 0 2.322 2.907 31.62 31.62 0 0 0 5.297 5.329 23.987 23.987 0 0 0 6.69 3.455 44.693 44.693 0 0 0 7.214 1.734 2.898 2.898 0 0 0 2.658-.718 4.763 4.763 0 0 0 .796-2.89c.074-1.17-.053-2.466.058-3.82a18.606 18.606 0 0 1 .697-3.918 17.754 17.754 0 0 1 3.7-6.848.1.1 0 0 1 .142-.009.102.102 0 0 1 .023.122 24.547 24.547 0 0 0-2.33 7.084 22.122 22.122 0 0 0-.295 3.64c.003 1.191.143 2.438.137 3.814a9.17 9.17 0 0 1-.272 2.125 4.67 4.67 0 0 1-1.133 2.123 4.152 4.152 0 0 1-2.197 1.169 6.52 6.52 0 0 1-2.23-.01 27.397 27.397 0 0 1-7.393-2.589 64.885 64.885 0 0 1-6.638-3.934 40.928 40.928 0 0 1-6.15-4.733 16.88 16.88 0 0 1-1.326-1.437 15.869 15.869 0 0 1-1.198-1.549 24.587 24.587 0 0 1-1.083-1.63 6.854 6.854 0 0 1-.913-1.908 3.123 3.123 0 0 1 .15-2.416 1.864 1.864 0 0 1 1.141-.846 2.004 2.004 0 0 1 1.297.154 3.561 3.561 0 0 1 1.522 1.503 5.784 5.784 0 0 0 1.085 1.498.101.101 0 0 1 .014.143.104.104 0 0 1-.117.029Z" class="colorfb8801 svgShape"></path><path fill="#f090d9" d="M274.8 136.75a67.96 67.96 0 0 0 8.239 5.938 54.418 54.418 0 0 0 9.004 4.384 33.626 33.626 0 0 0 4.74 1.477 22.058 22.058 0 0 0 4.855.626 14.021 14.021 0 0 0 4.793-.79 6.255 6.255 0 0 0 3.773-3.002 4.657 4.657 0 0 1-1.23 2.301 8.16 8.16 0 0 1-2.141 1.598 13.28 13.28 0 0 1-5.13 1.452 24.34 24.34 0 0 1-10.366-1.792 39.272 39.272 0 0 1-9.16-4.96 34.039 34.039 0 0 1-7.377-7.232Z" class="colorfb8801 svgShape"></path><path fill="#f090d9" d="M306.35 135.914a41.03 41.03 0 0 0 9.451 6.57c3.38 1.838 6.892 3.478 10.256 5.49a34.493 34.493 0 0 1 4.875 3.382 14.435 14.435 0 0 1 3.817 4.81 19.625 19.625 0 0 1 1.549 5.874c.237 1.97.36 3.914.434 5.87.265 7.808-.404 15.525.216 23.15.136 1.91.424 3.794.742 5.676.209.928.38 1.87.638 2.788l.389 1.378a12.733 12.733 0 0 1 .368 1.478 1.898 1.898 0 0 1-.502 1.685 4.072 4.072 0 0 1-1.419.726 14.301 14.301 0 0 1-2.9.584 19.257 19.257 0 0 1-5.813-.227 21.243 21.243 0 0 0 5.75-.224 13.78 13.78 0 0 0 2.74-.736 3.332 3.332 0 0 0 1.11-.653 1.095 1.095 0 0 0 .18-1.015 12.408 12.408 0 0 0-.443-1.304l-.485-1.39c-.318-.927-.549-1.88-.818-2.825a49.046 49.046 0 0 1-1.039-5.785c-.982-7.792-.396-15.586-.707-23.235-.198-3.8-.252-7.735-1.719-11.02-1.421-3.297-4.638-5.558-7.794-7.653-3.207-2.076-6.622-3.907-9.924-5.968a37.398 37.398 0 0 1-8.951-7.426Z" class="colorfb8801 svgShape"></path><path fill="#f090d9" d="M328.614 158.616c.305 4.64.46 9.275.548 13.91.081 4.634.136 9.267.022 13.901l-.257 6.952a201.454 201.454 0 0 0-.192 6.953c-.042 4.635.135 9.27.376 13.9.257 4.632.484 9.262.639 13.893.168 4.631.363 9.26.466 13.893.023 2.318.111 4.623.072 6.977a33.227 33.227 0 0 1-.757 7.077c-1.106 4.742-3.944 8.538-4.72 13.12a.1.1 0 0 1-.114.083.102.102 0 0 1-.085-.102c.131-4.762 2.723-9.02 3.375-13.411.716-4.429.222-9.038.097-13.685-.158-4.635-.185-9.274-.215-13.912-.038-4.638.02-9.278.147-13.917.107-4.639.18-9.276.07-13.911-.11-4.635-.417-9.27-.567-13.908-.118-4.638-.047-9.276.093-13.912.135-4.637.389-9.272.802-13.903a.1.1 0 0 1 .2.002Z" class="colorfb8801 svgShape"></path><path fill="#f090d9" d="M328.404 200.523a1 1 0 0 1-.636-1.772 8.669 8.669 0 0 1 3.898-1.662 18.565 18.565 0 0 1 3.895-.192 5.773 5.773 0 0 1 2.36.445 1 1 0 1 1-.861 1.804 4.074 4.074 0 0 0-1.564-.25 16.896 16.896 0 0 0-3.474.162 6.695 6.695 0 0 0-2.984 1.238.994.994 0 0 1-.634.227ZM328.269 197.315a1 1 0 0 1-.55-1.836 11.22 11.22 0 0 1 9.24-1.369 1 1 0 0 1-.567 1.918 9.2 9.2 0 0 0-7.575 1.123.995.995 0 0 1-.548.164ZM277.437 129.158a17.814 17.814 0 0 1-4.614 5.068 36.115 36.115 0 0 1-5.871 3.573c-4.068 2.04-8.223 3.726-11.728 6.332a24.534 24.534 0 0 0-8.254 10.171 47.456 47.456 0 0 0-3.006 13.08c-.533 4.479-1.014 8.948-1.228 13.408-.22 4.45.092 8.941-.099 13.52a49.657 49.657 0 0 1-.752 6.847 58.797 58.797 0 0 0-.98 6.588q-.044.814-.028 1.625a1.983 1.983 0 0 0 .219 1.176 1.393 1.393 0 0 0 1.084.33c.496-.001 1.095-.066 1.649-.1q3.381-.232 6.773-.375a.1.1 0 0 1 .023.2q-3.334.636-6.68 1.18c-.568.084-1.086.194-1.717.254a2.583 2.583 0 0 1-2.07-.578 3.07 3.07 0 0 1-.735-1.993 16.843 16.843 0 0 1-.092-1.758 48.467 48.467 0 0 1 .638-6.847 55.485 55.485 0 0 0 .536-6.626c.135-4.444-.01-8.99.353-13.557a105.185 105.185 0 0 1 2.025-13.47 78.677 78.677 0 0 1 3.487-13.15 30.353 30.353 0 0 1 3.17-6.094 25.788 25.788 0 0 1 4.659-5.143c3.64-2.996 8.022-4.617 12.09-6.421 4.059-1.806 8.093-3.86 10.983-7.354a.1.1 0 0 1 .165.114Z" class="colorfb8801 svgShape"></path><path fill="#f090d9" d="M255.548 149.349a29.858 29.858 0 0 1 4.561 1.654 26.873 26.873 0 0 1 4.327 2.282 9.382 9.382 0 0 1 3.265 3.98 11.543 11.543 0 0 1 .994 4.85 45.864 45.864 0 0 0-2.358-4.093 11.7 11.7 0 0 0-3.052-3.102c-1.206-.84-2.62-1.64-3.933-2.559a29.845 29.845 0 0 1-3.804-3.012ZM240.379 209.486a28.997 28.997 0 0 1 8.144-3.268 33.896 33.896 0 0 1 17.54.438 43.653 43.653 0 0 1 4.16 1.449 3.998 3.998 0 0 1 1.041.638 2.109 2.109 0 0 1 .417.504 1.008 1.008 0 0 1 .152.727 1.61 1.61 0 0 1-.762.973 1.287 1.287 0 0 1-1.096.181 1.144 1.144 0 0 0 .91-.419 1.207 1.207 0 0 0 .397-.797c-.002-.168-.242-.406-.488-.553a3.195 3.195 0 0 0-.891-.326 128.99 128.99 0 0 0-4.201-.859 52.849 52.849 0 0 0-16.89-.429 71.123 71.123 0 0 0-8.433 1.741ZM270.104 168.186c.667 3.14 1.128 6.295 1.508 9.456.385 3.16.675 6.329.901 9.501.218 3.175.377 6.349.44 9.539a48.139 48.139 0 0 1-.502 9.582c-.147-3.19-.575-6.325-.938-9.48a201.724 201.724 0 0 1-.977-9.493c-.248-3.171-.43-6.347-.52-9.53-.093-3.182-.106-6.37.088-9.575Z" class="colorfb8801 svgShape"></path><path fill="#f090d9" d="M240.394 205.169a1 1 0 0 1-.33-1.944 57.9 57.9 0 0 1 32.701-1.493 1 1 0 0 1-.483 1.94 55.87 55.87 0 0 0-31.56 1.441.994.994 0 0 1-.328.056Z" class="colorfb8801 svgShape"></path><path fill="#f090d9" d="M241.113 200.246a1 1 0 0 1-.311-1.95 61.98 61.98 0 0 1 31.532-1.847 1 1 0 0 1-.398 1.961 59.915 59.915 0 0 0-30.511 1.786.991.991 0 0 1-.312.05ZM256.423 118.494a14.662 14.662 0 0 1-5.42-.7 15.757 15.757 0 0 1-4.914-2.63 15.277 15.277 0 0 1-1.068-.93 3.57 3.57 0 0 1-1.029-1.358 1.65 1.65 0 0 1 .065-1.31 1.876 1.876 0 0 1 .897-.833 3.288 3.288 0 0 1 1.82-.232 9.025 9.025 0 0 1 2.787 1.09 4.532 4.532 0 0 0 2.07.69l-.881 1.37a19.556 19.556 0 0 1-1.649-6.784c-.02-.291-.03-.584-.038-.876l-.005-.438a4.023 4.023 0 0 1 .034-.528 3.939 3.939 0 0 1 .28-1.06 2.28 2.28 0 0 1 .876-1.073 1.784 1.784 0 0 1 1.624-.12 2.317 2.317 0 0 1 .998.874 9.935 9.935 0 0 1 .78 1.666 39.15 39.15 0 0 1 2.773 13.182Zm0 0a63.2 63.2 0 0 0-4.295-12.519 11.285 11.285 0 0 0-.693-1.329c-.275-.337-.274-.173-.215-.206a1.6 1.6 0 0 0-.233.793c-.009.103-.01.205-.011.306l.01.397c.012.265.025.53.048.793a20.258 20.258 0 0 0 1.513 6.142l.015.037a.963.963 0 0 1-.52 1.26.983.983 0 0 1-.376.073 6.276 6.276 0 0 1-3.008-.958 8.067 8.067 0 0 0-2.157-1.005 1.634 1.634 0 0 0-.83.036c-.095.035-.117.073-.1.037.013-.027-.009-.075 0 .002a2.181 2.181 0 0 0 .564.79c.282.321.59.62.901.915a17.378 17.378 0 0 0 9.387 4.436ZM255.66 240.975c-.178 2.2-.544 4.341-.872 6.463-.317 2.124-.643 4.222-.791 6.321a37.426 37.426 0 0 0-.02 6.28 30.2 30.2 0 0 0 1.226 6.276 14.693 14.693 0 0 1-2.768-6.032 22.522 22.522 0 0 1-.43-6.684 32.229 32.229 0 0 1 1.266-6.504 38.793 38.793 0 0 1 2.39-6.12ZM329.72 279.4a.963.963 0 0 1-.091-.004 1 1 0 0 1-.907-1.085 60.049 60.049 0 0 0-1.706-18.899 1 1 0 0 1 1.93-.527 62.316 62.316 0 0 1 1.769 19.605 1 1 0 0 1-.996.91Z" class="colorfb8801 svgShape"></path><path fill="#f090d9" d="M253.369 261.948c-.677 3.114-1.554 6.178-2.47 9.188a12.075 12.075 0 0 0-.642 4.319 3.739 3.739 0 0 0 1.951 3.078c2.298 1.438 5.688.85 8.904 1.652a36.863 36.863 0 0 1 8.962 3.448c-3.118-.68-6.169-1.535-9.225-1.91a44.372 44.372 0 0 0-4.652-.238 10.674 10.674 0 0 1-5.009-1.233 5.807 5.807 0 0 1-2.017-1.974 5.66 5.66 0 0 1-.798-2.69 12.2 12.2 0 0 1 1.056-4.956c1.207-2.953 2.48-5.84 3.94-8.684ZM283.723 285.76a1 1 0 0 1-.042-1.998c3.69-.155 7.432-.115 11.052-.074 4.093.044 8.325.091 12.463-.147 9.174-.528 16.369-2.488 21.994-5.99a3.446 3.446 0 0 0 1.39-1.277 2.54 2.54 0 0 0-1.182-1.12 1 1 0 0 1 .976-1.747c1.748.979 2.568 2.451 2.04 3.665a5.11 5.11 0 0 1-2.168 2.178c-5.916 3.683-13.418 5.74-22.935 6.287-4.207.243-8.474.197-12.6.15-3.594-.038-7.31-.079-10.946.073a.615.615 0 0 1-.042 0ZM299.4 300.437a11.008 11.008 0 0 1 2.942-3.033c1.12-.835 2.282-1.55 3.396-2.253a28.964 28.964 0 0 0 3.155-2.247 13.055 13.055 0 0 0 2.627-2.965 6.473 6.473 0 0 1-1.488 4.032 12.26 12.26 0 0 1-3.225 2.87 29.919 29.919 0 0 1-3.671 1.9Z" class="colorfb8801 svgShape"></path><path fill="#f090d9" d="m266.636 282.792-.627 5.962a.158.158 0 1 1-.315-.023l.002-.013ZM265.23 300.029q-.128 5.651-.316 11.292l-.001.02a.563.563 0 1 1-1.126-.039v-.01q.302-5.66.682-11.312a.38.38 0 0 1 .76.033ZM264.914 322.619l.222 11.301v.01a.836.836 0 1 1-1.671.033v-.02l.05-11.324a.7.7 0 0 1 1.399-.012ZM265.355 345.23l.158 11.322a.931.931 0 0 1-1.863.026v-.019l-.067-11.303v-.008a.886.886 0 0 1 1.772-.018ZM265.474 367.888q-.176 5.671-.42 11.34a.978.978 0 0 1-1.954-.071v-.038q.171-5.637.422-11.27l.001-.034a.976.976 0 0 1 1.951.073ZM264.106 390.549l-1.57 11.256a.887.887 0 0 1-1.76-.238l.008-.056 1.466-11.158.007-.055a.933.933 0 1 1 1.85.243ZM260.273 412.937l-2.75 10.99a.703.703 0 0 1-1.368-.324l.002-.01 2.477-11.024.004-.02a.84.84 0 1 1 1.64.368ZM254.765 434.89q-1.17 5.517-2.419 11.027l-.005.022a.383.383 0 0 1-.75-.152q1.002-5.575 2.07-11.148a.566.566 0 1 1 1.112.214l-.002.008ZM250.676 457.091l-.46 5.98.143-6.005a.159.159 0 0 1 .318.007v.008ZM316.67 116.326a2.905 2.905 0 0 1-.254-.2.123.123 0 0 1 .082-.21l.233-.008a2.772 2.772 0 0 1 1.473.425 5.937 5.937 0 0 1 .973.752c.239.222.463.451.698.69a2.743 2.743 0 0 0 1.015.742 1.535 1.535 0 0 1-1.52.705 2.7 2.7 0 0 1-1.506-.638 3.645 3.645 0 0 1-.862-1.074 9.428 9.428 0 0 1-.493-1.25l.315-.218a2.946 2.946 0 0 1-.154.284ZM306.275 295.994c-1.018 7.73-2.287 15.425-3.749 23.08-1.439 7.66-3.08 15.28-4.821 22.877q-2.65 11.387-5.786 22.656c-2.068 7.516-4.433 14.951-6.989 22.315l5.479-22.708c1.793-7.57 3.62-15.13 5.349-22.715l5.246-22.744c1.718-7.59 3.493-15.17 5.27-22.76ZM271.402 495.036a2.582 2.582 0 0 1 .464-1.432 2.412 2.412 0 0 1 1.382-.92 3.123 3.123 0 0 1 1.722.11 3.633 3.633 0 0 1 1.446.986l-1.394.403a2.692 2.692 0 0 1 .653-1.646 2.905 2.905 0 0 1 1.555-.942 2.96 2.96 0 0 1 3.212 1.477l-1.871.559a2.656 2.656 0 0 1 .793-2.167 3.279 3.279 0 0 1 .86-.608 3.98 3.98 0 0 1 .962-.342 2.942 2.942 0 0 1 2.096.47 3.575 3.575 0 0 1 1.291 1.424l-1.445.47a3.572 3.572 0 0 1 .311-1.685 2.862 2.862 0 0 1 1.188-1.24 2.333 2.333 0 0 1 1.618-.202 3.43 3.43 0 0 1 1.33.612 2.738 2.738 0 0 0-2.394.395 1.774 1.774 0 0 0-.524.905 2.586 2.586 0 0 0 .019 1.06.753.753 0 0 1-1.33.62l-.115-.149a2.606 2.606 0 0 0-.84-.69 1.088 1.088 0 0 0-.807-.117 2.042 2.042 0 0 0-.815.475.708.708 0 0 0-.215.585l.004.118a.983.983 0 0 1-1.875.441 1.173 1.173 0 0 0-1.094-.575 1.2 1.2 0 0 0-1.008.918l-.05.194a.742.742 0 0 1-1.344.21 2.286 2.286 0 0 0-1.81-1.088 1.744 1.744 0 0 0-1.11.327 2.875 2.875 0 0 0-.865 1.044ZM463.592 478.023a1.856 1.856 0 0 0-2.44-.97 124.55 124.55 0 0 1-19.664 6.714 22.44 22.44 0 0 0-1.664-2.525 53.609 53.609 0 0 0-3.95-4.486 87.73 87.73 0 0 1-2.24-2.416 1.856 1.856 0 1 0-2.786 2.453 91.159 91.159 0 0 0 2.335 2.52 49.932 49.932 0 0 1 3.682 4.17 12.637 12.637 0 0 1 2.954 7.257 1.856 1.856 0 0 0 1.855 1.824h.033a1.856 1.856 0 0 0 1.824-1.888 12.914 12.914 0 0 0-.55-3.456 128.304 128.304 0 0 0 19.64-6.758 1.856 1.856 0 0 0 .97-2.439ZM420.03 474.88c-3.39 1-6.91 3.34-10.312 5.602a49.011 49.011 0 0 1-8.092 4.703 96.236 96.236 0 0 0-6.023-9.18l-.563-.791a1.856 1.856 0 0 0-3.024 2.153l.565.794c3.774 5.29 7.675 10.76 9.405 17.8a1.856 1.856 0 1 0 3.604-.886 37.657 37.657 0 0 0-2.29-6.572 53.679 53.679 0 0 0 8.474-4.93c3.172-2.11 6.453-4.292 9.306-5.132a1.856 1.856 0 1 0-1.05-3.56Z" class="colorfb8801 svgShape"></path><path fill="#f2a2e4" d="M300.64 108.04c-.384-3.029-.697-6.373 1.044-8.88 1.603-2.31 4.608-3.35 6.175-5.685 1.503-2.24 1.463-5.364 3.33-7.31a7.68 7.68 0 0 1 3.734-1.915c4.38-1.113 9.026-.548 13.472-1.363a2.496 2.496 0 0 0 1.913-1.06c.455-.918-.277-1.969-1.02-2.673-3.572-3.383-8.346-5.128-12.546-7.689-2.367-1.443-4.616-3.18-7.27-3.981a22.535 22.535 0 0 0-5.201-.716l-7.383-.435a16.631 16.631 0 0 0-5.15.233c-3.045.788-5.357 3.2-7.498 5.504-3.667 3.95-7.459 8.119-8.857 13.324a23.997 23.997 0 0 0 .547 12.574 42.285 42.285 0 0 0 9.265 16.867c1.078-.763.485-2.604 1.308-3.638a7.197 7.197 0 0 1 1.148-.915c1.31-1.086 1.365-3.073 1.047-4.745s-.898-3.386-.475-5.034a2.608 2.608 0 0 1 1.898-2.034 3.066 3.066 0 0 1 1.389.172c4.185 1.304 6.964 5.202 9.13 9.398Z" class="colorfea613 svgShape"></path><path fill="#f090d9" d="M270.093 208.536c.486 6.481-.643 13.091.927 19.33a91.339 91.339 0 0 0 3.11 9.172 74.357 74.357 0 0 1 2.676 9.448c1.389 6.398 2.11 12.882 3.134 19.268a86.54 86.54 0 0 0 4.721 18.63l-.03-.068 1.063 2.164-.285-.351a2.006 2.006 0 0 1 .179.17l.09.109c.057.071.09.12.123.17l.182.283.306.516.574.999 1.15 1.963q1.17 1.946 2.44 3.825a79.599 79.599 0 0 0 5.5 7.203l.02.024a.832.832 0 0 1 .135.22l2.082 5.062c.354.826.714 1.65 1.092 2.449.19.397.384.793.585 1.156a4.572 4.572 0 0 0 .526.797l.14.18a1.049 1.049 0 0 1-.166 1.46 3.649 3.649 0 0 1-.482.327 5.956 5.956 0 0 1-.51.25 3.637 3.637 0 0 1-1.217.285 3.206 3.206 0 0 1-2.381-.919 6.835 6.835 0 0 1-1.205-1.707l-.89-1.558a158.712 158.712 0 0 0-1.803-3.08c-.298-.492-.62-.982-.948-1.45a8.135 8.135 0 0 0-.99-1.213l1.624-.673c-.1 1.765-.254 3.566-.312 5.303l-.105 5.329-.107 10.695a9.928 9.928 0 0 1-.128 1.44c-.065.456-.14.915-.238 1.378a9.105 9.105 0 0 1-.406 1.424 3.364 3.364 0 0 1-.428.797 1.672 1.672 0 0 1-.515.459 1.27 1.27 0 0 1-.968.112 1.731 1.731 0 0 1-.98-.818 4.106 4.106 0 0 1-.35-.762 10.29 10.29 0 0 1-.378-1.407 28.327 28.327 0 0 1-.397-2.724c-.184-1.803-.282-3.595-.36-5.384l-.096-2.679-.052-1.327-.036-.65a5.802 5.802 0 0 0-.054-.53l-.014-.062a.65.65 0 0 1-.012-.129v-.015l.03.205a.458.458 0 0 0 .164.234.593.593 0 0 0 .484.119c.177-.055.133-.071.125-.049a1.115 1.115 0 0 0-.18.278 2.44 2.44 0 0 0-.22.84 2.764 2.764 0 0 0-.001.449c.013.24.004.456.002.637l-.032 1.14q-.078 2.274-.202 4.541a111.007 111.007 0 0 1-.325 4.547 21.925 21.925 0 0 1-.319 2.307 12.52 12.52 0 0 1-.286 1.158 3.529 3.529 0 0 1-.602 1.248 1.126 1.126 0 0 1-.491.343.939.939 0 0 1-.773-.078 1.576 1.576 0 0 1-.588-.694 6.442 6.442 0 0 1-.41-1.19 23.432 23.432 0 0 1-.41-2.295c-.196-1.521-.313-3.037-.406-4.552a69.8 69.8 0 0 1-.149-4.547l.033-2.277.065-2.015.008-.228a.05.05 0 0 0-.1-.003v.006a.321.321 0 0 0 .038.142.325.325 0 0 0 .058.08l-.017-.019a.281.281 0 0 0 .293.075c.059-.03.04-.023.038-.018a.762.762 0 0 0-.08.124 2.063 2.063 0 0 0-.15.36 8.036 8.036 0 0 0-.116.848c-.07.61-.115 1.226-.17 1.84l-.291 3.682c-.088 1.207-.1 2.453-.26 3.71-.087.623-.19 1.245-.341 1.872a5.55 5.55 0 0 1-.3.95 1.922 1.922 0 0 1-.299.473.87.87 0 0 1-.679.357l-.021.001a.239.239 0 0 1-.209-.06l-.02-.02a6.92 6.92 0 0 1-1.722-3.705 24.626 24.626 0 0 1-.42-3.972 49.445 49.445 0 0 1 .03-3.969q.045-.99.12-1.978l.084-.988.046-.49c.015-.147.005-.248.017-.374l-.002-.053v-.022l.006.087a.538.538 0 0 0 .173.335.598.598 0 0 0 .516.152.575.575 0 0 0 .297-.154.56.56 0 0 0 .097-.125l.01-.015a.422.422 0 0 0 .03-.064.415.415 0 0 0 .021-.068v.006l-.004.025-.012.086-.022.189-.042.388-.078.786-.15 1.577-.304 3.163.004-.067a.673.673 0 0 1-.085.323.681.681 0 0 1-.111.15l.184-.39c-.045.44-.097.879-.17 1.328-.038.225-.08.45-.142.694a3.025 3.025 0 0 1-.13.403 1.19 1.19 0 0 1-.196.323 1.121 1.121 0 0 1-.128.123l-.05.035-.103.069a1.655 1.655 0 0 1-.516.22 1.24 1.24 0 0 1-.72-.056 1.605 1.605 0 0 1-.8-.784 5.205 5.205 0 0 1-.445-1.442 39.635 39.635 0 0 1-.375-5.28l-.12-5.214a96.16 96.16 0 0 0-.02-5.148 70.459 70.459 0 0 0-3.648-20.117l.14.27-.003-.004a.904.904 0 0 1-.136-.259c-1.037-3.143-2.218-6.247-3.34-9.385a459.795 459.795 0 0 1-3.297-9.449c-2.13-6.32-4.199-12.637-6.449-18.897-2.194-6.28-4.418-12.643-5.505-19.283a63.875 63.875 0 0 1-.076-19.997.1.1 0 0 1 .198.026 66.97 66.97 0 0 0 .846 19.798c1.225 6.505 3.567 12.732 5.912 18.957 2.35 6.242 4.468 12.572 6.661 18.851 2.146 6.297 4.632 12.45 6.73 18.825l-.137-.258.003.003a.893.893 0 0 1 .136.26l.003.01a72.175 72.175 0 0 1 3.643 20.594c.033.874.025 1.749.033 2.623l-.076 2.603.025 5.161a38.731 38.731 0 0 0 .258 5.067 3.99 3.99 0 0 0 .284 1.038c.056.125.138.18.07.139-.096-.027-.114.019-.008-.044l.034-.02.017-.01a.355.355 0 0 0-.072.065c-.06.077-.038.057-.034.043a1.744 1.744 0 0 0 .07-.212c.049-.174.09-.374.127-.574.074-.404.132-.822.183-1.242l.185-.391a.619.619 0 0 0-.102.137.639.639 0 0 0-.08.307l.005-.067.362-3.153.194-1.58.104-.79.056-.4.031-.205.019-.11.014-.073.004-.018.027-.092.04-.088.01-.02a.515.515 0 0 1 .1-.124.584.584 0 0 1 .299-.152.603.603 0 0 1 .518.154.563.563 0 0 1 .177.34.088.088 0 0 1 .007.036v.074l-.003-.053c-.008.201-.01.428-.035.607l-.062.486-.112.967q-.105.969-.18 1.94a48.487 48.487 0 0 0-.153 3.886 25.413 25.413 0 0 0 .274 3.847 6.326 6.326 0 0 0 1.36 3.387l-.23-.08v-.003c-.067-.053.07-.299.125-.558.075-.258.157-.539.215-.826.121-.577.203-1.176.27-1.777.074-.6.142-1.206.184-1.808.03-.601.092-1.254.165-1.859l.463-3.682.25-1.838a7.26 7.26 0 0 1 .16-.98 2.745 2.745 0 0 1 .213-.489 1.377 1.377 0 0 1 .182-.256.608.608 0 0 1 .22-.157.454.454 0 0 1 .502.12l-.017-.017a.378.378 0 0 1 .068.092.36.36 0 0 1 .042.158l-.091-.224a.805.805 0 0 1 .17.473 3.106 3.106 0 0 1 .014.322c-.006.208-.01.393-.005.577l.02 1.112.132 2.252.29 4.503c.114 1.497.253 2.994.465 4.465.113.733.238 1.464.417 2.158a5.38 5.38 0 0 0 .336.944c.057.127.157.219.11.178a.324.324 0 0 0-.228-.023c-.068.028-.062.038-.042.01a2.682 2.682 0 0 0 .335-.797c.096-.333.173-.686.24-1.044.131-.715.21-1.432.272-2.183.127-1.486.203-2.991.27-4.494q.097-2.255.15-4.513l.019-1.124c0-.196.004-.358-.004-.495a4.183 4.183 0 0 1-.006-.682 3.856 3.856 0 0 1 .342-1.342 2.488 2.488 0 0 1 .44-.665 1.2 1.2 0 0 1 .59-.357.883.883 0 0 1 .753.172.968.968 0 0 1 .306.474.523.523 0 0 1 .03.165v.054l-.026-.191a5.257 5.257 0 0 1 .114.796l.05.684.077 1.344.146 2.664c.109 1.771.239 3.539.449 5.28.106.87.228 1.732.409 2.56a8.676 8.676 0 0 0 .328 1.171 2.457 2.457 0 0 0 .21.45c.061.122.149.126-.016.06a.499.499 0 0 0-.325.036c-.063.037-.049.04-.028.008a1.827 1.827 0 0 0 .187-.385 7.493 7.493 0 0 0 .307-1.15c.082-.41.146-.833.2-1.259a8.211 8.211 0 0 0 .095-1.222l.018-10.697.064-5.367c.048-1.827.185-3.582.274-5.376v-.006a.97.97 0 0 1 1.623-.667 9.565 9.565 0 0 1 1.309 1.544 28.1 28.1 0 0 1 1.032 1.551c.64 1.04 1.246 2.074 1.854 3.112l.906 1.558a5.063 5.063 0 0 0 .845 1.228 1.13 1.13 0 0 0 .87.353 1.585 1.585 0 0 0 .523-.132c.08-.035.209-.102.295-.15a1.918 1.918 0 0 0 .257-.183l-.026 1.639a5.105 5.105 0 0 1-1.052-1.407 23.525 23.525 0 0 1-.643-1.276 73.079 73.079 0 0 1-1.12-2.529l-1.046-2.533-1.005-2.486.156.244a81.733 81.733 0 0 1-5.624-7.402q-1.3-1.927-2.49-3.923l-1.166-2-.568-.993-.278-.473-.128-.2-.044-.063s-.018-.024 0-.003a.355.355 0 0 0 .077.069l-.285-.352-1.058-2.166-.03-.069a82.109 82.109 0 0 1-4.611-19.114c-.917-6.455-1.564-12.908-2.789-19.242a73.003 73.003 0 0 0-2.386-9.352 91.956 91.956 0 0 1-2.894-9.352 37.54 37.54 0 0 1-.532-9.8c.145-3.251.431-6.485.313-9.725a.1.1 0 0 1 .2-.012Z" class="colorfb8801 svgShape"></path></svg></g></svg>