<svg xmlns="http://www.w3.org/2000/svg" xmlns:xlink="http://www.w3.org/1999/xlink" viewBox="0 0 1000 1000"><defs><clipPath id="a"><path fill="#ff9ea7" d="M514.52,623.65c-12.17,44.29-33.73,86.72-51.35,129.39-3.3,7.59-3.6,7.08-1.16,15.22a.56.56,0,0,0,0-.12c9,28.43,10.36,58.25,10.28,87.86,3.53,31.62-22.31,5.64-33.28-3.53-48.83-43.62-91.21-98.29-111-161.3,8.2-12.4,28.71-19.17,41.53-28.63l-.13.08C404.76,651.79,500.39,554.72,514.52,623.65Z"/></clipPath><clipPath id="b"><path fill="none" d="M291.17,755.68c354.54,10.5,218,12,243.3-295.58C179.91,449.62,316.42,448.11,291.17,755.68Z"/></clipPath><clipPath id="d"><path fill="#ff9ea7" d="M460.38,516.48c1.23,23.79-27.3,38.7-45.16,47.56C356.33,581,295.54,591.51,237.84,612.58c-4.24.89-5,4.12-6.76,7.57a276.92,276.92,0,0,1-29.16,48.24C188,691.4,184.48,655,184.2,644.26c.09-47.8-21.4-141.46,6.05-179.44.57-3.38,6-.82,8.23-.89,11.52,1.63,23.05,3.13,34.61,4.38,71.42,10.23,143.24,17.83,214.17,31.23C455.28,500.26,459.07,509.52,460.38,516.48Z"/></clipPath><clipPath id="e"><path fill="#ffeee2" d="M385.74,316.31c-1.28,13-9.42,24.84-15.82,36l.06-.09C357,374.71,346.87,366,380.45,382.74h0c8.22,10.83-20.95-5.67-22.89-7.92C427.11,441.2,273.69,501.09,234.2,443c-.8-4.29-3.69-1.88-6.9-2.15-27.32,3.06-55-14.6-63.26-40.38-46,12.87-79.44-25.68-20.71-44.3,40.08-20.2,81.62-40.42,120.86-60.9-6.53-14.23-12.1-39.12,5.43-47.48,11.61,1.84-5.36-26.22,4.43-48.94,4.41-17.57,23.43-38.06,41.85-24.83,19.43,23.18,25.5,57.72,55.54,72,6.37,5.4,4.18,15.6,5.76,23.08A424.64,424.64,0,0,0,385.74,316.31Z"/></clipPath><clipPath id="f"><path fill="#df1929" d="M744,353.59c-30.9-89.43-156.45-71.76-203.57-5.88-20.22-51.93-80.8-82.79-134.87-71.12-153.66,49.34-16.2,306.52,69.1,366.25C569.25,629.18,797.13,465.94,744,353.59Z"/></clipPath><clipPath id="g"><path fill="none" d="M330.06,605.72c431.53-37,433.71,157.37,418.44-331C317,311.71,314.8,117.32,330.06,605.72Z"/></clipPath></defs><g data-name="Layer 9"><path fill="#301ca3" d="M520.29,631.7c-3.92-7.08-11.75,21.35-14.33,24.21l-23.7,53.4c-7.63,17.75-16.29,35.74-23.5,53.31,3.84,9.66,4.54,20.1,5.93,30.3a.78.78,0,0,0,0-.16c2.79,18.78,4.18,37.7,5.89,56.6,1.36,19.64,1.66,32.44-19.53,15.9l.08.06c-29.37-22.51-53.9-50.22-76.36-79.46-21.63-28.32-41.51-59.75-45.11-96,24.6-18.83,56.28-33.46,83.22-50.88,2.69-2.88,44.77-22.9,31.21-22.86l.12-.07-83.81,49.75-31.6,18.76c-5.85,1.75-1.57,11.56-1.26,16.05,8.31,45,38.49,81.27,67.07,115.41,12.09,14.59,57.48,64.32,75.61,60.43l0,0c10.75-9-.58-65.28-1.44-81.12,0,.06,0,.11,0,.17-1.53-11-2.09-22.41-6.05-32.93l18.63-42C494,690.92,508.46,661.54,520.29,631.7Z"/><path fill="#ff9ea7" d="M514.52,623.65c-12.17,44.29-33.73,86.72-51.35,129.39-3.3,7.59-3.6,7.08-1.16,15.22a.56.56,0,0,0,0-.12c9,28.43,10.36,58.25,10.28,87.86,3.53,31.62-22.31,5.64-33.28-3.53-48.83-43.62-91.21-98.29-111-161.3,8.2-12.4,28.71-19.17,41.53-28.63l-.13.08C404.76,651.79,500.39,554.72,514.52,623.65Z"/><g clip-path="url(#a)"><g clip-path="url(#b)"><use transform="matrix(.31 0 0 .31 291.17 460.12)" xlink:href="#c"/></g></g><path fill="#ff9ea7" d="M460.38,516.48c1.23,23.79-27.3,38.7-45.16,47.56C356.33,581,295.54,591.51,237.84,612.58c-4.24.89-5,4.12-6.76,7.57a276.92,276.92,0,0,1-29.16,48.24C188,691.4,184.48,655,184.2,644.26c.09-47.8-21.4-141.46,6.05-179.44.57-3.38,6-.82,8.23-.89,11.52,1.63,23.05,3.13,34.61,4.38,71.42,10.23,143.24,17.83,214.17,31.23C455.28,500.26,459.07,509.52,460.38,516.48Z"/><g clip-path="url(#d)"><g clip-path="url(#b)"><use transform="matrix(.31 0 0 .31 291.17 460.12)" xlink:href="#c"/></g></g><path fill="#ffeee2" d="M385.74,316.31c-1.28,13-9.42,24.84-15.82,36l.06-.09C357,374.71,346.87,366,380.45,382.74h0c8.22,10.83-20.95-5.67-22.89-7.92C427.11,441.2,273.69,501.09,234.2,443c-.8-4.29-3.69-1.88-6.9-2.15-27.32,3.06-55-14.6-63.26-40.38-46,12.87-79.44-25.68-20.71-44.3,40.08-20.2,81.62-40.42,120.86-60.9-6.53-14.23-12.1-39.12,5.43-47.48,11.61,1.84-5.36-26.22,4.43-48.94,4.41-17.57,23.43-38.06,41.85-24.83,19.43,23.18,25.5,57.72,55.54,72,6.37,5.4,4.18,15.6,5.76,23.08A424.64,424.64,0,0,0,385.74,316.31Z"/><path fill="#df1929" d="M445.88,288.62c.13-2.42,3.91-2.17,3.72.24S445.69,291,445.88,288.62Z"/><path fill="#df1929" d="M744,353.59c-30.9-89.43-156.45-71.76-203.57-5.88-20.22-51.93-80.8-82.79-134.87-71.12-153.66,49.34-16.2,306.52,69.1,366.25C569.25,629.18,797.13,465.94,744,353.59Z"/><path fill="#ff9ea7" d="M557 557.78c.53 7.87-5 15.31-8.3 22.2-1.27 3.52-6.67 5.43-6.82 8.88 5.22 8.95 4.42 20.36-3.48 27.42-2.18 4-2 9.12-5.24 12.61-17.67 8.32-11.29 15.07-30.46 10.93-23.4-3.26-24-1.42-39.24-19.87-5.92 3.47-15.37 12.83-11.12-1.63l-.06.24c4.91-11.82 4.85-39.11 20.38-40.89l-.24 0c9.78 3.13 7.62-17 18.6-18.44C507 553.91 547.27 538.19 557 557.78zM860.67 572.41c2.57 13-9.74 21.74-8.28 34.66-1.23 12.94-9.76 23.39-14.48 35.2-8.81 15.12-27.28 12.51-32.06-4.36-1.73-4.85-7.48-.79-11-3.82-8.81-7.26-8.74-20-9.49-30.42-13.78 15.27-5.72-38.68 5.68-30.28 9.47-11.76 29-55 43.37-25.38C845.41 553.74 859.75 557.18 860.67 572.41z"/><path fill="#ff747f" d="M896.32,628.66c-21.79-1.23-18.18-30.54-3-39C859.46,572,888.3,519.6,933.1,564l-.17-.18c3,4.81,19.59,19.54,16.25,23.75C938,606.77,921.11,630.05,896.32,628.66Z"/><path fill="#301ca3" d="M454.5,598.5c-42.87-.82-85.6-5-128.39-7.43l.25,0c-16.17-2-50.56-5-39.13-29a325.46,325.46,0,0,1,18.22-42.32l0,0c12.94-21.49,26.45-42.75,40.27-63.67,4-7.41,9-3.57,2.92,2.33l0,0-.63.86.07-.1c-13.11,20-25.81,40.27-38.4,60.58v0l-.07.12a.31.31,0,0,0,.05-.1,338.46,338.46,0,0,0-17,38l.09-.24c-1.47,5.64-5.88,12.2-3.38,17.94,9.94,10.31,26.55,10.23,39.92,12.23l-.25,0c32.56,1.88,65.09,4.4,97.65,6.29C429.84,595.06,464.8,592.34,454.5,598.5Z"/><path fill="#301ca3" d="M448.75,633.93c-5.75-10.27.68-23.81,2.68-34.64,2.86-11.93,12.13-35.12,27.18-22.54a1.87,1.87,0,0,1-3,2.25C460,570.25,456.44,597.83,453,607.92c-.61,3.54-6.59,27.08.5,21.69,3.45-3.75,9.13-14,14.85-10,.73,3.27-4.33,2.95-6,4.88C458.65,628,455.13,637.63,448.75,633.93Z"/><path fill="#301ca3" d="M544.09,592.14c-1.83-4.66,9.62-13.7,11.69-18.9,17.2-26.65-5-23.52-24.66-22.85h0a129.14,129.14,0,0,0-29.6,5.57l.23-.07c-12.09,2.49-19.19,9.54-22.24,21.42l0,0c-1.86,2.33-4.27,21.76-7.65,12.54,2.27-9.91,5.7-20.14,11.26-28.69,13-10.64,31.63-12.6,47.87-14.47h-.25c13.45-.26,40.66-4.49,33.75,17.5C563,569.09,548.64,593.77,544.09,592.14Z"/><path fill="#301ca3" d="M540.91 618.28c-1.74-2.08 1.46-3.41 2.15-5.16l0 0a1.51 1.51 0 01.11-.22l-.09.16a16.55 16.55 0 00-.31-13.85l0 .08c-7.4-10.31-15.46-20.77-24.86-29.35-4.68-15.48 27.73 25.18 28.37 28.07l0-.06C549.3 603.53 549.27 619.28 540.91 618.28zM525.37 633.57c-2.42 0-2.32-3.83.09-3.73a11.28 11.28 0 005.6-.82c11.32-6.5-2.69-18.11-9-22.67-1.78-2.63-27.71-17.1-17.22-17.24 10.4 7.42 21.42 14.61 30.24 23.94C543.3 621.32 537.4 635.32 525.37 633.57z"/><path fill="#301ca3" d="M537.05 622.5c-1.81-3 3.45-5 4.44-7.58.55-1.46 2.5-2.27 3.54-.82C546.38 616.42 539.53 624.9 537.05 622.5zM510.28 647.47c-3.61-.65-6.45-3.26-9.36-5.31-2.41-3.07 2.2-4.28 3.93-1.73l-.08 0c5.05 7.23 21.47-.51 15.24-8.37-1.16-2.94-27.54-20.56-15.51-18.52h0C518.21 624.22 540.34 640.35 510.28 647.47z"/><path fill="#301ca3" d="M488.74 643.59c-15.24 2.1-33.19-30.92-17.8-15.6 6.53 11.16 19 14 30.89 10.77C511.07 642.9 491.46 644 488.74 643.59zM541 594.32a1.84 1.84 0 01.4-1.66l0 0c1.58-2.15 9.73-13.77 8.92-5.23C547.71 589.25 544.19 599 541 594.32z"/><path fill="#301ca3" d="M471.65 634.32c-1.14-2.85-15-13.13-7.77-13.71l-.1 0 .24.06h0C466.24 621.86 481 637 471.65 634.32zM767 577.5h0zM814.39 569.26a2 2 0 00.05-.24zM814.73 567.86c0-.05 0-.1 0-.16S814.74 567.81 814.73 567.86z"/><path fill="#301ca3" d="M866.36 571.24c-2.22-10-9.63-19.3-19.44-22.7-4.92-1.7-7.8.38-9-5.69-14.5-24.93-42.78 4.88-45.64 23.75-8.26-3-13.34 6.6-14.55 13.4q-5.32-1.2-10.63-2.48l.08 0-.16 0h0l-.08 0h0c-24.88-6.89-49.77-13.58-75-19.28q-16.59-4.79-32.93-10.43c-3.7-1.06-6.76-5.25-9.37-.67C672 558.65 697.6 563.2 721.94 569c18.35 4.91 36.52 10.55 55.08 14.64-1.12 8.85-4 18.56-.65 27.18 1.09 1.82 3.45 2 5.35 1.74.7 11.32 5.66 23.77 17.66 26.84 6.14 30 39.79 28 47.83.08 1.18-4.86-.18-4.38 3.7-8.49 4.92-8.9 7.77-20.07 6-30.2A26 26 0 00866.36 571.24zM840.72 547.8h0l.23.09h0l.12.07a1.81 1.81 0 00-.46-.17zM792.8 584.86v0zm-7.57 6.58l-.12-.2h0L785 591h0l-.06-.22h0a2.23 2.23 0 010-.23h0v-.13a2.06 2.06 0 00.36 1l0 0zM801 620.92a28.87 28.87 0 00-1.88 14.45c-13.17-4.59-14.59-21.16-13.46-33.11-.78-3.23 6.73-15.79-.29-13.24-3.31 4.2-4.24 32.29-6.79 13.48a104.09 104.09 0 014-26.09c1.21-3.32 4.45-8.24 8.5-6.14 0 3.07-1.28 6.49-1.47 9.73 0 2.16-2 6.72 1.46 6.87 3.55-2.32 2.73-17 5.55-22.27 4.39-12.8 15.83-30.81 31.54-26.62 12 7 12.83 32.51 6.76 43.8-9.55 15.94-24 3.24-16.91-11.81l0 .16c0-2.89 3.92-7.4.79-9.3a1.9 1.9 0 00-2.35 1.21 95.49 95.49 0 00-3.09 11.76c-1.36 4.87-1.78 10.43 1.93 14.41-3.4 3.94-4 10.21-2.08 15 3.35 3.45 1.37 6 .81 10.39C808.51 611.55 803 615.94 801 620.92zm41.34 21.27c-3.6 8.77-12.57 16.21-22.39 15.54l.25 0c-16.78-1-26-36.06-8.42-40.9 3.28.06 1.24 4.27 2.48 6.55 3.48 12.39 18 19.28 29.69 13.86C843.5 638.94 843 640.58 842.36 642.19zm11.23-32.37c-1.42 8.28-2.72 18.3-10.13 23.47-9 5.1-21 .52-24.89-9l.07.15c-3.74-23 1.19-11.82 13.85-14.56C845.61 609.86 856.4 596.64 853.59 609.82zm10.32-27.36c2 18.77-54.62 38.44-47.13 10.34 1.45-4.37 7.7 1.81 11.62-.36 16.5-6.26 14.09-28 12.66-41.23C855.76 552.3 864.85 568.83 863.91 582.46zM548.57 379.9c-3.87-11.47-8.07-22.82-12.47-34.08l.06.16-.09-.23 0 0c-3.06-6.87-5.94-13.93-10.32-20.08-1.78-1.89 1.44-4.51 2.9-2.34C531.79 325 560.69 390.35 548.57 379.9zM502.34 436.66c-14.44-19.16-35.48-31.87-56.77-42.17l.22.1a77.4 77.4 0 00-21.06-6.51c-4.54-1.78-17 .94-17.3-5.2 27.75-1.43 55.73 14.73 78 31.34-1.73-2.42-3.54-4.79-5.35-7.16l0 .06c-10.51-13.57-21-27.19-33.06-39.49l.06.06-2.53-2.57h0c-4.32-4.33-8.62-8.7-13.22-12.72-.4-9.45 13.12 8.28 15.78 10l0 0 2.6 2.64 0 0 0 0h0l.07.08 0 0c12.1 12.39 22.71 26.1 33.29 39.77l-.07-.09c5.24 6.69 9.94 13.79 15.06 20.57C499.59 427.64 511 438.94 502.34 436.66zM558.69 488.81c85.9-18.44 14.24-32.38-26.87-24.18-2.51.9-6.86.56-8.21 2.72a1.88 1.88 0 01-2.39 1.14c-8.54-6.4 15.36-8.13 19-9 11.76-2.71 83.9-1.94 56.73 21.16C590.3 484.55 563.93 494.33 558.69 488.81z"/><path fill="#301ca3" d="M504.56 509.92c3.95 1.42.35-5.36.5-7.74l0 .13a2 2 0 010-.24v.08c-4.59-22.16-20.17-62.24-48.74-54.54-9.34 5.56-6.92 18.88-5.54 28C457.28 497.47 484.28 505.93 504.56 509.92zm18.73 5.9c-35.71-.3-95-22.6-73.42-67.6 24.26-20.41 49.27 17.93 55.26 39.06 6.89 21.27-1.63 25.85 25.18 25 26.75-1.33 55.67-8 76.51-25.64 7.26-6.49 12.74-14.74 17.12-23.38.67-3.15 6.54-5.52 4.94-.54-6.1 9.87-11.6 20.55-21 27.89C584.59 509.11 552.66 516.43 523.29 515.82zM628.93 445.68c-5.34-6.86 16.39-14.2 21.64-15.3 26.6-8.19 55.82 27.79 24.81 6.65l.21.12C660.08 428.28 640.75 435.33 628.93 445.68zM466.75 422c-14.45-15.21-29.57-13-45-2.92-2.14-10.37 22.84-13.42 30.36-10.7C455.89 408.79 474.82 419.07 466.75 422z"/><path fill="#fff" d="M580.56 391.39c-4.22-5.29 9.73-19.68 14.07-23.61 1.75-2.51 27.53-17.79 20.41-7.56h0c-12.36 4.81-23.59 13.14-29.88 25C583.48 387 583.73 391.92 580.56 391.39zM515.85 391.27a40.35 40.35 0 00-15.64-26.65c1.33-6.3 8.9 3.35 11.08 5.46l0 0C514.14 371.68 524.65 398.67 515.85 391.27z"/><path fill="#301ca3" d="M682.42,400.38c3.17,11.68-9.43,13.78-17.54,17.15-14.25,5.81-28.6,11.45-42.28,18.57-10.55,5.57-21.69,9.87-32.4,15.12-3.94,1.9-11.89,7.82-8.61-1.09,2.45-26.29,17.23-51.08,38.15-66.95,21.76-17.91,59.07-16.24,62.66,17a.11.11,0,0,1,0-.05Zm-12-17.73c-38.05-27.93-82.85,31.16-85,66.8,14.75-7.26,29.93-13.57,44.55-21.13C626.15,404.36,645,379,670.46,382.65Zm-38.05,43.21a1.54,1.54,0,0,0-.67-.16A2.12,2.12,0,0,1,632.41,425.86Z"/><path fill="#fff" d="M669,381.29c.53.43,1,.89,1.51,1.36C645,379,626.16,404.36,630,428.32c-14.62,7.56-29.8,13.87-44.55,21.13C587.91,414.05,630.2,357.11,669,381.29Z"/><path fill="#ff747f" d="M505.06,502.18c-.1,2.43,3.42,9.13-.5,7.74a100.76,100.76,0,0,1-17.21-4.21c-14.42-5.57-32.67-13.71-36.58-30.13-6.31-24.08,7.58-39.39,29.32-22.32,13.81,12.77,21.43,30.68,25,48.89v-.08a2,2,0,0,0,0,.24Z"/><path fill="#ff9ea7" d="M525.67 349.53c-6.29-13-13.39-25.68-24.16-35.5-2.39-4-11.61-5.5-9.61-10.86C499.56 291.76 546.5 360.68 525.67 349.53zM528.17 358.85c.13-3.93 6.28-3.64 6.05.28S527.94 362.78 528.17 358.85zM711.31 326.63c-15.61-12.85-34.55-22.55-55.59-21-4.22-.36-18.94 4.56-13.53-4.2 8.24-2.42 17.28-2.14 25.81-1.33l-.3 0a69.73 69.73 0 0130.38 9.86l-.19-.11C701.62 312.53 721.86 322.87 711.31 326.63zM716.29 334.38c.13-3.93 6.28-3.64 6.06.28S716.06 338.31 716.29 334.38z"/><path fill="#301ca3" d="M408.27 565.9c-2.32-2.95-7.64 1.32-11 1.16-15.78 3.23-31.47 6.91-47.1 10.81-37.27 9.14-74.5 18.92-110.83 31.27-6.55.91-8 6.51-9.43 12a87.22 87.22 0 01-9.16 19.47 147.74 147.74 0 01-26.38 33c-10.47 9.86-9.54-17-11.18-23.08-3.57-46.37-9.44-93.07-7.33-139.61 7.06-57 8.29-48 59.74-41.88 27.72 3.37 55.61 5.62 83.19 10 9.06.15 39.21 10.24 44.09 5.49-.08-4.14-20-3.54-24.26-5.61-32.43-6.77-65.55-9.35-98.42-13.08-55.9-6.8-61.41-17.12-68.19 46.59-1.73 46.78 3.91 93.7 7.66 140.29 1.23 11.86 3.76 39.3 19.8 21.22a160.62 160.62 0 0026.95-35.63 89.28 89.28 0 007.71-18.11c.68-5 3.41-7.11 8.17-8.25 37.48-12.4 75.71-22.55 114.09-31.8 13.08-3.24 26.19-6.33 39.4-9C399.53 569.6 407.83 570.67 408.27 565.9zM563.45 553.37c-5.72-3.75 8.69-7.41 10.93-9.73L639.46 508 743 451.22 790.71 425c1.06-.81 2.78-1.13 3.47.32-.83 5.4-17.83 10.45-22.8 14.53L721.2 467.4 564.66 553.22l.21-.12A1.94 1.94 0 01563.45 553.37zM659.63 767.66c-3.93-4.32-178.84-190.89-109.73-124q41 44.33 82.07 88.63C633.73 736 672.93 771.6 659.63 767.66zM547.46 593.45c-10.68-7.12 37-2.67 40.79-4l173-1C835.23 594.57 561.72 592.6 547.46 593.45zM862.21 591.5c.09-7.42 18.41-2.11 24.51-3.7 2.63.42 11.66-1.83 8.89 3.22C884.92 592.2 872.72 591.53 862.21 591.5zM827.44 467.09l0 .05zM835.26 514c0 .08 0 .16 0 .25zM847.63 504.21a2.09 2.09 0 000 .25z"/><path fill="#301ca3" d="M848.61 530.94c-.22-34.9-3.84-74.23-28.31-101.16-7.48-7.37-18.68-10.25-24.4-19.51-6.4-8.21-4.09-28.13 9.12-26.2l0 0c6.21 3 3.83-10.83-3.52-11.89-17.84-2.08-29.54 21.61-25.29 37 9.82 28.95 33.63 11.46 47.57 58.68v0h0l0-.09c5.17 15 6.68 30.94 7.84 46.68v0c0 .08 0 .17 0 .25s0-.09 0-.14c.42 7.77.74 15.56.49 23.35 3.08 5.86 4.4-2.32 3.82-5.25-.41-22.2-1.59-44.9-8.64-66.12l.07.23c-5.24-15.91-13.4-32.44-29.18-40.07-22.29-5.92-25.15-36.48-6.49-48.59 2.82-1.75 6.64-3.55 9.84-1.82 1.24.26 5 4.4 2.34 3.83-18.76.9-18.73 28.09-6.53 37.72 9.16 8.22 21.69 12.44 28 23.78 10.66 19.23 17.6 41 18.67 63 .69 13.05 1.16 26.12 1.08 39.18.45 2.31-1.54 6.57 1.72 7.09C851.1 548.83 847.8 535.63 848.61 530.94zM805 384l-.1-.12h0a1.94 1.94 0 01-.15-.24A2.31 2.31 0 00805 384zM802.64 699.76l-.17.18zM821.54 659.93c-1-.49-2.29 1.5-2.06 1.34a85.54 85.54 0 01-26.42 42.52h0c-27.39 25.69-66.8 28.74-98 47.63l.11-.07c-60.5 37.44-6.91 75.74 2 43.62 11.3 29-52.84 41.5-37.67-10.29 4.82-19 20-34 37.53-41.86 30.38-16.21 67.9-21.92 91.38-48.88h0l.16-.17h0c7.18-8.1 14.08-16.65 19.16-26.25l0 .05c1.78-2.21 8.25-20.36.89-13.4a46.94 46.94 0 01-4.2 11.69 1.51 1.51 0 00.11-.22c-.11.24-.24.46-.35.7l.05-.1c-4.92 9.09-11.49 17.23-18.32 25h0c-33.45 39.33-101.45 33-126.11 81.78-13.56 24.48-3.94 64.39 30.08 47.08 9.25-4.71 16.55-16 11-26.09-1-2.14-5.18-7.56-6.82-3.28-3.91 28.59-37.65 2.72-17.52-17.58l-.05.08.14-.2-.07.09c5.14-7.48 12.42-13.21 19.95-18.14l-.13.09.77-.5h0c9.47-6.38 20.4-10.09 31-14.07l-.11 0c31.62-10.43 65.51-23.64 84-53.14C814.63 682.45 826.56 663.46 821.54 659.93z"/><path fill="#fff" d="M455 823.59c-1.54-13.34-3.05-26.69-5.08-40 .23-2.93-3.14-8.11.25-9.7 4.59.9 3.6 16.81 5.17 21.37C454.92 798.37 462.69 832.48 455 823.59zM457.62 841.26c-1.8-1.61.74-4.42 2.52-2.76S459.39 842.92 457.62 841.26zM212.56 635.4c-2.28-3.87 7.23-12.36 8.49-17.1 2.2-2 7.72-23.95 9.85-13.84 0-.07 0-.15.07-.22C228.88 610.67 218.93 635.32 212.56 635.4zM201.71 650.07c-1.8-1.6.75-4.41 2.52-2.75S203.48 651.73 201.71 650.07z"/><path fill="#301ca3" d="M132.75 404.46c-3.94-.09-18.08-1.66-13.6-7.55 5.45 2.66 11.83 4.54 18.47 3.93h0c23.82-1.59 46.85-9.55 69-18.21 6.6-1.53 22.66-12.62 27.67-9.13.06 4.19-7.45 3.57-10.27 5.74-6.16 2.57-12.22 5.38-18.42 7.83C182.26 395.74 157.87 404.7 132.75 404.46zM267.84 432.81l-.24.07zM328.46 457.5c-1.77-2.88-5.89.63-8.55.55a178.52 178.52 0 01-26.6 4.22c-20.57.72-45.65-4.12-58.21-21.65 19.65-4.45 44.12-10.68 64.81-18.13l-.1 0c2-1 6.29-.52 6-3.56a1.89 1.89 0 00-2.24-1.41c-12.46 3.33-24.5 8-36.86 11.7-24.58 5.82-54.29 15.08-77.37.58a1.9 1.9 0 00-2.62-.09c-2 4.9 7.82 6.78 11.15 8.52 10.78 3.54 22.34 3.17 33.45 2 1.3 7.53 10.57 12.35 16.65 16.25 18.86 10.34 41.46 11.4 62.24 7.33C314.57 462.2 328.15 462.5 328.46 457.5zM342.46 349c-22.63-12.52-35.46-36.63-52.17-55.44-8.2-8.1-22.82 2.09-25-3.9l.05.08c-8.06-9.87-9.78-47.92 9.68-43.19 7.79 11.24 13.48 27.4 25.46 36.15 7-.63-3.25-6.93-4.32-9.51-10.88-14.38-20.34-30.79-23.39-48.76-2.11-16 4.06-33 14-45.46 1.87-3.81 10.36-4.59 9.69-8.61-9.54-2.47-18 13.13-21.5 20.93a59.88 59.88 0 00-.9 51.26c-19.43-2.77-19.9 26.78-16.37 39.77 8.65 17.78 5.12 9.21-10.94 19.52-11.45 6.1-22.47 13-34.12 18.7-3.7 3-18.47 7.46-17.89 11.8 3.64 2.87 12-5.54 16.29-6.76 17.38-8.5 33.58-19.24 51.21-27.26h0c30.05-15.63 33.41 13.36 51.1 30C316.35 331.75 341.35 359.76 342.46 349zm-2.46-.8a1.79 1.79 0 01.64-.17A2.09 2.09 0 00340 348.15zM378 286.11c-1.94-2.56-7.84-41 0-30.44a83.67 83.67 0 003.67 29.87C382.24 286.73 378.68 289 378 286.11z"/><path fill="#df1929" d="M881.9 518.26c-7.74-6.61-11.34-19.09-12.14-29.15-.6-11.33 11.06-13.57 13.13-1.79C903.85 456.27 896 519.21 881.9 518.26zM716.05 683.87c-10.47-2.23-24.17-25.51-5.08-22.83 7.78 5.9 7.66-8.75 14.64-11.42C738 642.4 724.9 689.14 716.05 683.87zM865.33 790.68c-8.42-2.28-26.21-18.45-12.38-24.09 3.09.15 5.29 2.79 7.54 4.62 1.89-3.87 5-7.53 9.23-8.77C881.37 757.81 873.52 794 865.33 790.68z"/><path fill="#301ca3" d="M781.85 183.56c6.42 2.33 10.51-8.35 9.58-13.59-1.56 1.26-3 2.63-4.47 4l.07-.07a22.54 22.54 0 00-4.93 6.32c0-.08.07-.15.1-.23a5.53 5.53 0 00-.51 1.87l0-.25a5.23 5.23 0 00.1 1.93s0 0 0-.06zM749.34 259a926.78 926.78 0 01-116-7.26q-17.85-2.07-35.66-4.51c-4.17-1.46-13.34 0-14.94-3.92 1.06-4.32 17.56 1.56 21.79 1.08 20.35 2.7 40.73 5.13 61.16 7.07 56.57 4.71 114.2 6.76 170.36-2.9 32.5-6.81 83.48-23.89 82.8-63.92-6.06-31.34-44.25-40.16-71.71-36.62l.25 0c-18.68 2.33-37.23 8.45-52.65 19.43 2.86 8.56-5.41 25.32-15.51 18.87-7.9-12.17 17.91-16.84 8-26.21C781.5 153 773.47 148.21 765 145c-47.64-18.24-101.88-8-144.46 18.36h0c-16.06 10.33-33.44 21.44-43.06 38.4-3.33 3.32-7 20.72-9.83 19.93-1.4-41.49 76.76-79.94 113.56-86.54 32.57-6 68.84-3.94 98 12.82a53.43 53.43 0 0110.93 9.81c2.44 2.41 2.51 7.92 6.18 4.14 25-15.62 56.58-22.46 85.52-15.54 32 6.06 55.87 41.54 29.86 68.67C870.85 258.43 804.78 257.35 749.34 259zM147.11 845.67c-3 3.63-23.05 25.58-14.65 25.36 20.92 7.55 68.1-5.35 50.55-34 .05.06.11.11.17.17-.33-.3-.67-.59-1-.86l.19.15c-10.82-7.11-24.39.77-33.37 7.58h0zm-10 86.08c22.33-6.83 52.08-2.37 76.81-4.38h-.05l11.31-.13h-.08c38.9-1.66 227.5 9.07 242.33-22.74l0 .25c-3.18-19.43-28.21-25.59-44.14-31.81-38.24-11.52-79.09-12.77-118.47-7.11l.25 0c-6.49-.38-12.08 4.36-18.1 3.89-4.38-6.36 9.31-4.75 11.75-8.93C339.86 830 313 767 272.36 749.45c-47.12-23.8-109-12.13-148.3 21.85-18.86 17.63-33 45.08-27.26 71.31a38.14 38.14 0 0021.8 23.65c3.42 1 7.14 4.64 8.75-.19 10.75-18.57 31.77-43.89 55.69-33.59 14.82 10.27 6.31 32.78-8.74 38.22-14.52 7.62-31.81 7.45-47.22 2.73-5.78 9.11-11.69 18.23-15.84 28.23-2.29 3-7.27 27.17-10 16.93a169.29 169.29 0 017.85-21.26A179.31 179.31 0 01121 876c3.78-4.23 1-4.44-3.1-6-44.46-18.18-24.5-78 4.22-102 40.48-34.61 103.86-46.35 152.12-21.8 42.21 18.44 69.57 83 28.51 116.15 34.76-5.22 70.56-4.94 105 2.61 18.55 4.25 76.93 20.65 60.05 47.59-24.19 13-53.46 13.67-80.35 16.69-54 4.55-108.19 1-162.28 1.71h0l-11.34.12h.09c-16.27.25-32.54.46-48.79 1.09C158.71 931.25 140.39 935.94 137.15 931.75zM214 931.09h0zM225.14 927.24h0zM751.49 536.77c-6.19-10.74 0-27.07 11.23-32 2.13-1.14 7.51-.8 5.51 2.69-8.08.6-13.66 8.31-15.16 16.15-.17 3.36-.41 7 .82 10.17C756 535.49 753.51 538.8 751.49 536.77zM741.35 525c-2.72-1.47.88-7.42 3.44-5.33C746.51 521.26 743.58 526 741.35 525zM824.46 709.84c-1.94-6.24 10.79-7.22 15.23-6.9 2.63.74 9.41.4 8.56 4.41a1.89 1.89 0 01-2.5.85 21.56 21.56 0 00-16-.15C827.91 708.52 826.39 711.35 824.46 709.84zM829.27 719.49c-3.93-5.28 12.49-5.56 8.06-.34-1.64.78-3.61-.23-5.37.19A2 2 0 01829.27 719.49zM770.93 788a40.71 40.71 0 00-14.74-18.43c-1.14-.47-2.55-1-2.23-2.56C757.86 757.88 783.65 794.92 770.93 788zM747.13 777.09c.12-2.42 3.89-2.2 3.73.22S747 779.51 747.13 777.09zM120.63 679.5c-10.15 1.22-9 17.07 1.24 16.79C133.56 696.3 132.19 677.77 120.63 679.5zm.05 20.47c-16.2-1.33-13-26.82 3-24.15C138.84 677.85 135.92 701.69 120.68 700z"/><path fill="#301ca3" d="M111.38 689.93a1.89 1.89 0 01-1.76-1.9v.18c-.66-11.9 16.17-17.21 22.39-7 1 1.72 3.21 5.38.3 6.31-4.25-.92-4.24-12.87-15.7-6.3C112.79 682.9 114.93 689.08 111.38 689.93zM386.09 147.05c-10.15 1.22-9 17.08 1.25 16.79C399 163.85 397.66 145.3 386.09 147.05zm.68 20.51c-16.08-.52-14.5-25.74 1.5-24.33C403.71 144.33 402.25 168.42 386.77 167.56zM886.16 374.8c-10.83 1.43-8.35 18.43 2.44 16.7C899.46 390.1 897 373.05 886.16 374.8zM883 394.51c-14.14-5.15-6.77-27.4 7.63-23.09C906.62 375.71 898.4 400.6 883 394.51zM942 473.13c-2.59-.73-8.78-6.43-3.31-7.13 3.06 2.79 6.8 5.84 11.32 3.82a1.9 1.9 0 012.39 1.13C952.58 475.43 944.81 474.28 942 473.13zM658.33 618.82c-10.15 1.22-9 17.08 1.26 16.79C671.28 635.6 669.89 617.08 658.33 618.82zm-7.68 16.67c-11.17-11.64 7.76-28.61 18.11-16.25C679 630.79 661 646.93 650.65 635.49zM909 678.87c-10.89 1.37-8.43 18.46 2.4 16.7C922.21 694.16 919.77 677.17 909 678.87zm.66 20.51c-15.67-.42-14.79-25 .87-24.32C926.4 675.27 925.51 700.27 909.65 699.38zM623 859c-10.16 1.21-9 17.07 1.23 16.79C635.91 875.79 634.55 857.26 623 859zm-.56 20.39c-14.52-1.74-13-24.44 1.63-24.21C641 854.91 639.25 881.92 622.42 879.38z"/><path fill="#df1929" d="M178.17 268c-12.47-3.65-23.32-14.3-29.64-25.42C143.87 227 164 229.5 170.68 237.79c-1.57-12.38 12.1-25.25 17.52-8.57C189 240.2 196.91 270.37 178.17 268zM140.64 181.46c-11.5-9.12-7.92-28.81-4.08-41.19 4.67-11.22 14-4.47 13.88 5 19.08-14.22 19.92 5.69 10.26 18.08C155 169.42 150.32 182.54 140.64 181.46zM225.15 123.51c-11.3-5.88-14.93-22.4-16.2-34.26.17-14.73 15-11 18.25.17 3.83-9.8 19.08-16 17.2-.29C241.68 100.53 238.39 120.66 225.15 123.51z"/><path fill="#301ca3" d="M163.24 316.49c-2-.47-5.61-3.47-3.65-5.57C162 308.9 168.15 316 163.24 316.49zM158.94 302.1c-2.48-1.55-2.75-9.39 1.16-8.84 2.34.9.47 3.48.9 5.24C162.24 300.2 161.47 303.1 158.94 302.1zM172.14 284.17c-5.62-3.06 4.42-8.44 6.75-10.81 6.2-1.52 1.56 4.57-1.35 5.8C175.15 280.25 174.56 283.7 172.14 284.17zM113.15 203.77c-6.79-3.11 27.67-35 20.5-20.71-5.39 3.68-9.82 8.65-14 13.66C117.31 198.58 116.65 204.48 113.15 203.77zM100.52 231.23c-3.21-.77 1.9-15.09 4.73-9.59C105 223.85 103.52 232.05 100.52 231.23zM100.55 252.38c-1.37-1.56-3.38-5.71-.19-6.33C103.35 246 105.57 255.57 100.55 252.38zM115.18 258.35c-4.44-2.4 4-6.28 5.53-3.62C121.81 257.52 117.2 258.66 115.18 258.35zM133.56 244.1c-3.3-1.27-1.88-6.81-3.85-9.57-.83-2.26 2.72-3.54 3.52-1.25C133.78 236.2 137.92 243 133.56 244.1zM123.13 225.89c-1.83-1.16-6-.73-5.8-3.61.9-3.12 7.3-.37 8.62 1.12C126.56 225.12 124.67 226.33 123.13 225.89z"/><path fill="#301ca3" d="M98 230.18c-2.56-2.59 4.89-7.91 6.67-5C106.07 227 99.37 231.74 98 230.18zM87.67 260.68c-4.4-2.26.79-17.29 2.48-21.4.65-3.15 5.76-3.62 4.32.21C89.3 244.37 92.2 258.6 87.67 260.68zM89.69 292.72c-.93-5-7.22-24.21-1.92-26.21 3.34 1.32 1.53 10.67 3 14.25C90.61 283.55 96.57 298 89.69 292.72zM101.2 313.84c-2-2.35-9.88-7.7-4.71-10.16 2.36.06 2.2 3.33 4.16 4.38C103.15 309.61 106.87 315.51 101.2 313.84zM113.72 325.68c-1.28-1.44-4.51-3.74-2.22-5.63C114.83 318.08 119.84 328.13 113.72 325.68zM221.1 137c-2.78-.28-1-9.67 1.69-8.87C225.62 128.71 224 137.55 221.1 137zM215.78 154.43c-2.81-1-.17-7.4 2.55-5.67C220.2 150.12 218.18 155.2 215.78 154.43zM202.38 172.91c-1.8-2.37 4.24-7.83 6.28-5.28C210.19 169.47 204 175.12 202.38 172.91zM184.37 185.81c.13-3.87 6.53-2.21 8.4-5.19h0a1.87 1.87 0 013.42 1.33C194.66 185.06 186.65 189.37 184.37 185.81zM172.56 186.45c-2.61-1.15-.4-5 1.86-3.25C176.72 184.34 174.69 187.84 172.56 186.45zM169.18 178.46c-1.6-1.07-1.18-4.44 1-4.3C173.29 174.42 172.24 180.24 169.18 178.46zM196.24 167.15c-3.3-12-14.47-12.94-20.44-2.38-.43 2.37-4.15 1.65-3.67-.72 2.26-5.63 8.44-10.4 14.61-10.68C192.77 150.29 205.73 171.86 196.24 167.15zM198.1 179.51c-.92-2.83.53-8.1 3.35-3.85C202.81 178.66 200.5 184.28 198.1 179.51zM187.71 210.49c-1.12-.94-.56-2.4.32-3.29l-.15.19c3.69-4.8 7.33-9.83 9.36-15.59a1.9 1.9 0 012.19-1.46C204.77 191 190.63 213.68 187.71 210.49zM174.12 219.93c-1.57-2.35 3.84-5.83 5.22-3.21C180.42 219 175.64 222.08 174.12 219.93zM176.6 216l-.11.07zM176.7 216l-.08 0zM437 219.28c-5.73-6-14.42-9-22.45-6.88-6.24-5.59 9.73-4.71 12.52-3.47C430.5 208.75 447.45 220.68 437 219.28zM446.44 215.49c-.67-2.93-2.73-5.54-3.33-8.33C446.84 199.77 453.9 222.18 446.44 215.49zM450.09 152c-4.67-2.29 1.81-10.45 4.44-5.35l0-.05C455.23 148.86 453 153.31 450.09 152zM136.68 633.57a1.91 1.91 0 01-.12-.47 1.1 1.1 0 000 .18h0A1.42 1.42 0 00136.68 633.57zm.56 1.38c-2-1.58.17-5.31 2.4-3.48C142.49 632.74 139.54 636.89 137.24 635zM871.2 656.12c-4.23.22-2.84-7.33.79-4.53C873.08 653 874 656.07 871.2 656.12zM631.72 684.2a1.27 1.27 0 00.28 0 1.7 1.7 0 01-.39 0zm-1.51.71c-1.22-1.58-.34-4.79 2-4.41C635.61 681.54 633.48 688.64 630.21 684.91zM868.22 834.38c-2.25-2.07 2.19-6.13 3.8-3.28C873.45 833.42 870.27 836.5 868.22 834.38zM838.38 337.85c-3.3-.63-2.62-6.73.92-4.65C843.43 332.46 842 339.11 838.38 337.85z"/></g></svg>