<svg id="SvgjsSvg1283" width="360" height="360" xmlns="http://www.w3.org/2000/svg" version="1.1" xmlns:xlink="http://www.w3.org/1999/xlink" xmlns:svgjs="http://svgjs.com/svgjs"><defs id="SvgjsDefs1284"></defs><g id="SvgjsG1285"><svg xmlns="http://www.w3.org/2000/svg" data-name="Layer 1" viewBox="0 0 700 550" width="360" height="360"><path fill="#f7e8e8" d="M212.347 497.261c28.481-24.188 68.17-30.826 105.502-29.204 37.332 1.622 72.129 10.663 109.46 12.285 23.815 1.034 36.065 1.197 60.512-5.088 21.13-5.432 39.572-22.118 44.317-43.858 2.618-11.992 4.485-24.062 5.965-36.246 1.631-13.417 11.734-31.432 17.991-41.603 7.716-12.542 19.177-27.676 24.326-41.471 5.424-14.531 6.672-32.036 4.594-42.14-5.65-27.467-36.847-35.943-46.162-62.393-8.615-24.46-17.792-64.102-39.072-80.924-13.912-10.996-30.917-4.158-49.77-14.613-23.549-13.06-49.112-37.877-82.713-51.938-26.85-11.236-56.925-11.548-83.463 3.001-50.807 27.854-21.472 44.074-49.498 71.097-9.749 9.399-45.019 30.863-54.63 40.403s-17.448 22.14-16.827 35.667c.726 15.837 12.689 29.222 14.745 44.942 1.727 13.2-3.819 26.4-11.493 37.28s-17.465 20.076-25.86 30.409c-24.724 30.432-36 75.61-15.856 109.249 10.517 17.563 27.921 29.686 44.803 41.265l27.855 19.105c5.459 3.745 12.254 7.34 15.274 4.775Z" class="colore5eef9 svgShape"></path><path fill="#f090d9" d="M359.753 329.788c.686-1.995 1.472-3.945 2.273-5.888.791-1.947 1.653-3.862 2.516-5.777.884-1.905 1.77-3.809 2.726-5.68l1.438-2.807c.512-.92.993-1.855 1.533-2.762-.334 1.002-.726 1.977-1.088 2.966l-1.184 2.922c-.791 1.948-1.653 3.863-2.517 5.777-.885 1.904-1.77 3.809-2.728 5.68-.946 1.876-1.908 3.746-2.97 5.57Z" class="color015a9a svgShape"></path><path fill="#ea7dc7" d="M351.833 255.965c4.148 2.67 6.361 5.51 9.59 9.239l.182.468c2.959 17.052-.255 34.941 4.379 51.616-2.754 8.935-3.705 11.471-7.047 20.204s-5.883 18.014-5.143 27.335a80.151 80.151 0 0 0 2.647 13.487l3.784 14.754.088-.536c1.007 4.575 3.444 8.694 6.006 12.615l.375.287a119.914 119.914 0 0 0-.175 21.46l-.008-.001c-1.187 5.132-2.16 10.318-3.318 15.459-2.272 10.087-5.274 19.365-5.379 29.704L350 471.003c1.392-31.165 5.195-59.96 2.333-91.025-1.512-16.402-4.952-32.559-8.386-48.67l-20.871-97.932-.002-.514a62.374 62.374 0 0 0 4.176 10.745 84.354 84.354 0 0 0 17.34 22.923q1.84 1.77 3.755 3.46a3.2 3.2 0 0 0 1.854 1.003c1.38.06 2.18-1.536 2.46-2.887a18.2 18.2 0 0 0-1.226-11.09Z" class="color5f99d7 svgShape"></path><path fill="#f2a2e4" d="M232.317 334.868s4.989.883 6.445-.998 7.878-6.804 7.878-6.804l-2.467 15.898-1.144 13.823-3.158.433s-2.067 1.429-1.95-1.955 1.088-4.83-1.497-8.14-3.1-3.778-3.928-5.095-2.28-.793-2.21-2.8 2.03-4.362 2.03-4.362ZM246.498 432.125c-.446-.33.626-4.485-.017-5.75-2.182-1.424-4.49-2.791-5.691-5.002-1.26-2.326-1.057-5.196-2.104-7.63-1.697-3.926-6.35-6.03-7.833-10.043-.805-2.2-.524-4.615-.67-6.951-.145-2.327-.95-4.906-3.043-5.953-2.104-1.056-4.625-.155-6.97-.32-4.45-.3-7.64-4.285-10.132-7.988q-2.777-4.144-5.38-8.415a260.123 260.123 0 0 1-3.742-6.36l-8.875-17.038 3.845 81.169 14.2 66.253a4.336 4.336 0 0 0 .621-.078 3.535 3.535 0 0 0 .572-.155 2.79 2.79 0 0 0 .572-.261 2.19 2.19 0 0 0 .252-.156c.078-.058.165-.116.243-.184.504-.426 1.008-.853 1.522-1.26.28-.233.562-.465.853-.688a90.83 90.83 0 0 1 4.692-3.539c.63-.446 1.27-.892 1.91-1.318.145-.107.281-.204.436-.3q.989-.67 2.007-1.31a92.37 92.37 0 0 1 2.647-1.638 87.819 87.819 0 0 1 2.288-1.328 110.195 110.195 0 0 1 7.435-3.868 1.807 1.807 0 0 1 .194-.097c.824-.388 1.658-.766 2.501-1.144l.01-.01q1.949-.858 3.926-1.658c.66-.271 1.319-.523 1.988-.785.66-.262 1.328-.514 1.997-.756.892-.32 1.784-.64 2.685-.95s1.804-.611 2.715-.902l-2.689-22.368-3.846-5.681-.816-4.144Z" class="color98bce5 svgShape"></path><path fill="#f4d5d5" d="M307.793 208.78s-16.69 25.848 15.76 60.262c0 0-10.525-9.905-14.225-11.478s-9.834-8.136-9.834-8.136-13.178-14.06-21.67-12.706-8.573 2.35-8.573 2.35 25.458-28.334 38.542-30.292ZM273.527 395.833l-3.265-6.287c-12.478-30.306-3.16-81.775-3.006-82.667a16.45 16.45 0 0 1-3.703 4.44q-8.086 7.519-16.17 15.056a141.777 141.777 0 0 0-4.354 30.412 10.398 10.398 0 0 1 8.182 7.64 15.892 15.892 0 0 1 .107 6.954l-.19 1.058 3.203 1.85s6.089 3.835 7.118 5.072l3.562 9.523c1.354-1.85 9.495 9.333 8.516 6.949Z" class="colord5e3f4 svgShape"></path><path fill="#f2a2e4" d="m513.63 227.849 7.37 194.27c-3.587-1.008-29.871-21.104-33.555-21.327-4.79-.3-5.206-1.192-9.51.126l-15.054-40.885-12.893-132.184Z" class="color98bce5 svgShape"></path><path fill="#ecb3b3" d="m518.79 411.251-7.167-2.965a53.418 53.418 0 0 0-13.194-5.613 52.521 52.521 0 0 0-10.984-1.88 39.023 39.023 0 0 0-13.815 1.444 29.72 29.72 0 0 0-2.036.707 28.174 28.174 0 0 0-10.645 6.845 16.652 16.652 0 0 0-4.643 11.546c.038 1.038.155 2.2-.505 3.006a4.312 4.312 0 0 1-1.376.95c-5.323 2.811-8.338 4.508-9.355 10.44-1.009 5.934.048 8.222.998 14.165 0 0-3.108-2.006-4.59-3.143a17.51 17.51 0 0 0-13.994-2.84 28.45 28.45 0 0 0-12.869 6.803c-9.474 8.287-12.716 18.268-14.193 27.332 8.862 1.06 17.798 1.9 26.887 2.294 23.815 1.034 36.065 1.197 60.512-5.088 21.13-5.432 39.572-22.118 44.317-43.858.048-.217.09-.433.137-.65ZM268.86 471.404c-.534-5.706-5.625-13.472-9.075-15.505-5.065-2.984-11.705-2.383-16.844.472-1.217.676-2.555 1.5-3.902 1.147a4.834 4.834 0 0 1-1.815-1.12c-3.516-2.986-7.047-6.183-11.418-7.658-4.37-1.475-12.359 3.043-12.359 3.043a59.794 59.794 0 0 0-3.503-11.424c-1.866-4.437-4.342-8.735-7.997-11.868-3.655-3.132-8.64-4.97-13.358-4.014-2.827.573-5.4 2.087-8.233 2.624-6.92 1.309-14.3-3.357-20.874-.832-4.825 1.853-8.433 9.015-10.616 13.7 0 0-.452 9.563-.207 18.512 6.6 5.283 13.62 10.141 20.56 14.9l27.854 19.105c5.459 3.745 12.254 7.34 15.274 4.775 16.079-13.655 35.73-21.715 56.513-25.855Z" class="colorb3ceec svgShape"></path><path fill="#f4d5d5" d="M243.3 478.88c-.63-1.579-1.874-4.392-3.413-5.114-1.52-.713-3.323-.224-4.97-.539-1.847-.352-3.34-1.67-5.043-2.466-4.885-2.281-10.6-.023-15.41 2.413a2.321 2.321 0 0 1-2.105.31c-.794-.445-.76-1.564-.89-2.465-.297-2.064-1.944-3.677-3.704-4.794a48.91 48.91 0 0 1-5.334-3.248c-1.202-1-2.165-2.275-3.43-3.193-3.45-2.503-8.301-1.789-12.21-.088a5.748 5.748 0 0 1-2.619.715c-1.845-.13-2.935-2.032-4.189-3.392a10.3 10.3 0 0 0-9.015-2.864l-.249-.05c-.765-4.712-5.383-9.394-10.145-9.739-2.13-.154-4.37.316-6.348-.489-1.585-.643-2.741-2.005-4.067-3.084a13.406 13.406 0 0 0-10.017-2.866c-3.537.447-6.454 1.319-8.574 4.182 10.374 12.429 24.173 22.028 37.65 31.272l27.854 19.105c5.46 3.745 12.255 7.34 15.275 4.775a111.304 111.304 0 0 1 30.95-18.367Z" class="colord5e3f4 svgShape"></path><path fill="#f2a2e4" d="M243.023 221.547v30.684c-.175.194-.349.398-.524.601-3.79 4.489-6.64 10.432-9.927 14.95a51.89 51.89 0 0 0-12.68 11.933c-5.798 7.708-9.337 16.782-15.473 23.908a35.578 35.578 0 0 1-4.014 4.003 46.508 46.508 0 0 0-4.934 3.122 30.133 30.133 0 0 0-4.48 3.985l-.174-11.624-1.008-67.911Z" class="color98bce5 svgShape"></path><path fill="#ecb3b3" d="M432.383 188.346h40.044l-2.619 119.285-53.39-31.467 15.965-87.818zM344.613 99.1h53.676l1.366 101.268-53.39-31.467-1.652-69.801z" class="colorb3ceec svgShape"></path><path fill="#f4d5d5" d="M399.017 139.806h53.677l1.366 101.268-53.39-31.467-1.653-69.801z" class="colord5e3f4 svgShape"></path><path fill="#f2a2e4" d="M323.072 172.425v34.532a37.732 37.732 0 0 0-15.279 1.823 55.39 55.39 0 0 0-13.63 6.921v-41.289Z" class="color98bce5 svgShape"></path><path fill="#ecb3b3" d="M294.162 134.78v80.921a98.472 98.472 0 0 0-9.48 7.407 117.507 117.507 0 0 0-12.73 12.797c-2.084 2.472-4.101 5.1-6.854 6.796-4.906 3.015-11.275 2.53-16.452 5.08a19.538 19.538 0 0 0-6.147 5.051l-.542-36.49-1.009-67.912Z" class="colorb3ceec svgShape"></path><path fill="#c80088" d="M283.834 63.07a154.946 154.946 0 0 0-6.114 3.53 36.805 36.805 0 0 0 67.682-13.08c-20.644-3.801-42.061-1.145-61.568 9.55Z" class="color0078c8 svgShape"></path><path fill="#f4d5d5" d="M532.138 431.396c2.617-11.992 4.485-24.062 5.965-36.246 1.149-9.45 6.5-21.172 11.75-30.837l-.44-.254a39.06 39.06 0 0 0-4.362.34c-7.814.979-16.918 4.08-22.269 8.783a34.351 34.351 0 0 0-3.2 3.2 35.113 35.113 0 0 0-3.829 5.186 36.636 36.636 0 0 0-4.963 13.562 29.554 29.554 0 0 0 .833 13.156 22.183 22.183 0 0 0 .931 2.463v.01c.097.222.204.445.31.668a17.333 17.333 0 0 0 11.954 9.598s-9.457.141-11.994 9.664a18.31 18.31 0 0 0-17.14 20.449c-5.78-1.257-12.137 3.274-12.835 9.147-6.353-1.688-14.084 1.439-16.98 7.34-2.224 4.531-2.696 5.68-2.68 12.253l.074.128a176.529 176.529 0 0 0 24.558-4.752c21.13-5.432 39.572-22.118 44.317-43.858Z" class="colord5e3f4 svgShape"></path><path fill="#f090d9" d="M390.061 287.195a1.285 1.285 0 1 1 1.286 1.286 1.285 1.285 0 0 1-1.286-1.286ZM320.978 220.29a43.095 43.095 0 0 0 5.113-2.73 20.866 20.866 0 0 0 4.314-3.437 38.988 38.988 0 0 0 3.212-4.608c1.01-1.638 1.983-3.337 3.14-4.967a28.95 28.95 0 0 1-1.753 5.682 20.138 20.138 0 0 1-3.111 5.23 14.788 14.788 0 0 1-5.079 3.477 15.015 15.015 0 0 1-5.836 1.353Z" class="color015a9a svgShape"></path><path fill="#f090d9" d="M321.02 220.288q-.094-2.28.023-4.566c.18-3.431 1.163-6.642 4.075-8.415l.894.078a25.693 25.693 0 0 1 8.062 2.94l-.265.491a27.945 27.945 0 0 1-2.161 3.376c-2.198 2.912-7.1 5.348-10.67 6.098Z" class="color015a9a svgShape"></path><path fill="#f4d5d5" d="M233.548 335.023c-.679.66-1.406 1.493-2.104 2.21l.873-2.365c.407.068.823.116 1.231.155Z" class="colord5e3f4 svgShape"></path><path fill="#f090d9" d="m230.16 339.271 1.83-4.963.408.067c.396.065.801.112 1.198.15l1.076.104-.776.753a35.94 35.94 0 0 0-1.22 1.273c-.293.316-.585.631-.874.927ZM184.61 455.08a33.073 33.073 0 0 1-1.87-22.236 32.075 32.075 0 0 0 3.65 21.325 1.001 1.001 0 1 1-1.737.994 1.106 1.106 0 0 1-.043-.083Z" class="color015a9a svgShape"></path><path fill="#f090d9" d="M192.262 435.319a41.075 41.075 0 0 0-5.688 8.711 16.293 16.293 0 0 0-1.3 4.95 11.248 11.248 0 0 0 .598 4.963l-.946.326a12.121 12.121 0 0 1-.398-5.376 16.91 16.91 0 0 1 1.592-5.072 41.294 41.294 0 0 1 6.142-8.502ZM172.14 442.119a15.707 15.707 0 0 1 11.33 5.74l-.799.601a15.209 15.209 0 0 0-10.53-6.341ZM190.709 470.174a51.097 51.097 0 0 1 8.596 19.153 1.001 1.001 0 1 1-1.956.431 1.11 1.11 0 0 1-.016-.096 50.098 50.098 0 0 0-6.624-19.488Z" class="color015a9a svgShape"></path><path fill="#f090d9" d="M187.013 475.306a12.213 12.213 0 0 1 9.313 5.852l-.88.475a11.716 11.716 0 0 0-8.433-6.327ZM204.473 478.076a26.929 26.929 0 0 0-4.012 3.592 8.223 8.223 0 0 0-2.177 4.609l-.99-.136a8.97 8.97 0 0 1 2.805-4.817 27.157 27.157 0 0 1 4.374-3.248ZM229.157 458.33a15.818 15.818 0 0 1 3.512 11.36c-.551-1.958-1.01-3.854-1.603-5.728-.565-1.882-1.257-3.707-1.909-5.633ZM156.591 461.561a11.985 11.985 0 0 1-2.429-12.695 23.85 23.85 0 0 0 2.43 12.695ZM265.011 388.043a18.84 18.84 0 0 1 2.502 1.697 40.964 40.964 0 0 1 2.204 1.867c.71.643 1.397 1.31 2.07 2.014a18.472 18.472 0 0 1 1.924 2.333 9.395 9.395 0 0 1-2.887-1.088 13.426 13.426 0 0 1-2.452-1.78 13.577 13.577 0 0 1-2.002-2.275 9.481 9.481 0 0 1-1.359-2.768ZM251.521 434.805c1.376-.781 2.7-1.49 3.986-2.247a57.854 57.854 0 0 0 7.256-5.071c1.152-.947 2.274-1.946 3.484-2.967a13.354 13.354 0 0 1-2.38 4.07 17.714 17.714 0 0 1-7.707 5.379 13.419 13.419 0 0 1-4.639.836ZM249.691 454.106a18.937 18.937 0 0 0-4.445-5.69 4.98 4.98 0 0 1-1.613-3.952 4.27 4.27 0 0 1 .212-1.123l.283-.87c.175-.56.32-1.138.456-1.717.297-1.154.523-2.335.714-3.52a32.534 32.534 0 0 0 .423-3.552 68.636 68.636 0 0 1 .762-7.39 68.639 68.639 0 0 1 .799 7.386 26.581 26.581 0 0 1-.756 7.55c-.161.615-.332 1.23-.54 1.84l-.31.879a3.532 3.532 0 0 0-.162.681 3.164 3.164 0 0 0 .133 1.42 4.043 4.043 0 0 0 .761 1.335c1.53 1.898 3.091 4.183 3.283 6.723Z" class="color015a9a svgShape"></path><path fill="#f090d9" d="M279.14 390.507a10.557 10.557 0 0 0-4.65 4.617 20.776 20.776 0 0 0-2.01 6.26 141.218 141.218 0 0 0-1.6 13.392c-.37 4.49-.4 8.972-.443 13.521a53.47 53.47 0 0 1-1.466 13.591 97.975 97.975 0 0 0-.094-13.562 140.978 140.978 0 0 1-.235-6.834c.003-2.29.09-4.578.245-6.863a87.359 87.359 0 0 1 2.074-13.575 19.51 19.51 0 0 1 2.7-6.445 9.968 9.968 0 0 1 5.48-4.102ZM283.54 237.737a10.103 10.103 0 0 0 .945 7.59 16.498 16.498 0 0 0 5.199 5.692 77.37 77.37 0 0 0 6.704 4.156 105.458 105.458 0 0 1 6.731 4.318 75.281 75.281 0 0 1 12.172 10.452 68.811 68.811 0 0 1 9.348 13.083 128.34 128.34 0 0 1 6.747 14.51c1.935 4.96 3.802 9.894 5.673 14.857 3.748 9.91 7.401 19.878 10.478 30.027-3.81-9.892-7.94-19.641-11.93-29.455-4.11-9.77-7.578-19.818-12.713-28.965a68.35 68.35 0 0 0-8.997-12.784 78.896 78.896 0 0 0-11.686-10.463c-2.11-1.568-4.293-3.04-6.506-4.47a75.128 75.128 0 0 1-6.617-4.494 17.245 17.245 0 0 1-5.077-6.235 9.996 9.996 0 0 1-.47-7.82ZM272.362 294.2a104.414 104.414 0 0 1 11.15-.516c3.722-.003 7.442.189 11.152.492 3.707.34 7.405.795 11.07 1.442a103.632 103.632 0 0 1 10.892 2.44c-3.724-.206-7.414-.552-11.097-.893-3.685-.328-7.359-.694-11.038-.998-3.676-.34-7.358-.615-11.044-.93-3.687-.302-7.38-.598-11.085-1.038ZM253.956 446.535q11.187 3.843 22.514 7.07c7.563 2.117 15.185 3.998 22.869 5.59q5.757 1.217 11.563 2.193c3.864.69 7.749 1.248 11.637 1.799 3.892.502 7.793 1.065 11.69 1.344a39.07 39.07 0 0 0 11.692-.63 35.944 35.944 0 0 1-11.73 1.61c-3.972-.05-7.902-.403-11.834-.774a223.587 223.587 0 0 1-23.426-3.585 227.817 227.817 0 0 1-22.91-6.058 201.203 201.203 0 0 1-22.065-8.56ZM380.7 343.631c.688 1.226 1.237 2.398 1.88 3.545.618 1.16 1.306 2.255 1.963 3.499a8.207 8.207 0 0 1-3.843-7.044ZM376.206 357.504c.567.88.962 1.696 1.42 2.506.434.823.904 1.596 1.335 2.552a4.835 4.835 0 0 1-2.755-5.058Z" class="color015a9a svgShape"></path><path fill="#f090d9" d="M286.128 294.497c.052 4.891-.093 9.767-.308 14.638-.05 1.218-.102 2.435-.174 3.652-.031 1.15-.261 2.701.058 3.023a2.888 2.888 0 0 0 1.09.7l1.642.781 3.305 1.523a257.083 257.083 0 0 0 6.644 2.968c2.215.955 4.477 1.983 6.668 2.747a10.45 10.45 0 0 0 6.78-.006 36.15 36.15 0 0 0 6.536-3.098 27.335 27.335 0 0 1-6.195 4.019 12.176 12.176 0 0 1-3.698.959 11.233 11.233 0 0 1-3.851-.373 31.469 31.469 0 0 1-3.546-1.179l-3.425-1.321a190.81 190.81 0 0 1-6.746-2.9l-3.315-1.578-1.647-.81a4.151 4.151 0 0 1-1.832-1.415 3.69 3.69 0 0 1-.382-2.347l.17-1.823c.108-1.214.237-2.426.368-3.638.508-4.849 1.085-9.692 1.858-14.522ZM365.536 232.597a17.856 17.856 0 0 1 3.602 5.426c.871 1.964 1.57 3.92 3 4.932a3.144 3.144 0 0 0 2.242.75 6.191 6.191 0 0 0 2.484-1.168 8.054 8.054 0 0 1 6.459-1.126 10.24 10.24 0 0 0-5.55 2.395 6.794 6.794 0 0 1-3.116 1.772 4.954 4.954 0 0 1-3.723-1.028 7.459 7.459 0 0 1-2.198-2.87 22.21 22.21 0 0 1-1.058-3.122 52.284 52.284 0 0 0-2.142-5.961Z" class="color015a9a svgShape"></path><path fill="#f090d9" d="M348.607 261.324a35.75 35.75 0 0 1 3.386-6.859 46.38 46.38 0 0 1 10.107-11.46 35.552 35.552 0 0 1 6.385-4.212l-5.333 5.365c-1.736 1.798-3.45 3.603-5.082 5.48-1.661 1.853-3.238 3.778-4.807 5.724ZM376.33 244.006a1.39 1.39 0 0 0-.648.884 3.012 3.012 0 0 0-.044 1.026l.29 2.322c.097.787.194 1.59.215 2.424a3.648 3.648 0 0 1-.613 2.525 8.664 8.664 0 0 0-.541-2.332 13.248 13.248 0 0 1-.55-2.431 8.572 8.572 0 0 1 .036-2.58 2.758 2.758 0 0 1 .577-1.329 1.374 1.374 0 0 1 1.278-.509Z" class="color015a9a svgShape"></path><path fill="#f090d9" d="M378.252 251.677a9.454 9.454 0 0 1-2.562 1.902 11.54 11.54 0 0 0-2.463 1.726 3.134 3.134 0 0 0-1.039 2.348 7.016 7.016 0 0 0 .838 2.682l.19.402-.276.376a1.441 1.441 0 0 1-.612.471 1.862 1.862 0 0 1-.594.121c-.33.013-.566-.015-.746-.012-.184 0-.26.031-.25.04a.373.373 0 0 0-.081.14 1.145 1.145 0 0 0 .047.78c.108.354.342.795.478 1.352a6.453 6.453 0 0 1 .006 3.178 22.477 22.477 0 0 1-.867 2.758 8.954 8.954 0 0 0-.762 5.035 11.353 11.353 0 0 0 2.292 4.752c2.238 2.907 5.55 4.832 8.156 7.59a13.934 13.934 0 0 1 3.097 4.83 21.718 21.718 0 0 1 1.283 5.596c.19 1.9.331 3.74.35 5.645l-.048 5.594c-.01 3.72-.128 7.485-.254 11.165a16.192 16.192 0 0 0 .583 5.22 32.432 32.432 0 0 0 2.13 4.991c1.63 3.323 3.447 6.56 5.333 9.78l-.164.115a77.558 77.558 0 0 1-6.449-9.194 29.535 29.535 0 0 1-2.582-5.121 16.688 16.688 0 0 1-.902-5.8c.01-3.766.11-7.446.273-11.173l.227-5.575c.021-1.817.017-3.703-.073-5.516a23.618 23.618 0 0 0-.798-5.351 12.62 12.62 0 0 0-2.557-4.71c-2.385-2.8-5.663-4.723-8.243-7.547a12.34 12.34 0 0 1-2.961-4.989 8.322 8.322 0 0 1-.263-3.035 14.066 14.066 0 0 1 .676-2.865c.577-1.776 1.208-3.463.825-4.93-.066-.355-.265-.75-.427-1.288a2.74 2.74 0 0 1 .055-1.952 1.908 1.908 0 0 1 .808-.903 2.033 2.033 0 0 1 1.102-.22c.286.015.513.047.649.046.16-.009.06-.007.03.058l-.086.778a7.765 7.765 0 0 1-.766-3.337 3.883 3.883 0 0 1 .507-1.776 4.885 4.885 0 0 1 1.158-1.333 10.583 10.583 0 0 1 2.871-1.546 11.165 11.165 0 0 0 2.722-1.442ZM396.875 335.536a138.034 138.034 0 0 0-23.434 42.936 136.289 136.289 0 0 0-5.617 23.85 141.4 141.4 0 0 0-1.305 24.572 104.868 104.868 0 0 1-.244-24.764 116.118 116.118 0 0 1 15.586-46.898 105.037 105.037 0 0 1 15.014-19.696Z" class="color015a9a svgShape"></path><path fill="#f090d9" d="M399.598 356.27c-6.205 8.35-10.618 17.747-15.055 27.1-4.408 9.388-8.957 18.699-12.498 28.379a137.81 137.81 0 0 0-2.468 7.313c-.773 2.451-1.317 4.975-1.995 7.459l-3.447 15.162c-2.347 10.128-5.855 19.95-6.321 30.373a71.477 71.477 0 0 1 1.5-15.509c.996-5.112 2.265-10.142 3.298-15.208q1.512-7.638 3.127-15.253l.943-3.801c.3-1.27.65-2.53 1.023-3.784q1.124-3.758 2.464-7.442c3.63-9.802 8.286-19.128 12.978-28.372 4.669-9.24 9.631-18.543 16.45-26.417ZM383.357 301.897c-.517 9.031-1.168 18.126-3.404 27.005a71.088 71.088 0 0 1-4.57 12.926c-1.903 4.145-4.026 8.138-5.826 12.243a125.956 125.956 0 0 0-8.266 25.583c-.86 4.37-1.333 8.875-.391 13.222.887 4.37 3.143 8.375 5.42 12.27a38.665 38.665 0 0 1-6.373-12.04 32.299 32.299 0 0 1-.192-13.73 111.625 111.625 0 0 1 7.976-26.118c1.872-4.17 4.01-8.174 5.94-12.23a75.963 75.963 0 0 0 4.78-12.528c2.448-8.638 3.622-17.64 4.906-26.603Z" class="color015a9a svgShape"></path><path fill="#f090d9" d="M368.537 391.37c-1.239-2.266-2.361-4.525-3.593-6.738-1.206-2.228-2.507-4.388-3.75-6.653a27.314 27.314 0 0 1 7.343 13.392ZM384.692 326.335a51.439 51.439 0 0 1-2.664 13.76c-1.403 4.47-3.167 8.789-4.783 13.122a100.769 100.769 0 0 0-4.17 13.142 44.999 44.999 0 0 0-1.154 13.719 33.51 33.51 0 0 1-.379-14.017 71.305 71.305 0 0 1 3.833-13.55c1.671-4.366 3.504-8.629 5.187-12.933a87.093 87.093 0 0 0 4.13-13.243ZM391.728 280.578a12.463 12.463 0 0 0 1.306-1.173 17.966 17.966 0 0 0 1.814-2.207 12.85 12.85 0 0 0 .902-1.505 2.516 2.516 0 0 1 .597 1.979 3.686 3.686 0 0 1-2.564 3.11 2.526 2.526 0 0 1-2.055-.204ZM383.885 245.896c-.41.254-.844.47-1.282.688l-.667.31a.697.697 0 0 0-.377.291.624.624 0 0 0-.08.395c.024.132.074.195.247.421l.816 1.157.771 1.187c.24.41.5.81.755 1.16a2.401 2.401 0 0 0 .94.808 1.36 1.36 0 0 0 1.272-.054 1.404 1.404 0 0 1-1.394.53 2.588 2.588 0 0 1-1.397-.761 17.07 17.07 0 0 1-1.777-2.313l-.784-1.21a1.693 1.693 0 0 1-.32-.867 1.328 1.328 0 0 1 .342-.936 1.377 1.377 0 0 1 .82-.44l.687-.144c.465-.085.934-.172 1.428-.222ZM389.972 285.352a2.075 2.075 0 0 0-1.846 1.326 2.051 2.051 0 0 0 .329 1.909 3.042 3.042 0 0 0 3.677.648 6.7 6.7 0 0 0 1.895-1.287 12.138 12.138 0 0 1 2.214-1.771c1.805-.969 3.558-.825 4.718-2.324a3.634 3.634 0 0 1-1.673 2.237c-.788.528-1.598.921-2.194 1.395a18.036 18.036 0 0 0-1.735 1.811 7.25 7.25 0 0 1-2.44 1.778 5.059 5.059 0 0 1-3.2.3 3.89 3.89 0 0 1-2.61-2.01 3.07 3.07 0 0 1 .18-3.186 2.298 2.298 0 0 1 2.685-.826ZM399.437 291.915a21.642 21.642 0 0 0-7.207 9.607 35.58 35.58 0 0 0-2.255 11.8c-.108 2.027-.084 4.07-.027 6.12.036 2.056.123 4.105.3 6.12.389 3.994 1.453 8.04 4.24 11.178a13.308 13.308 0 0 1-3.926-4.892 22.3 22.3 0 0 1-1.86-6.077 68.445 68.445 0 0 1-.724-12.537 31.373 31.373 0 0 1 2.83-12.342 18.482 18.482 0 0 1 8.629-8.977ZM461.075 233.348a51.573 51.573 0 0 1 11.643 19.152 54.55 54.55 0 0 1 2.546 11.067 72.445 72.445 0 0 1 .254 11.322 50.798 50.798 0 0 0 .427 10.964c.595 3.597 1.77 7.13 2.718 10.765a60.101 60.101 0 0 1 1.948 11.126 57.974 57.974 0 0 1-.265 11.236 68.84 68.84 0 0 0-3.183-21.931 101.818 101.818 0 0 1-3.081-10.859 51.114 51.114 0 0 1-.561-11.366c.069-1.87.148-3.722.145-5.56.009-.92-.053-1.833-.078-2.75-.044-.915-.141-1.827-.201-2.742a58.607 58.607 0 0 0-2.15-10.795 57.442 57.442 0 0 0-4.155-10.246 59.934 59.934 0 0 0-6.007-9.383ZM457.85 228.146c-.022.92-.078 1.83-.072 2.744l.06 2.746c.016 1.829.098 3.66.152 5.489.103 3.659.288 7.318.43 10.977l.91 21.951 1.878 43.9.918 21.948.556 10.963q.142 2.742.337 5.47c.066.9.092 1.842.19 2.707a17.694 17.694 0 0 0 .375 2.622c1.616 7.05 4.827 13.68 7.547 20.492a199.202 199.202 0 0 1 6.964 20.862q-3.47-10.427-7.87-20.486c-2.881-6.697-6.277-13.274-8.136-20.504a19.514 19.514 0 0 1-.475-2.798c-.131-.951-.174-1.841-.266-2.765-.162-1.834-.279-3.665-.392-5.494l-.648-10.978-1.096-21.954c-.537-14.643-1.1-29.285-1.413-43.935q-.215-10.988-.354-21.978c.007-3.665-.028-7.328.018-10.994.022-1.832.01-3.663.075-5.497l.09-2.747c.044-.917.15-1.832.223-2.741ZM400.482 385.457q.313 10.63.245 21.247c-.018 7.078-.153 14.153-.31 21.228l-.305 10.607q-.181 5.297-.165 10.575a89.472 89.472 0 0 0 2.274 20.967 59.51 59.51 0 0 1-2.73-10.298 89.212 89.212 0 0 1-1.104-10.624c-.35-7.119-.105-14.2.032-21.274.197-7.076.417-14.151.754-21.223q.463-10.61 1.309-21.205ZM433.458 403.754a77.705 77.705 0 0 1 3.328 20.069c.04 1.704.018 3.408-.032 5.104-.086 1.695-.156 3.383-.283 5.062-.223 3.36-.41 6.705-.576 10.103a57.857 57.857 0 0 1-.985-10.135c-.082-3.393-.004-6.743-.122-10.08-.068-3.34-.305-6.675-.552-10.024-.243-3.351-.605-6.7-.778-10.1ZM372.622 427.104a55.396 55.396 0 0 1 6.606-.589c2.2-.097 4.395-.076 6.59-.034a8.69 8.69 0 0 1 1.842.203 3.853 3.853 0 0 1 1.841 1.083 11.267 11.267 0 0 1 1.778 3.051 13.835 13.835 0 0 0 4.025 4.87 9.863 9.863 0 0 1-5.38-4.094 13.294 13.294 0 0 0-1.753-2.48 2.097 2.097 0 0 0-.98-.533 7.402 7.402 0 0 0-1.43-.102c-2.194-.082-4.388-.188-6.578-.41a55.407 55.407 0 0 1-6.561-.965ZM402.763 434.37a10.868 10.868 0 0 1 5.134 1.417 6.259 6.259 0 0 1 2.063 2.039 10.464 10.464 0 0 1 1.093 2.55c.51 1.681.809 3.213 1.727 4.356.914 1.183 2.496 2.103 3.638 3.457-1.598-.676-3.275-1.078-4.762-2.374a6.767 6.767 0 0 1-1.652-2.358 22.328 22.328 0 0 1-.863-2.496 7.5 7.5 0 0 0-2.166-3.922 27.017 27.017 0 0 0-4.212-2.669ZM361.027 245.642a15.637 15.637 0 0 1 3.65 2.944 21.235 21.235 0 0 1 4.749 8.032 15.54 15.54 0 0 1 .813 4.62c-.816-1.354-1.523-2.69-2.247-4.004a155.081 155.081 0 0 0-4.54-7.693c-.803-1.27-1.632-2.533-2.425-3.9ZM367.297 206.053a2.803 2.803 0 0 1-1.964.251 4.71 4.71 0 0 1-1.839-.932 13.237 13.237 0 0 1-2.587-3.026 20.814 20.814 0 0 1-3.28-7.197 16.72 16.72 0 0 1 .344-7.956c.16-.64.388-1.255.599-1.873.216-.563.417-1.2.686-1.812a5.001 5.001 0 0 1 .524-.923 4.81 4.81 0 0 1 .743-.716 4.495 4.495 0 0 1 .85-.543 1.182 1.182 0 0 1 .982-.077 1.042 1.042 0 0 0-.821.333 4.253 4.253 0 0 0-.616.676 5.935 5.935 0 0 0-.485.745 4.36 4.36 0 0 0-.248.821c-.14.596-.228 1.202-.358 1.865-.096.617-.263 1.218-.33 1.833a21.674 21.674 0 0 0-.287 3.644 15.653 15.653 0 0 0 .371 3.568 26.97 26.97 0 0 0 2.66 6.814 16.311 16.311 0 0 0 1.924 3.114 3.32 3.32 0 0 0 3.132 1.391Z" class="color015a9a svgShape"></path><path fill="#f090d9" d="M362.445 190.44a3.2 3.2 0 0 1-1.522-2.153 4.984 4.984 0 0 1 .124-2.698 4.416 4.416 0 0 1 1.627-2.239 3.097 3.097 0 0 1 2.597-.536 7.18 7.18 0 0 0-1.504 1.666 7.546 7.546 0 0 0-.823 1.74 11.54 11.54 0 0 0-.458 1.955 7.997 7.997 0 0 0-.041 2.265ZM369.632 188.346a1.247 1.247 0 0 1 .142 1.55 2.129 2.129 0 0 1-1.493.931 5.535 5.535 0 0 1-1.655-.034 4.347 4.347 0 0 0-1.229-.083c-.106.04-.063.05-.106.112a1.788 1.788 0 0 0-.152.387 5.383 5.383 0 0 0-.192 1.25 5.943 5.943 0 0 0 .405 2.468 3.151 3.151 0 0 0 1.319 1.715 1.273 1.273 0 0 0 .828.118.844.844 0 0 0 .598-.423 6.155 6.155 0 0 0 .389-1.261 2.733 2.733 0 0 1 .924-1.59 1.633 1.633 0 0 1 1.83-.022 1.918 1.918 0 0 1 .89 1.301c-.534-.85-1.76-1.084-2.083-.532a1.802 1.802 0 0 0-.27 1.064 6.07 6.07 0 0 1-.24 1.64 2.506 2.506 0 0 1-.58.933 2.537 2.537 0 0 1-.955.568 3.079 3.079 0 0 1-2.084-.059 4.657 4.657 0 0 1-2.426-2.719 6.92 6.92 0 0 1-.425-3.372 7.165 7.165 0 0 1 .422-1.656 2.778 2.778 0 0 1 .549-.915 1.786 1.786 0 0 1 1.185-.552 4.664 4.664 0 0 1 1.702.358 4.84 4.84 0 0 0 1.286.33 1.487 1.487 0 0 0 1.124-.29 1.052 1.052 0 0 0 .297-1.217ZM334.327 210.418a29.874 29.874 0 0 0-15.1-3.124 40.345 40.345 0 0 0-14.94 3.654 66.25 66.25 0 0 0-13.179 8.114 131.988 131.988 0 0 0-11.708 10.29q-2.785 2.726-5.37 5.638c-1.732 1.918-3.29 4.03-5.24 5.944a17.918 17.918 0 0 1-3.247 2.562 17.383 17.383 0 0 1-3.79 1.647c-2.602.811-5.23 1.156-7.753 1.685a19.143 19.143 0 0 0-7.03 2.712 24.208 24.208 0 0 0-5.465 5.341c-3.227 4.068-5.687 8.77-8.933 12.9 2.873-4.387 5.12-9.124 8.146-13.485a25.075 25.075 0 0 1 5.5-5.83 20.12 20.12 0 0 1 7.437-3.16c2.584-.626 5.163-1.043 7.56-1.83a15.614 15.614 0 0 0 3.377-1.535 16.085 16.085 0 0 0 2.865-2.352c1.769-1.788 3.344-3.9 5.104-5.889q2.615-2.985 5.437-5.773a128.394 128.394 0 0 1 11.968-10.368 64.07 64.07 0 0 1 13.706-8.038 39.713 39.713 0 0 1 15.538-3.201 29.13 29.13 0 0 1 15.117 4.098Z" class="color015a9a svgShape"></path><path fill="#f090d9" d="M241.385 263.08a62.59 62.59 0 0 0-12.665 8.53 56.27 56.27 0 0 0-9.927 11.392c-2.84 4.199-5.249 8.744-8.082 13.081-2.804 4.328-6.08 8.539-10.306 11.543a56.318 56.318 0 0 0 8.973-12.355c2.524-4.436 4.861-9.036 7.754-13.38a52.811 52.811 0 0 1 4.832-6.176 48.936 48.936 0 0 1 5.765-5.303 44.795 44.795 0 0 1 13.656-7.333ZM268.524 239.856a9.396 9.396 0 0 1 2.792-2.107 13.246 13.246 0 0 1 3.366-1.077 20.709 20.709 0 0 1 7.077-.002 20.974 20.974 0 0 1 3.46.912 22.313 22.313 0 0 1 3.248 1.531 36.636 36.636 0 0 1 5.728 4.203c1.78 1.543 3.459 3.169 5.142 4.757q2.524 2.375 5.198 4.564c3.538 2.96 7.354 5.526 11.172 8.258a46.107 46.107 0 0 1 10.34 9.722 47.725 47.725 0 0 1 6.362 12.657c3.096 8.906 4.291 18.168 7.365 26.971-3.804-8.538-5.559-17.835-8.831-26.438a48.663 48.663 0 0 0-6.414-12.057 44.991 44.991 0 0 0-10-9.24c-3.724-2.713-7.641-5.356-11.204-8.424q-2.681-2.284-5.196-4.75c-1.677-1.631-3.29-3.298-4.973-4.863-3.353-3.106-7.086-5.925-11.588-6.847a19.965 19.965 0 0 0-6.805-.433 10.888 10.888 0 0 0-6.239 2.663Z" class="color015a9a svgShape"></path><path fill="#f090d9" d="M209.04 303.457c-3.13 1.528-6.275 3.038-9.25 4.817a35.367 35.367 0 0 0-8.074 6.394 20.882 20.882 0 0 0-5.049 8.719 22.073 22.073 0 0 0-.22 10.039c1.338 6.69 4.513 12.932 7.53 19.174 3.083 6.219 6.357 12.346 9.957 18.274 1.699 3.026 3.636 5.904 5.47 8.847 1.831 2.951 3.707 5.868 6.253 7.929a8.399 8.399 0 0 0 4.257 1.902c1.527.218 3.233-.219 5.156-.13a5.937 5.937 0 0 1 2.893.861 5.792 5.792 0 0 1 1.998 2.265 11.79 11.79 0 0 1 1.037 5.45 19.333 19.333 0 0 0 .364 5.003 10.124 10.124 0 0 0 2.576 4.11c1.16 1.245 2.481 2.414 3.62 3.82a10.24 10.24 0 0 1 2.268 4.915 23.075 23.075 0 0 0 1.12 4.995 9.76 9.76 0 0 0 3.313 3.74c1.385 1.022 2.882 1.944 4.262 3.026a7.721 7.721 0 0 1 2.952 4.237 7.573 7.573 0 0 0-3.136-3.998c-1.41-1.004-2.923-1.85-4.385-2.833a10.382 10.382 0 0 1-3.689-3.851 23.49 23.49 0 0 1-1.396-5.113 9.257 9.257 0 0 0-2.177-4.4c-1.088-1.279-2.415-2.397-3.664-3.663a11.418 11.418 0 0 1-3.009-4.594 20.45 20.45 0 0 1-.557-5.367 10.242 10.242 0 0 0-.984-4.7 3.803 3.803 0 0 0-3.494-2.176c-1.56-.085-3.317.39-5.269.166a10.193 10.193 0 0 1-5.181-2.234c-2.915-2.33-4.87-5.399-6.728-8.313-1.873-2.951-3.858-5.837-5.589-8.876-3.578-6.01-6.821-12.208-9.87-18.494-1.507-3.155-3.01-6.295-4.355-9.553a46.217 46.217 0 0 1-3.05-10.154 23.462 23.462 0 0 1 .52-10.654 21.815 21.815 0 0 1 5.55-9.041 36.114 36.114 0 0 1 8.518-6.179 96.495 96.495 0 0 1 9.512-4.36ZM267.896 304.31a5.836 5.836 0 0 1-.453 2.65l.022-.09v.01l.003.035-.024.057c-.938 2.226-2.723 3.923-4.324 5.563-1.619 1.665-3.282 3.283-4.925 4.922q-4.983 4.86-10.083 9.594c-1.716 1.563-3.4 3.15-5.143 4.694-1.735 1.53-3.686 3.206-6.221 3.79-5.212 1.071-9.256-2.619-13.913-1.404a7.645 7.645 0 0 1 1.675-.539 10.096 10.096 0 0 1 1.773-.134 23.4 23.4 0 0 1 3.508.402c2.275.4 4.564.813 6.573.207a14.212 14.212 0 0 0 5.347-3.685c1.657-1.613 3.367-3.187 5.049-4.783q5.082-4.753 10.289-9.373c1.752-1.522 3.484-3.066 5.261-4.561a21.433 21.433 0 0 0 4.759-4.878l-.022.092.001-.01.004-.061.017-.03a6.076 6.076 0 0 0 .827-2.468Z" class="color015a9a svgShape"></path><path fill="#f090d9" d="M265.634 293.825a12.183 12.183 0 0 1 .949 4.643 15.2 15.2 0 0 1-.656 4.747c-.458 1.529-1.109 2.918-1.664 4.292a19.735 19.735 0 0 0-1.253 4.322 8.554 8.554 0 0 1-.245-4.76 45.358 45.358 0 0 1 1.248-4.433 35.37 35.37 0 0 0 1.02-4.28c.254-1.464.415-2.955.601-4.531Z" class="color015a9a svgShape"></path><path fill="#f090d9" d="M263.051 244.003a218.382 218.382 0 0 1 10.48 19.548 103.277 103.277 0 0 1 7.351 21.032 76.944 76.944 0 0 1 1.55 11.1 30.264 30.264 0 0 1-.191 5.696 19.417 19.417 0 0 1-1.648 5.508 28.142 28.142 0 0 1-6.857 8.92 75.738 75.738 0 0 1-8.867 6.697 96.97 96.97 0 0 0 8.183-7.398 28.822 28.822 0 0 0 6.111-8.844 19.557 19.557 0 0 0 1.34-5.107 28.478 28.478 0 0 0 .039-5.355 78.697 78.697 0 0 0-1.612-10.79 123.153 123.153 0 0 0-6.823-20.834c-2.823-6.783-5.995-13.448-9.056-20.173ZM243.03 356.797a50.222 50.222 0 0 1-.303-7.78 69.541 69.541 0 0 1 2.205-15.377 50.236 50.236 0 0 1 2.48-7.381c-.231 2.6-.591 5.146-.95 7.688l-1.085 7.604-1.102 7.602c-.37 2.54-.742 5.085-1.246 7.644Z" class="color015a9a svgShape"></path><path fill="#f090d9" d="M249.66 378.096c.826-4.139 1.821-8.37 1.06-12.364a10.418 10.418 0 0 0-2.551-5.216 8.031 8.031 0 0 0-4.831-2.709 4.79 4.79 0 0 0-1.339 0 5.62 5.62 0 0 0-.666.131c-.26.066-.534.133-.82.19a4.938 4.938 0 0 1-1.985.052 2.18 2.18 0 0 1-1.214-.72 2.147 2.147 0 0 1-.485-1.336 4.201 4.201 0 0 1 .128-1.017c.05-.25.105-.486.143-.732a12.76 12.76 0 0 0 .164-1.465 9.755 9.755 0 0 0-.22-2.867 5.276 5.276 0 0 0-1.258-2.378 5.582 5.582 0 0 0-1.115-.893 3.695 3.695 0 0 1-.748-.667 2.615 2.615 0 0 1-.487-.969 10.806 10.806 0 0 0-.372-1.442 2.987 2.987 0 0 0-.763-1.06 4.372 4.372 0 0 0-.555-.428c-.206-.142-.386-.218-.695-.415a2.64 2.64 0 0 1-1.078-1.56l.41.315a.43.43 0 0 1-.264-.096.452.452 0 0 1-.162-.269.442.442 0 0 1 .016-.221.42.42 0 0 1 .109-.177l-.106.445a2.76 2.76 0 0 1 .156-1.85 2.672 2.672 0 0 1 .52-.754c.225-.219.413-.366.621-.552l-.07.17v-.009l.008-.112.06-.056c.75-.693 1.515-1.368 2.277-2.042-.64.799-1.279 1.597-1.931 2.378l.068-.168v.01l.006.08-.076.09c-.17.2-.376.423-.514.603a2.263 2.263 0 0 0-.322.62 1.968 1.968 0 0 0 .039 1.322l-.106.446a.386.386 0 0 0 .101-.166.434.434 0 0 0 .015-.218.448.448 0 0 0-.16-.266.418.418 0 0 0-.257-.094l.41.316a1.765 1.765 0 0 0 .792.921c.144.078.458.2.703.337a5.54 5.54 0 0 1 .748.475 4.268 4.268 0 0 1 1.21 1.398 9.42 9.42 0 0 1 .549 1.59 1.107 1.107 0 0 0 .243.428 2.305 2.305 0 0 0 .466.348 7.18 7.18 0 0 1 1.42 1.006 6.838 6.838 0 0 1 1.826 3.087 11.242 11.242 0 0 1 .401 3.43 14.688 14.688 0 0 1-.166 1.69c-.079.549-.247 1.19-.226 1.383.002.103.03.112.04.13 0 0 .015.023.138.05a3.305 3.305 0 0 0 1.164-.082c.235-.044.476-.1.73-.16a7.637 7.637 0 0 1 .893-.163 6.753 6.753 0 0 1 1.828.02 9.407 9.407 0 0 1 5.942 3.472 11.36 11.36 0 0 1 2.634 6.18 18.61 18.61 0 0 1-.5 6.505 45.156 45.156 0 0 1-1.996 6.075ZM266.434 392.442c-1.582-1.638-2.192-4.004-2.701-6.092a14.827 14.827 0 0 0-2.202-5.67 18.894 18.894 0 0 0-4.659-4.039 57.609 57.609 0 0 1-5.31-3.927 51.686 51.686 0 0 1 6.102 2.582 15.09 15.09 0 0 1 5.47 4.19 10.393 10.393 0 0 1 1.551 3.244 20.301 20.301 0 0 1 .58 3.351 22.676 22.676 0 0 0 1.169 6.36ZM192.072 342.964a23.245 23.245 0 0 1 5.031-2.435 19.548 19.548 0 0 1 5.566-1.116 15.224 15.224 0 0 1 5.674.819 21.796 21.796 0 0 1 5.022 2.481c-1.862-.248-3.646-.68-5.402-.968a24.11 24.11 0 0 0-5.209-.334 40.75 40.75 0 0 0-5.26.622c-1.771.308-3.56.691-5.422.93Z" class="color015a9a svgShape"></path><path fill="#f090d9" d="M207.138 353.419a7.554 7.554 0 0 1 2.606-2.603 21.291 21.291 0 0 1 3.276-1.696 34.405 34.405 0 0 1 7.038-2.011c2.389-.417 4.773-.708 7.15-.936a21.737 21.737 0 0 0 6.92-1.38 9.155 9.155 0 0 1-3.142 1.92 25.919 25.919 0 0 1-3.527 1c-2.352.546-4.715.92-7.041 1.362-2.33.412-4.629.884-6.883 1.512-1.124.319-2.25.673-3.343 1.097a9.822 9.822 0 0 0-3.054 1.735ZM204.641 374.09a3.874 3.874 0 0 1 .83-1.775 5.206 5.206 0 0 1 1.421-1.218 5.148 5.148 0 0 1 1.759-.641 3.844 3.844 0 0 1 1.954.153 8.293 8.293 0 0 1-1.343 1.296 12.033 12.033 0 0 1-1.362.919 12.482 12.482 0 0 1-1.472.731 8.46 8.46 0 0 1-1.787.534ZM237.88 356.508a21.418 21.418 0 0 1-3.163 2.374 30.198 30.198 0 0 1-3.426 1.867 25.26 25.26 0 0 1-3.675 1.375 10.403 10.403 0 0 1-3.973.494c1.178-.653 2.245-1.327 3.381-1.938a50.438 50.438 0 0 1 3.43-1.746q1.748-.811 3.588-1.453a18.768 18.768 0 0 1 3.838-.973ZM223.438 376.55a24.093 24.093 0 0 0 3.893-1.635 18.143 18.143 0 0 0 3.27-2.306 16.469 16.469 0 0 0 2.65-2.976c.385-.557.729-1.126 1.104-1.78a4.113 4.113 0 0 1 1.57-1.64 6.128 6.128 0 0 0-.659 2.005 10.558 10.558 0 0 1-.641 2.157 10.303 10.303 0 0 1-2.697 3.73 10.84 10.84 0 0 1-4.004 2.247 8.536 8.536 0 0 1-4.486.197ZM315.544 271.527c.555 7.826 1.05 15.642 1.668 23.448l1.858 23.419c.559 7.814 1.039 15.644 1.718 23.453.696 7.809 1.524 15.605 2.425 23.393a22.11 22.11 0 0 0 .409 2.806 2.485 2.485 0 0 0 .525 1.02.702.702 0 0 0 .702.197 1.526 1.526 0 0 0 .742-.626 4.918 4.918 0 0 0 .555-1.143 9.593 9.593 0 0 0 .55-2.66 42.537 42.537 0 0 0-.191-5.747l-.371-5.869c-.487-7.824-.988-15.649-1.378-23.479-.734-15.663-1.337-31.332-1.538-47.015l.2-.009c1.468 15.627 2.534 31.267 3.468 46.915.445 7.824.778 15.655 1.126 23.485l.255 5.873a43.65 43.65 0 0 1 .008 5.996 11.121 11.121 0 0 1-.735 3.057 6.168 6.168 0 0 1-.802 1.454 2.848 2.848 0 0 1-1.568 1.095 2.05 2.05 0 0 1-1.97-.638 3.69 3.69 0 0 1-.767-1.588 22.21 22.21 0 0 1-.31-3.022c-.56-7.82-1.167-15.637-1.98-23.432-.826-7.795-1.886-15.568-2.731-23.367a386.692 386.692 0 0 1-2.068-47.011ZM296.894 322.181a291.747 291.747 0 0 0 .607 32.828c.704 10.925 1.647 21.847 2.208 32.821.526 10.978.576 21.982.057 32.957a311.466 311.466 0 0 1-3.206 32.768q1.308-16.405 1.646-32.82c.2-10.941.065-21.883-.493-32.807-.519-10.928-1.377-21.866-1.765-32.842a207.335 207.335 0 0 1 .946-32.905Z" class="color015a9a svgShape"></path><path fill="#f090d9" d="M318.03 321.896a119.937 119.937 0 0 1-1.404 17.604c-.818 5.834-1.812 11.622-2.365 17.453-1.262 11.649-1.504 23.389-1.654 35.136-.174 11.747-.24 23.54-1.146 35.304a154.364 154.364 0 0 1-6.291 34.734 160.236 160.236 0 0 0 3.17-17.321c.804-5.809 1.228-11.662 1.563-17.514.585-11.716.566-23.46.705-35.23.086-5.884.238-11.776.524-17.665.359-5.886.756-11.78 1.585-17.63 1.429-11.742 4.661-23.097 5.312-34.871ZM476.015 421.166c.611 4.987.093 10.126 1.406 14.933 1.272 4.817 3.864 9.134 6.44 13.43a.75.75 0 1 1-1.285.775l-.02-.034c-2.36-4.423-4.804-8.98-5.865-13.998a34.293 34.293 0 0 1-.612-7.567c.016-2.518.117-5.029-.064-7.54Z" class="color015a9a svgShape"></path><path fill="#f090d9" d="M466.273 438.524a15.748 15.748 0 0 0 4.964-.37 9.976 9.976 0 0 1 2.593-.104 5.095 5.095 0 0 1 .664.109 1.422 1.422 0 0 1 .375.113 2.502 2.502 0 0 1 .337.19 7.125 7.125 0 0 1 1.03.874 42.162 42.162 0 0 1 3.28 3.889c1.023 1.316 2.022 2.728 3.013 3.962l-1.165.946c-1.033-1.426-1.895-2.795-2.86-4.169a41.288 41.288 0 0 0-2.992-3.93 6.295 6.295 0 0 0-.838-.791 1.626 1.626 0 0 0-.201-.13 1.158 1.158 0 0 0-.22-.082 4.248 4.248 0 0 0-.559-.157 9.296 9.296 0 0 0-2.408-.166 15.938 15.938 0 0 1-5.013-.184Z" class="color015a9a svgShape"></path><path fill="#f090d9" d="M489.507 427.028c-1.39 1.528-2.781 3.061-4.016 4.701a26.23 26.23 0 0 0-1.707 2.545 7.324 7.324 0 0 0-.657 1.316 8.557 8.557 0 0 0-.343 1.432 27.74 27.74 0 0 0-.083 6.067 42.33 42.33 0 0 0 .881 6.02l-1.466.314a43.546 43.546 0 0 1-.597-6.272 28.669 28.669 0 0 1 .412-6.287 9.352 9.352 0 0 1 .46-1.555 5.242 5.242 0 0 1 .374-.749l.436-.656a26.816 26.816 0 0 1 1.932-2.465c1.373-1.565 2.874-2.99 4.374-4.41ZM507.852 441.652a47.263 47.263 0 0 0 2.603 4.537 48.342 48.342 0 0 0 3.174 4.158 10.818 10.818 0 0 1-5.778-8.695ZM491.615 462.574a29.626 29.626 0 0 1 8.47-5.647 18.303 18.303 0 0 1 4.985-1.313 12.749 12.749 0 0 1 5.096.405 21.92 21.92 0 0 0-9.697 1.83 82.345 82.345 0 0 0-8.854 4.725ZM517.096 438.28a23.712 23.712 0 0 0-1.174 5.243 23.967 23.967 0 0 0 .128 5.372 9.429 9.429 0 0 1 1.046-10.615ZM521 388.267a102.378 102.378 0 0 1 11.747 29.304.75.75 0 1 1-1.462.338l-.007-.036A101.631 101.631 0 0 0 521 388.267Z" class="color015a9a svgShape"></path><path fill="#f090d9" d="M533.253 383.886c.236 5.035.342 10.08.253 15.131-.053 2.526-.157 5.053-.374 7.582a39.501 39.501 0 0 1-1.26 7.592l-1.42-.483a38.428 38.428 0 0 0 1.562-7.233c.337-2.48.565-4.983.743-7.491.338-5.019.482-10.058.496-15.098Z" class="color015a9a svgShape"></path><path fill="#f090d9" d="M520.923 406.492a26.76 26.76 0 0 0 5 3.878 38.124 38.124 0 0 0 5.56 2.902l-.643 1.355a39.193 39.193 0 0 1-5.351-3.646 27.115 27.115 0 0 1-4.566-4.489ZM440.88 458.9a32.964 32.964 0 0 0 6.481 17.882.75.75 0 1 1-1.2.9.845.845 0 0 1-.034-.048 33.712 33.712 0 0 1-5.247-18.735ZM436.153 470.965a32.778 32.778 0 0 1 9.297 2.893l-.753 1.297a32.028 32.028 0 0 0-8.544-4.19Z" class="color015a9a svgShape"></path><path fill="#f090d9" d="M449.241 460.956a4.988 4.988 0 0 0-2.323 3.039 16.366 16.366 0 0 0-.734 3.848 31.926 31.926 0 0 0 .356 7.812l-1.486.199a32.988 32.988 0 0 1 .386-8.11 16.892 16.892 0 0 1 1.13-3.888 5.167 5.167 0 0 1 2.671-2.9ZM176.512 338.373a13.593 13.593 0 0 1-4.567-3.276 17.347 17.347 0 0 1-4.612-10.247 13.544 13.544 0 0 1 .582-5.591 41.692 41.692 0 0 0 .957 5.33 31.041 31.041 0 0 0 4.285 9.534 41.172 41.172 0 0 0 3.355 4.25ZM162.346 330.454c.774 1.158 1.45 2.277 2.154 3.367a72.72 72.72 0 0 0 4.514 6.224c.817 1.007 1.67 2 2.527 3.097a11.227 11.227 0 0 1-3.62-1.983 15.202 15.202 0 0 1-4.815-6.648 11.293 11.293 0 0 1-.76-4.057ZM164.958 393.084a7.353 7.353 0 0 1 .113-3.034 10.138 10.138 0 0 1 3.04-5.139 7.3 7.3 0 0 1 2.609-1.555c-.445.944-.934 1.75-1.398 2.558l-1.398 2.356-1.397 2.357c-.486.795-.957 1.612-1.569 2.457ZM214.099 423.363a10.682 10.682 0 0 1 2.785.35 16.832 16.832 0 0 1 2.56.87 16.533 16.533 0 0 1 2.39 1.266 10.548 10.548 0 0 1 2.162 1.791 10.55 10.55 0 0 1-2.786-.347 16.53 16.53 0 0 1-2.56-.874 16.827 16.827 0 0 1-2.388-1.267 10.684 10.684 0 0 1-2.163-1.789ZM478.095 355.901a9.83 9.83 0 0 1 1.36 2.777 14.206 14.206 0 0 1 .603 2.972 14.04 14.04 0 0 1-.035 3.033 9.735 9.735 0 0 1-.82 2.982 17.567 17.567 0 0 1-.752-2.944 35.521 35.521 0 0 1-.384-2.883 36.8 36.8 0 0 1-.159-2.904 17.897 17.897 0 0 1 .187-3.033ZM449.988 171.13a10.576 10.576 0 0 1 3.28 2.097 14.388 14.388 0 0 1 4.117 6.54 10.516 10.516 0 0 1 .466 3.865c-.701-1.117-1.294-2.197-1.902-3.255a96.555 96.555 0 0 0-3.848-6.124c-.69-1.008-1.408-2.01-2.113-3.122ZM337.258 155.31a11.652 11.652 0 0 1 .09-3.945 16.05 16.05 0 0 1 3.214-7.134 11.58 11.58 0 0 1 2.898-2.678c-.494 1.243-1.042 2.376-1.574 3.505l-1.55 3.363-1.497 3.387c-.494 1.146-.98 2.307-1.58 3.501ZM315.497 114.372a6.871 6.871 0 0 1 1.793 1.31 10.076 10.076 0 0 1 1.317 1.62 9.896 9.896 0 0 1 .959 1.855 6.786 6.786 0 0 1 .478 2.17 6.788 6.788 0 0 1-1.795-1.31 9.895 9.895 0 0 1-1.315-1.62 10.069 10.069 0 0 1-.956-1.858 6.871 6.871 0 0 1-.48-2.167ZM374.34 104.208a4.936 4.936 0 0 1 .648 1.734 6.626 6.626 0 0 1 .081 1.69 6.513 6.513 0 0 1-.346 1.654 4.883 4.883 0 0 1-.918 1.609 4.882 4.882 0 0 1-.65-1.734 6.513 6.513 0 0 1-.079-1.69 6.626 6.626 0 0 1 .35-1.654 4.939 4.939 0 0 1 .914-1.609ZM404.03 120.256a8.952 8.952 0 0 1 1.421 2.125 13.76 13.76 0 0 1 .877 2.281 13.52 13.52 0 0 1 .463 2.4 8.84 8.84 0 0 1-.087 2.556 8.84 8.84 0 0 1-1.425-2.125 13.51 13.51 0 0 1-.874-2.281 13.76 13.76 0 0 1-.46-2.4 8.947 8.947 0 0 1 .084-2.556ZM421.161 208.177a18.289 18.289 0 0 1-2.103 3.909 25.181 25.181 0 0 1-2.791 3.421 19.736 19.736 0 0 1-3.419 2.855 9.908 9.908 0 0 1-4.152 1.706c1.17-.942 2.16-1.93 3.173-2.92 1.005-.99 1.973-2.02 2.966-3.036q1.486-1.525 3.034-3.028a38.83 38.83 0 0 1 3.292-2.907Z" class="color015a9a svgShape"></path><path fill="#c80088" d="m343.255 177.211-7.988 17.922c-1.047 2.35-2.096 5.08-.978 7.396 1.165 2.415 4.364 3.277 6.95 2.57s4.665-2.601 6.519-4.54a68.685 68.685 0 0 0 11.564-16.315c.718-1.414 1.685-3.059 3.269-3.121 2.6-.102 3.095 3.682 4.845 5.61 2.402 2.645 7.53 1.755 9.263 4.88 1.32 2.38-.36 5.237-1.842 7.52-1.483 2.283-2.751 5.515-.882 7.493.203-4.868 5.486-7.91 10.29-8.716 2.821-.474 6.115-.35 8.009 1.792 1.054 1.193 1.52 2.865 2.744 3.882 1.248 1.037 3.045 1.188 4.325 2.185a4.17 4.17 0 0 1-.385 6.532c6.502.405 12.21-2.788 18.723-2.978 5.492-.16 9.903 4.75 13.386.5s6.463-11.303 5.54-16.72c-1.232-7.232-6.388-13.072-9.692-19.623-2.594-5.145-4.242-11.06-8.596-14.835-3.025-2.623-6.983-3.855-10.444-5.87-7.737-4.503-13.117-12.976-21.71-15.49a25.598 25.598 0 0 0-9.998-.577 39.693 39.693 0 0 0-22.337 9.691 30.838 30.838 0 0 0-10.27 21.778c-.062 3.33.638 6.917-.305 9.034Z" class="color0078c8 svgShape"></path><path fill="#b4027b" d="M362.59 181.123a2.77 2.77 0 0 1 2.453 1.568 31.107 31.107 0 0 1 10.198-20.26 39.694 39.694 0 0 1 22.337-9.69 25.598 25.598 0 0 1 9.999.575c5.694 1.667 9.98 5.95 14.474 9.96a18.373 18.373 0 0 0-3.732-4.63c-3.025-2.624-6.983-3.856-10.444-5.87-7.737-4.504-13.117-12.978-21.71-15.492a25.597 25.597 0 0 0-9.998-.576 39.696 39.696 0 0 0-22.337 9.691 30.835 30.835 0 0 0-10.27 21.778c-.061 3.33.638 6.917-.306 9.034l-7.987 17.922c-1.047 2.35-2.096 5.08-.978 7.396 1.165 2.415 4.364 3.277 6.95 2.57 2.587-.707 4.665-2.601 6.519-4.54a68.683 68.683 0 0 0 11.564-16.316c.718-1.413 1.685-3.058 3.269-3.12ZM384.002 197.155a2.991 2.991 0 0 0-2.207 1.365 17.436 17.436 0 0 1 2.47-.61c.448-.075.908-.128 1.371-.167a2.271 2.271 0 0 0-1.634-.588Z" class="color0268b4 svgShape"></path><path fill="#c80088" d="M414.383 215.717c-7.773-.241-15.905.616-22.48 4.767s-11.102 12.305-9.047 19.805c1.7 6.201 7.381 10.85 8.512 17.18.659 3.69-.26 7.81 1.714 10.995 1.624 2.622 4.82 3.892 6.637 6.383 1.982 2.717 1.98 6.46.998 9.676s-2.818 6.09-4.324 9.097a48.217 48.217 0 0 0-2.635 36.289c1.16 3.506 3.829 7.507 7.46 6.83a23.02 23.02 0 0 0 3.645-1.541c1.24-.464 2.89-.415 3.591.708.342.548.388 1.257.795 1.76.793.98 2.389.598 3.431-.11s2.034-1.7 3.295-1.726a5.467 5.467 0 0 1 2.07.56 17.593 17.593 0 0 0 11.425.477c1.018-.307 2.156-.699 3.095-.2a15.388 15.388 0 0 1 1.483 1.274 4.765 4.765 0 0 0 2.047.663q5.907.941 11.875 1.419a6.345 6.345 0 0 1 2.61.58c.633.352 1.126.915 1.748 1.287 1.601.956 3.651.456 5.4-.196 4.872-1.819 9.606-4.67 14.805-4.516 1.726.05 3.489.435 5.154-.02 2.971-.811 4.671-4.12 4.722-7.2s-1.152-6.019-2.178-8.922a96.706 96.706 0 0 1-5.045-24.44c-.8-9.92-.296-19.961-1.952-29.776a106.19 106.19 0 0 0-6.803-22.214c-3.716-9.127-8.283-18.377-16.122-24.349a31.81 31.81 0 0 0-24.054-6.02c-4.26.69-8.48 1.585-11.872 1.48Z" class="color0078c8 svgShape"></path><path fill="#b4027b" d="M461.563 338.604a4.766 4.766 0 0 1-2.047-.663 15.43 15.43 0 0 0-1.483-1.274c-.94-.499-2.077-.107-3.095.2a17.593 17.593 0 0 1-11.426-.477 5.473 5.473 0 0 0-2.07-.56c-1.26.027-2.252 1.016-3.294 1.725s-2.638 1.091-3.432.11c-.406-.502-.452-1.21-.795-1.76-.7-1.122-2.351-1.17-3.59-.707a23 23 0 0 1-3.647 1.541c-3.63.677-6.3-3.324-7.459-6.83a48.217 48.217 0 0 1 2.636-36.29c1.505-3.006 3.34-5.88 4.323-9.096.982-3.216.984-6.96-.998-9.676-1.818-2.491-5.012-3.76-6.636-6.383-1.974-3.186-1.056-7.305-1.715-10.995-1.13-6.33-6.812-10.979-8.512-17.18-2.055-7.5 2.471-15.654 9.047-19.805 6.576-4.151 14.708-5.008 22.48-4.767.611.02 1.257-.003 1.917-.042a31.693 31.693 0 0 0-15.512-1.437c-4.26.69-8.48 1.584-11.872 1.48-7.772-.242-15.905.615-22.48 4.766-6.576 4.151-11.102 12.305-9.047 19.805 1.7 6.201 7.381 10.85 8.511 17.18.66 3.69-.258 7.809 1.715 10.995 1.624 2.622 4.819 3.892 6.637 6.383 1.982 2.717 1.98 6.46.998 9.676-.983 3.216-2.818 6.09-4.324 9.096a48.216 48.216 0 0 0-2.635 36.29c1.16 3.506 3.829 7.507 7.46 6.83a23.012 23.012 0 0 0 3.645-1.541c1.24-.464 2.89-.415 3.59.708.344.548.389 1.257.796 1.76.793.98 2.389.598 3.431-.11s2.034-1.7 3.295-1.726a5.47 5.47 0 0 1 2.07.56 17.593 17.593 0 0 0 11.425.477c1.018-.307 2.156-.699 3.095-.2a15.43 15.43 0 0 1 1.483 1.274 4.766 4.766 0 0 0 2.047.663q5.907.941 11.875 1.418a6.34 6.34 0 0 1 2.61.581c.633.352 1.126.915 1.747 1.287 1.602.956 3.652.456 5.4-.196 2.175-.812 4.323-1.828 6.497-2.693-.888-.125-1.775-.256-2.661-.397Z" class="color0268b4 svgShape"></path><path fill="#f090d9" d="M351.833 255.965a19.235 19.235 0 0 1 5.16 3.11 36.495 36.495 0 0 1 4.306 4.177c1.322 1.486 2.542 3.033 3.726 4.618a44.455 44.455 0 0 1 3.284 4.985 44.452 44.452 0 0 1-4.464-3.963 88.469 88.469 0 0 1-4.041-4.313c-1.302-1.462-2.563-2.94-3.876-4.371-1.31-1.44-2.666-2.821-4.095-4.243ZM325.534 207.147a6.238 6.238 0 0 0-3.412 4.159 17.229 17.229 0 0 0-.627 5.504 54.214 54.214 0 0 0 1.206 11.12 65.272 65.272 0 0 0 8.423 20.59 95.452 95.452 0 0 0 14.023 17.463c1.348 1.284 2.727 2.639 4.052 3.87.65.567 1.245.713 1.81.283a3.96 3.96 0 0 0 1.168-2.126 18.394 18.394 0 0 0-.743-10.993 17.994 17.994 0 0 1 1.703 11.192 4.882 4.882 0 0 1-1.402 2.817 2.313 2.313 0 0 1-1.76.564 3.315 3.315 0 0 1-1.585-.705c-1.523-1.254-2.876-2.517-4.324-3.777a84.09 84.09 0 0 1-14.645-17.543 60.704 60.704 0 0 1-8.247-21.342 49.315 49.315 0 0 1-.654-11.442 17.958 17.958 0 0 1 1.106-5.653 8.083 8.083 0 0 1 1.498-2.476 5.245 5.245 0 0 1 2.41-1.505Z" class="color015a9a svgShape"></path></svg></g></svg>