<svg xmlns="http://www.w3.org/2000/svg" viewBox="0 0 411.53 504.39"><g data-name="Layer 2"><g data-name="Layer 1"><path fill="#fff" d="m110.2 452.84 45.55-3 55.7-18.06 35.76-37.64 63.23 3.39s13.55 41.4 8.28 86.94c0 0-14.68 12.42-48.18 8.28s-41.78-3.76-64 .75c-13.79 2.81-35.27 2.13-49.58 1.21a72.16 72.16 0 0 1-26.49-6.89c-2.38-1.14-4.85-2.3-7.11-3.35-12.84-5.95-23.08-13.85-13.16-31.63Z"/><path fill="#ffc4a9" d="M174.2 74.31a3.5 3.5 0 0 0 2.1-.69c3.95-2.69 8-5.23 12.16-7.58a156.32 156.32 0 0 1 14.83-7.39 65.33 65.33 0 0 1 13.22-4.25 44.65 44.65 0 0 1 13.8-.75 75.58 75.58 0 0 1 8.48 1.21c.7.16 1 0 1.18-.7 1.06.23.62 1 .58 1.64a6.32 6.32 0 0 0-.11 2.6c1-.63.92-1.52 1-2.35s-.26-1.93.56-2.7c0 0 .13.11.12.16-.13 2 1.34 2.54 2.82 3a63.54 63.54 0 0 1 16.24 7.6 85.66 85.66 0 0 1 11.1 8.35c.51.44.92 1 1.68 1.09.27.19.16.59.45.77.33.38.83.52 1.17.88a1.53 1.53 0 0 1 .42.42 1.36 1.36 0 0 1 .42.47l.36.35a1.71 1.71 0 0 1 .47.42 1.91 1.91 0 0 1 .42.43 1.91 1.91 0 0 1 .43.42 2.44 2.44 0 0 1 .43.42 2.44 2.44 0 0 1 .42.43c.26.18.15.58.43.75a.81.81 0 0 0 .34.08c.48.5.87 1.07 1.32 1.6a3.59 3.59 0 0 0 .39.39 3.78 3.78 0 0 0 .39.41c.13.15.28.28.4.43a4.16 4.16 0 0 1 .42.42 3.16 3.16 0 0 0 .83.84 1.51 1.51 0 0 1 .41.46.83.83 0 0 0 .05.35 4.83 4.83 0 0 0 .38.4 5.25 5.25 0 0 0 .4.42 3.24 3.24 0 0 1 .4.43 1.91 1.91 0 0 1 .42.43c.28.19.18.6.46.78a5.14 5.14 0 0 0 .38.42 2.62 2.62 0 0 1 .4.48l.34.36a5.93 5.93 0 0 1 .89 1.23 3.42 3.42 0 0 1 .42.43c.27.21.19.6.43.82a3.24 3.24 0 0 1 .4.43c.27.2.19.59.44.8a2 2 0 0 1 .31.28l.44.75a5.22 5.22 0 0 1 .39.43c.26.22.19.6.42.84.33.37.53.84.83 1.24a1.6 1.6 0 0 1 .4.49.8.8 0 0 0 .07.34c.2.21.09.59.38.75a2.86 2.86 0 0 0 .35.43c.46.46.53 1.11.83 1.65.25.21.16.6.44.79.11.16.26.29.37.44.27.21.19.61.42.85a1.2 1.2 0 0 0 0 .38c.22.22.13.6.4.8.12.15.27.28.39.44.41.3 0 .9.45 1.2.11.16.25.3.37.47a.73.73 0 0 0 0 .36c.25.22.16.6.4.83.26.22.19.6.42.84.26.22.19.6.41.84.28.23.22.62.41.88a.83.83 0 0 0 0 .35c.23.24.16.62.37.88a.77.77 0 0 0 .07.36 5.37 5.37 0 0 1 .35.45l.06.78a3.42 3.42 0 0 0 .36.4c.37.33 0 .9.41 1.23.25.24.18.62.39.87a1.14 1.14 0 0 0 0 .37c.22.23.14.6.37.83.36.67.51 1.42.81 2.12a.65.65 0 0 0 0 .34c.37.32 0 .9.42 1.21.16.37.53.64.53 1.08a2.75 2.75 0 0 1-1.27 1.55 16.72 16.72 0 0 0-5.71 7.85c-1 3-3 4.92-6.23 5.09-3.81.2-5.79 2.31-6.6 5.86a42.64 42.64 0 0 1-1.36 4.52c-1.25 3.56-2.74 4.64-6.47 4.7a.48.48 0 0 0-.5.26c1.62 1.17 3.18 1.11 4.91-.22a10.31 10.31 0 0 0 3.31-4.84c.63-1.74 1.06-3.54 1.63-5.3a4.85 4.85 0 0 1 4.61-3.73c4.18-.21 6.57-2.45 8-6.25 1-2.69 2.38-5.25 5-6.85a2.23 2.23 0 0 1 1.3-.54c.56.31.08 1 .5 1.35.38.34.05.91.41 1.25a.39.39 0 0 1 .13.35q0 .18-.09.18c-2.53 1.47-3.75 3.95-4.72 6.51a10 10 0 0 1-7.53 6.57c-3.12.7-4.94 2.47-5.42 5.62-.19 1.2-.86 2.29-.91 3.78 1.31-.56 1.33-1.65 1.6-2.54.41-1.3.56-2.68 1.47-3.79a5.64 5.64 0 0 1 3.5-2c4.05-.75 6.6-3.29 8.27-6.93 1-2.14 1.66-4.52 3.88-5.86.39 0 .48.31.65.55.27.24.21.62.4.9a.93.93 0 0 0 0 .33c.37.33 0 .91.41 1.24.25.23.18.61.42.85v.81c.2.23.14.59.36.82.38.34.05.91.41 1.26a1.1 1.1 0 0 0 .08.4c.5.59.45 1.38.74 2 .26.24.2.62.4.89l.07.76c.54.59.46 1.4.77 2.07a.91.91 0 0 0 .06.4c.52.58.46 1.39.76 2.05.39.33.05.91.42 1.24.25.23.18.62.4.86a1.14 1.14 0 0 0 0 .37c.37.34 0 .91.4 1.25.25.23.19.61.4.87a1.1 1.1 0 0 0 0 .36 2 2 0 0 1 .38.48v.75c.23.24.15.61.38.84.27.24.21.63.4.9a.88.88 0 0 0 0 .33c.24.24.16.62.39.87a.88.88 0 0 0 0 .36c.25.24.17.62.38.88a1.49 1.49 0 0 0 .05.36 2.67 2.67 0 0 1 .36.47 1 1 0 0 0 0 .35c.25.23.16.61.39.85a1.31 1.31 0 0 0 .05.39c.21.24.13.61.36.84a1.1 1.1 0 0 0 .08.4c.1.14.22.28.34.42a.88.88 0 0 0 .05.39 7.54 7.54 0 0 1 .76 1.69.74.74 0 0 0 .05.36c.21.22.11.6.39.79.12.16.26.3.37.47a.88.88 0 0 0 0 .36c.25.22.17.6.4.84.4.31 0 .9.44 1.21.12.15.27.28.39.43.4.32 0 .9.44 1.21.21.23.13.6.4.8.21.24.15.6.38.84.25.21.17.6.42.81.23.24.16.61.4.84.25.21.17.6.43.81.13.15.28.28.4.44.27.22.2.6.41.84.28.21.21.59.42.84.28.2.2.6.45.81.23.22.16.61.41.82a2.05 2.05 0 0 1 .39.49.65.65 0 0 0 0 .34c.13.14.25.28.37.43.27.2.19.6.44.81.13.15.28.28.4.44.27.22.2.6.42.84a1.55 1.55 0 0 1 .41.47 1 1 0 0 0 0 .34l.38.43a11.73 11.73 0 0 1 .84 1.24 1.46 1.46 0 0 1 .41.48.78.78 0 0 0 .05.34 4.89 4.89 0 0 0 .39.4c.23.22.14.6.42.8a5.14 5.14 0 0 0 .38.42 2.38 2.38 0 0 1 .4.49.58.58 0 0 0 .07.34 4.17 4.17 0 0 1 .77.8 5.18 5.18 0 0 0 .4.41c.35.59.86 1.06 1.22 1.65l.42.42c.25.2.14.59.42.77a.93.93 0 0 0 .33.07 1.85 1.85 0 0 1 .6.95c-.65 1.26-2.38.88-3.26 2.17 1.78.36 3.09-.94 4.63-.84.34.08.4.39.55.63l.38.37a2 2 0 0 1 .46.42 1.72 1.72 0 0 1 .42.43 2.44 2.44 0 0 1 .43.42 2.85 2.85 0 0 1 .42.43 2.44 2.44 0 0 1 .43.42 3.25 3.25 0 0 1 .42.41 2.74 2.74 0 0 0 .82.84 2.78 2.78 0 0 1 .42.42 4.17 4.17 0 0 1 .43.41c.76.46 1.32 1.17 2.05 1.66a8.76 8.76 0 0 0 .82.9l.42.32a2.44 2.44 0 0 1 .84.82c.14.13.27.27.42.4.2.26.6.18.8.45a4.26 4.26 0 0 0 1.26 1.24l.42.36a.66.66 0 0 0 .34.06 1.38 1.38 0 0 1 .48.42 1.76 1.76 0 0 1 .43.43 2.14 2.14 0 0 1 .42.43 1.86 1.86 0 0 1 .42.42l.43.37a1 1 0 0 0 .35.05 1.54 1.54 0 0 1 .46.42 2.72 2.72 0 0 1 .43.4c.14.13.27.27.42.4a1.85 1.85 0 0 0 .38.36.92.92 0 0 0 .36.07 1.71 1.71 0 0 1 .47.42 3.31 3.31 0 0 1 .44.4c.21.25.61.16.81.44a3.12 3.12 0 0 0 .85.81c.38.31.85.51 1.23.84.16.12.29.27.44.39.21.26.61.17.8.44a3.24 3.24 0 0 1 .43.4c.39.31.85.51 1.23.83l.43.4a2.57 2.57 0 0 0 .39.35l.41.07c.59.36 1.08.86 1.66 1.24.22.24.62.16.82.44a1.91 1.91 0 0 1 .43.42l.42.35a.89.89 0 0 0 .39.06 2.51 2.51 0 0 1 .85.77 1.07 1.07 0 0 0 .35.06 2.27 2.27 0 0 1 .48.4 1.8 1.8 0 0 0 .4.33l.41.08.42.38a.83.83 0 0 0 .35 0 1.68 1.68 0 0 1 .47.41c.15.12.29.27.43.4.21.25.61.17.81.44a2 2 0 0 1 .42.41 4.87 4.87 0 0 0 .42.35 1.23 1.23 0 0 0 .39.06l.43.37a1.07 1.07 0 0 0 .35.06 1.68 1.68 0 0 1 .48.4c.14.13.28.26.43.38a1.33 1.33 0 0 0 .36.35 1.23 1.23 0 0 0 .38.08 4.14 4.14 0 0 1 .46.39c.2.26.6.17.8.45.16.11.29.26.44.37.18.27.59.18.78.45a2.85 2.85 0 0 1 .44.41l.41.38a.7.7 0 0 0 .35 0 2.22 2.22 0 0 1 .48.39 2.46 2.46 0 0 0 .41.38c.19.28.59.18.79.44a5.4 5.4 0 0 1 .42.41c.22.25.61.17.82.44a4.16 4.16 0 0 1 .42.42l.43.4a2.34 2.34 0 0 0 .4.37.8.8 0 0 0 .34.07 1.46 1.46 0 0 1 .48.41 4 4 0 0 1 .43.4c.38.32.86.5 1.22.85.27.17.16.57.44.74a1 1 0 0 0 .38.07l.45.39a3.87 3.87 0 0 0 .4.41 5.18 5.18 0 0 0 .41.4c.2.27.6.18.8.45.27.18.16.58.44.76a.75.75 0 0 0 .33.07 1.49 1.49 0 0 1 .48.42 3.89 3.89 0 0 0 .84.83 2.44 2.44 0 0 1 .42.43c.15.13.29.27.43.41a5.55 5.55 0 0 1 .42.42 4.16 4.16 0 0 1 .42.42 4.16 4.16 0 0 1 .42.42 1.93 1.93 0 0 1 .82.83 2.09 2.09 0 0 1 .42.42 1.91 1.91 0 0 1 .42.43c.36.34.51.84.87 1.18a2.87 2.87 0 0 0 .39.39 5.25 5.25 0 0 0 .4.42l.42.42a5.51 5.51 0 0 1 .41.43 3.68 3.68 0 0 0 .82.85c.27.2.19.59.43.82q.21.19.42.42a3.32 3.32 0 0 1 .41.43 1.91 1.91 0 0 1 .43.42c.27.2.19.59.44.81a5.6 5.6 0 0 1 .41.43 6.48 6.48 0 0 0 .82.91.69.69 0 0 0 0 .32 3.53 3.53 0 0 0 .79.89 1 1 0 0 0 .06.34 2.53 2.53 0 0 1 .75.85c.28.21.2.6.44.83.26.2.16.6.44.78a2.46 2.46 0 0 0 .38.41c.12.15.27.28.38.44.27.2.19.6.44.81.24.22.15.6.42.81.12.15.27.28.39.44.49.44.53 1.11.85 1.63.29.41.54.84.8 1.26.42.31.05.91.45 1.22a3.47 3.47 0 0 1 .39.47 1.1 1.1 0 0 0 0 .36 2.45 2.45 0 0 1 .38.47.87.87 0 0 0 .05.36c.21.22.11.59.39.77.11.17.25.31.36.48a.69.69 0 0 0 0 .35c.23.23.15.61.39.84.26.21.19.6.42.83.26.24.21.62.39.9l.07.74.77 1.26c.4.34.08.92.41 1.28a1 1 0 0 0 0 .35c.37.34 0 .91.4 1.25.27.23.2.62.4.88a1 1 0 0 0 0 .34c.44.48-.05 1.18.41 1.65.44.47 0 1.17.4 1.65.5.61-.08 1.45.41 2.06.38.35.06.92.41 1.28a.69.69 0 0 0 0 .32.28.28 0 0 0-.12.34q0 .15.12.15a1 1 0 0 0 0 .38c.36.34 0 .91.4 1.25v.8c.46.65-.06 1.47.38 2.11a.76.76 0 0 0 0 .3.33.33 0 0 0 0 .46c.53.92-.12 2 .4 2.91a1.15 1.15 0 0 0 0 .37.57.57 0 0 1 0 .83v.42c.5 1.34-.16 2.8.37 4.14a.86.86 0 0 0 0 .32 3.89 3.89 0 0 0 0 2.52v1.59c-.54 1.62.13 3.33-.36 5v.84a.26.26 0 0 1 .09.27c0 .09-.07.14-.1.14a.88.88 0 0 0 0 .36c-.5.78.11 1.74-.4 2.51a1.78 1.78 0 0 0 0 .4.29.29 0 0 0-.1.3q0 .15.09.15a1.29 1.29 0 0 0 0 .34c-.42.5 0 1.18-.38 1.68v.79c-.48.63.09 1.47-.41 2.09-.44.48 0 1.16-.39 1.65a.89.89 0 0 0 0 .36c-.21.25-.15.61-.34.86l-.08 1.17c-.19.27-.14.65-.39.9-.37.33 0 .89-.39 1.24a1.14 1.14 0 0 0 0 .37c-.35.35 0 .93-.42 1.27a8.45 8.45 0 0 1-.75 1.65.89.89 0 0 0-.06.39c-.36.35 0 .92-.41 1.27-.24.22-.17.6-.41.83-.27.4-.26 1-.76 1.24a.94.94 0 0 0-.07.37c-.22.25-.15.63-.4.86-.24.22-.17.6-.41.82-.24.22-.16.59-.38.82a1 1 0 0 0 0 .35 2 2 0 0 1-.41.47c-.24.23-.17.61-.42.84-.24.22-.17.61-.43.82l-.37.42a.83.83 0 0 0-.05.35 3.41 3.41 0 0 1-.37.48c-.27.2-.18.59-.42.8-.25.21-.17.61-.44.81a2.14 2.14 0 0 1-.41.44c-.23.23-.16.61-.42.83-.3.4-.51.86-.83 1.24-.29.4-.51.86-.83 1.24-.12.15-.27.28-.39.43-.26.2-.17.6-.45.8a5.34 5.34 0 0 1-.39.44c-.39.57-.87 1.07-1.25 1.64-.24.22-.16.62-.44.82a5.76 5.76 0 0 0-.87.84l-.36.37a2.25 2.25 0 0 1-.41.46c-.13.14-.28.27-.4.42a3.78 3.78 0 0 0-.4.4c-.34.36-.49.88-.9 1.2a.73.73 0 0 0-.33.08c-.28.17-.17.57-.44.75a2.19 2.19 0 0 1-.43.43 1.27 1.27 0 0 1-.47.42.8.8 0 0 0-.34.07 7.59 7.59 0 0 1-1.59 1.61 4.84 4.84 0 0 1-1.24 1.19c-.14.14-.29.27-.44.4l-.41.32c-.29.43-.83.55-1.17.93a2 2 0 0 0-.4.37c-.15.12-.28.27-.44.39a2.85 2.85 0 0 1-.43.42 1.59 1.59 0 0 1-.48.41.84.84 0 0 0-.35.07 3.42 3.42 0 0 0-.4.36 3.32 3.32 0 0 1-.43.41 2.09 2.09 0 0 1-.42.42 1.68 1.68 0 0 1-.43.41c-.2.28-.6.19-.81.45a5.39 5.39 0 0 1-.43.39 1.91 1.91 0 0 1-.43.42c-.2.28-.6.2-.82.44-.58.37-1.07.87-1.65 1.23-.21.24-.6.16-.8.43-.15.12-.28.27-.43.39-.39.31-.84.53-1.26.82a.72.72 0 0 0-.38.07 2.7 2.7 0 0 1-.86.75 1.34 1.34 0 0 0-.39.07c-.14.11-.28.22-.41.34a1.72 1.72 0 0 1-.49.4.78.78 0 0 0-.34.05l-.42.37c-.21.26-.6.18-.81.43a2.05 2.05 0 0 1-.49.39.66.66 0 0 0-.34.06 5 5 0 0 0-.42.37c-.21.26-.6.19-.82.43-.22.25-.6.19-.84.41-.21.27-.6.19-.82.43a14.91 14.91 0 0 1-1.26.8c-.23.29-.62.22-.88.42a2.09 2.09 0 0 0-1.17.45c-.22.24-.6.14-.8.4-.24.22-.61.16-.84.39-.21.26-.61.18-.83.42h-.41a2.36 2.36 0 0 1-.48.35h-.33c-.23.24-.61.15-.83.39-.24.25-.62.2-.89.39h-.34c-.22.25-.61.16-.84.4-.32.38-.9 0-1.23.42-.34.37-.91 0-1.24.41l-.43.07c-.25.16-.59.11-.81.34-.34.38-.91 0-1.26.41a1.34 1.34 0 0 0-.4.06c-.68.26-1.4.45-2.06.77h-.39c-.95.31-1.95.46-2.89.8a1.07 1.07 0 0 0-.4 0c-.37.31-.91 0-1.27.36h-.37c-.47.42-1.17-.06-1.64.4l-.85.08c-.37.23-.87 0-1.21.32-.49.46-1.2 0-1.69.41h-.77a.25.25 0 0 1-.41 0h-.42c-.36.3-.9 0-1.24.36-.9.57-2-.13-2.88.43a.56.56 0 0 1-.81 0h-.43c-.51.37-1.18 0-1.68.36l-2.85.07a34.78 34.78 0 0 1-6.92 0h-.48a12.7 12.7 0 0 0-1.82.44c-.64-.26-.77-.92-1.12-1.41-1.72-2.38-3.83-3.95-7-3.09-1.59.43-2.11-.5-2.4-1.74-.86-3.81-1.77-7.6-2.76-11.37-2.47-9.42-5.41-18.67-10-27.32A120.9 120.9 0 0 0 282.11 300a41.58 41.58 0 0 1-9.53-25.62c-.33-8-.39-16-1.63-23.9A42.9 42.9 0 0 0 259 227c-3.41-3.55-6.92-7-10-10.87a33.32 33.32 0 0 1-5.82-11c-3.49-11.54-11.51-18.83-22.14-23.6a20.54 20.54 0 0 0-11.27-1.42c-3.39.45-6.78.91-10.14 1.56a3.05 3.05 0 0 1-3.66-1.83 30.38 30.38 0 0 1-2.83-8.33c-.14-.67-.28-1.5.41-1.87s1.27.31 1.74.78a51.24 51.24 0 0 0 5.21 4.32c1.59 1.18 2.55.86 3.32-1 1.25-3 1.5-3.09 4.55-2l.39.14c5.29 1.88 7.56.15 7.14-5.48a23.78 23.78 0 0 0-.81-4.44c-1.43-5.3-.66-10.44 1-15.53 2.27-6.78 5.69-13 8.87-19.39a2.61 2.61 0 0 1 2.2-1.59c7.56-.75 13.1-5.2 18.22-10.23a30.51 30.51 0 0 0 5.6-7.82 15.28 15.28 0 0 0-2-16.88c-3.46-4.32-7.85-5.8-13.19-5.58-6.83.27-13.37 2.12-20 3.53-8.81 1.88-17 .27-24.8-3.77-5.54-2.85-10.72-6.32-16.11-9.44-.25-.15-.76-.32-.68-.95ZM82.68 101.84c2.44-1.3 4.86-2.68 7.35-3.9a48.66 48.66 0 0 1 13.36-4.82c2.47-.42 4.88-1.17 7.33-1.73 4-.91 8.06-1.2 12.08-1.83a40 40 0 0 1 8.1-.9 2.94 2.94 0 0 1-.63 2.5c-5.17 8.81-6.05 18.29-4.58 28.18.79 5.28 1.91 10.51 2.45 15.82a79.94 79.94 0 0 1 0 13.31c-.26 4-.89 8-1 12.05a3.17 3.17 0 0 0 1.29 3.06 2.75 2.75 0 0 1 1.11 2.89c-.47 4.28-.85 8.57-1.61 12.82-.43 2.34-.73 2.53-3 1.85a7.52 7.52 0 0 0-3-.27c-2.66.29-3.39 1.27-3.13 3.92.3 3.07.94 6.09 1.4 9.13a6 6 0 0 1-1.23 4.76c-4.55 6.25-9.26 12.4-13.08 19.14a140.66 140.66 0 0 0-15.66 40.85c-1.71 8.27-1.62 16.72-1 25.14 1.12 14.61 5.6 28.4 10.29 42.14 4.79 14.06 10.25 27.87 15.32 41.82a183.66 183.66 0 0 1 6.2 22.12 4 4 0 0 1 .1 2c-2.63 3.21-5.35 6.36-7.77 9.74a43.77 43.77 0 0 0-4 6.68c-1 2.14-.53 2.92 1.75 3.41 3.43.73 6.79-.13 10.18-.3 1.23-.06 2.53-.39 2.94 1.33a.71.71 0 0 1-.36.54c-3.39.9-6.91.59-10.34 1.13-4.9.78-9.9 1.08-14.5 3.23-.7.07-.71-.79-1.25-.94-.22-.24-.57-.17-.81-.35l-.79-.07c-.25-.22-.63-.14-.87-.38h-.33a2.13 2.13 0 0 1-.49-.36.8.8 0 0 0-.34-.05c-.27-.2-.66-.14-.89-.41-.24-.22-.62-.16-.84-.41-.14-.13-.27-.25-.42-.37a1.2 1.2 0 0 0-.38-.05c-.24-.23-.63-.15-.85-.43l-.43-.37a1.06 1.06 0 0 0-.35-.05 2.56 2.56 0 0 1-.48-.39 1.55 1.55 0 0 0-.39-.33l-.42-.08c-.22-.25-.62-.16-.82-.44a4.28 4.28 0 0 1-.44-.4c-.21-.25-.6-.17-.81-.43l-.42-.38a.65.65 0 0 0-.34 0 1.9 1.9 0 0 1-.48-.41 4.16 4.16 0 0 1-.42-.42 11.68 11.68 0 0 1-1.23-.85 1.68 1.68 0 0 1-.42-.42 5.34 5.34 0 0 1-.44-.39 3.42 3.42 0 0 1-.82-.79.59.59 0 0 0-.32-.06c-.33-.15-.23-.57-.5-.76a.66.66 0 0 0-.34-.06 1.53 1.53 0 0 1-.47-.41 1.91 1.91 0 0 1-.42-.43 2.09 2.09 0 0 1-.42-.42 2.44 2.44 0 0 1-.43-.42 4.16 4.16 0 0 1-.42-.42 3.33 3.33 0 0 1-.42-.42 3.53 3.53 0 0 0-.84-.84 2.85 2.85 0 0 1-.43-.42 2.38 2.38 0 0 1-.41-.43 1.86 1.86 0 0 1-.42-.42 1.68 1.68 0 0 1-.42-.42 1.26 1.26 0 0 1-.41-.48.8.8 0 0 0-.07-.34 2.67 2.67 0 0 0-.37-.38 5.18 5.18 0 0 0-.4-.41 2.16 2.16 0 0 0-.41-.39 2.11 2.11 0 0 0-.39-.4 3.66 3.66 0 0 1-.81-.81c-.12-.15-.27-.28-.38-.43a2.85 2.85 0 0 1-.43-.42 2.14 2.14 0 0 1-.42-.43 2.14 2.14 0 0 1-.42-.43 1.71 1.71 0 0 1-.42-.47.76.76 0 0 0-.06-.36 4.48 4.48 0 0 0-.36-.4l-.42-.41a5.44 5.44 0 0 1-.41-.42 2.09 2.09 0 0 1-.4-.48.67.67 0 0 0-.07-.34 3.53 3.53 0 0 1-.77-.82l-.42-.42c-.25-.2-.14-.59-.42-.77a.75.75 0 0 0-.33-.07c-.32-.17-.24-.59-.49-.81a5.66 5.66 0 0 1-.42-.43c-.33-.37-.51-.85-.85-1.21-.12-.15-.27-.28-.39-.43a3.42 3.42 0 0 1-.43-.42c-.25-.2-.16-.6-.44-.78a2 2 0 0 0-.38-.39c-.12-.15-.25-.29-.38-.43a2.85 2.85 0 0 1-.42-.43 1.86 1.86 0 0 1-.42-.42c-.27-.21-.2-.6-.43-.82a1.76 1.76 0 0 1-.41-.49.8.8 0 0 0 0-.34 7.18 7.18 0 0 0-.38-.4l-.41-.42a3.07 3.07 0 0 1-.41-.47.85.85 0 0 0 0-.36 2.34 2.34 0 0 0-.38-.39c-.12-.15-.26-.28-.38-.43-.26-.21-.18-.6-.43-.82a5.48 5.48 0 0 1-.4-.44c-.26-.2-.17-.6-.44-.8-.12-.15-.26-.28-.39-.42a3.24 3.24 0 0 1-.4-.43c-.27-.21-.19-.59-.43-.82-.25-.21-.17-.6-.43-.8-.12-.15-.27-.28-.39-.43a1.56 1.56 0 0 1-.4-.48.79.79 0 0 0-.06-.34l-.37-.42c-.26-.21-.17-.6-.43-.8-.28-.41-.51-.85-.8-1.25a1.86 1.86 0 0 1-.4-.48 1 1 0 0 0-.06-.35c-.21-.22-.1-.59-.39-.76a2 2 0 0 0-.36-.41c-.22-.23-.15-.6-.4-.82a2.22 2.22 0 0 1-.39-.48 1 1 0 0 0 0-.34c-.24-.22-.15-.61-.41-.82-.23-.22-.15-.6-.41-.81-.21-.24-.16-.61-.38-.84-.27-.22-.19-.61-.42-.85a1.27 1.27 0 0 0-.06-.39c-.2-.24-.13-.6-.36-.82-.25-.22-.18-.6-.42-.83-.38-.36-.07-.92-.4-1.29a.82.82 0 0 0 0-.35c-.23-.23-.16-.61-.38-.84-.4-.34-.08-.92-.42-1.28a1.1 1.1 0 0 0 0-.36c-.34-.35 0-.9-.39-1.24-.38-.34-.06-.91-.41-1.27v-.79c-.33-.36 0-.91-.37-1.27a1.14 1.14 0 0 0-.05-.37c-.22-.25-.14-.61-.37-.85v-.79c-.46-.62.09-1.44-.4-2.06-.37-.35-.07-.92-.4-1.28a.88.88 0 0 0 0-.36c-.48-.62.08-1.44-.4-2.07-.44-.63-.11-1.41-.42-2.07v-.81c-.38-.51 0-1.18-.36-1.69a.82.82 0 0 0 0-.35c-.4-.51 0-1.2-.37-1.7a.76.76 0 0 0 0-.3.31.31 0 0 0 .11-.35c0-.1-.07-.14-.12-.14a1.07 1.07 0 0 0 0-.4c-.38-1.06 0-2.21-.38-3.27-.49-.78.1-1.73-.38-2.52v-.76a.27.27 0 0 1-.1-.28c0-.09.07-.13.11-.13v-.41c-.53-1 .15-2.25-.4-3.3a.26.26 0 0 1-.09-.27c0-.09.05-.14.08-.14a.28.28 0 0 0 .1-.29q0-.15-.09-.15a.55.55 0 0 1 0-.81v-.43c-.47-1.21.15-2.53-.35-3.74a.61.61 0 0 0 0-.3.37.37 0 0 0 0-.48c-.11-.09-.15-.18-.11-.27s.07-.13.11-.13V322c.24-.28 0-.58 0-.87v-1.62a.24.24 0 0 1-.11-.27c0-.09.06-.14.09-.14v-.1a10.06 10.06 0 0 1 0-4.09v-.42a1.05 1.05 0 0 1 0-1.23v-.42a1 1 0 0 1 0-1.22v-.42a.26.26 0 0 1-.09-.27c0-.09.06-.13.09-.13v-.42a.23.23 0 0 1-.08-.27c0-.09.07-.13.1-.13a.28.28 0 0 0 .1-.29c0-.1-.07-.15-.1-.15a2.46 2.46 0 0 1 0-2v-.43c-.53-2 .2-4.14-.38-6.17a1.63 1.63 0 0 0 0-.38c0-.29.24-.58 0-.86a2.38 2.38 0 0 0 0-.38c-.11-.1-.14-.19-.1-.28s.07-.14.11-.14a.9.9 0 0 0 0-.4.27.27 0 0 1-.1-.28c0-.09.07-.13.1-.13v-.42a.23.23 0 0 1-.1-.26c0-.1.06-.14.09-.14v-.43c-.52-2.31.18-4.69-.38-7v-.79a1.74 1.74 0 0 1 0-1.63V287c-.39-.5.05-1.18-.38-1.67a1 1 0 0 0 0-.35.26.26 0 0 0 .09-.29c0-.1-.07-.14-.1-.14-.54-1.06.14-2.26-.4-3.32a1.09 1.09 0 0 0 0-.36.56.56 0 0 0 0-.84.28.28 0 0 1-.1-.27c0-.09 0-.14.08-.14v-.42c-.31-.36 0-.9-.36-1.25-.11-.08-.15-.17-.12-.26s.07-.14.1-.14v-1.65c-.48-.92.14-2-.38-2.9v-.79c-.42-.48 0-1.18-.39-1.66a1.09 1.09 0 0 0 0-.36.28.28 0 0 0 .09-.3q0-.15-.09-.15c-.5-.62.07-1.46-.41-2.09v-.79c-.22-.25-.16-.62-.35-.88l-.08-2c-.19-.26-.14-.61-.34-.87a.85.85 0 0 0 0-.32c-.45-.78 0-1.72-.45-2.5a1.88 1.88 0 0 0 0-.41c-.33-.36 0-.91-.37-1.27a.87.87 0 0 0 0-.36c-.39-.34 0-.92-.41-1.27v-.79c-.32-.36 0-.91-.37-1.27a1.14 1.14 0 0 0 0-.37c-.41-.49.05-1.18-.38-1.66-.38-.35-.07-.92-.4-1.29a1 1 0 0 0 0-.35c-.36-.36 0-.92-.39-1.28a1.56 1.56 0 0 0 0-.37c-.43-.48 0-1.17-.4-1.65-.37-.93-.47-2-.83-2.88-.46-.47 0-1.18-.43-1.65-.36-.36-.07-.92-.4-1.29a.74.74 0 0 0 0-.36c-.24-.23-.16-.6-.38-.84-.48-.47 0-1.18-.43-1.66-.47-.47 0-1.18-.42-1.66-.38-.35-.08-.92-.4-1.29l-.05-.76c-.23-.24-.16-.6-.37-.84-.49-.47 0-1.19-.43-1.68a1.16 1.16 0 0 0 0-.37c-.34-.35 0-.91-.38-1.25-.56-.74.11-1.71-.43-2.46-.36-.33 0-.9-.41-1.24-.56-.9.13-2-.42-2.89v-.81c-.39-.49.05-1.18-.38-1.66a1.28 1.28 0 0 0 0-.39 2.4 2.4 0 0 1-.14-1.54c.66-.48 1 .08 1.35.46a6.63 6.63 0 0 1 1.37 2c1.34 3.55 4.11 5.48 7.46 6.81a7.82 7.82 0 0 1 5 6.47c.91 5.07 3.77 7 9.37 6.34a3.87 3.87 0 0 0-2.61-1.06 11.73 11.73 0 0 1-3.15-.84 3.59 3.59 0 0 1-2.3-3.13c-.24-4.77-2.75-7.83-7.12-9.54a9.65 9.65 0 0 1-5.14-4.73c-1.15-2.13-2.3-4.37-4.55-5.67-.3-.56.08-1.25-.32-1.8v-1.18a.58.58 0 0 1 0-.81v-.43a1.11 1.11 0 0 1 0-1.21v-.44a35.4 35.4 0 0 1 0-7.35v-.44a2.63 2.63 0 0 1 0-2v-.82c.5-1.33-.1-2.77.39-4.11a1 1 0 0 0 0-.39c.53-.91-.12-2 .41-2.9a.3.3 0 0 0 .11-.3q0-.15-.09-.15a.74.74 0 0 0 0-.33c.46-.64-.08-1.46.4-2.1a.87.87 0 0 0 0-.36c.46-.64-.07-1.46.39-2.1.51-.61-.06-1.42.4-2v-.76c.2-.26.14-.62.36-.88l.05-.82c.26-.52 0-1.15.4-1.65.44-.48 0-1.17.4-1.66.47-.46 0-1.16.41-1.63a1.22 1.22 0 0 0 0-.38c.36-.35 0-.93.41-1.27a.78.78 0 0 0 0-.34c.2-.26.13-.64.37-.89a.69.69 0 0 0 0-.35c.33-.37 0-.93.4-1.29a34.8 34.8 0 0 1 .88-3.6 1.1 1.1 0 0 0 0-.36c.22-.25.14-.63.38-.87a1.1 1.1 0 0 0 0-.36c.22-.25.14-.62.37-.86a.9.9 0 0 0 .05-.36c.2-.26.14-.64.39-.88.45-.46-.05-1.18.43-1.64.22-.24.16-.62.41-.84.23-.24.18-.6.38-.84.42-.31.05-.89.44-1.21a9.26 9.26 0 0 1 .85-1.58.73.73 0 0 0 0-.36l.33-.44.08-.43a2.9 2.9 0 0 1 .34-.81l.07-.78a5.46 5.46 0 0 1 .36-.45 1.15 1.15 0 0 0 .06-.37c.23-.45.52-.86.78-1.29.41-.31 0-.89.43-1.21a4.72 4.72 0 0 0 .37-.41 1 1 0 0 0 0-.39c.23-.24.17-.61.39-.86.26-.21.18-.59.4-.82.26-.21.18-.6.42-.82.24-.22.17-.6.4-.83.4-.32 0-.91.45-1.22a2.43 2.43 0 0 1 .41-.44c.24-.23.17-.61.42-.83l.38-.42a1.2 1.2 0 0 0 0-.38c.22-.25.15-.63.41-.86a2.44 2.44 0 0 0 .35-.43c.3-.17.19-.55.41-.77.27-.2.18-.59.42-.81.25-.22.17-.61.43-.82.23-.23.16-.62.42-.83.23-.23.16-.62.43-.83.12-.16.27-.29.38-.44.27-.2.18-.59.43-.8.24-.23.16-.62.43-.82a5.49 5.49 0 0 1 .4-.43c.25-.22.18-.6.42-.82.25-.22.17-.61.44-.82a2.93 2.93 0 0 1 .74-.83 1 1 0 0 0 .08-.37 3.47 3.47 0 0 1 .4-.46c.24-.21.17-.6.42-.82.24-.22.16-.61.44-.82a5.22 5.22 0 0 1 .39-.43l.42-.46c.27-.19.18-.57.4-.77a3.33 3.33 0 0 0 .36-.39.71.71 0 0 0 .07-.35 2.27 2.27 0 0 1 .39-.49 4.83 4.83 0 0 0 .38-.4.72.72 0 0 0 .06-.33 1.54 1.54 0 0 1 .39-.49c.3-.4.51-.86.83-1.24l.37-.42a.78.78 0 0 0 0-.34 1.62 1.62 0 0 1 .42-.48 1.87 1.87 0 0 1 .41-.43c.23-.23.15-.62.42-.83a2.78 2.78 0 0 1 .41-.43c.13-.16.27-.29.4-.43.26-.21.17-.6.44-.81a2.78 2.78 0 0 1 .41-.43c.31-.4.51-.87.85-1.24a2.44 2.44 0 0 1 .42-.43 3.25 3.25 0 0 1 .41-.42c.3-.39.5-.86.84-1.23a2.15 2.15 0 0 1 .42-.43c.23-.23.16-.62.44-.83a8.64 8.64 0 0 0 .88-.83.74.74 0 0 0 .33-.09c.29-.17.18-.56.42-.75.14-.14.28-.27.41-.42a3.58 3.58 0 0 1 .79-.81.85.85 0 0 0 .05-.35 1.71 1.71 0 0 1 .42-.47c.13-.14.26-.29.39-.42l-.11-.47.28-.09c1.71.77 2.34 2.45 3.06 3.94a17.5 17.5 0 0 0 5.49 6.9 11.21 11.21 0 0 1 4.64 6.54c1 4.53 4 7.31 8.31 8.79a12.91 12.91 0 0 1 5.33 3.29 2.15 2.15 0 0 0-1.06-2.39 14.24 14.24 0 0 0-4-1.95c-3.43-1.33-6.12-3.43-7-7.14a15.26 15.26 0 0 0-6.75-9.16 7.88 7.88 0 0 1-3.06-3.76c-.85-2.27-2.63-4-3.59-6.16.25-.6 1-.56 1.34-1a3.89 3.89 0 0 1 .81-.81c.2-.19.29-.53.67-.49a6.23 6.23 0 0 1 2.36 3.62 17.36 17.36 0 0 0 6.7 8.55 11.39 11.39 0 0 1 4.45 6.65 9.27 9.27 0 0 0 1.53 3.33c.46.57.9 1.18 1.64 1.19.24-.22.34-.39.26-.48-1.86-2.27-2.3-5.2-3.62-7.72-1.24-2.36-3.43-3.88-5.46-5.46a11.33 11.33 0 0 1-3.5-4.64c-.93-2.19-2.4-4.12-3.14-6.41 0-.35.36-.45.6-.61a4.16 4.16 0 0 1 .42-.42 2.85 2.85 0 0 1 .43-.42 2.14 2.14 0 0 1 .42-.43 1.56 1.56 0 0 1 .43-.42 1.26 1.26 0 0 1 .48-.41.79.79 0 0 0 .34-.06l.41-.38.42-.42a4.12 4.12 0 0 1 .43-.41 2.14 2.14 0 0 1 .43-.42c.18-.28.59-.17.77-.46a3.7 3.7 0 0 0 .42-.37 4.08 4.08 0 0 1 .44-.4 1.76 1.76 0 0 1 .43-.43c.19-.28.59-.19.8-.45l.43-.4a2 2 0 0 1 .47-.41.76.76 0 0 0 .36-.06 4.59 4.59 0 0 0 .41-.36 3.41 3.41 0 0 1 .43-.42c.2-.27.6-.19.81-.44l.43-.4Z"/><path d="m124.12 413.09-.1-.66c-.9-1.69-.81-3.57-1.08-5.39q-.91-6.18-2.06-12.34a5.33 5.33 0 0 1-.08-2.63 75.46 75.46 0 0 0-2.22-10c-2.62-10.72-6.8-20.91-10.64-31.21-5.32-14.28-10.65-28.55-14.82-43.22a119.64 119.64 0 0 1-4.63-25.79 93.71 93.71 0 0 1 4-34.23c5-15.85 12.12-30.59 22.14-43.89 1.57-2.08 3.05-4.21 4.6-6.3a2.77 2.77 0 0 0 .56-2.25c-.49-3.79-1.16-7.54-1.74-11.31a2.57 2.57 0 0 1 1.46-2.89 6.65 6.65 0 0 1 5.36-.51c.65.21 1.26.52 2 .84a13.4 13.4 0 0 0 .81-4.12c.55-3.86.94-7.73 1.44-11.6.1-.78.07-1.18-.87-1.43-1.27-.35-1.65-1.49-1.65-2.76a69.82 69.82 0 0 1 .56-7.78 85.41 85.41 0 0 0-.76-26.55 77.39 77.39 0 0 1-1.92-17.91 38.53 38.53 0 0 1 4.43-16.69c.66-1.28 1.32-2.54 2-3.81a43.18 43.18 0 0 1 8.32-9.27c10.52-8.52 22.07-10 34.59-5.17a1.67 1.67 0 0 0 .4.08c5.39 2.8 10.33 6.39 15.73 9.2a56 56 0 0 0 11.59 4.59 27 27 0 0 0 11.8.33c5.3-1 10.56-2.2 15.86-3.23a38.78 38.78 0 0 1 9.38-.76c6.69.34 10.74 4.21 13.37 9.93 2.4 5.21 1.78 10.18-1.27 15a40.34 40.34 0 0 1-16.18 14.72 16.35 16.35 0 0 1-7.27 1.9 1.4 1.4 0 0 0-1.48.8c-3.68 7.47-7.75 14.77-9.91 22.9a22.66 22.66 0 0 0-.23 11.76c.33 1.26.49 2.55.74 3.83a13 13 0 0 1 .19 3.47c-.27 3.54-2.38 5.11-5.87 4.38a23.77 23.77 0 0 1-3.66-1.3c-1.67-.64-1.92-.48-2.38 1.29a13.49 13.49 0 0 1-.39 1.38c-.75 1.93-2.27 2.36-3.84 1-1.14-1-2.25-2-3.48-2.88a19.67 19.67 0 0 1-3-2.8c-.35-.08-.44 0-.41.19.64 3.5 1.38 7 3.23 10.08a1.93 1.93 0 0 0 2.42 1.15c3.35-.66 6.74-1.13 10.13-1.59a24.23 24.23 0 0 1 15.6 3.06 53.47 53.47 0 0 1 8.81 6.3 29 29 0 0 1 9 13.26 47.77 47.77 0 0 0 13.3 20.87 77.47 77.47 0 0 1 5.33 5.69A43.94 43.94 0 0 1 272 254.28c.56 6.62.73 13.25 1.14 19.87a76.76 76.76 0 0 0 1.16 9.56 28.67 28.67 0 0 0 5.57 12.2c3.46 4.5 6.62 9.21 10 13.78 6.32 8.6 10.5 18.2 13.69 28.29 2.11 6.65 3.79 13.41 5.35 20.2.16.73.35 1.45.52 2.14.21.05.37.15.46.1 3.3-1.75 7.08.24 8.73 3.48.19.36.36.72.54 1.08.42.34 0 .94.42 1.29.51.63 0 1.45.41 2.09.47.49.05 1.18.38 1.71.49.31.16.89.42 1.28.52.24.1.89.5 1.19.24.21.16.6.41.81.14.15.31.27.31.51.39.09.26.55.52.73l.38.42a1.27 1.27 0 0 1 .4.43.84.84 0 0 1 .42.43 1 1 0 0 1 .43.4 1.78 1.78 0 0 1 .42.4 1.64 1.64 0 0 1 .41.42 1 1 0 0 1 .4.45.55.55 0 0 1 .38.48c.4.13.3.55.46.81a4.09 4.09 0 0 1 0 3.22c-.3.36.05.95-.44 1.25-.28.38 0 .95-.41 1.27a15.91 15.91 0 0 0 0 5.06v-.05c.65.73-.06 1.72.46 2.47a51.48 51.48 0 0 1-.08 11.44c-.11.3-.1.65-.33.9-.31.53-.37 1.18-.83 1.63-.23.21-.13.64-.47.78 0 .22-.21.33-.34.49-.26.18-.15.62-.5.74a.78.78 0 0 1-.36.47 5 5 0 0 1-2.08 2c-.16.33-.56.24-.79.44-.22.29-.57.24-.86.34-2.36.62-2.36.62-2 3.18l-.06.12.1.09c.41.56.06 1.27.37 1.84l-.06.12.1.1c.49.62-.06 1.45.4 2.08.58 1.06-.09 2.26.4 3.33.66 2.17-.11 4.43.42 6.61.66 1.81-.11 3.73.43 5.54l-.07.09.07.1c.61 1.54-.11 3.19.41 4.74l-.07.09.07.09c.61 1.69-.11 3.48.42 5.17l-.08.08.06.09c.64 2.18-.11 4.45.41 6.64.55 2 .11 4.14.25 6.22a10.85 10.85 0 0 0 .19 3l-.08.09.06.09c.56 2.2.09 4.44.24 6.65a11 11 0 0 0 .19 3l-.08.08.06.1c.54 2.07.1 4.18.25 6.26a7.09 7.09 0 0 0 .16 2.43c.65 1.32-.1 2.79.44 4.12.5 1 .15 2 .23 3s.13 1.85-1 2.14-1.69-.51-2-1.49c-.52-.82 0-1.81-.41-2.65l.07-.11-.09-.09c-.54-1.13.07-2.39-.4-3.52l.07-.09-.06-.09c-.64-2.23.13-4.55-.42-6.8l.08-.08-.27-.64c-.54-2.41-.1-4.86-.25-7.29a10.71 10.71 0 0 0-.17-3c-.58-2.19-.1-4.42-.26-6.62a14.06 14.06 0 0 0-.18-3.43l.07-.09-.06-.1c-.63-2.18.11-4.44-.41-6.63-.67-1.89.12-3.89-.43-5.78-.67-1.61.12-3.34-.43-5-.64-1.76.09-3.62-.43-5.38-.54-1.78-.12-3.6-.25-5.39a6.77 6.77 0 0 0-.18-2.2l.07-.1-.07-.09c-.61-1.2.11-2.54-.41-3.75-.53-.67 0-1.54-.41-2.24l.06-.11-.09-.09c-.46-.71 0-1.57-.39-2.29l.06-.09-.06-.08c0-2-1-2.48-2.86-2.34a8.78 8.78 0 0 1-3.3-.6c-.76-.46-1.72.19-2.46-.42-.91-.48-2 .19-2.88-.42-3-.38-6-.73-9-1.25-1-.52-2.25.23-3.26-.45-2.08-.36-4.18-.06-6.26-.18-.65 0-1.36.25-2-.25-2.19-.31-4.4-.42-6.57-.83-1.05-.5-2.25.21-3.28-.42-3.41-.47-6.84-.77-10.25-1.27a38.3 38.3 0 0 1-5.75-.83c-1.74-.08-3.44-.57-5.19-.57-4 0-7.66-1.35-11.4-2.4a81.59 81.59 0 0 1-13-4.45 3.14 3.14 0 0 0-3.1.05 6.1 6.1 0 0 1-5.19.25c-5.44-2.23-10.85-4.54-15.52-8.25-2-2.29-1.67-4.83-.79-7.42.84-1.2 1.83-.6 2.72-.14 1.24.64 1.76.2 2.29-1 3.81-8.54 7.43-17.17 11.54-25.58a193.52 193.52 0 0 0 7.87-19.57 4.59 4.59 0 0 0-.35-4.3 3.08 3.08 0 0 1-.59-2.53 2.34 2.34 0 0 1 1.83-1.69c5.18.12 9.43 2.5 13.17 5.79a7.27 7.27 0 0 1 2.18 6.19 4.47 4.47 0 0 0 2.7 4.76c6.15 3.26 12.14 6.83 18.38 9.92 1.65.81 3.27 1.69 4.91 2.53 8.16 4.46 16.19 9.16 24.31 13.7a44.17 44.17 0 0 0 7.3 3.26 10.19 10.19 0 0 0 3.41.59c3.25 0 3.71-.64 3.41-3.93-1.3-14.81-5.8-29.2-11.55-43.2a74.44 74.44 0 0 0-8.48-14.5c-3.42-4.86-6.62-9.88-10.39-14.5a24.47 24.47 0 0 1-5.13-10.86c-1.13-5.78-5-8.85-10.15-10.47a30 30 0 0 0-25.44 3.33c-7.25 4.43-14 9.56-18.53 17.06-1.23 2-2.42 2.52-3.55 1.76s-1-2.11.25-4a26.7 26.7 0 0 1 1.58-2.18 12.77 12.77 0 0 1-5.54.25c-1.07-1.09-2.3-2.13-1.14-3.88 5.87.73 10.63-1.7 15-5.29a40.6 40.6 0 0 0 5.17-4.65c3.63-4.23 4.42-9.42 5.13-14.65a16.07 16.07 0 0 1 .24-1.83 1.74 1.74 0 0 0-1.28-2.37 4.61 4.61 0 0 1-.92-.45 1.85 1.85 0 0 1-1.06-2 1.82 1.82 0 0 1 1.93-1.5c1.23 0 2.46 0 3.68.07a3.59 3.59 0 0 0 3.13-1.61 14.46 14.46 0 0 0 2.5-7.06 53.33 53.33 0 0 0 .51-7.14 1.47 1.47 0 0 1 .61-1c1.55-.24 1.71-1 .86-2.21a3.43 3.43 0 0 0-3.88-1.5 16.21 16.21 0 0 0-3.37 1.37c-1.85.86-2 .81-2.78-1.16a20.65 20.65 0 0 0-3.16-9.21c-2.25-3.33-5.67-4.59-9.19-5.74-4.73-1.54-9.64-1.85-14.55-2.2a127.8 127.8 0 0 1-13.3-1.54 23 23 0 0 1-8.52-3.25 49.45 49.45 0 0 1-2.21 15.79 3.49 3.49 0 0 1-1.62 1.77 18.15 18.15 0 0 0-4.65 3.62c-.46.5-.92 1-1.73.67a2.07 2.07 0 0 1-.81-1.16c-1.43-4.85-4.88-8.1-8.72-11.07a100.4 100.4 0 0 0-24.46-13.66c-6.35-2.54-12.81-4.84-18.7-8.38-.94-.57-1.5-.26-2.06.52-8.86 12.31-16.92 25.05-22 39.49-2.16 6.21-4.39 12.41-5.49 18.89a100.25 100.25 0 0 0 1.65 39.89c3.26 14 8.31 27.34 13.09 40.82 4.49 12.69 9.92 25.06 13.47 38.09a234.52 234.52 0 0 1 6.16 31.38 7.07 7.07 0 0 1-.18 3.26c-1.4 1.59-1.83 1.61-3.1.08Z"/><path fill="#de6d39" d="M124.12 413.09c1.45 1.07 1.45 1.07 2.88-.09a16.51 16.51 0 0 1 6.42-.94c15.09-.33 30.15-1.12 45.16-2.77 4.82-.54 9.66-.87 14.46-1.6a3.27 3.27 0 0 0 3-2.56c1.52-4.83 3.53-9.48 5.51-14.14.34-.8.6-1.69 1.55-2.05 4.07 2.92 8.68 4.84 13.12 7.06a9.72 9.72 0 0 0 4.72 1.15 3.45 3.45 0 0 0 2.64-.92c.71-.81 1.36-.59 2.14-.22 7 3.27 14.37 5.11 21.79 6.93 1 .24 2 .34 3 .51-.11.6 0 1.25-.36 1.79-.33.36 0 .92-.39 1.27-.38.34-.05.9-.4 1.24a.17.17 0 0 0-.06.25 3.46 3.46 0 0 1-.36 1c-.39.32 0 .93-.46 1.23-.34.34 0 .95-.46 1.25-.16.27-.13.63-.36.88-.39.32 0 .9-.42 1.23-.37.33 0 .91-.42 1.24-.36.34 0 .93-.43 1.25-.35.34 0 .95-.46 1.25-.17.27-.13.64-.38.87-.37.33 0 .94-.47 1.23-.17.27-.12.65-.39.87-.22.24-.15.61-.37.85a.16.16 0 0 0-.08.24c-.12.33-.1.72-.41 1-.19.26-.14.63-.38.86-.4.31 0 .94-.49 1.21-.16.28-.11.66-.4.88-.21.25-.15.62-.39.86-.4.3 0 .94-.5 1.2-.15.28-.1.67-.42.87-.18.27-.13.64-.41.86-.21.25-.16.62-.4.85-.39.31 0 .95-.49 1.21-.15.28-.1.66-.41.87-.2.26-.15.63-.39.87-.23.22-.17.57-.35.82a.27.27 0 0 0-.09.31c-.17.29-.13.67-.38.93-.39.31 0 .94-.48 1.21-.16.28-.11.66-.4.87-.2.26-.15.63-.4.86-.24.23-.16.6-.38.83a.16.16 0 0 0-.08.24c-.13.33-.08.75-.45 1v-.05c-.15.29-.09.69-.44.86 0 .21-.21.32-.32.48a.17.17 0 0 0-.09.24 1.1 1.1 0 0 1-.34.6c-.27.2-.18.6-.45.79-.22.23-.14.64-.47.82-.06.2-.24.31-.34.48-.29.18-.19.59-.46.78-.22.23-.13.65-.49.81l.05-.05a1 1 0 0 1-.39.49c-.12.16-.27.29-.39.44a2.07 2.07 0 0 0-.38.4 1.29 1.29 0 0 0-.39.38 2.46 2.46 0 0 0-.41.38 2.79 2.79 0 0 1-.44.4 1.24 1.24 0 0 1-.46.42.83.83 0 0 1-.47.43v-.05a.6.6 0 0 1-.47.44c-.09.37-.56.25-.72.54a2.05 2.05 0 0 0-.41.37 3.31 3.31 0 0 1-.45.39.94.94 0 0 1-.47.41c-.14.34-.58.23-.76.5-.16.12-.28.3-.48.36-.23.3-.59.47-.83.76a17.73 17.73 0 0 1-2.88 1.21c-.57 0-1.15-.2-1.69.13h-.18l-.15.08c-.36.31-.9 0-1.25.36-.47.48-1.18 0-1.66.42-.51.47-1.22 0-1.75.4h-.16l-.14.08c-.52.4-1.21 0-1.73.37h-.17l-.16.08c-.51.39-1.2 0-1.71.37h-.18l-.16.08c-.55.37-1.24 0-1.8.34l-.66.07c-.67.42-1.48 0-2.15.36l-.73.05c-.81.45-1.75-.08-2.56.36l-.15-.05-.15.07c-1.38.56-2.88-.1-4.27.38h-.66a11.27 11.27 0 0 1-3.84.2h-15.12a3.32 3.32 0 0 1-2-.21h-.68c-2.22-.52-4.5.19-6.71-.4h-.67c-2.22-.51-4.51.2-6.72-.39h-.68c-1.92-.38-3.86-.05-5.79-.17-.72-.05-1.47.21-2.15-.22h-.68a142.37 142.37 0 0 0-15.46 0l-.14-.06-.13.07c-1 .52-2.11.06-3.15.27s-2-.4-2.86.5c-1.39.34-2.82.48-4.2.85-.7 0-1.43.56-2.08-.13a1.6 1.6 0 0 0-1.19-.16c-5.32.7-10.61 1.71-16 1.66a10.28 10.28 0 0 0-2.07-.34c-.28-.21-.64-.33-.83-.66v.05a1.07 1.07 0 0 1-.49-.37c-.21-.25-.64-.15-.79-.5v.05a.92.92 0 0 1-.48-.41 1.47 1.47 0 0 1-.45-.41 2.19 2.19 0 0 1-.42-.44 1.21 1.21 0 0 1-.41-.46c-.32-.15-.21-.59-.5-.76-.09-.17-.27-.29-.34-.48-.31-.19-.24-.59-.45-.84-.29-.21-.22-.6-.43-.85-.28-.22-.21-.6-.42-.85-.29-.22-.23-.6-.41-.87-.47-.29-.08-.91-.47-1.23-.24-.24-.2-.6-.37-.88-.48-.29-.11-.9-.46-1.25-.41-.33-.09-.9-.42-1.26-.51-.46 0-1.18-.43-1.67-.55-.61 0-1.45-.43-2.08-.57-.94.07-2-.4-3a.2.2 0 0 0 0-.29c-.58-1.79.12-3.67-.39-5.47.09-.09.1-.17 0-.26a14.07 14.07 0 0 1 0-5.78.67.67 0 0 0 0-.66c.53-1.94-.22-4 .4-5.89.48-.62-.13-1.47.44-2.07.2-.25.15-.62.39-.86.24-.22.15-.64.49-.8 0-.23.11-.29.3-.13a9.8 9.8 0 0 1 4.65-1.94 97.22 97.22 0 0 1 15.95-2.14 42 42 0 0 1 5.84-.9Z"/><path fill="#010101" d="M106.15 458.26a1.28 1.28 0 0 1 2 .45c0 3.48-.56 7-.12 10.44a19.92 19.92 0 0 0 .89 4.19 7 7 0 0 0 3.05 4 57.66 57.66 0 0 0 16.81 6.73 6.9 6.9 0 0 0 1 .06c.45.44 1.22-.17 1.6.49.53 1.69 0 2.37-1.52 2-1.18-.27-2.39-.42-3.54-.77-.88-.27-1.28-.16-1.2.84a16.87 16.87 0 0 0 .17 3.62c.64 1.33-.09 2.8.43 4.14.57 1 0 2.09.42 3.07l-.07.1.08.09c.48.7 0 1.56.39 2.28v.1l.07.08c.54.78-.06 1.74.4 2.53-.13 1.53-.77 2.26-2.36 1.52a.45.45 0 0 1-.4-.45c-.58-.24-.18-.87-.48-1.22-.55-.51-.1-1.25-.44-1.81l.06-.12-.1-.09c-.46-.7 0-1.55-.38-2.27l.06-.1-.08-.09c-.55-1.13.07-2.38-.4-3.51l.07-.09-.07-.1c-.58-1.67.08-3.43-.4-5.11l.08-.12-.09-.11a4.78 4.78 0 0 1-.2-2.72 2.06 2.06 0 0 0-1.38-2.31c-.29-.13-.65-.07-.85-.37-.65-.32-1.44-.34-2-.87-.29-.11-.65-.05-.84-.37-.26-.16-.62-.1-.83-.37a20.82 20.82 0 0 1-4.09-2c-.22-.22-.62-.12-.77-.45a2.74 2.74 0 0 1-1.22-.84.59.59 0 0 1-.44-.41.59.59 0 0 1-.4-.45c-.23-.07-.39-.19-.38-.46l-.08.09.09-.08c-.51-.24-.65-.75-.89-1.19-.57-.41-.6-1.08-.86-1.65-.43-.32-.09-.9-.42-1.25-.49-.47 0-1.18-.41-1.67a27.1 27.1 0 0 1-.39-10.23v.05c.48-.97-.28-2.2.43-3.22ZM131.89 456.12c.84-1.24.87-1.25 2.15-.29.18.22.19.52.35.75.24.24.2.6.37.87.55.45 0 1.18.45 1.65a9.47 9.47 0 0 1 0 4.49c-.46.44.17 1.23-.52 1.6-.47 1-1 1.71-2.28 1.24a3.74 3.74 0 0 1-2-2c-.37-.13-.27-.56-.48-.79a7.62 7.62 0 0 1-1.21-1.68c-.44-.38-.7-.94-1.27-1.2a1.15 1.15 0 0 0-.06 1.28c.4.31 0 .89.43 1.22.24.22.16.6.41.81.14.15.32.27.31.51.39.11.28.55.51.77a.72.72 0 0 1 .35.48c.66.72 1.38 1.39 2.06 2.09l.08-.1-.09.09c.25 0 .37.17.47.36a2.58 2.58 0 0 1 .45.35c.17.27.6.15.73.49a4.1 4.1 0 0 1 1.27.79c.24.2.62.12.81.42.32.33.94-.06 1.19.46.39.24.93 0 1.27.36.35.33.9 0 1.23.39.22.23.6.14.8.41a2.76 2.76 0 0 1 1.22 1.24c.28.2.2.59.44.81a5.76 5.76 0 0 1 .37 4.49c-.32.36 0 .93-.42 1.26-1 1.11-2.08.7-3.21.38-.27-.15-.62-.1-.85-.34-.78-.35-1.71-.27-2.39-.88-.28-.14-.63-.09-.85-.36a10.81 10.81 0 0 1-2-.85c-.67-.29-1.47-.31-2-.87-1.11-.77-2.46-1.23-3.22-2.45a8.85 8.85 0 0 1-.67-1.25.81.81 0 0 1 .25-.93.92.92 0 0 1 1.13-.06 1.21 1.21 0 0 1 .44.43c.86 1.46 2.34 2 3.8 2.62 2.48 1 4.89 2.08 7.45 2.81 1-2.18.27-3.79-2-4.46a17.85 17.85 0 0 1-10.65-7.79 12.72 12.72 0 0 1-1.77-5.2 3.67 3.67 0 0 1 .73-3.09 3.64 3.64 0 0 1 2-.31c1.41.09 2 1.23 2.76 2.16s1.47 2.1 2.34 3.26a8.06 8.06 0 0 0-.28-3.87c-.29-.99-.76-1.69-.4-2.57ZM222.66 452.79a7.07 7.07 0 0 1 2.8-1.13c.72 1.93-.07 4 .46 5.91l-.08.12.09.11c.6 1.54-.11 3.19.4 4.74l-.07.1.08.09c.58 1.35-.09 2.81.4 4.17.69 1.89-.11 3.89.42 5.79.7 2-.13 4.16.43 6.19.67 2.23-.12 4.54.43 6.77l-.08.09.07.1c.65 2.32-.12 4.72.41 7a5 5 0 0 1 .07 3.26l-.11.08v.14a.54.54 0 0 1-.45.53c-1.1.68-1.84.32-2.3-.82-.72-.54 0-1.44-.51-2-.62-2.17.11-4.43-.41-6.61-.57-1.58-.1-3.21-.25-4.81a6 6 0 0 0-.18-2.2c-.66-1.95.13-4-.43-6l.08-.08-.06-.09c-.65-1.91.11-3.91-.41-5.82-.69-1.8.1-3.72-.44-5.53l.07-.1-.07-.09c-.65-2.24.14-4.57-.42-6.81a.89.89 0 0 0 0-1 2.49 2.49 0 0 1 .06-2.1Z"/><path fill="#de6e3a" d="M334.38 186.86c-1.21.41-2.43.8-3.63 1.25-.77.28-1.57.46-1.83-.51-.22-.82.61-1.06 1.21-1.36.84-.42 1.84-.44 2.6-1.05.18-.32.61-.16.82-.41.36-.33.85-.49 1.2-.85a14.39 14.39 0 0 1 1.35-1.56h-.05a.78.78 0 0 1 .41-.48 3.32 3.32 0 0 1 .37-.47c.27-.19.17-.63.5-.77a1.2 1.2 0 0 1 .38-.48c.24-.22.14-.66.51-.79l-.05.05a.8.8 0 0 1 .39-.49c.1-.18.26-.3.36-.47.28-.17.17-.62.51-.75h-.05a.94.94 0 0 1 .41-.47 3.31 3.31 0 0 1 .39-.45 2.42 2.42 0 0 0 .37-.42 5.34 5.34 0 0 1 1.22-1.2c.16-.1.28-.26.44-.37a1.14 1.14 0 0 1 .48-.39c.16-.34.58-.25.82-.47.21-.28.6-.21.84-.42.26-.28.65-.26 1-.39a.18.18 0 0 0 .25-.07c.38-.33.93-.06 1.31-.37a.29.29 0 0 0 .34 0c.54-.36 1.22 0 1.77-.34a.2.2 0 0 0 .28-.05c.27-.24.65-.22 1-.36a.23.23 0 0 0 .28-.11l.45-.32a.78.78 0 0 1 .48-.41.61.61 0 0 1 .46-.44.62.62 0 0 1 .44-.47h-.05a.91.91 0 0 1 .42-.47c.1-.17.26-.3.37-.46.28-.19.17-.62.5-.77a1.35 1.35 0 0 1 .38-.48c.25-.21.15-.64.5-.78h-.05a.84.84 0 0 1 .41-.48 4.22 4.22 0 0 1 .38-.46 6.22 6.22 0 0 1 2.11-2c.18-.31.59-.22.8-.47.22-.24.6-.17.82-.42.24-.23.61-.18.85-.39.25-.29.64-.25.95-.4a.22.22 0 0 0 .28-.09c.24-.2.6-.12.82-.37.24-.24.61-.18.85-.39.22-.27.6-.21.85-.42.2-.27.59-.19.81-.44a.92.92 0 0 1 .6-.36.18.18 0 0 0 .23-.11l.45-.33a11.63 11.63 0 0 1 1.22-.86 1.6 1.6 0 0 1 .46-.4.71.71 0 0 1 .47-.41 10.68 10.68 0 0 1 1.59-1.33 5.14 5.14 0 0 0 .41-.4 5.14 5.14 0 0 0 .4-.41 1.56 1.56 0 0 0 .37-.4c.29-.16.17-.62.53-.73a.9.9 0 0 1 .39-.49c.21-.24.14-.64.45-.83.18-.26.12-.65.43-.86.65-1 1.34-1.77 2.4-.41a.47.47 0 0 1 0 .79c-.36.34 0 .93-.44 1.25-.21.25-.15.63-.42.85-.22.24-.13.65-.48.82l.05-.05a1.08 1.08 0 0 1-.39.48c-.12.15-.27.28-.38.44a15.54 15.54 0 0 1-2.88 2.85 4.19 4.19 0 0 1-.45.39 1 1 0 0 1-.47.4 6.62 6.62 0 0 1-1.21.89 1.27 1.27 0 0 1-.48.38c-.16.33-.58.24-.8.48a1 1 0 0 1-.5.36c-.16.37-.58.28-.84.47-.2.32-.59.25-.85.45-.21.3-.59.24-.86.42-.24.33-.65.29-1 .42H362l-.11.09c-.24.22-.6.14-.84.37-.24.26-.6.22-.87.39-.2.32-.59.26-.87.41-.18.35-.58.28-.85.46a17.19 17.19 0 0 0-2.11 2.07 1 1 0 0 1-.39.49 8.24 8.24 0 0 1-.85 1.24 5.32 5.32 0 0 1-.36.47c-.29.18-.18.62-.51.76v-.05a.92.92 0 0 1-.41.48 1.6 1.6 0 0 1-.41.45 2.78 2.78 0 0 1-.41.43 2.43 2.43 0 0 1-.44.41 1.16 1.16 0 0 1-.47.41c-.16.33-.58.23-.8.48-.23.24-.61.17-.83.41-.33.38-.9.06-1.24.41-.64.5-1.48 0-2.13.4h-.18l-.15.08c-.35.33-.9 0-1.24.38-.24.24-.61.2-.87.38-.19.31-.59.23-.84.45a.77.77 0 0 1-.49.39v-.05c-.72.69-1.44 1.37-2.09 2.11a.78.78 0 0 1-.41.48 1.73 1.73 0 0 1-.39.46c-.25.2-.15.65-.52.77h.05a.75.75 0 0 1-.4.49 3.24 3.24 0 0 1-.37.46c-.27.18-.17.62-.51.76h.05a1 1 0 0 1-.4.48 5.07 5.07 0 0 0-.36.45c-.3.16-.18.61-.52.74h.05a.84.84 0 0 1-.42.47 1.51 1.51 0 0 1-.42.45 2 2 0 0 1-.43.43 2.44 2.44 0 0 1-.43.42 1.42 1.42 0 0 1-.46.42.83.83 0 0 1-.49.41h.05c-.15.37-.57.27-.81.49a.21.21 0 0 1 .28-.31ZM303.55 121.53a14.89 14.89 0 0 0-6.2 8.12c-1.31 3.62-3.79 5.73-7.78 5.86a4.36 4.36 0 0 0-4.56 3.6c-.44 1.78-1 3.53-1.61 5.28a10.36 10.36 0 0 1-3.25 4.88 5.45 5.45 0 0 1-5.76.8c-.46-.16-.86-.49-.71-1.08a1 1 0 0 1 1.09-.75h.61c2.71.26 4.42-.68 5.44-3.16.57-1.39.94-2.85 1.39-4.28.35-1.11.69-2.22 1-3.32.78-2.53 2.64-3.7 5.13-4.07.74-.1 1.48-.28 2.22-.33a5 5 0 0 0 4.24-3.08c.27-.55.49-1.12.71-1.7a16.69 16.69 0 0 1 6.25-8.16 8.54 8.54 0 0 0 1-1c0-.29.2-.35.41-.42a1.1 1.1 0 0 1 .45-.43 1 1 0 0 1 .44-.45.92.92 0 0 1 .44-.45 1.29 1.29 0 0 1 .41-.46 5.07 5.07 0 0 0 .36-.45c.3-.17.19-.58.45-.77.37-.33 0-.94.45-1.23.18-.27.15-.62.36-.88a2.6 2.6 0 0 1 .86-.79.25.25 0 0 1 .41 0 .16.16 0 0 0 .24 0 .75.75 0 0 1 .55.44h-.06a1.74 1.74 0 0 1 0 2c-.32.36 0 1-.44 1.27-.18.26-.11.66-.45.85l.05-.05c-.06.21-.24.33-.37.49-.27.2-.16.64-.52.77h.05a.7.7 0 0 1-.43.47.92.92 0 0 1-.44.45 1 1 0 0 1-.44.44 1.06 1.06 0 0 1-.45.44.88.88 0 0 1-.46.43.65.65 0 0 1-.48.43h.05c-.03.11-.35.18-.65.29Z"/><path fill="#020202" d="M365.76 166.33c.33.13.74.09 1 .44.68 1 .05 1.47-.74 1.88a14.79 14.79 0 0 1-2.9.91c-.21.3-.56.26-.86.35-.13.38-.54.28-.78.45-.1.2-.22.36-.47.35a2.47 2.47 0 0 1-.83.84l.09.08-.08-.09a.48.48 0 0 1-.38.46 4.8 4.8 0 0 1-1.27 1.63.71.71 0 0 1-.36.48c-.29.4-.42.92-.9 1.17a.58.58 0 0 1-.38.48 3.2 3.2 0 0 1-1.65 1.63.5.5 0 0 1-.47.37l.11.09-.1-.1a1.81 1.81 0 0 1-1.22.81l.05.09-.07-.08a4.5 4.5 0 0 1-2 .85 10.76 10.76 0 0 1-3.25.85c-.32.46-.87.14-1.24.39-.15.36-.54.27-.8.42-.08.22-.2.38-.46.36a.39.39 0 0 1-.41.43l.09.08-.08-.09a.54.54 0 0 1-.37.48 3.69 3.69 0 0 1-.84 1.23c-.24.44-.38.95-.88 1.19l.08.07-.07-.08a.45.45 0 0 1-.38.46.7.7 0 0 1-.4.44.77.77 0 0 1-.43.42c-.79.46-1.48.51-2-.44-.33-.24-.34-.49 0-.74.15-.28.06-.68.45-.83a.58.58 0 0 1 .38-.47 1 1 0 0 1 .38-.45 6.45 6.45 0 0 1 .87-1.2 3.28 3.28 0 0 1 .85-1.23.78.78 0 0 1 .38-.46 2.42 2.42 0 0 1 1.25-1.21c.16-.3.57-.19.75-.45h.05c.23-.21.59-.14.8-.37.33-.37.88 0 1.22-.39.46-.48 1.16 0 1.64-.41.44-.5 1.15 0 1.6-.43.24-.25.58-.23.88-.32.15-.39.53-.3.83-.4.1-.39.54-.27.75-.5a.77.77 0 0 1 .46-.37.48.48 0 0 1 .46-.4l-.09-.07.08.08a.4.4 0 0 1 .43-.41l-.1-.09.09.1a.41.41 0 0 1 .41-.44.55.55 0 0 1 .39-.47 1.05 1.05 0 0 1 .37-.46c.32-.37.44-.9.91-1.16a.61.61 0 0 1 .37-.48 2.48 2.48 0 0 1 .36-.44c.36-.33.45-.89.92-1.13a.5.5 0 0 1 .41-.45.53.53 0 0 1 .43-.42.45.45 0 0 1 .45-.39l-.08-.07.06.08a2 2 0 0 1 1.22-.83c.15-.39.53-.3.83-.4.25-.55.85-.17 1.2-.44.41-.59 1.15 0 1.61-.46.37-.31.94-.08 1.38-.32Z"/><path fill="#030202" d="m311.73 446.51-.07.11.08.1c.53 2.55.08 5.14.23 7.7a11.06 11.06 0 0 0 .17 3c.59 2.27.1 4.58.26 6.87a9 9 0 0 0 .16 2.63v-.05a9.22 9.22 0 0 1-.06 5.23v-.05c-.24.43-.56.7-1.09.49-1.66-.64-.71-2.24-1.22-3.3-.57-1.92-.1-3.89-.25-5.84a7.59 7.59 0 0 0-.16-2.42v.05c-.55-1.37-.2-2.8-.26-4.21-.14-3.59.21-7.19-.19-10.78l.07-.08-.06-.1c-.52-1.8-.2-3.64-.2-5.46 0-1.09.62-1.64 1.77-1.05a.53.53 0 0 1 .38.49v-.05c.71 1.39.16 2.87.32 4.3a9.19 9.19 0 0 0 .12 2.42Z"/><path fill="#050404" d="M131.59 482.7c-1.33-1.12-3.09-1.37-4.54-2.27a22.61 22.61 0 0 1-2.77-1.74 2.48 2.48 0 0 1-.89-2.57.89.89 0 0 1 .88-.72c.36 0 .77.11.83.45.32 1.8 1.92 2.15 3.18 2.85a5.33 5.33 0 0 0 2.05.87c.25.42.93-.05 1.1.53.3.09.68 0 .82.4.3.09.68 0 .84.39.29.12.66.06.85.38.26.16.62.11.84.36.47.42 1.15 0 1.62.39.6.34 1.57.43 1.31 1.44s-1.1.84-1.83.79c-.5 0-1.08.24-1.49-.28-.36-.26-.94.12-1.19-.43-.29-.09-.67 0-.81-.39-.27-.1-.67-.03-.8-.45Z"/><path fill="#060505" d="m230.86 463-.08.08.06.09c.63 1.81-.1 3.74.42 5.56l-.07.1.08.09c.48 1 .13 2 .22 3 .06.79 0 1.67-1 1.65s-1.36-.75-1.43-1.67a8.53 8.53 0 0 0-.16-2.62c-.59-1.63-.12-3.32-.26-5a7.43 7.43 0 0 0-.19-2.2l.08-.09-.07-.09a3.43 3.43 0 0 1 .06-2.84v.05a.6.6 0 0 1 .42-.45.68.68 0 0 1 1.13 0 .53.53 0 0 1 .42.45v-.05c.59 1.25-.14 2.66.37 3.94Z"/><path fill="#0f0e0e" d="M308.27 425.43h.14l.08-.11a.49.49 0 0 1 .78.06 1 1 0 0 1 .44.41c.54.62 0 1.45.41 2.09a5.36 5.36 0 0 1 0 3.64v-.05c-1.09.85-1.61.25-2-.77-.58-1.05.08-2.26-.4-3.33-.53-.83-.16-1.43.55-1.94Z"/><path fill="#da784f" d="M324.64 81.33h.55a1 1 0 0 1 .53.39.69.69 0 0 1 .17.8 1.68 1.68 0 0 1-1.27.67.94.94 0 0 1-.53-.23 1 1 0 0 1 0-1.23 1 1 0 0 1 .55-.4Z"/><path fill="#de6e3a" d="M242 53.35v2.87a4.58 4.58 0 0 1-.57 2.36c-.23.41-.55.87-1.13.65a1.09 1.09 0 0 1-.71-1.32c.18-.87.37-1.73.57-2.59a1.18 1.18 0 0 0-.2-1.16 16.17 16.17 0 0 1 2.51-11 12.92 12.92 0 0 0 2-8.61 10.22 10.22 0 0 1 2.84-8.55 20 20 0 0 0 4.43-8.24c.73-2.56 1.68-5.05 2.66-7.53a4.37 4.37 0 0 1 1.17-1.9.92.92 0 0 1 1.12-.18.94.94 0 0 1 .47 1.05 4 4 0 0 1-.33 1 80.56 80.56 0 0 0-3.13 8.66 21.82 21.82 0 0 1-4.55 8.41c-.31.35-.58.76-.88 1.12a7 7 0 0 0-1.62 5.75 14.16 14.16 0 0 1-2 9.81c-.39.65-.72 1.32-1.07 2a12.12 12.12 0 0 0-1.58 7.4ZM147.92 7.53a2.14 2.14 0 0 1 1.49 1.24c1.5 3.15 3 6.32 3 9.92a15 15 0 0 0 2.81 9.24A9.56 9.56 0 0 1 157 33.1a13.59 13.59 0 0 0 4 9 73.48 73.48 0 0 1 5.33 5.68c1 1.29 1.21 2.09.49 2.43-1.15.54-1.54-.57-2.06-1.18-1.55-1.83-3.28-3.49-5-5.17a15.35 15.35 0 0 1-5-10.27 7.91 7.91 0 0 0-1.45-4.42 16.36 16.36 0 0 1-3.18-10c0-3.55-1.35-6.65-3-9.7a3.82 3.82 0 0 1-.39-.71 1 1 0 0 1 1.18-1.23Z"/><path fill="#020202" d="M244.38 48.37a6.77 6.77 0 0 1 1.36-3.79 16.34 16.34 0 0 0 2.87-11.47 6.4 6.4 0 0 1 1.91-5.42 18.58 18.58 0 0 0 5-8.33 28 28 0 0 1 1.26-3.25 1 1 0 0 1 1.32-.61c.62.25.72.74.5 1.35-1.59 4.27-2.68 8.8-6.26 12a4.82 4.82 0 0 0-1.5 4.27 19.58 19.58 0 0 1-.84 7.9 15.65 15.65 0 0 1-1.91 3.84 8.33 8.33 0 0 0-1.57 3.74c-.06.73-.15 1.49-1.07 1.43s-1.05-.85-1.07-1.66Z"/><path fill="#030303" d="M159.38 32.47a9 9 0 0 0-2.35-7 7.53 7.53 0 0 1-1.85-5.08c0-1.36-.17-2.73-.25-4.09 0-.59.09-1.12.79-1.22a1 1 0 0 1 1.14.91 15.81 15.81 0 0 1 .23 2.65 9 9 0 0 0 2.24 6.39 9 9 0 0 1 2.23 6.63 7.45 7.45 0 0 0 1.26 5.34c.46.59.59 1.28-.18 1.76s-1.28-.1-1.7-.65a7.83 7.83 0 0 1-1.56-5.64Z"/><path fill="#221713" d="m21.89 111.5-.09.18c-.34.7-.9 1.15-1.6.67s-.5-1.16.08-1.7c.88-.37 1.58-.4 1.61.85Z"/><path fill="#d8734b" d="M21.89 111.5a1.26 1.26 0 0 0-1.61-.85c.2-.8.62-1.46 1.5-.94a1 1 0 0 1 .11 1.79Z"/><path fill="#221713" d="M97.55 2a1.62 1.62 0 0 0-.1.18c-.34.71-.9 1.15-1.6.67s-.49-1.15.08-1.7c.88-.39 1.59-.42 1.62.85Z"/><path fill="#d8734b" d="M97.55 2a1.29 1.29 0 0 0-1.62-.85c.2-.8.62-1.45 1.5-.94A1 1 0 0 1 97.55 2Z"/><path fill="#221713" d="m15.12 220.27-.1.18c-.33.7-.9 1.15-1.6.67s-.49-1.15.09-1.7c.88-.37 1.58-.42 1.61.85Z"/><path fill="#d8734b" d="M15.12 220.27a1.28 1.28 0 0 0-1.61-.85c.2-.8.62-1.45 1.5-.94a1 1 0 0 1 .11 1.79Z"/><path fill="#020101" d="M296.6 199.09a12 12 0 0 0 6.83.71 13.9 13.9 0 0 1 1.42-.21c1.32 0 1.93.83 1.32 2a36.69 36.69 0 0 0-2 4.48 6.13 6.13 0 0 0-.28 4.2 2.66 2.66 0 0 1 .14 1 1.12 1.12 0 0 1-1.64 1.15 16.61 16.61 0 0 1-2.23-1 10.39 10.39 0 0 0-6.93-1.15c-.14 0-.27.05-.41.06-1.64.11-2.19-.57-1.57-2.08a12.59 12.59 0 0 0 1.34-4.27c-.12-1.74-1.1-3.39-.51-5.2a1.62 1.62 0 0 1 1.8-1.2 6.26 6.26 0 0 1 2.72 1.51Z"/><path fill="#de6d3a" d="M292.36 198.8c-.07 1.73.6 3.43.22 5.18-.1-.82-.53-1.13-1.37-1.16a24.21 24.21 0 0 0-4.66.54c-.27 0-.52.18-.79.22-.73.08-1.53.29-2.07-.45s-.13-1.3.14-1.93a19.3 19.3 0 0 0 1.65-10 5.53 5.53 0 0 1 0-1.22c.09-.73.73-1 1.18-.65 3.27 2.68 6.79 1.52 10.29.8a5.82 5.82 0 0 0 .79-.22 1.29 1.29 0 0 1 1.49.34c.5.55.28 1.15-.06 1.7a8.27 8.27 0 0 1-.59.83 8.74 8.74 0 0 0-2 6.28A8.12 8.12 0 0 1 294 198c-.26-1.46.28-2.81.75-4.36a42.11 42.11 0 0 1-5.4 0c-.82-.09-1.27.44-1.27 1.26a14.08 14.08 0 0 1-.74 4.23c-.27.85-.14 1.24.9 1.24 1.61-.07 3.09-.17 4.12-1.57Z"/><path fill="#020201" d="M304.38 124.52a1.73 1.73 0 0 1 .37 1.56 12.35 12.35 0 0 0-3.29 5.11 12.29 12.29 0 0 1-3.88 5.67 10.41 10.41 0 0 1-4.95 2.31 4.76 4.76 0 0 0-4.38 4.19 10.56 10.56 0 0 1-.94 3.13 5.92 5.92 0 0 1-.77 1.19 1 1 0 0 1-1.15.14.79.79 0 0 1-.37-1.06c1-1.91 1.08-4.09 1.92-6a6.16 6.16 0 0 1 4.92-3.57 10.22 10.22 0 0 0 5-2.61 9.75 9.75 0 0 0 2.44-4 15.58 15.58 0 0 1 3-5.11c.53-.65 1.11-1.25 2.08-.95Z"/><path fill="#030202" d="M331.6 227.79a8.08 8.08 0 0 1-3.6.2 5.42 5.42 0 1 1 2.87-10.45c.45.13.89.32 1.33.48 1 .18 1.54 1 2.11 1.71a5.29 5.29 0 0 1-.31 6.46 3.78 3.78 0 0 1-2.4 1.6Z"/><path fill="#de6e3b" d="m333.9 219.68-1.7-1.68c2.07-1.6 5.49-.4 7 1.35a5.73 5.73 0 0 1 .33 6.82 5.6 5.6 0 0 1-6.81 2.14 10.88 10.88 0 0 1-1.08-.54l1.93-1.48c.59-.19 1.22-.13 1.81-.28a3 3 0 0 0 2.43-2.93 2.65 2.65 0 0 0-2.35-2.88 2.7 2.7 0 0 1-1.56-.52Z"/><path fill="#060404" d="M245.35 170a.89.89 0 0 1-.95-.86 2.26 2.26 0 0 1 .39-1.35 83.52 83.52 0 0 1 5-8.45c.84-1.23 1.55-1.57 2.07-1 .81.83.06 1.51-.34 2.17-1.72 2.8-3.53 5.54-5 8.44-.29.41-.52.91-1.17 1.05Z"/><path fill="#060504" d="M236 170.21a50.12 50.12 0 0 1 3.88-9.46 1 1 0 0 1 1.35-.6c.64.26.6.83.42 1.38a8.37 8.37 0 0 1-.46 1.13 73.93 73.93 0 0 0-3.13 7.73c-.07.19-.1.4-.18.58-.25.56-.64.92-1.28.71s-.78-.68-.6-1.47Z"/><path fill="#dc7040" d="M311.78 184.8a1.05 1.05 0 0 1-.57-.77c-.13-.56.22-.87.66-1.08a.74.74 0 0 1 1 .36 6.92 6.92 0 0 1 .47 1.08 1.38 1.38 0 0 1-1.56.41Z"/><path fill="#281b17" d="M311.78 184.8a1.56 1.56 0 0 1 1.57-.41c.4.66.55 1.35-.37 1.59s-1.14-.43-1.2-1.18Z"/><path fill="#1f1914" d="M257.28 133.34c-.09.52-.35.91-.92.85a1 1 0 0 1-.9-1.12.75.75 0 0 1 .79-.75 1 1 0 0 1 1.03 1.02Z"/><path fill="#de6d39" d="M120.8 392.07a74.37 74.37 0 0 1 1.91 9.82 74.76 74.76 0 0 1 1.29 10.54c-.65-.91-1.56-.58-2.42-.49-3.65.37-7.29.93-11 .34-2.12-.33-2.89-1.63-2-3.63a51.72 51.72 0 0 1 6.59-10.33c1.83-2.18 3.4-4.51 5.63-6.25Z"/><path fill="#de6d3a" d="M60 104.36a.53.53 0 0 0 .45.37.51.51 0 0 0 .41.4 12 12 0 0 1 .76.88 2.12 2.12 0 0 0 .92 1.14.54.54 0 0 0 .38.44.53.53 0 0 0 .37.45.52.52 0 0 0 .36.45 2 2 0 0 0 .92 1.15.53.53 0 0 0 .36.46.52.52 0 0 0 .35.45 1 1 0 0 0 .54.71.52.52 0 0 0 .38.44.53.53 0 0 0 .35.46 2 2 0 0 0 .9 1.16.52.52 0 0 0 .36.46.46.46 0 0 0 .11.32 35.18 35.18 0 0 1 4.15 6.79c.89 2 2.78 3.17 4.46 4.42A11.05 11.05 0 0 1 81 131.7a11.22 11.22 0 0 0 8.08 8.69 12 12 0 0 1 3.65 1.82 3.19 3.19 0 0 1 1.38 2.19 1 1 0 0 1-.59 1.18.79.79 0 0 1-1-.43c-.9-1.9-2.85-2.24-4.49-3a38.14 38.14 0 0 1-4.39-2.15 8.53 8.53 0 0 1-3.43-4.22 23.05 23.05 0 0 1-1.12-3.07 10.25 10.25 0 0 0-4.35-6 15.29 15.29 0 0 1-5.57-6.71 18.21 18.21 0 0 0-2.78-4.25l-.48-.49a1.94 1.94 0 0 0-.9-1.16 21.66 21.66 0 0 1-.72-.92 1 1 0 0 0-.53-.71.52.52 0 0 0-.38-.44.52.52 0 0 0-.36-.46 2 2 0 0 0-.9-1.16.5.5 0 0 0-.37-.44.53.53 0 0 0-.37-.45.56.56 0 0 0-.35-.46 1.11 1.11 0 0 0-.55-.7.53.53 0 0 0-.39-.43.51.51 0 0 0-.38-.45.53.53 0 0 0-.37-.44.53.53 0 0 0-.37-.44c-.44-.7-.88-1.4-.44-2.26Z"/><path fill="#010101" d="M76.11 191.33a8.83 8.83 0 0 0 .17 6.57c.24.64.55 1.25.83 1.87a1.24 1.24 0 0 1-.17 1.52 1.34 1.34 0 0 1-1.52.23 10.15 10.15 0 0 1-1.67-.78 9.5 9.5 0 0 0-9.19-.7c-1.52.68-2.31.15-2.12-1.49.4-3.49-.49-6.78-1.26-10.1-.16-.67-.29-1.34-.44-2a1.28 1.28 0 0 1 .5-1.45 1.47 1.47 0 0 1 1.76 0c.29.17.56.38.84.58a12.84 12.84 0 0 0 7.64 2.42c.89-.66 2-.38 3-.72a2 2 0 0 1 2.38 1.1 3.09 3.09 0 0 1-.75 2.95Z"/><path fill="#de6d3a" d="M74.52 187.7a5.19 5.19 0 0 1-3 .27 15.05 15.05 0 0 0-.37-5.47 3.41 3.41 0 0 0-1.51-2.34 3.14 3.14 0 0 1-.9-.8 1 1 0 0 1 .67-1.55 2.24 2.24 0 0 1 1.76.39c2.53 1.92 5.31 1.76 8.16 1a27.9 27.9 0 0 0 4.6-1.7c.56-.25 1.11-.59 1.67 0s.25 1.16-.13 1.65c-2.66 3.49-2.75 7.42-2 11.5.08.4.19.79.26 1.19a1.23 1.23 0 0 1-.62 1.39 1.06 1.06 0 0 1-1.32-.25c-1.53-1.77-3.58-1.76-5.65-1.68l.48-2.78c3.76.23 3.78.23 3.88-3.62 0-1 .36-2 .37-3.19-2.31.37-4.55 1-7.08.47.39 1.95.28 3.82.73 5.52Z"/><path fill="#de6e3a" d="M28.54 218.08a.5.5 0 0 0 .38-.42.69.69 0 0 0 .34-.09 2.59 2.59 0 0 1 2.31 1.43 34.32 34.32 0 0 1 3.06 4.84 6.16 6.16 0 0 0 3.46 3.3c.57.23 1.1.55 1.67.78a10 10 0 0 1 6.74 9.16c.2 2.44.69 3 3.11 3.62 1.25.33 2.55.47 3.8.79.68.18 1.71.28 1.54 1.28s-1.15.83-1.85.69a37.19 37.19 0 0 1-5.39-1.14 4.18 4.18 0 0 1-3.18-3.86c-.19-4.69-2.5-7.6-6.87-9.09a8.49 8.49 0 0 1-5.21-4.89 11.34 11.34 0 0 0-2.74-4l-.4-.42c-.39-.61-1.09-1.06-.77-1.98Z"/><path fill="#020201" d="M70.39 112.13c-.24-1.8-.19-1.85 1.49-1.65a35.11 35.11 0 0 1 3.78 7 7.14 7.14 0 0 0 2.18 2.94c1.11.91 2.19 1.87 3.33 2.74a12.35 12.35 0 0 1 4.49 6.68c.46 1.58.9 3.16 2.27 4.27a1 1 0 0 1 .21 1.62c-.5.54-1.12.39-1.67 0A7.36 7.36 0 0 1 84 132c-.29-.84-.52-1.7-.82-2.53a9.12 9.12 0 0 0-3-4.29c-.71-.54-1.36-1.15-2.06-1.69a14.14 14.14 0 0 1-5.06-6.8 12.78 12.78 0 0 0-2.67-4.56Z"/><path fill="#030202" d="M92.92 353.55a.89.89 0 0 1-.93.95 3.34 3.34 0 0 1-1.55-.45 116.53 116.53 0 0 1-17.71-10.26 3 3 0 0 1-.75-.68A.89.89 0 0 1 72 342a.83.83 0 0 1 1.09-.27 9 9 0 0 1 1.23.73A133.93 133.93 0 0 0 91 351.92a13.26 13.26 0 0 1 1.41.82 1 1 0 0 1 .51.81Z"/><path fill="#040302" d="M36.92 218.21a2.55 2.55 0 0 1 .57.38 1.71 1.71 0 0 1 .41.7c.83 3.29 3.11 5.14 6.15 6.3 3.74 1.43 5.32 4.46 6 8.17.13.71 0 1.25-.71 1.46a1 1 0 0 1-1.31-.71 9.47 9.47 0 0 1-.6-1.94 6.18 6.18 0 0 0-3.6-4.68c-1-.48-1.93-1-2.92-1.48-2.89-1.33-4-3.93-5-6.7-.26-.85.22-1.54 1.01-1.5Z"/><path fill="#050403" d="M80.19 334.83a7.32 7.32 0 0 1 .78.47q4.82 3.46 9.61 7a7.92 7.92 0 0 1 1.08.93.92.92 0 0 1 .2 1.28 1 1 0 0 1-1.45.23c-.29-.17-.57-.37-.85-.57l-9.23-6.78a3.68 3.68 0 0 1-1.16-1.13.84.84 0 0 1 0-1 1.06 1.06 0 0 1 1.02-.43Z"/><path fill="#de6d39" d="M225.57 328.43a3.31 3.31 0 0 0 .93 2.62 3.71 3.71 0 0 1 .43 3.67 185.46 185.46 0 0 1-8.21 20.54c-3.82 7.72-7 15.73-10.7 23.51a22.57 22.57 0 0 0-1.06 2.88c-.31 1-.8 1-1.71.72s-1.82-1.23-3-1.09c-3.12-2.31-6.31-4.47-8.87-7.51-2.77-3.29-6.19-6-9.34-8.9a111.72 111.72 0 0 1-8.81-8.87c-.26-.31-.52-.63-.81-.92-8.09-8.05-15.67-16.59-23.4-25a294 294 0 0 1-22.38-27c-3.85-5.32-7.67-10.68-10.29-16.75-3.53-8.15-5.54-16.66-4.21-25.56 1.4-9.31 6.4-16.59 13.79-22.27a35.79 35.79 0 0 1 18.93-7.77c8.93-.75 17.78-.2 26.15 3.52a6.28 6.28 0 0 0 2.53.75 19.85 19.85 0 0 1 6.51-5.13c.26-.11.4-.51.6-.77a14.66 14.66 0 0 1 17.26 5.9 5.39 5.39 0 0 0 4.59 2.8 3.07 3.07 0 0 0 3-1.59c4.05-5.46 10.72-7.5 16.76-5.09a13.69 13.69 0 0 1 6.12 4.65c1.58 2.17 1.85 2.17 3.67.26a2.08 2.08 0 0 1 .63-.51c.3.31.19 1.15 1.09.63a27 27 0 0 1 3.69-1.73 4.21 4.21 0 0 1 5.87 2.74 1.2 1.2 0 0 1-.27 1.48c-.53.46-1 .19-1.47-.15-.66-.18-.9-.81-1.33-1.24a3 3 0 0 1-.32-.39l-.12-.22c-.2-.36-.25.17-.41.07a12.14 12.14 0 0 0-2.22.6 7.07 7.07 0 0 0-1 .4c-1.32.59-2.39 1.57-3.68 2.2a2.3 2.3 0 0 0-1.34 2.68 13.59 13.59 0 0 1-6.27 13.57 13.37 13.37 0 0 1-15.11.27c-5-3-7.23-7.65-6.87-13.5 0-.72.36-1.53-.57-2s-1.93 0-1.89 1.18c.19 5.78-1.93 10.4-6.84 13.58-1.17.76-1.07 1.52-.51 2.57 3 5.53 5.87 11.12 8.45 16.86 1.77 3.93 3.35 7.94 5 11.91a1.37 1.37 0 0 1 .13 1.18 5.06 5.06 0 0 0 1.21 3.33c1.7 1.21 1.92 3.25 2.63 5 4.25 10.25 8.08 20.68 12.76 30.75a3.29 3.29 0 0 1 .28 1.14Z"/><path fill="#fff" d="M175.54 235.06c-.3.94-.87.58-1.44.3a49.81 49.81 0 0 0-8.3-2.91 40.68 40.68 0 0 0-10.53-1.45c-5.63 0-11.22.09-16.56 2.18-11.48 4.49-19.56 12.27-23.34 24.19-1.57 5-1.25 10-.53 15a56.21 56.21 0 0 0 9.57 23.74 282.82 282.82 0 0 0 26 32.51c10 10.95 20.08 21.85 30.5 32.41 3.12 3.17 6.46 6.1 9.7 9.15a25.73 25.73 0 0 1 1.93 1.83 45.64 45.64 0 0 0 8.64 7.84c.49.34 1.05.66 1.11 1.37a13.47 13.47 0 0 0-.52 4.19 4.76 4.76 0 0 0 1.36 3.47 160.77 160.77 0 0 0-6.73 17.17 2.58 2.58 0 0 1-2.49 2.09c-10 1.48-20 2.15-30 3.1-5.51.53-11.06.66-16.59.91-6.77.3-13.54.53-20.3.79.09-4.2-.8-8.29-1.42-12.41-2.64-17.54-8.31-34.19-14.71-50.66-5.51-14.19-10.7-28.52-14.85-43.19a125 125 0 0 1-4.62-26.82c-.78-13.2 1.7-25.83 6.18-38.18a146.89 146.89 0 0 1 19.8-36.9c1.33-1.82 2.58-3.69 4-5.66 7.5 5 16 7.52 24.14 11.06a93.83 93.83 0 0 1 24.89 15.63c2.07 1.83 3.12 4.29 4.23 6.7.34.87.57 1.72.88 2.55ZM155 141.72a6.53 6.53 0 0 0 5.15.73 11 11 0 0 0 1.7-.69c1.16-.62 1.57-1.46 1.19-2.28s-1.17-.94-2.5-.41c-3 1.18-5 .24-5.64-2.89a22.23 22.23 0 0 1 1.68-15 7.13 7.13 0 0 1 4.24-3.93 2.81 2.81 0 0 1 3.3.89 19.32 19.32 0 0 1 3.11 5.27 27.57 27.57 0 0 1 1.29 3.88 36 36 0 0 0 1.47 4.47c1.76 4.22 5.05 5.95 9.56 5.14a18 18 0 0 0 7.37-3.43c3.6-2.61 7.33-5 11-7.55a17.57 17.57 0 0 1 15.58-2.69c3.08.9 6.16 1.8 9.48 2.43-2.18 4.94-5.1 9.38-7 14.35-.79-.37-1-1.09-1.33-1.64a17.43 17.43 0 0 0-10.29-7.32 6.18 6.18 0 0 0-1.42-.22c-.56 0-1.14.08-1.25.77s.3 1 .91 1.11c.41.08.8.18 1.2.3a15.3 15.3 0 0 1 10.2 8.6 4.09 4.09 0 0 1 .15 3.34c-1.56 4.41-2.71 8.92-2.08 13.66.33 2.57.89 5.11 1.36 7.66a6.76 6.76 0 0 1 .05 2.65c-.27 1.23-.63 1.51-1.85 1.27a15.15 15.15 0 0 1-2.16-.62c-.58-.2-1.12-.51-1.7-.71-3.27-1.13-4.79-.39-5.95 2.89a6.38 6.38 0 0 1-.26.59 29.48 29.48 0 0 1-5.87-5.14 7 7 0 0 0-1-1c-1.8-1.51-3.83-.82-4.32 1.49a6.69 6.69 0 0 0 .08 2.85c.91 4.14 1.75 8.3 4.18 11.91.06.1 0 .26 0 .41-.28.43-.71.23-1.08.24a3 3 0 0 0-3.33 2.65 31 31 0 0 0-.56 5.09 34.27 34.27 0 0 1-.34 3.67c-.41 2.19-1.43 2.92-3.61 2.56a12.64 12.64 0 0 1-3.12-.95 32.55 32.55 0 0 1-8.82-5.54c-.1-.09-.19-.2-.29-.28-1-.85-1.9-.92-2.52-.21a1.43 1.43 0 0 0 .42 2.3c2.24 1.34 1.77 3 1.2 5a59.58 59.58 0 0 0-2.08 11.26c0 .32 0 .68-.25.95-.61.11-1-.3-1.47-.59-8.23-5.61-17.27-9.64-26.34-13.63-4.18-1.84-8.27-3.92-12.41-5.85-.77-.35-1.22-.68-1-1.66 1.44-7.32 2.21-14.73 2.95-22.15a2.6 2.6 0 0 1 2.09-2.54c9.35-3.18 15.71-9.61 19.7-18.53ZM241.63 345.18c1.55.93 3.05 1.86 4.58 2.73 14.3 8.15 29 15.6 43.2 23.94a50 50 0 0 0 9.64 4.49 12.44 12.44 0 0 0 7.24.67 5.28 5.28 0 0 0 4.25-4.88 12.63 12.63 0 0 0-.22-3.68 7.94 7.94 0 0 1 0-3.66c.49-1.84 1.94-2.45 3.65-1.58a4.47 4.47 0 0 1 2.3 3c.29 1.05.48 2.13.69 3.21a14.84 14.84 0 0 0 4.81 8.82 2.89 2.89 0 0 1 .9 3.91 12.32 12.32 0 0 0-.43 8.06c.84 3.52.67 7.08.59 10.62-.07 2.66-1.69 4.71-3.57 6.47-.94.88-2.25.88-3.5.9a56.12 56.12 0 0 1-8.95-1c-7.24-1-14.44-2.3-21.78-2.55-5.47-.19-10.87-1.21-16.3-1.84-6.86-.79-13.71-1.62-20.51-2.85-4.24-.77-8.31-2.2-12.45-3.37a52.23 52.23 0 0 1-7.67-2.83c-.68-.32-1.34-.66-2.06-1 5.82-15.67 10.42-31.61 15.59-47.58Z"/><path fill="#fff" d="M225.57 328.43a16.18 16.18 0 0 1-2.39-4.49c-3.49-8.45-6.93-16.93-10.39-25.4-.95-2.34-1.92-4.67-2.89-7a16.32 16.32 0 0 0 6.82-1c-1.15 1.68-2.07 2.94-2.92 4.26s-.83 2.21-.08 2.74 1.67.2 2.58-1.19c.64-1 1.32-1.92 1.93-2.9a26.88 26.88 0 0 1 6-6.65c2-1.64 4-3.33 6-4.92a37.18 37.18 0 0 1 17.37-7.79 28.88 28.88 0 0 1 14.16 1.18 16.08 16.08 0 0 1 8.89 7.18 6.93 6.93 0 0 1 .69 2.12 31 31 0 0 0 7.23 14.49 36.76 36.76 0 0 1 2.76 3.56c3.34 4.92 6.72 9.81 9.93 14.81 4.5 7 7.21 14.83 9.73 22.71 2.46 7.68 4.06 15.59 6 23.39a4.23 4.23 0 0 1 .1 1.42 17.82 17.82 0 0 0 .28 4.89 5.6 5.6 0 0 1 .06 2 2.36 2.36 0 0 1-2.28 2.23 9.4 9.4 0 0 1-4.05-.28 39.6 39.6 0 0 1-7.91-3.34c-5.93-3.09-11.68-6.53-17.49-9.83l-7.46-4.25c-.43-.76.19-1.29.44-1.87 3.12-7.29 6.47-14.49 8.11-22.3 1.32-6.31 1.11-12.44-2.1-18.3a18.89 18.89 0 0 0-19-9.32c-11.29 1.58-18.79 8.1-23.66 18.09a13.26 13.26 0 0 0-.81 1.65c-.68 2-1.87 3.11-4.1 2.73-.67.24-1.06.86-1.55 1.38Z"/><path fill="#de6d39" d="M227.19 327.09c.05 0 .11-.14.14-.14 2 .31 2.62-1.05 3.32-2.49a61.8 61.8 0 0 1 4.8-8.35c4.73-6.78 11.37-10.44 19.37-11.9a19.85 19.85 0 0 1 11.63 1.42c6.4 2.76 9.72 8 11.24 14.49 1.21 5.2.41 10.32-1 15.38a135.57 135.57 0 0 1-6.14 16.3 22.16 22.16 0 0 1-2.2 4.61c-3.41-1.73-6.84-3.4-10.21-5.18-4-2.14-8-4.38-12-6.58l-.89-.5c-2.23-1.17-3.66-2.56-3.33-5.54.44-3.84-1.91-6.46-5.13-8.15a28.06 28.06 0 0 0-7.71-3.2 16.38 16.38 0 0 0-1.89-.17Z"/><path fill="#fff" d="M239.28 236.88a3 3 0 0 1 2.14-.5.51.51 0 0 1 .53.16 1.09 1.09 0 0 1 .29.44c.75.66.73 1.61.94 2.48a46.06 46.06 0 0 1-.77 9.38 14.76 14.76 0 0 1-1.89 4.74 4.44 4.44 0 0 1-4.4 2.41c-1-.07-1.9-.21-2.86-.3s-1.73.28-1.91 1.09.3 1.46 1.29 1.83c.12.05.26.06.39.1 2.2.61 2.21.61 1.83 2.75-.59 3.29-.9 6.63-1.78 9.88a18.1 18.1 0 0 1-4.72 8 43.2 43.2 0 0 1-7.12 5.86 25.57 25.57 0 0 1-6.29 2.93 9.53 9.53 0 0 1-6.24.06 31.63 31.63 0 0 1-2.41-5.42A229.11 229.11 0 0 0 195.43 260c-.62-1.14-1.2-2.3-1.79-3.42.33-.68 1-.81 1.48-1.14 4.93-3.28 7.25-7.83 6.73-13.77-.14-1.62-.15-1.62 1.45-1.51.34 0 .68 0 1 .1 1.57.26 1.55.39 1.31 1.8a13.65 13.65 0 1 0 27 .55c-.3-2.25-.3-2.25 2-3.28a2.1 2.1 0 0 1 .5 1.5c.08.65 0 1.54.88 1.6s.87-.85 1-1.49c.31-1.3.34-2.71 1.54-3.64a2.69 2.69 0 0 1 .75-.42ZM230.81 330.87c1.8.9 3.35 1.6 4.84 2.41a6 6 0 0 1 3.3 5.91 29.64 29.64 0 0 1-1.29 8.48c-4.53 14-8.58 28.09-13.7 41.86a17.87 17.87 0 0 1-1.62 3.53 2.07 2.07 0 0 1-2.45 1 7.89 7.89 0 0 1-1-.28 121.39 121.39 0 0 1-12.26-5.78 170.61 170.61 0 0 0 8.4-17.34c4-9.34 8.83-18.34 12.26-27.95.48-1.35 1-2.68 1.48-4a31.43 31.43 0 0 0 2.04-7.84Z"/><path fill="#fff" d="M234.68 235.5c-.22.47.09 1.11-.52 1.47a25.54 25.54 0 0 1-2.26 1.4c-.61.26-.72-.49-.93-.86a13.65 13.65 0 0 0-23.24-.68c-.89 1.39-1.75 1.93-3.28 1.41a1.09 1.09 0 0 0-.4 0c-2 .11-3.25-.72-4.34-2.59-3.13-5.38-9.16-7.71-15.57-6.4-.5.11-1 .54-1.49-.05a45.92 45.92 0 0 0 1.86-8.18 75.39 75.39 0 0 0 .32-8.33c.45-.33.75-.05 1 .1a29.47 29.47 0 0 0 12.69 3.65c5.72.53 11.45 1 17.15 1.6a38 38 0 0 1 10.42 2.94 13.09 13.09 0 0 1 6.84 7 18.66 18.66 0 0 1 1.75 7.52ZM172.49 223.6c-.66-.5-1-.72-1.3-1a95.9 95.9 0 0 0-27.89-16.55c-2.47-1-4.92-2-7.41-3A103.48 103.48 0 0 1 125 198a4 4 0 0 1-2.33-3.14c-.25-1.81-.46-3.63-.72-5.67 2.06.93 3.93 1.74 5.77 2.59q12.56 5.79 25.1 11.61a93 93 0 0 1 12.33 6.89 32.77 32.77 0 0 0 5.15 2.94 2.45 2.45 0 0 1 1.53 1.76 29.34 29.34 0 0 1 .66 8.62Z"/><path fill="#dd6c39" d="M160.9 80.78a15.76 15.76 0 0 1 4.76.69A12.7 12.7 0 0 1 167 82a1 1 0 0 1 .67 1.32 1 1 0 0 1-1.32.64c-.33-.08-.67-.16-1-.26a16.38 16.38 0 0 0-12.72 1.17c-8.3 4.06-13.63 10.68-16.63 19.37a42.77 42.77 0 0 0-2 10.64c-.05.76.27 1.9-.95 1.88s-1.09-1.11-1.05-1.9c.39-7.87 2.34-15.24 7.17-21.64a31.47 31.47 0 0 1 15.92-11.67 17.69 17.69 0 0 1 5.81-.77Z"/><path fill="#dc6c39" d="M210.7 184.27a30.9 30.9 0 0 1 18.15 7.22 27.26 27.26 0 0 1 5.79 7.37c.8 1.35 1.57 2.72 2.32 4.09a5.56 5.56 0 0 1 .54 1.32 1 1 0 0 1-.52 1.21.87.87 0 0 1-1.09-.3 11.27 11.27 0 0 1-1-1.52c-.94-1.59-1.84-3.2-2.79-4.77-4.55-7.53-11.56-11.11-20-12.44-.74-.12-1.49-.22-2.23-.33s-1.25-.38-1.09-1.17.75-.7 1.31-.71Z"/><path fill="#dc6c38" d="M265.86 261.31c-.11.9.33 2-.9 2.29-.79.21-1.08-.34-1.29-2.1-.75-6.39-1.64-12.74-4.12-18.75a21.71 21.71 0 0 0-3.09-5.52 7.83 7.83 0 0 1-.59-.83.93.93 0 0 1 .1-1.3 1 1 0 0 1 1.45.17 19.13 19.13 0 0 1 3.1 4.56 50.15 50.15 0 0 1 4.48 14.65c.28 2.29.56 4.6.86 6.83ZM228.59 117.08a1.06 1.06 0 0 1-1.19-.6c-.23-.65.18-1.06.69-1.31s1.14-.45 1.72-.66a23.72 23.72 0 0 0 13.92-12.28c.78-1.6 1.6-3.17 2.33-4.79.28-.61.55-1.19 1.31-1s.85 1 .57 1.69c-2.86 6.69-6.14 13-13.1 16.45-1.47.72-3 1.36-4.47 2a4.44 4.44 0 0 1-1.78.5Z"/><path fill="#da6b38" d="M207 116.83a1.1 1.1 0 0 1-1.27 1 20 20 0 0 0-3.86.32 14.43 14.43 0 0 0-6.74 3.27c-.26.22-.5.46-.75.69-.56.52-1.19 1.17-1.9.39s-.07-1.28.43-1.78a16.45 16.45 0 0 1 12.14-5 4.07 4.07 0 0 1 1.2.19 1.1 1.1 0 0 1 .75.92Z"/><path fill="#d76a37" d="M187.69 91.47a1 1 0 0 1-.95.9 2.21 2.21 0 0 1-1.35-.4c-2-1.12-4.06-2.26-6.08-3.41-.5-.29-.91-.68-.65-1.32s1-.72 1.55-.45 1.33.69 2 1c1.45.78 2.88 1.58 4.33 2.35.55.33 1.1.59 1.15 1.33Z"/><path fill="#d76937" d="M248.56 224.9a1.79 1.79 0 0 1-1.21-.59 35.49 35.49 0 0 1-4.83-5.55 1.62 1.62 0 0 1-.1-.18c-.3-.57-.57-1.18.1-1.64s1.16 0 1.55.51a40.38 40.38 0 0 0 4.14 4.81 6.84 6.84 0 0 1 1.06 1.23.92.92 0 0 1-.71 1.41Z"/><path fill="#d86a38" d="M137.38 141.21a19.84 19.84 0 0 1-.57 4.27 9.21 9.21 0 0 1-.64 1.92.93.93 0 0 1-1.79-.42 4.25 4.25 0 0 1 .15-1 31.54 31.54 0 0 0 1-5.8c.08-.69.07-1.48 1-1.44s.92.82.91 1.51c0 .26-.03.53-.06.96Z"/><path fill="#010100" d="M213.31 448c-.38 0-.73 0-1.06-.09a.9.9 0 0 1-.79-.82 1 1 0 0 1 .73-1.09 3.53 3.53 0 0 1 .8-.14 19.48 19.48 0 0 0 13.91-9.22 50.12 50.12 0 0 0 3.14-5.76c2.87-6.13 5.83-12.21 8.42-18.47a12.6 12.6 0 0 1 1-2 .88.88 0 0 1 1.25-.32.93.93 0 0 1 .42 1.07 5.5 5.5 0 0 1-.37.95c-2.65 6.6-5.58 13.08-8.64 19.49a41 41 0 0 1-5.79 9.4 21.4 21.4 0 0 1-11.67 6.82 13.74 13.74 0 0 1-1.35.18Z"/><path fill="#040201" d="M145.39 420.41c-5-.08-9.38-.42-13.75-.3a5.63 5.63 0 0 1-.82 0 .87.87 0 0 1-.81-.78.88.88 0 0 1 .64-.94 6.18 6.18 0 0 1 2.42-.3l13.72.16c3.68 0 7.37 0 11.05.09.77 0 1.76-.23 2 .91.15.74-.51 1.18-2 1.19-4.37-.01-8.74-.03-12.45-.03Z"/><path fill="#070302" d="M102.24 427.89a22.69 22.69 0 0 1 2.47-7.46 3 3 0 0 1 .36-.5c.48-.52 1-1 1.75-.48s.28 1.07-.06 1.61a19.45 19.45 0 0 0-2.32 6.3c-.08.33-.09.68-.19 1-.19.64-.29 1.51-1.19 1.4-1.06-.14-.79-1.07-.82-1.87ZM196 449.17a21.28 21.28 0 0 0 4.64-.51c.34-.06.66-.2 1-.24.58-.08 1.12 0 1.29.68a1 1 0 0 1-.78 1.23c-1.18.3-2.38.57-3.58.75a18.79 18.79 0 0 1-4.68.09c-.64-.06-1.25-.29-1.23-1.07s.66-.92 1.31-.93Z"/><path fill="#de6f3c" d="M68.35 84.63h-.22c.07.14.14.28.22.42-2.46-.09-3.8-1.25-3.8-3.29 0-1.65.83-2.59 2.82-3.23v.32l.28-.19c.54-.69 1.38-1.23 1-2.31q-6.8 0-6.13 6.81v.6c.21.24.13.63.42.85a4.5 4.5 0 0 0 .87 1.2c.3.42.8.57 1.19.87.22.27.6.21.85.42.53.46 1.24 0 1.79.4a.48.48 0 0 1 .55 0c.52-.45 1.39-.1 1.82-.77.04-1.27-.81-1.73-1.66-2.1Z"/><path fill="#1a1717" d="m385.3 211.42.09-1.09a.34.34 0 0 0 .28-.16c.58-.73 1.1-.59 1.56.12.06 1.78-.3 1.99-1.93 1.13Z"/><path fill="#d1683c" d="M387.23 210.29a1.75 1.75 0 0 0-1.56-.12c0-.51.05-1 .07-1.53a2.38 2.38 0 0 1 1.58-.06l.33.47v.68c0 .22-.28.38-.42.56Z"/><path fill="#222322" d="M326.45 84.07a.49.49 0 0 0-.42.38h-1a.49.49 0 0 0-.44-.36l-.17-1.09a1.86 1.86 0 0 1 1.46-.57l.64.51Z"/><path fill="#231e1d" d="M394.4 108.35a.22.22 0 0 0 .24.11 3 3 0 0 1 0 1.48c-1.52.39-1.64.31-1.95-1.13.36-.87.87-1.27 1.71-.46Z"/><path fill="#d97952" d="M394.4 108.35a1.42 1.42 0 0 0-1.74.46c-.13-.14-.27-.28-.4-.43l.06-.75.36-.44a2.87 2.87 0 0 1 1.51.08Z"/><path fill="#de6e3a" d="M100.36 50.86a11.9 11.9 0 0 1-.64-6 4 4 0 0 0-2.19.36 14.67 14.67 0 0 0 .27 5 13.38 13.38 0 0 0-8 2c.71-3.36 0-6.32-1-9.43l4.44-.21a6.06 6.06 0 0 0 .36-2.53c-2.39.36-4.78 1.28-7.12-.26a1 1 0 0 0-1.26.39 1.06 1.06 0 0 0 0 1.16 5.2 5.2 0 0 0 .51.63 11.47 11.47 0 0 1 2 9.68c-.17.8-.34 1.6-.46 2.41a1.3 1.3 0 0 0 2.12 1.39c.45-.32.88-.65 1.32-1 2.44-1.8 5-2.7 8-1.43a1.28 1.28 0 0 0 1.87-.63c.26-.51-.03-1.02-.22-1.53Z"/><path fill="#010101" d="M106.73 32a1.37 1.37 0 0 0-1.73 0c-3 1.75-6.16 1.41-9.33.68-2.7-.63-3.25-.16-2.71 2.53 0 .26.18.51.23.78a12.88 12.88 0 0 1 .42 4.05 6.93 6.93 0 0 0-.81 2.46c0 .2-.07.39-.1.58a4.85 4.85 0 0 0-.19.92c0 1.62 1 2.08 2.36 2 .81 0 1.59-.25 2.39-.35a5.9 5.9 0 0 0 2.44-.86 4.72 4.72 0 0 1 3.93.46 1.43 1.43 0 0 0 1.72.11c.65-.47.58-1.15.37-1.85a11.65 11.65 0 0 1 .29-7.62c.26-.7.54-1.4.82-2.09s.58-1.25-.1-1.8Zm-8.88 10.7c-.44.11-.88.26-1.32.33-1.16.21-1.17.19-.79-1.21l2.26-.55c.48.57 0 .98-.15 1.43Zm5.22-.15a4.38 4.38 0 0 0-1-.07c-2.09 0-2.09 0-1.55-2.07.14-.52.53-1.11.11-1.55s-1.13 0-1.69.18c-1 .32-2 1.08-3.11.46A30.85 30.85 0 0 0 95 35a26 26 0 0 0 9 .09c-1 2.49-.91 4.98-.93 7.46Z"/><path fill="#de6f3c" d="M100.54 42.06a7.09 7.09 0 0 1 .79-2.35c.25-.61.39-1.21-.18-1.69s-1-.2-1.53.06a10.52 10.52 0 0 1-3.81 1.42c0 .77 0 1.55-.07 2.32l2.26-.55c.46.57 0 1-.17 1.43l5.22-.16c-.75-.49-1.71-.08-2.51-.48Z"/><path fill="#de6e3a" d="M352.54 108.07a11.81 11.81 0 0 1-.64-6 3.92 3.92 0 0 0-2.19.36 14.18 14.18 0 0 0 .27 5 13.39 13.39 0 0 0-8 2c.71-3.36 0-6.32-1-9.43l4.44-.21a6.06 6.06 0 0 0 .36-2.53c-2.38.36-4.77 1.28-7.11-.26a1 1 0 0 0-1.27.39 1.06 1.06 0 0 0 0 1.16 4.46 4.46 0 0 0 .52.63 11.5 11.5 0 0 1 1.95 9.68c-.17.8-.34 1.6-.46 2.41a1.3 1.3 0 0 0 2.13 1.39l1.31-1c2.44-1.8 5.05-2.7 8-1.43a1.27 1.27 0 0 0 1.87-.63c.28-.51 0-1.02-.18-1.53Z"/><path fill="#010101" d="M358.91 89.18a1.37 1.37 0 0 0-1.71 0c-3 1.75-6.17 1.41-9.33.68-2.71-.63-3.26-.16-2.72 2.53.06.26.19.51.24.78a13.17 13.17 0 0 1 .41 4 6.72 6.72 0 0 0-.8 2.46c0 .19-.07.39-.11.58a5.78 5.78 0 0 0-.19.92c0 1.62 1 2.08 2.36 2 .81 0 1.59-.25 2.39-.35a5.85 5.85 0 0 0 2.44-.86 4.74 4.74 0 0 1 3.94.46 1.42 1.42 0 0 0 1.71.11c.65-.47.58-1.15.37-1.85a11.65 11.65 0 0 1 .29-7.62c.26-.7.54-1.4.82-2.09s.56-1.17-.11-1.75ZM350 99.91c-.44.11-.88.26-1.32.33-1.16.21-1.17.19-.79-1.21l2.28-.55c.48.57.02.98-.17 1.43Zm5.22-.15a4.34 4.34 0 0 0-1-.07c-2.08 0-2.09 0-1.54-2.07.14-.52.53-1.11.11-1.55s-1.14 0-1.7.18c-1 .32-1.95 1.08-3.1.46a30.93 30.93 0 0 0-.8-4.55 26 26 0 0 0 9 .09c-1.07 2.54-.92 5.03-.95 7.51Z"/><path fill="#de6f3c" d="M352.71 99.27a7.11 7.11 0 0 1 .8-2.35c.25-.61.38-1.21-.19-1.69s-1-.2-1.52.06a10.65 10.65 0 0 1-3.8 1.42c0 .77-.06 1.55-.08 2.32l2.28-.55c.46.57 0 1-.17 1.43l5.22-.16c-.78-.49-1.74-.08-2.54-.48Z"/><path fill="#de6e3a" d="M15.3 191.63a11.92 11.92 0 0 1-.64-6 4 4 0 0 0-2.19.36 14.68 14.68 0 0 0 .27 5 13.41 13.41 0 0 0-8 2c.72-3.37 0-6.32-1-9.43l4.44-.22a6.08 6.08 0 0 0 .35-2.54c-2.38.37-4.77 1.29-7.11-.25a1 1 0 0 0-1.23.45 1.08 1.08 0 0 0 0 1.17 5.86 5.86 0 0 0 .51.63 11.47 11.47 0 0 1 2 9.68c-.18.79-.34 1.6-.47 2.4a1.39 1.39 0 0 0 .6 1.61 1.37 1.37 0 0 0 1.53-.22c.45-.31.88-.64 1.32-1 2.44-1.8 5-2.7 8-1.43a1.27 1.27 0 0 0 1.87-.62c.23-.57-.06-1.09-.25-1.59Z"/><path fill="#010101" d="M21.67 172.74a1.37 1.37 0 0 0-1.71 0c-3 1.76-6.16 1.42-9.33.68-2.7-.63-3.25-.15-2.71 2.53 0 .27.18.52.23.78a12.59 12.59 0 0 1 .41 4 7.17 7.17 0 0 0-.8 2.47c0 .19-.07.39-.1.58a4.7 4.7 0 0 0-.19.92c0 1.62 1 2.07 2.36 2 .81 0 1.59-.26 2.39-.36a5.94 5.94 0 0 0 2.44-.85 4.68 4.68 0 0 1 3.93.46 1.43 1.43 0 0 0 1.71.11c.65-.48.59-1.15.37-1.85a11.74 11.74 0 0 1 .3-7.63c.26-.7.54-1.39.81-2.09s.57-1.18-.11-1.75Zm-8.89 10.73c-.44.11-.87.25-1.32.33-1.15.2-1.16.18-.79-1.21L13 182c.42.61 0 1-.22 1.47Zm5.23-.16a3.89 3.89 0 0 0-1-.06c-2.09 0-2.09 0-1.55-2.07.14-.52.53-1.11.11-1.56s-1.13 0-1.69.18c-1 .33-2 1.09-3.11.47a30.63 30.63 0 0 0-.79-4.55 26.18 26.18 0 0 0 9 .09c-1.1 2.53-.98 5.02-.98 7.5Z"/><path fill="#de6f3c" d="M15.47 182.83a7.08 7.08 0 0 1 .8-2.36c.25-.6.38-1.21-.18-1.69s-1-.2-1.53.06a10.42 10.42 0 0 1-3.81 1.43c0 .77-.05 1.55-.08 2.32L13 182c.46.57 0 1-.18 1.43l5.23-.16c-.81-.45-1.77-.04-2.58-.44Z"/><path fill="#020202" d="M75.72 74.25c-2.79-.8-5.08.11-7.06 2.06l-1.29 2.18a3.17 3.17 0 0 0-.32.49 3.94 3.94 0 0 0-.41 1.13c-.16 1.89-.06 3.69 1.71 4.9L70 86.62c.57.2 1.14.41 1.72.6a6.79 6.79 0 1 0 4-13Zm-5.34 9.46a4.06 4.06 0 0 1-.76-4.64c1.87 1.37 2.09 2.73.76 4.64Zm7.62-.85a4.48 4.48 0 0 1-5.52 2.2c-.31-.36-.17-.76-.06-1.14.57-2.06.54-4-1-5.7a1.14 1.14 0 0 1-.28-.94 4.41 4.41 0 0 1 5.75 0A4.57 4.57 0 0 1 78 82.86Z"/><path fill="#dc6f3d" d="M71.09 77.28a3.11 3.11 0 0 0-1.47 1.79c1.87 1.37 2.09 2.73.76 4.64a2.79 2.79 0 0 0 2.05 1.35c1.51-3.61 1.21-5.37-1.34-7.78Z"/><path fill="#de6f3c" d="M302.87 41a4.67 4.67 0 0 0-5.55.33 4.77 4.77 0 0 0-1.84 5.28 4.45 4.45 0 0 0 4.06 3.73c-.15-.8-.29-1.59-.44-2.39-1.64-1.06-2.1-2.43-1.31-3.9s2.21-1.88 3.89-1.05c1.34-.89 2.88-.84 4.4-.93-1.02-.47-2.16-.36-3.21-1.07Z"/><path fill="#020101" d="M306.08 42.08c-1.55 0-3.18-.68-4.58.53-1.62 1.44-2.89 3.07-2.88 5.38a2.84 2.84 0 0 0 .92 2.39c.33.43.64.88 1 1.3a5.73 5.73 0 0 0 6.08 2 5.65 5.65 0 0 0 4.26-4.28c.89-3.34-1.15-6.4-4.8-7.32Zm-4.66 5.17c.34-1.07.68-2.14 1.93-2.5a3 3 0 0 1-1 3c-.67.47-.8-.03-.93-.5Zm5.57 3.9c-1.5.87-3 .63-4.59-.77 0-.13-.1-.3 0-.38a8.57 8.57 0 0 0 2.94-5.67 3.43 3.43 0 0 1 3.44 2.82 3.76 3.76 0 0 1-1.78 4Z"/><path fill="#dc6f3d" d="M305.33 44.33a2.21 2.21 0 0 0-2 .42 3 3 0 0 1-1 3c-.64.46-.77 0-.9-.51a3.15 3.15 0 0 0 1 3.13l1-.73a4.83 4.83 0 0 0 1.9-5.31Z"/><path fill="#de6f3c" d="M400.35 187.07a4.67 4.67 0 0 0-5.55.34 4.74 4.74 0 0 0-1.83 5.27 4.45 4.45 0 0 0 4 3.74c-.14-.8-.29-1.6-.43-2.39-1.65-1.07-2.11-2.43-1.32-3.91s2.16-1.92 3.89-1.08c1.34-.89 2.88-.84 4.4-.93-.97-.48-2.11-.37-3.16-1.04Z"/><path fill="#020101" d="M403.56 188.11c-1.55 0-3.17-.68-4.58.54-1.62 1.43-2.89 3.06-2.88 5.37a2.86 2.86 0 0 0 .92 2.4c.33.43.64.88 1 1.29a5.72 5.72 0 0 0 6.08 2 5.65 5.65 0 0 0 4.26-4.28c.89-3.34-1.14-6.43-4.8-7.32Zm-4.66 5.17c.34-1.07.68-2.13 1.93-2.5a3 3 0 0 1-1 3c-.67.47-.83-.02-.93-.5Zm5.57 3.9c-1.5.88-3 .63-4.59-.76-.05-.14-.09-.31 0-.38a8.55 8.55 0 0 0 2.94-5.67 3.41 3.41 0 0 1 3.44 2.82 3.74 3.74 0 0 1-1.79 3.99Z"/><path fill="#dc6f3d" d="M402.81 190.37a2.18 2.18 0 0 0-2 .41 3 3 0 0 1-1 3c-.64.45-.77 0-.9-.52a3.17 3.17 0 0 0 1 3.14l.95-.74a4.82 4.82 0 0 0 1.95-5.29Z"/><path fill="#fec3a8" d="M292.36 198.8a.81.81 0 0 0-.28.73c.1.85-.22 1.22-1.13 1.21a15.48 15.48 0 0 0-4.33.34c-.42-.67-.05-1.08.07-1.52a16.27 16.27 0 0 0 .91-5.21c-.06-1 .26-1.58 1.39-1.39a35.23 35.23 0 0 0 6.73 0c-1 1.72-.9 3.49-1.69 5a1.45 1.45 0 0 0-1.67.84Z"/><path fill="#fdc3a8" d="M296.52 201.53a19.86 19.86 0 0 0 6.83.34c-.82 2.6-2.12 4.82-1.93 7.57-2.41-1-4.7-1.81-7.36-1.59a16.63 16.63 0 0 1 .88-3.39c1.13-.65.93-2.02 1.58-2.93Z"/><path fill="#d96e3b" d="M296.52 201.53c0 .46.06.91.08 1.37 0 1.16-.48 1.7-1.66 1.56v-3.37a1.79 1.79 0 0 1 1.58.44Z"/><path fill="#fcc1a6" d="M333.9 219.68a3.46 3.46 0 0 1 3.67 1.13 3.5 3.5 0 0 1 .2 4.17c-.9 1.39-2.36 1.84-4.24 1.32a6.11 6.11 0 0 0 .37-6.62Z"/><path fill="#fbc1a6" d="M329.72 225.79c-2.29.05-3.63-1.09-3.62-3.08s1.47-3.19 3.87-3a51.43 51.43 0 0 0-.25 6.08Z"/><path fill="#db6e3c" d="M329.72 225.79a6.46 6.46 0 0 1 .25-6.08 2.71 2.71 0 0 1 2.15 1.51 4.53 4.53 0 0 0-.27 3.37 2.16 2.16 0 0 1-2.13 1.2Z"/><path fill="#f6b698" d="M331.85 224.59c-1.12-1.46-1.07-2.07.27-3.37a2.84 2.84 0 0 1-.27 3.37Z"/><path fill="#0a0402" d="M115.17 404.23a5.26 5.26 0 0 1 .25-.66 16.58 16.58 0 0 1 2.33-3.12c.44-.48 1-.8 1.6-.24s.33 1 0 1.47c-.78 1-1.54 2.09-2.34 3.11a1 1 0 0 1-1.26.36 1 1 0 0 1-.58-.92Z"/><path fill="#fdc3a8" d="M73.31 193.72a20.73 20.73 0 0 0 .6 4.48 13.86 13.86 0 0 0-9.24-.71c.22-3.26-.55-6.28-1.39-9.73a20.9 20.9 0 0 0 7.53 2.45c.27 1 0 2.23 1.92 1.84 1.02-.22.63 1 .58 1.67Z"/><path fill="#fec3a8" d="M74.52 187.7c-.32-.11-.77-.17-.78-.55a29.33 29.33 0 0 0-.65-5.37 23.94 23.94 0 0 0 4.47 0c1.33-.22 2.65-.58 4.32-1-1.23 2.86-.85 5.71-.92 8.54-1.08-.07-2-.19-3-.17a1.78 1.78 0 0 1-1.4-.67c-.34-.99-1.2-.87-2.04-.78Z"/><path fill="#d56e3c" d="m73.31 193.72-.21-1.31a.64.64 0 0 0-.78.06c-.52.33-1 .68-1.63.14a1.34 1.34 0 0 1-.17-1.66c.1-.25.2-.49.29-.74a10.9 10.9 0 0 1 3.11.09c-.43 1.15-.09 2.35-.61 3.42Z"/><path fill="#fff" d="M230.54 244.35a11.38 11.38 0 0 1-11.45 11.46 11.48 11.48 0 1 1 0-23 11.33 11.33 0 0 1 11.45 11.54ZM180.8 233.2c4.68-3.67 13.13-2.79 17.07 3.44a12.26 12.26 0 0 1-4 17c-1.29.75-1.34.77-2.09-.43a66.77 66.77 0 0 0-9.22-12c.86-1.81 2.57-2.1 4.27-2.33a11.88 11.88 0 0 1 6.56 1.27c.66.3 1.24.87 2.2.71 0-1.05-.88-1.28-1.55-1.58-3.86-1.74-7.73-2.28-11.55.12a2.13 2.13 0 0 1-1.36.37c-1.13-.81-2.24-1.64-3.4-2.41-.84-.55-.08-.84.13-1.23.23-.19.53-.26.73-.48s.33-.29.48-.45.3-.32.45-.47.27-.51.5-.69a1.8 1.8 0 0 1 .42-.45c.07-.11.24-.23.36-.39Z"/><path fill="#010100" d="M123.74 266.24c-.13-7.83 2.84-14.37 8.24-19.9.86-.88 1.75-1.73 2.65-2.57a5.71 5.71 0 0 1 1.92-1.16c.62-.23 1.25-.33 1.56.42.25.6-.13 1-.63 1.34C130 249.77 126 257 125.91 266.3a22.59 22.59 0 0 0 2.17 10.14 68.33 68.33 0 0 0 3.35 6.11 11 11 0 0 1 .77 1.44.89.89 0 0 1-.36 1.08.83.83 0 0 1-1.13 0 5 5 0 0 1-1-1.06c-2.76-4.42-5.3-8.93-5.85-14.28-.07-1.18-.08-2.34-.12-3.49Z"/><path fill="#020101" d="M202.49 369.63a1 1 0 0 1-1.34.84 3.58 3.58 0 0 1-1-.69 157.34 157.34 0 0 1-13.3-12.78 60.83 60.83 0 0 1-5.15-6.89 3.82 3.82 0 0 1-.42-.7 1 1 0 0 1 .39-1.42c.53-.29.9 0 1.24.39a3.89 3.89 0 0 1 .49.66c3.92 6.12 9.27 10.92 14.53 15.8 1.15 1.07 2.34 2.09 3.51 3.14a2.56 2.56 0 0 1 1.05 1.65Z"/><path fill="#030101" d="M214.93 320c.06.72-.08 1.17-.6 1.37a1 1 0 0 1-1.21-.52 7.84 7.84 0 0 1-.72-1.45c-2.07-5.26-3.78-10.66-6.28-15.74-.29-.6-.46-1.22.21-1.62s1.28.12 1.58.76c.85 1.78 1.73 3.55 2.47 5.38 1.43 3.53 2.78 7.1 4.15 10.66.17.4.31.85.4 1.16Z"/><path fill="#050403" d="M181.12 239.78c4.26-3.84 10.25-2.9 14.62-.15a2.88 2.88 0 0 1 .34.23c.51.46.75 1 .28 1.61a1 1 0 0 1-1.46.19 17.45 17.45 0 0 0-4.07-1.87 8.45 8.45 0 0 0-8.28 1.43 1.43 1.43 0 0 1-1.43-1.44Z"/><path fill="#060505" d="M238.79 237.32a7.72 7.72 0 0 0-1.24 3.81 3.4 3.4 0 0 1-.23 1.19 1.35 1.35 0 0 1-1.62.91 1.28 1.28 0 0 1-1.15-1.24v-2.64a13.34 13.34 0 0 1 3.64-2.1.4.4 0 0 1 .6.07Z"/><path fill="#0a0503" d="M220.87 334a1.12 1.12 0 0 1-.52.83.79.79 0 0 1-1.09-.23 27.28 27.28 0 0 1-2.79-4.94.85.85 0 0 1 .35-1.07.84.84 0 0 1 1.13.11 19.82 19.82 0 0 1 2.91 5.1.66.66 0 0 1 .01.2Z"/><path fill="#0c0503" d="M138.38 292.81a1.21 1.21 0 0 1 .85.51c.83 1 1.67 2 2.47 3 .38.5.73 1.11.07 1.62s-1.17.14-1.62-.35a17.08 17.08 0 0 1-2.55-3.2c-.46-.79 0-1.65.78-1.58Z"/><path fill="#020202" d="M102.56 244.54c.1-.56.19-1.31.39-2a64.53 64.53 0 0 1 5.88-14.81c3.48-6.11 6.86-12.28 10.3-18.43a15.6 15.6 0 0 1 1-1.54.89.89 0 0 1 1.1-.28.9.9 0 0 1 .48 1.21 6.17 6.17 0 0 1-.53 1.1q-5.42 9.88-10.83 19.77a59.74 59.74 0 0 0-5.53 14.72c-.07.27-.1.54-.18.81-.18.61-.43 1.19-1.22 1.12-.55-.1-.85-.63-.86-1.67Z"/><path fill="#050505" d="M134.34 396c0 .69-.08 1.43-1 1.49s-1.06-.68-1.17-1.39q-.49-3.54-1-7.09c-.25-1.75-.51-3.51-.76-5.26-.06-.41-.1-.82-.13-1.23 0-.68.14-1.3.9-1.34s1 .56 1.11 1.22l2 13.16c.03.16.03.3.05.44ZM98.91 265.77a28.24 28.24 0 0 1 .59-6.29 10.3 10.3 0 0 1 .4-1.37 1 1 0 1 1 1.85.64c0 .13-.08.26-.11.39a30.63 30.63 0 0 0-.15 11.57 8.27 8.27 0 0 1 .13 1.22c0 .57-.08 1.1-.8 1.2a1 1 0 0 1-1.19-.89 15.3 15.3 0 0 1-.5-2.6c-.13-1.28-.13-2.58-.22-3.87Z"/><path fill="#181515" d="M135.68 406.13a11.66 11.66 0 0 1 0 1.22.84.84 0 0 1-.63.71.86.86 0 0 1-.91-.29 3.69 3.69 0 0 1-.37-3.09 1 1 0 0 1 .8-.55.86.86 0 0 1 .92.63 7.77 7.77 0 0 1 .19 1.37Z"/><path fill="#080707" d="M207 149a8.53 8.53 0 0 1-5.92-2.86 5.27 5.27 0 0 1-1.12-1.93c-.22-.67-.2-1.28.47-1.58s1.09.22 1.38.83a6 6 0 0 0 5.4 3.42c.79.07 1.77-.12 1.87 1.06.07.73-.71 1.06-2.08 1.06Z"/><path fill="#141212" d="M188.13 158.31c-.15.58-.51 1-1.13.89-1-.24-1.5.17-1.8 1.08a.9.9 0 0 1-1.12.65 1.1 1.1 0 0 1-.84-1.23c0-1.72 2.52-3.24 4.06-2.48a1.38 1.38 0 0 1 .83 1.09Z"/><path fill="#0f0d0d" d="M165.51 130.89a6.78 6.78 0 0 1-1.26 3.09 2 2 0 0 1-1.38.81 1.07 1.07 0 0 1-1.19-.58.83.83 0 0 1 .35-1.07 3.49 3.49 0 0 0 1.44-2.6c.11-.66.35-1.27 1.13-1.14s.95.86.91 1.49Z"/><path fill="#0e0e0e" d="M157.7 127.39c.07-1.27.21-2.28 1.09-3a1 1 0 0 1 1.31 0 .79.79 0 0 1 .26 1.08 3.94 3.94 0 0 0-.49 2.93 1 1 0 0 1-.65 1.13 1 1 0 0 1-1.26-.76 6.93 6.93 0 0 1-.26-1.38Z"/><path fill="#060404" d="M254.21 280.78a13.14 13.14 0 0 1 9.59 4 7.84 7.84 0 0 1 .92 1.08c.4.61.6 1.31-.12 1.8s-1.18 0-1.58-.5a11.27 11.27 0 0 0-5.84-3.91 13.85 13.85 0 0 0-3.84-.43c-.48 0-1 .05-1.43 0a.92.92 0 0 1-.92-.91.9.9 0 0 1 .83-1c.81-.09 1.63-.09 2.39-.13Z"/><path fill="#070707" d="M277.82 304.5c0 .83-.66 1.26-1.27.92a2.4 2.4 0 0 1-.73-.69q-1.74-2.4-3.46-4.81a2.58 2.58 0 0 1-.37-.72.91.91 0 0 1 .3-1.09.88.88 0 0 1 1.28.13 47.61 47.61 0 0 1 4.07 5.6 2.45 2.45 0 0 1 .18.66Z"/><path fill="#020100" d="M257.28 310.8c4.86-.09 8.85 1.54 11.6 5.71a10.12 10.12 0 0 1 1.17 2.38c.25.75.5 1.57-.39 2s-1.33-.4-1.61-1.1a12.06 12.06 0 0 0-2.16-3.46c-2.49-2.89-5.85-3.47-9.33-3.26a21.2 21.2 0 0 0-15.07 7.33c-.14.15-.25.33-.4.47a1 1 0 0 1-1.3.13.93.93 0 0 1-.26-1.12 3.71 3.71 0 0 1 1-1.53c4.63-4.67 10.11-7.35 16.75-7.55Z"/><path fill="#090402" d="M271.08 331.13a36.28 36.28 0 0 1-.85 4.82 6 6 0 0 1-.37.95 1 1 0 0 1-1.17.59.93.93 0 0 1-.72-1.25 31.63 31.63 0 0 0 1.17-6.4.92.92 0 0 1 1.1-.93 1 1 0 0 1 .83 1c.03.34.01.68.01 1.22Z"/><path fill="#060505" d="M207.74 273.85a6.87 6.87 0 0 1-2.42-.36c-.64-.23-1.13-.61-.91-1.35s.73-.75 1.34-.61c3.4.81 6.45-.52 9.54-1.57a5.52 5.52 0 0 0 2.23-1.76c.45-.52 1-.78 1.6-.26a1.17 1.17 0 0 1 0 1.67 6.23 6.23 0 0 1-2.67 2.18 25.92 25.92 0 0 1-8.71 2.06Z"/><path fill="#0e0c0c" d="M203 261.56a5.13 5.13 0 0 0 .29 2.42 1 1 0 0 1-.49 1.37c-.73.3-1.18-.11-1.45-.72a6.9 6.9 0 0 1-.18-4.42c.14-.61.49-1 1.14-.92s.79.67.76 1.25c-.01.34-.07.68-.07 1.02Z"/><path fill="#0a0808" d="M240.83 247.41a5.63 5.63 0 0 1-1.5 3.41c-.47.53-1.1 1-1.76.39s-.3-1.12.13-1.62a5.36 5.36 0 0 0 1.18-2.54c.11-.56.34-1.11 1-1s.94.64.95 1.36Z"/><path fill="#111010" d="M224.3 264.6c1.24 0 2.83 2.6 2.27 3.73-.34.7-1.28.86-1.6.18-.43-.92-.95-1.76-1.46-2.62a.87.87 0 0 1 .79-1.29Z"/><path fill="#050404" d="M220.55 237.16c2.41-.07 4.31 1.12 6.16 2.43a1.09 1.09 0 0 1 .37 1.61 1.07 1.07 0 0 1-1.47.23 7.52 7.52 0 0 1-1-.65c-3.14-2.26-6.28-1.73-9.38.06a14 14 0 0 0-1.94 1.5c-.47.38-1 .59-1.46.13s-.32-1.14.15-1.63a11.93 11.93 0 0 1 6.77-3.51c.57-.1 1.19-.11 1.8-.17Z"/><path fill="#0d0b0b" d="M218.87 244.65a7.25 7.25 0 0 1 4.16 1.19c.51.35 1 .79.66 1.51s-1 .6-1.59.3c-1.47-.73-2.94-1.43-4.64-.57-.38.2-.79-.08-1-.5a1.13 1.13 0 0 1 .37-1.45 3 3 0 0 1 2.04-.48Z"/><path fill="#0d0909" d="M191.74 243.89a3.81 3.81 0 0 1 .79.15c.62.2 1.15.56 1 1.32s-.72.75-1.28.66a3.08 3.08 0 0 0-2.34.49.9.9 0 0 1-1.4-.26c-.37-.58-.06-1.06.38-1.42a4 4 0 0 1 2.85-.94Z"/></g></g></svg>