<svg id="SvgjsSvg1063" width="360" height="360" xmlns="http://www.w3.org/2000/svg" version="1.1" xmlns:xlink="http://www.w3.org/1999/xlink" xmlns:svgjs="http://svgjs.com/svgjs"><defs id="SvgjsDefs1064"></defs><g id="SvgjsG1065"><svg xmlns="http://www.w3.org/2000/svg" data-name="Layer 1" viewBox="0 0 700 550" width="360" height="360"><path fill="#f7e8e8" d="M199.28 502.969c-8.36.973-15.712-5.368-21.09-11.844-18.035-21.712-27.535-50.33-27.91-84.75-12.686-19.731-31.02-35.12-45.59-53.505s-25.614-42.187-19.807-64.914c3.544-13.87 12.847-25.397 20.904-37.23a242.807 242.807 0 0 0 34.533-76.646c4.898-19.27 7.43-39.166 13.837-57.988s17.424-37.08 34.752-46.83c29.199-16.43 65.441-4.372 98.931-5.339 50.429-1.455 98.723-33.433 148.264-23.903 21.375 4.111 40.472 15.658 59.05 27 22.303 13.613 44.86 27.428 63.105 46.133s32.01 43.13 32.625 69.252c.647 27.487-13.081 53.845-12.147 81.324 1.36 40.034 33.152 73.555 37.446 113.381 4.925 45.67-26.668 86.331-56.402 121.342-3.836 4.517-7.885 9.192-13.36 11.459-4.75 1.966-10.061 1.899-15.202 1.8l-281.84-5.361c-17.555-.334-35.261-.686-50.098-3.381Z" class="colore5eef9 svgShape"></path><path fill="#f090d9" d="M438.413 426.93c-135.262-23.9-137.91-164.945-137.91-164.945s-46.696 12.04-29.054 112.951c1.057.882 2.205 1.836 3.436 2.831.42.349.862.698 1.303 1.046 5.221 4.206 11.53 9.088 17.16 13.52 3.119 2.461 6.042 4.79 8.452 6.78a135.832 135.832 0 0 0 11.488 8.81 48.767 48.767 0 0 0 10.124 5.221c5.262 1.908 11.037 2.688 15.694 5.796 2.616 1.733 5.005 4.236 8.134 4.461 2.42.175 5.006-1.066 7.18.031 1.846.923 2.657 3.252 4.503 4.206 2.062 1.067 4.534.02 6.862.01 2.76-.02 5.283 1.415 7.847 2.431 7.98 3.139 16.904 2.174 25.417 1.18q19.897-2.352 39.787-4.696Z" class="colord5e3f4 svgShape"></path><path fill="#f2a2e4" d="M214.214 392.845c-2.636 10.35-5.785 20.597-7.426 31.151-1.436 9.18-1.713 18.505-1.99 27.808q-.785 25.91-1.55 51.81-2.015-.293-3.969-.647c-8.36.974-15.714-5.365-21.089-11.837-18.032-21.714-27.53-50.332-27.91-84.756-12.688-19.734-31.017-35.12-45.593-53.501a128.567 128.567 0 0 1-7.047-9.806v-45.368a3.077 3.077 0 0 1 3.077-3.077h62.529a3.077 3.077 0 0 1 3.077 3.077v52.189a3.077 3.077 0 0 0 3.077 3.077h17.478a3.077 3.077 0 0 1 3.077 3.077v33.726a3.077 3.077 0 0 0 3.078 3.077Z" class="color98bce5 svgShape"></path><path fill="#9a0169" d="m203.338 503.624.021.306-.242-.004c-.192-5.311-.234-10.618-.184-15.922.053-5.304.146-10.606.428-15.903l.516-7.943c.184-2.647.357-5.295.464-7.944.239-5.299.233-10.602.329-15.918a128.21 128.21 0 0 1 1.112-15.945 139.07 139.07 0 0 1 3.168-15.684c2.7-10.3 6.038-20.322 8.375-30.677l.197.032c-1.099 10.602-3.995 20.919-6.506 31.168-1.27 5.13-2.508 10.254-3.371 15.443-.843 5.192-1.413 10.444-1.871 15.72a240.055 240.055 0 0 0-.787 15.88c-.052 2.651-.037 5.304-.012 7.958l.041 7.96c-.035 5.304-.258 10.602-.523 15.9-.266 5.298-.625 10.592-1.134 15.882l-.243-.003.022-.306Z" class="color015a9a svgShape"></path><path fill="#f2a2e4" d="M616.183 377.11c-1.925-17.851-9.375-34.436-17.133-50.909h-24.94a3.077 3.077 0 0 0-3.077 3.077v63.444a3.077 3.077 0 0 1-3.078 3.077h-13.047a3.077 3.077 0 0 1-3.077-3.077v-17.531a3.077 3.077 0 0 0-1.242-2.47l-24.842-18.464a3.077 3.077 0 0 1-1.241-2.47v-50.395a3.077 3.077 0 0 0-3.078-3.078h-32.371l1.497 43.091c5.231 7.867 15.52 9.683 21.746 16.791 4.861 5.56 6.37 13.242 7.251 20.586.36 2.944.636 5.99-.256 8.822-1.262 3.98-4.616 6.893-7.816 9.58q-8.832 7.416-17.663 14.822a73.212 73.212 0 0 1-7.218 5.57l-.273 1.047c-7.063 38.502-.307 73.774 4.768 92.325l40.126.764c5.14.097 10.452.165 15.202-1.801 5.475-2.267 9.524-6.942 13.36-11.459 29.734-35.01 61.327-75.673 56.402-121.342Z" class="color98bce5 svgShape"></path><path fill="#ea7dc7" d="M447.105 328.491c-.452-4.144-.81-8.298-1.231-12.452h20.288v26.597c-.236-.236-.44-.482-.636-.708a10.348 10.348 0 0 1-8.944.36c-2.677-1.293-8.79-7.622-9.477-13.797Z" class="colora8a8a8 svgShape"></path><path fill="#f090d9" d="M486.325 418.623c-10.267 55.965 7.485 91.507 8.012 92.387l-105.385-2.005-.187-6.76c41.488-9.045 63.844-77.304 63.844-77.304s20.032-1.596 26.05-3.733c3.196-1.135 7.666-2.585 7.666-2.585Z" class="colord5e3f4 svgShape"></path><path fill="#9a0169" d="M256.116 419.604a75.517 75.517 0 0 1-8.97 9.503c-1.643 1.463-4.28 2.837-5.807 1.254a4.327 4.327 0 0 1-.739-3.402c.626-7.993-1.026-9.005 3.183-15.829 5.648.218 8.56 4.266 12.333 8.474ZM443.812 300.728c-6.604-.338-14.414.709-19.91 4.386l-.056.078a219.755 219.755 0 0 0 13.521-21.407s4.203 4.49 6.445 16.943Z" class="color015a9a svgShape"></path><path fill="#c80088" d="M344.594 196.228c-3.204-8.388-3.256-17.623-2.793-26.59.547-10.598 1.793-21.312 5.737-31.162 3.943-9.851 10.862-18.85 20.407-23.483 7.101-3.447 15.14-4.296 22.992-5.094 14.216-1.446 29.683-2.612 41.693 5.129a44.989 44.989 0 0 1 8.624 7.531 77.699 77.699 0 0 1 18.885 65.488c-.38 2.068-.978 4.325-2.727 5.49-1.904 1.268-4.569.728-6.403-.638a18.443 18.443 0 0 1-4.246-5.333c-2.7-4.337-6.138-8.842-11.139-9.884-5.794-1.208-11.297 2.637-16.077 6.128s-10.668 6.998-16.269 5.084c-7.026-2.402-9.008-11.675-15.092-15.932-5.865-4.103-14.29-2.403-19.954 1.972s-9.234 10.85-12.784 17.065c-1.36 2.382-2.87 4.879-5.315 6.121s-6.074.544-5.54-1.892Z" class="color0078c8 svgShape"></path><path fill="#b4027b" d="M382.277 169.637c.548-10.596 1.793-21.31 5.737-31.162s10.862-18.849 20.408-23.482a50.215 50.215 0 0 1 14.893-4.15c-10.15-2.964-21.621-2.038-32.378-.945-7.852.799-15.89 1.648-22.991 5.095-9.547 4.633-16.465 13.632-20.408 23.482s-5.19 20.566-5.737 31.162c-.464 8.968-.412 18.203 2.793 26.591-.535 2.436 3.093 3.135 5.539 1.892s3.955-3.739 5.315-6.121c3.55-6.215 7.12-12.689 12.784-17.065a19.828 19.828 0 0 1 13.993-4.194c.017-.368.033-.736.052-1.103ZM428.662 172.962c-5.865-4.103-14.29-2.403-19.954 1.972-3.951 3.053-6.876 7.132-9.493 11.427a11.247 11.247 0 0 0 4.063 2.533c5.601 1.914 11.49-1.593 16.27-5.084 4.055-2.962 8.632-6.167 13.466-6.336a19.222 19.222 0 0 0-4.352-4.512ZM460.023 183.81c-3.601 2.631-7.833 5.268-12.097 5.59a13.486 13.486 0 0 0 3.083 3.499c1.834 1.366 4.5 1.906 6.402.639 1.75-1.166 2.349-3.423 2.728-5.491.294-1.605.527-3.22.713-4.839l-.829.602Z" class="color0268b4 svgShape"></path><path fill="#9a0169" d="M378.212 189.306a6.104 6.104 0 0 1-2.62-1.86 8.329 8.329 0 0 1-1.522-2.95 9.834 9.834 0 0 1 .491-6.61 14.986 14.986 0 0 1 3.844-5.227c.398-.356.8-.705 1.223-1.024a5.916 5.916 0 0 1 1.476-.85 3.854 3.854 0 0 1 1.69-.275 1.968 1.968 0 0 1 .827.286 1.514 1.514 0 0 1 .492.658 1.32 1.32 0 0 0-1.303-.39 3.465 3.465 0 0 0-1.256.593 4.984 4.984 0 0 0-1.036.94c-.332.384-.674.752-.987 1.143a20.158 20.158 0 0 0-3.127 4.923 10.26 10.26 0 0 0-.815 5.503 8.337 8.337 0 0 0 2.623 5.14Z" class="color015a9a svgShape"></path><path fill="#9a0169" d="M386.284 177.34a3.343 3.343 0 0 0-2.51.326 3.831 3.831 0 0 0-1.468 1.816 14.696 14.696 0 0 0-.868 2.428 4.318 4.318 0 0 0-.217 2.114.676.676 0 0 0 .312.387c.053.027.091.066.378-.11.27-.157.575-.514 1.091-.87a2.777 2.777 0 0 1 .907-.415 1.84 1.84 0 0 1 1.212.126 2.075 2.075 0 0 1 1.075 1.706 3.296 3.296 0 0 1-.287 1.641 2.964 2.964 0 0 1-2.339 1.753 2.965 2.965 0 0 0 1.407-2.062 2.198 2.198 0 0 0-.07-1.094c-.103-.317-.33-.55-.406-.512a1.24 1.24 0 0 0-.466.273c-.236.187-.508.572-.983.967a2.523 2.523 0 0 1-.945.498 2.123 2.123 0 0 1-1.264-.05 2.59 2.59 0 0 1-1.513-1.588 3.796 3.796 0 0 1-.097-1.848 9.838 9.838 0 0 1 .4-1.472 11.493 11.493 0 0 1 1.328-2.652 4.445 4.445 0 0 1 2.457-1.946 3.22 3.22 0 0 1 2.866.584ZM344.984 196.597c-.375.829-.825 1.612-1.276 2.4-.51.744-1.003 1.51-1.58 2.212a20.505 20.505 0 0 1-3.974 3.807 12.075 12.075 0 0 1-5.209 2.148 11.022 11.022 0 0 1-2.793.045c-.915-.098-1.771-.277-2.675-.376a14.938 14.938 0 0 1 2.641-.605 17.242 17.242 0 0 0 2.484-.587 16.43 16.43 0 0 0 4.408-2.264 50.801 50.801 0 0 0 3.99-3.237c.646-.583 1.285-1.187 1.957-1.767.65-.603 1.3-1.213 2.027-1.776Z" class="color015a9a svgShape"></path><path fill="#9a0169" d="M256.517 258.037a13.24 13.24 0 0 1 .867-7.553 28.032 28.032 0 0 1 3.9-6.6c1.521-2.028 3.14-3.936 4.533-5.949a30.17 30.17 0 0 0 1.894-3.102 33.273 33.273 0 0 0 1.466-3.34c.898-2.294 1.639-4.71 2.617-7.065a25.74 25.74 0 0 1 3.898-6.561 34.744 34.744 0 0 1 5.448-5.284 53.725 53.725 0 0 1 6.277-4.265 47.407 47.407 0 0 1 14.15-5.621 40.413 40.413 0 0 1 15.327-.484 35.503 35.503 0 0 1 14.179 5.825 29.802 29.802 0 0 1 9.894 11.444l-.174.097c-5.464-8.455-14.669-13.723-24.249-15.262a42.744 42.744 0 0 0-14.604.224 55.056 55.056 0 0 0-14 4.74c-4.431 2.206-8.692 5.048-11.74 8.988a20.763 20.763 0 0 0-1.978 3.125 24.788 24.788 0 0 0-1.384 3.424c-.777 2.349-1.314 4.795-2.092 7.231a23.53 23.53 0 0 1-3.48 6.906c-1.496 2.094-3.18 3.976-4.765 5.888a31.824 31.824 0 0 0-4.144 6.073 13.998 13.998 0 0 0-1.641 7.093Z" class="color015a9a svgShape"></path><path fill="#9a0169" d="M341.878 250.433a35.9 35.9 0 0 0-17.15-13.356 42.368 42.368 0 0 0-10.717-2.232c-3.674-.344-7.41-.487-11.153-.902a75.784 75.784 0 0 0-11.058-.894 22.431 22.431 0 0 0-5.415.801 26.853 26.853 0 0 0-5.12 2.06 54.94 54.94 0 0 0-9.16 6.302 80.55 80.55 0 0 0-8.095 7.65 115.697 115.697 0 0 0-13.337 17.75 142.812 142.812 0 0 0-9.985 19.83 201.692 201.692 0 0 0-7.407 21c-1.05 3.555-2.01 7.185-3.109 10.754a44.679 44.679 0 0 0-1.323 5.384 26.908 26.908 0 0 0-.303 5.538l-.2.018a28.521 28.521 0 0 1 .848-11.2c.927-3.618 1.626-7.27 2.58-10.908a165.232 165.232 0 0 1 6.943-21.401 124.425 124.425 0 0 1 10.362-20.015 98.96 98.96 0 0 1 14.146-17.513 105.14 105.14 0 0 1 8.439-7.436 68.485 68.485 0 0 1 9.296-6.326 26.592 26.592 0 0 1 10.774-3.4 72.816 72.816 0 0 1 11.278.349c3.69.291 7.423.39 11.178.797a55.504 55.504 0 0 1 5.62.87 35.968 35.968 0 0 1 5.473 1.677 34.797 34.797 0 0 1 9.68 5.95 32.731 32.731 0 0 1 7.085 8.748Z" class="color015a9a svgShape"></path><path fill="#9a0169" d="M271.105 336.695c-.91-12.334-.878-24.927 2.036-37.13a71.172 71.172 0 0 1 6.625-17.552 55.261 55.261 0 0 1 11.61-14.823 46.09 46.09 0 0 1 16.372-9.357 38.058 38.058 0 0 1 18.779-1.207 47.9 47.9 0 0 1 9.013 2.739 49.696 49.696 0 0 1 8.34 4.308 32.507 32.507 0 0 1 7.067 6.152 23.867 23.867 0 0 1 2.642 3.866 21.508 21.508 0 0 1 1.683 4.342 21.769 21.769 0 0 0-4.722-7.858 31.758 31.758 0 0 0-7.19-5.67 49.275 49.275 0 0 0-8.297-3.919 48.436 48.436 0 0 0-8.814-2.424 37.208 37.208 0 0 0-17.918 1.473 44.58 44.58 0 0 0-15.63 9.052 54.003 54.003 0 0 0-11.283 14.24 72.847 72.847 0 0 0-6.77 17.015c-3.114 11.904-3.684 24.378-3.543 36.753Z" class="color015a9a svgShape"></path><path fill="#9a0169" d="M354.236 275.301a216.788 216.788 0 0 0 10.716 20.48c3.896 6.64 8.161 13.05 12.443 19.46 4.286 6.406 8.701 12.752 13.423 18.865 2.353 3.062 4.797 6.053 7.21 9.07l7.404 8.92-.489-.236a104.235 104.235 0 0 0 14.504-1.415 101.522 101.522 0 0 0 14.158-3.437 28.396 28.396 0 0 1 7.464-1.417c2.633-.06 4.99.455 7.165.02 2.239-.389 4.458-1.454 6.974-2.072a13.978 13.978 0 0 1 7.766.185l.268.092.153.21q4.096 5.585 8.107 11.233l4.022 5.627a24.131 24.131 0 0 0 4.69 4.981l-.113.166a22.799 22.799 0 0 1-5.156-4.684c-1.516-1.768-2.912-3.597-4.362-5.397q-4.337-5.403-8.573-10.881l.42.301a12.145 12.145 0 0 0-6.737.08c-2.234.596-4.478 1.704-7.074 2.22-2.678.56-5.243-.021-7.497.052a29.24 29.24 0 0 0-6.947 1.268 103.147 103.147 0 0 1-14.451 3.228 91.185 91.185 0 0 1-14.779.885l-.315-.008-.174-.228-7.011-9.23-7.12-9.15c-4.762-6.087-9.66-12.08-14.242-18.33a181.213 181.213 0 0 1-12.497-19.6 137.51 137.51 0 0 1-9.535-21.184Z" class="color015a9a svgShape"></path><path fill="#9a0169" d="M271.513 374.86c5.513 4.372 11.212 8.51 16.777 12.82 2.79 2.143 5.589 4.273 8.36 6.454 2.771 2.172 5.576 4.325 8.28 6.558 5.447 4.395 11.108 8.605 17.539 11.15 3.189 1.264 6.604 2.043 10.005 3.146a33 33 0 0 1 5.018 2.029 28.489 28.489 0 0 1 4.504 3 13.453 13.453 0 0 0 4.285 2.45c1.495.444 3.14.04 4.98-.137a6.796 6.796 0 0 1 2.897.275 5.609 5.609 0 0 1 2.355 1.751c1.173 1.412 2.073 2.852 3.637 3.116 1.546.32 3.286-.203 5.11-.29a12.045 12.045 0 0 1 5.307 1.158c1.642.704 3.212 1.443 4.863 1.975a30.595 30.595 0 0 0 5.079 1.164c6.937 1.025 13.982-.025 20.946-.858 6.99-.829 13.964-1.78 20.946-2.667q20.936-2.76 41.892-5.336c3.496-.442 6.99-.802 10.377-1.477a31.392 31.392 0 0 0 9.61-3.385 58.306 58.306 0 0 0 8.34-6.118l8.1-6.771 8.1-6.772c2.687-2.285 5.485-4.407 7.547-7.034a12.223 12.223 0 0 0 2.22-4.332 16.119 16.119 0 0 0 .381-4.965 79.935 79.935 0 0 0-1.409-10.324 33.37 33.37 0 0 0-3.488-9.678 23.03 23.03 0 0 0-7.016-7.431c-2.84-2.004-5.946-3.682-8.905-5.624a36.38 36.38 0 0 1-4.232-3.214 21.939 21.939 0 0 1-3.447-4.032l.166-.111a21.634 21.634 0 0 0 3.554 3.83 35.844 35.844 0 0 0 4.295 2.994c3 1.802 6.18 3.335 9.143 5.323a24.211 24.211 0 0 1 7.565 7.594 33.23 33.23 0 0 1 3.891 10.008 81.335 81.335 0 0 1 1.625 10.555 17.874 17.874 0 0 1-.343 5.524 14.107 14.107 0 0 1-2.465 5.048c-2.246 2.98-5.134 5.145-7.782 7.419l-8.074 6.8-8.075 6.803a54.354 54.354 0 0 1-8.674 6.327 33.432 33.432 0 0 1-10.248 3.512c-3.526.666-7.046.99-10.535 1.4q-20.98 2.385-41.985 4.554c-6.997.762-14.002 1.459-20.992 2.278-6.972.764-14.047 1.755-21.124.846a31.322 31.322 0 0 1-5.211-1.135c-1.71-.524-3.332-1.288-4.942-1.927a11.166 11.166 0 0 0-4.942-.954c-1.673.102-3.411.734-5.38.416a4.896 4.896 0 0 1-2.587-1.37c-.687-.66-1.216-1.39-1.78-2.004a4.316 4.316 0 0 0-1.85-1.332 5.482 5.482 0 0 0-2.323-.137c-.831.095-1.694.27-2.614.374a8.152 8.152 0 0 1-2.881-.136 14.158 14.158 0 0 1-4.899-2.615 26.867 26.867 0 0 0-4.288-2.814 31.317 31.317 0 0 0-4.775-1.88c-3.3-1.04-6.787-1.79-10.129-3.182-6.685-2.73-12.422-7.116-17.85-11.587-5.43-4.493-10.828-8.965-16.323-13.38l-8.18-6.679-4.076-3.357c-1.351-1.132-2.665-2.304-3.998-3.453Z" class="color015a9a svgShape"></path><path fill="#9a0169" d="M403.156 358.06a50.323 50.323 0 0 1-1.712 7.223 42.648 42.648 0 0 1-2.82 6.915 29.777 29.777 0 0 1-4.284 6.19 19.455 19.455 0 0 1-5.935 4.555 42.677 42.677 0 0 0 4.722-5.537 51.922 51.922 0 0 0 3.726-6.137c1.133-2.117 2.123-4.324 3.138-6.54 1.004-2.221 1.99-4.474 3.165-6.67ZM418.597 357.757a11.814 11.814 0 0 1-.16 3.712 16.548 16.548 0 0 1-2.966 6.71 11.716 11.716 0 0 1-2.642 2.613c.369-1.212.832-2.307 1.28-3.4l1.394-3.21 1.442-3.19c.508-1.066 1.005-2.146 1.652-3.235ZM429.304 350.455a33.8 33.8 0 0 1 5.121 2.78 34.343 34.343 0 0 1 4.627 3.574 24.855 24.855 0 0 1 3.848 4.472 15.956 15.956 0 0 1 2.387 5.378c-1.177-1.57-2.357-3.033-3.62-4.42-1.26-1.386-2.603-2.683-3.975-3.964-1.377-1.276-2.79-2.532-4.212-3.805a57.805 57.805 0 0 1-4.176-4.015ZM357.628 276.9a12.484 12.484 0 0 1 4.445-3.518 7.22 7.22 0 0 1 2.955-.548 5.472 5.472 0 0 1 2.977 1.017 6.577 6.577 0 0 1 2.011 2.404 11.796 11.796 0 0 1 .994 2.838 29.723 29.723 0 0 1 .486 5.73c-.037 3.791-.523 7.466-.672 11.112a42.07 42.07 0 0 0-.02 2.73 10.305 10.305 0 0 0 .28 2.62 2.963 2.963 0 0 0 1.395 1.963 2.073 2.073 0 0 0 2.447-.184 1.885 1.885 0 0 1-1.176.792 2.875 2.875 0 0 1-1.487-.097 3.643 3.643 0 0 1-2.104-2.145 11.056 11.056 0 0 1-.662-2.847c-.137-.94-.183-1.886-.234-2.829-.166-3.778.238-7.493.234-11.125a30.313 30.313 0 0 0-.339-5.35 7.352 7.352 0 0 0-2.1-4.38 5.09 5.09 0 0 0-4.67-.777 14.962 14.962 0 0 0-4.76 2.593ZM393.158 280.102a6.253 6.253 0 0 1-2.437 2.174 8.135 8.135 0 0 1-3.195.89c-.278.019-.558.02-.838.015l-.44-.028a2.55 2.55 0 0 1-.553-.108 2.717 2.717 0 0 1-1.645-1.378 2.441 2.441 0 0 1-.257-1.014c.001-.34.039-.543.061-.821a10.77 10.77 0 0 1 .307-1.583 10.747 10.747 0 0 1 .668 1.467c.088.23.17.537.254.702a1.577 1.577 0 0 0 .295.409 1.37 1.37 0 0 0 .784.38 1.489 1.489 0 0 0 .204.01l.328-.012c.232-.005.465-.012.697-.035a22.219 22.219 0 0 0 2.798-.368c.952-.173 1.897-.436 2.969-.7Z" class="color015a9a svgShape"></path><path fill="#9a0169" d="M360.006 285.471c1.083-.216 2.05-.38 2.985-.63a22.213 22.213 0 0 0 2.689-.856c.219-.078.433-.17.645-.264l.301-.13a1.49 1.49 0 0 0 .18-.096 1.37 1.37 0 0 0 .549-.677 1.576 1.576 0 0 0 .094-.495c.005-.186-.052-.499-.07-.743a10.762 10.762 0 0 1-.019-1.612 10.788 10.788 0 0 1 .951 1.302c.139.243.26.41.405.717a2.44 2.44 0 0 1 .2 1.027 2.717 2.717 0 0 1-.904 1.947 2.553 2.553 0 0 1-.455.333l-.386.212c-.251.123-.505.242-.765.342a8.134 8.134 0 0 1-3.27.554 6.252 6.252 0 0 1-3.13-.93ZM378.24 272.796a8.333 8.333 0 0 1-.752-.305l-.2-.093.202-.32a7.84 7.84 0 0 1 4.963-3.322 8.323 8.323 0 0 1 3.049-.115 6.297 6.297 0 0 1 2.806 1.123c-1.013.143-1.924.232-2.813.393-.886.146-1.74.319-2.583.534a31.774 31.774 0 0 0-5.055 1.802l.002-.413c.137.227.263.467.38.716ZM481.957 263.486c.708 1.083 1.408 2.162 2.184 3.187a41.719 41.719 0 0 0 2.372 3.02 52.11 52.11 0 0 0 5.395 5.43 68.509 68.509 0 0 1 5.653 5.328 21.89 21.89 0 0 1 2.35 3.138 13.348 13.348 0 0 1 1.483 3.601 19.076 19.076 0 0 0-4.39-6.209c-1.821-1.782-3.816-3.399-5.76-5.112a37.638 37.638 0 0 1-5.328-5.697 33.352 33.352 0 0 1-3.96-6.686Z" class="color015a9a svgShape"></path><path fill="#c80088" d="M503.52 305.669a11.343 11.343 0 0 1-2.278 3.816q-3.462 4.338-6.913 8.677l-1.457.903a65.104 65.104 0 0 1 1.139 9.95c.01 4.625-.174 7.282-2.462 11.303a1.893 1.893 0 0 1-.995 1.087 4.082 4.082 0 0 1-1.497.39 11.425 11.425 0 0 1-1.672.03 30.2 30.2 0 0 0-12.483 2.114 10.504 10.504 0 0 1-4.247 1.148 6.792 6.792 0 0 1-4.493-2.451c-.236-.236-.44-.482-.636-.708a10.348 10.348 0 0 1-8.944.36c-2.677-1.293-8.79-7.622-9.478-13.797-.45-4.144-.81-8.298-1.23-12.452a161.499 161.499 0 0 0-2.462-17.325c-.995-4.718-2.38-9.447-5.016-13.488-2.646-4.041-6.688-7.354-11.437-8.226-7.744-1.416-15.652 3.764-23.335 2.041-4.513-1.015-8.247-4.36-10.637-8.308-2.39-3.96-3.59-8.514-4.513-13.048-.646-3.18-1.18-6.441-2.626-9.354-1.436-2.913-3.97-5.488-7.16-6.072-1.794-.318-3.63 0-5.446-.144s-3.785-.944-4.441-2.636a6.065 6.065 0 0 1-.041-3.262 59.592 59.592 0 0 1 4.41-14.042 26.675 26.675 0 0 0-7.303 18.617l-.38-.267c-1.405 1.21-3.507.893-5.354 1.098a10.703 10.703 0 0 0-7.487 4.995 19.378 19.378 0 0 0-2.729 8.78 33.328 33.328 0 0 0 3.344 17.93l-3.293-4.75a81.49 81.49 0 0 1-10.657-37.551 29.813 29.813 0 0 1 1.416-11.58c1.692-4.503 5.087-8.155 8.739-11.294a69.812 69.812 0 0 1 40.27-16.596c3.528-.246 7.17-.215 10.472 1.046 3.119 1.18 5.724 3.365 8.257 5.529 17.95 15.314 35.203 31.49 54.036 45.727 7.385 5.59 15.119 10.975 20.853 18.258 4.37 5.559 7.405 12.031 10.4 18.432l8.216 17.54c.031.072.072.154.103.225 1.087 2.329 2.134 4.893 1.446 7.355Z" class="color0078c8 svgShape"></path><path fill="#b4027b" d="M357.164 242.527a59.66 59.66 0 0 1 2.681-7.027 26.442 26.442 0 0 0-5.696 9.238 11.074 11.074 0 0 1 3.015-2.21ZM349.917 255.398c.02-.224.05-.448.076-.672-1.03.15-2.147.106-3.185.222a8.9 8.9 0 0 0-2.743.8 80.845 80.845 0 0 0 5.903 12.83l3.293 4.75a33.328 33.328 0 0 1-3.344-17.93ZM502.073 298.314c-.03-.071-.072-.153-.103-.225l-8.216-17.54c-2.995-6.4-6.03-12.873-10.4-18.432-5.734-7.283-13.468-12.668-20.853-18.258-18.833-14.237-36.085-30.413-54.035-45.727-2.534-2.164-5.14-4.35-8.258-5.529-3.302-1.261-6.944-1.292-10.472-1.046a69.81 69.81 0 0 0-40.27 16.596 32.4 32.4 0 0 0-7.658 8.963 69.869 69.869 0 0 1 34.602-12.234c3.529-.246 7.17-.215 10.473 1.047 3.118 1.18 5.723 3.364 8.257 5.528 17.95 15.314 35.203 31.49 54.035 45.727 7.386 5.59 15.12 10.975 20.853 18.258 4.37 5.56 7.406 12.032 10.401 18.432l8.216 17.54c.031.072.072.154.103.226 1.087 2.328 2.133 4.893 1.446 7.354a11.339 11.339 0 0 1-2.277 3.816q-3.462 4.339-6.913 8.677l-1.457.903a65.667 65.667 0 0 1 1.138 9.899 30.304 30.304 0 0 1 6.7-.463 11.436 11.436 0 0 0 1.672-.031 4.084 4.084 0 0 0 1.497-.39 1.892 1.892 0 0 0 .995-1.087c2.288-4.021 2.472-6.678 2.462-11.304a65.108 65.108 0 0 0-1.139-9.95l1.457-.902q3.446-4.339 6.913-8.677a11.35 11.35 0 0 0 2.277-3.816c.688-2.462-.359-5.026-1.446-7.355Z" class="color0268b4 svgShape"></path><path fill="#9a0169" d="M348.25 239.739a31.076 31.076 0 0 0 .888-3.914 12.632 12.632 0 0 1 1.326-4.041 5.92 5.92 0 0 1 3.578-2.82 5.021 5.021 0 0 1 4.245.609 7.506 7.506 0 0 0-3.685.848 5.92 5.92 0 0 0-2.411 2.37 33.311 33.311 0 0 0-1.568 3.495 8.383 8.383 0 0 1-2.373 3.453ZM349.913 224.279a8.23 8.23 0 0 1 .399-4.541 7.518 7.518 0 0 1 3.024-3.729 6.54 6.54 0 0 1 2.34-.897 6.927 6.927 0 0 1 2.442.057 20.357 20.357 0 0 1 4.224 1.52 30.956 30.956 0 0 1-4.37.033 6.522 6.522 0 0 0-3.58.986 8.603 8.603 0 0 0-2.686 2.718 20.544 20.544 0 0 0-1.793 3.853ZM376.376 201.933a3.783 3.783 0 0 1 1.631 1.155 5.102 5.102 0 0 1 .939 1.685 5.046 5.046 0 0 1 .252 1.913 3.752 3.752 0 0 1-.625 1.9 9.893 9.893 0 0 1-.927-1.644 15.192 15.192 0 0 1-.599-1.542 15.924 15.924 0 0 1-.434-1.596 10.133 10.133 0 0 1-.237-1.871ZM381.022 230.975c1.39.571 2.79 1.012 4.206 1.529a14.37 14.37 0 0 1 4.09 2.18 13.132 13.132 0 0 1 3.07 3.593 27.832 27.832 0 0 1 1.937 4.184 83.362 83.362 0 0 0 3.017 8.254 12.342 12.342 0 0 0 5.726 6.237 8.446 8.446 0 0 1-4.12-1.932 14.144 14.144 0 0 1-2.974-3.553 25.14 25.14 0 0 1-2.005-4.131l-1.519-4.182a18.924 18.924 0 0 0-4.156-7.299c-1.951-1.954-4.913-2.998-7.272-4.88ZM393.226 219.749a23.309 23.309 0 0 1 11.444 9.275 34.325 34.325 0 0 1 3.509 6.653 55.244 55.244 0 0 1 2.166 7.156c1.138 4.773 2.084 9.562 4.524 13.629a20.326 20.326 0 0 0 11.081 8.703 18.503 18.503 0 0 1-12.391-7.856 26.194 26.194 0 0 1-3.245-6.837c-.777-2.384-1.319-4.801-1.912-7.17a44.77 44.77 0 0 0-5.043-13.442 26.96 26.96 0 0 0-10.133-10.111ZM396.3 201.471a62.862 62.862 0 0 1 15.477 9.886 67.868 67.868 0 0 1 12.225 13.852 74.768 74.768 0 0 1 4.582 8.057c1.308 2.795 2.488 5.617 3.668 8.413a67.955 67.955 0 0 0 3.99 8.13 27.786 27.786 0 0 0 5.698 7.018 25.29 25.29 0 0 1-6.52-6.482 55.775 55.775 0 0 1-4.587-8.016c-1.362-2.748-2.57-5.543-3.948-8.226a77.973 77.973 0 0 0-4.55-7.79 72.992 72.992 0 0 0-5.409-7.22 75.355 75.355 0 0 0-6.192-6.583A86.67 86.67 0 0 0 396.3 201.47ZM476.058 263.483a51.292 51.292 0 0 0 7.418 12.507 133.543 133.543 0 0 1 8.643 11.985 39.037 39.037 0 0 1 3.178 6.822 33.974 33.974 0 0 1 1.58 7.35 31.613 31.613 0 0 1-1.884 14.65 40.076 40.076 0 0 0 .337-14.447 37.19 37.19 0 0 0-4.932-13.358c-2.44-4.142-5.46-7.994-8.19-12.103-2.722-4.085-5.199-8.55-6.15-13.406ZM452.548 290.738a53.166 53.166 0 0 1 3.386 13.01c.68 4.436 1.032 8.889 1.576 13.281a80.827 80.827 0 0 0 2.441 12.96 39.303 39.303 0 0 0 5.578 11.936 29.768 29.768 0 0 1-7.062-11.451 59.79 59.79 0 0 1-2.942-13.208c-.511-4.465-.777-8.916-1.135-13.338a98.878 98.878 0 0 0-1.842-13.19ZM457.589 277.806a22.936 22.936 0 0 1 5.222 6.258 38.207 38.207 0 0 1 3.27 7.533 125.123 125.123 0 0 1 3.603 15.89c.883 5.35 1.56 10.736 1.93 16.144.09 1.352.185 2.703.24 4.056.056 1.361.086 2.693.224 4.01a14.307 14.307 0 0 0 .84 3.845 6.372 6.372 0 0 0 2.407 3.08 6.219 6.219 0 0 1-1.684-1.163 7.605 7.605 0 0 1-1.224-1.682 14.277 14.277 0 0 1-1.31-3.934c-.478-2.728-.679-5.384-1.046-8.06-.684-5.339-1.438-10.664-2.348-15.964a276.292 276.292 0 0 0-1.42-7.94q-.719-3.97-1.703-7.843c-1.363-5.13-3.356-10.182-7.001-14.23ZM434.503 193.51a11.373 11.373 0 0 1 3.57-.737 8.624 8.624 0 0 1 3.732.646 7.693 7.693 0 0 1 3.045 2.33 6.244 6.244 0 0 1 1.381 3.45 18.504 18.504 0 0 0-2.498-2.342 12.561 12.561 0 0 0-2.714-1.6 16.494 16.494 0 0 0-3.075-.922c-1.098-.251-2.261-.437-3.441-.825ZM430.921 202.027a14.885 14.885 0 0 0 2.649 1.916 12.899 12.899 0 0 0 2.828 1.12c.51.158 1.055.313 1.58.49.263.093.528.18.789.282l.389.147c.126.05.009.021-.116.097-.112.076-.08.126-.037.08a.92.92 0 0 0 .162-.246c.129-.237.244-.482.358-.731.249-.496.454-1.017.71-1.562a5.965 5.965 0 0 1 .25 1.77c-.006.299-.03.598-.062.899a1.883 1.883 0 0 1-.13.54 1.276 1.276 0 0 1-.604.683 1.51 1.51 0 0 1-.94.098l-.425-.07c-.282-.042-.559-.102-.838-.155a19.136 19.136 0 0 1-1.664-.408 7.548 7.548 0 0 1-3.201-1.788 5.635 5.635 0 0 1-1.698-3.162ZM455.196 194.453a27.678 27.678 0 0 1-5.97 7.823c-1.284 1.138-2.795 1.888-3.911 2.838a6.1 6.1 0 0 0-1.388 1.544 6.184 6.184 0 0 0-.731 1.945c-.65 2.82.392 6.004.526 9.332a31.437 31.437 0 0 1-.102 4.935c-.096.822-.192 1.62-.36 2.444a2.506 2.506 0 0 1-.56 1.186 1.223 1.223 0 0 1-1.171.386 1.075 1.075 0 0 0 .934-.573 2.135 2.135 0 0 0 .247-1.07 40.818 40.818 0 0 0-.072-2.398 48.907 48.907 0 0 0-.47-4.752c-.238-1.569-.567-3.097-.874-4.738a14.087 14.087 0 0 1-.053-5.172 8.148 8.148 0 0 1 1.025-2.55 7.414 7.414 0 0 1 1.882-2.004c1.436-1.044 2.88-1.697 4.127-2.583a50.046 50.046 0 0 0 6.921-6.593ZM391.841 268.215c1.218 2.995 2.273 6.007 3.394 9a17.828 17.828 0 0 0 1.99 4.22 6.277 6.277 0 0 0 3.716 2.632 5.594 5.594 0 0 1-4.331-2.152 14.098 14.098 0 0 1-2.313-4.353 46.994 46.994 0 0 1-2.456-9.347ZM378.565 316.397a133.444 133.444 0 0 0 11.404-9.613l5.486-5.075 5.53-5.03q5.559-4.99 11.03-10.056l5.429-5.129a27.26 27.26 0 0 1 5.951-4.598 35.446 35.446 0 0 0-5.24 5.276 142.871 142.871 0 0 1-5.043 5.562c-3.45 3.63-7.092 7.065-10.786 10.428-3.73 3.33-7.466 6.618-11.338 9.796a68.99 68.99 0 0 1-12.423 8.44ZM395.717 337.349l-1.249 1.174-.148-.175c4.157-4.08 8.095-8.345 11.936-12.685l2.847-3.284 2.788-3.335 2.751-3.363 2.69-3.413c3.573-4.562 6.993-9.244 10.332-13.989q4.975-7.14 9.703-14.493a141.715 141.715 0 0 1-8.42 15.343c-3.096 4.956-6.47 9.736-10.042 14.363l-2.738 3.424-2.811 3.364c-1.928 2.2-3.88 4.375-5.907 6.482a122.442 122.442 0 0 1-12.978 11.76l-.149-.176ZM382.331 316.805a99.567 99.567 0 0 1 7.034 7.944 98.425 98.425 0 0 1 6.255 8.57 98.695 98.695 0 0 1-7.034-7.944 99.825 99.825 0 0 1-6.255-8.57ZM385.816 312.686a80.675 80.675 0 0 1 6.004 7.418 79.732 79.732 0 0 1 5.194 8.006 79.813 79.813 0 0 1-6.003-7.418 80.689 80.689 0 0 1-5.195-8.006ZM389.64 311.245c2.18 2.325 4.15 4.789 6.104 7.268 1.931 2.498 3.842 5.008 5.565 7.688a68.708 68.708 0 0 1-11.668-14.956Z" class="color015a9a svgShape"></path><path fill="#9a0169" d="M391.68 308.564a99.173 99.173 0 0 1 7.31 7.644 98.052 98.052 0 0 1 6.556 8.3 97.797 97.797 0 0 1-7.31-7.644 98.957 98.957 0 0 1-6.555-8.3ZM395.822 305.38c2.276 2.527 4.404 5.128 6.585 7.692 2.158 2.583 4.36 5.12 6.463 7.793a56.173 56.173 0 0 1-13.048-15.484ZM400.15 301.297c2.247 2.154 4.301 4.446 6.352 6.746 2.03 2.32 4.048 4.643 5.905 7.14a61.523 61.523 0 0 1-12.257-13.886ZM404.938 299.04c2.145 2.39 4.204 4.786 6.38 7.089 2.154 2.323 4.408 4.536 6.648 6.837a38.998 38.998 0 0 1-13.028-13.926ZM408.34 294.918a70.835 70.835 0 0 1 6.41 6.224 69.98 69.98 0 0 1 5.673 6.9 69.826 69.826 0 0 1-6.409-6.223 70.612 70.612 0 0 1-5.673-6.901ZM412.245 291.414c2.175 1.925 4.164 3.993 6.15 6.068 1.965 2.096 3.92 4.194 5.723 6.474a53.256 53.256 0 0 1-11.873-12.542ZM415.791 287.707c2.022 1.965 3.85 4.063 5.675 6.167 1.803 2.125 3.596 4.251 5.227 6.552a50.157 50.157 0 0 1-10.902-12.719ZM417.939 284.372c1.852 1.776 3.543 3.638 5.273 5.474 1.708 1.857 3.443 3.677 5.078 5.655a33.753 33.753 0 0 1-10.351-11.129ZM421.498 281.749a53.34 53.34 0 0 1 5.391 5.576 52.71 52.71 0 0 1 4.629 6.222 52.734 52.734 0 0 1-5.39-5.575 53.338 53.338 0 0 1-4.63-6.223ZM426.94 281.311a18.014 18.014 0 0 1 6.633 8.525c-1.266-1.343-2.342-2.756-3.45-4.157-1.085-1.42-2.19-2.812-3.183-4.368ZM430.11 279.962a11.756 11.756 0 0 1 4.468 6.959 27.45 27.45 0 0 1-2.443-3.346 28.052 28.052 0 0 1-2.024-3.613ZM256.116 419.604a70.305 70.305 0 0 0-5.314-5.255 10.968 10.968 0 0 0-6.599-2.695l-.45-.024-.534-.053a4.603 4.603 0 0 1-1.012-.29 7.252 7.252 0 0 1-1.735-1.03c-1.043-.8-1.92-1.722-2.822-2.551a14.621 14.621 0 0 0-1.372-1.152 7.8 7.8 0 0 0-.714-.464l-.833-.49a82.474 82.474 0 0 1-3.173-2.067 137.803 137.803 0 0 1-6.13-4.394 62.646 62.646 0 0 1-5.856-4.892 9.092 9.092 0 0 1-.697-.768 2.477 2.477 0 0 1-.355-.546 2.104 2.104 0 0 1-.235-.65 4.92 4.92 0 0 1 .108-2.313 18.616 18.616 0 0 1 1.52-3.661c.577-1.125 1.234-2.236 1.714-3.275a15.8 15.8 0 0 1 2.032-3.41c1.632-2.066 3.425-3.773 5.126-5.61l5.173-5.433 2.601-2.703 1.3-1.352.67-.687a6.564 6.564 0 0 1 .836-.685 17.57 17.57 0 0 1 3.49-1.837 11.51 11.51 0 0 1 3.935-.944 2.562 2.562 0 0 1 1.226.348 7.163 7.163 0 0 1 .88.55c.54.383 1.038.781 1.527 1.188.975.811 1.918 1.64 2.847 2.478 1.864 1.667 3.712 3.34 5.672 4.84a15.716 15.716 0 0 0 3.1 1.941c1.115.546 2.265 1.046 3.39 1.623a11.698 11.698 0 0 1 3.114 2.175 9.473 9.473 0 0 1 1.953 3.214 9.32 9.32 0 0 0-2.163-2.997 11.406 11.406 0 0 0-3.133-1.914c-1.134-.498-2.308-.927-3.471-1.412a16.633 16.633 0 0 1-3.363-1.835c-2.087-1.444-4.017-3.058-5.952-4.64-.969-.791-1.925-1.59-2.897-2.347a23.567 23.567 0 0 0-1.468-1.07 5.75 5.75 0 0 0-.72-.424.859.859 0 0 0-.29-.12.459.459 0 0 1-.095-.035.95.95 0 0 0-.167-.002 10.292 10.292 0 0 0-3.284.933 16.331 16.331 0 0 0-3.105 1.707 4.913 4.913 0 0 0-.606.512l-.626.668-1.275 1.376-2.55 2.751-5.128 5.475c-1.687 1.839-3.506 3.616-4.964 5.488a13.729 13.729 0 0 0-1.816 3.007c-.58 1.226-1.213 2.264-1.782 3.361a16.939 16.939 0 0 0-1.383 3.24 3.128 3.128 0 0 0-.11 1.39.484.484 0 0 0 .077.227.72.72 0 0 0 .15.239 7.343 7.343 0 0 0 .553.628 61.512 61.512 0 0 0 5.567 4.82q2.933 2.3 5.951 4.503a81.132 81.132 0 0 0 3.049 2.124l.768.485a9.228 9.228 0 0 1 .841.582 14.466 14.466 0 0 1 1.449 1.318c.898.903 1.715 1.833 2.629 2.596a6.184 6.184 0 0 0 1.438.946 3.56 3.56 0 0 0 .774.26l.397.059.485.053a10.922 10.922 0 0 1 3.731 1.069 13.585 13.585 0 0 1 3.136 2.198 53.76 53.76 0 0 1 4.97 5.655Z" class="color015a9a svgShape"></path><path fill="#9a0169" d="M253.729 396.853a18.686 18.686 0 0 1 .483-5.91 23.947 23.947 0 0 1 5.465-10.512 18.604 18.604 0 0 1 4.565-3.786c-1.162 1.605-2.288 3.15-3.328 4.739a57.37 57.37 0 0 0-5.218 10.023c-.706 1.764-1.323 3.573-1.967 5.446ZM253.154 376.151c-.888 2.043-1.928 3.976-2.994 5.884-1.057 1.914-2.182 3.777-3.284 5.65l-1.688 2.786c-.58.913-1.096 1.843-1.608 2.769a18.36 18.36 0 0 0-2.034 6.055 11.587 11.587 0 0 1 .607-6.686 38.162 38.162 0 0 1 3.01-5.952 65.774 65.774 0 0 1 3.694-5.47 47.088 47.088 0 0 1 4.297-5.036ZM232.644 394.495a24.612 24.612 0 0 1 .604-7.227 30.706 30.706 0 0 1 6.443-12.991 24.507 24.507 0 0 1 5.392-4.85c-1.465 1.923-2.862 3.817-4.14 5.78a60.629 60.629 0 0 0-6.202 12.493c-.791 2.205-1.454 4.465-2.097 6.795ZM227.5 388.801a12.128 12.128 0 0 1 .204-4.093 16.58 16.58 0 0 1 3.551-7.32 12.057 12.057 0 0 1 3.093-2.69c-.579 1.26-1.2 2.412-1.798 3.562a147.623 147.623 0 0 0-3.366 6.925c-.535 1.181-1.054 2.381-1.684 3.616ZM243.869 411.183a27.406 27.406 0 0 0-1.987 4.993 13.1 13.1 0 0 0-.37 2.566c-.037.868.015 1.763.031 2.67a50.4 50.4 0 0 1-.054 5.522 5.766 5.766 0 0 0 .168 2.295 1.485 1.485 0 0 0 1.306.998 4.294 4.294 0 0 0 2.196-.544 10.762 10.762 0 0 0 2.135-1.459 47 47 0 0 0 10.751-12.138 39.764 39.764 0 0 0 4.4-9.717c1.024-3.414 1.73-7 2.664-10.518 1.851-7.039 3.864-14.038 6.245-20.944l.194.048c-1.157 7.214-2.682 14.335-4.37 21.415-.882 3.527-1.743 7.06-2.944 10.58a32.688 32.688 0 0 1-5.287 9.757c-2.242 2.923-4.677 5.64-7.138 8.342a160.711 160.711 0 0 1-3.767 4 11.803 11.803 0 0 1-2.19 1.849 5.54 5.54 0 0 1-2.966.992 3.15 3.15 0 0 1-1.75-.555 3.206 3.206 0 0 1-1.13-1.44 6.558 6.558 0 0 1-.283-3.096c.162-1.786.218-3.566.27-5.387a15.782 15.782 0 0 1 .875-5.56 20 20 0 0 1 2.83-4.774Z" class="color015a9a svgShape"></path><path d="M203.249 503.613a7.435 7.435 0 0 1 .781.08c.146.026.213.053.213.08.001.026-.068.052-.215.079a7.554 7.554 0 0 1-.79.08 7.404 7.404 0 0 1-.783-.08c-.146-.027-.213-.053-.21-.08.001-.026.07-.053.218-.08a7.587 7.587 0 0 1 .786-.079Z" fill="#000000" class="color000 svgShape"></path><path fill="#9a0169" d="M438.507 426.963c-2.83 9.06-6.084 18.173-11.573 26.162a50.668 50.668 0 0 1-4.559 5.638 44.323 44.323 0 0 1-5.435 4.829 48.182 48.182 0 0 1-12.776 6.785 56.814 56.814 0 0 1-6.938 2.001 67.175 67.175 0 0 1-7.092 1.234 103.094 103.094 0 0 1-14.316.623c-9.544-.166-19.022-1.29-28.487-2.236-4.733-.484-9.472-.927-14.202-1.447-4.725-.509-9.48-.963-14.213-1.803a75.531 75.531 0 0 1-13.924-3.803 121.248 121.248 0 0 1-13.09-5.958c-8.445-4.478-16.685-9.188-25.013-13.807-8.292-4.67-16.567-9.37-24.777-14.191l.096-.176c17.04 8.479 33.882 17.418 50.672 26.278 8.406 4.333 17.092 8.147 26.374 9.807 4.632.87 9.344 1.447 14.063 2.078 4.72.607 9.43 1.291 14.144 1.935 9.423 1.288 18.862 2.626 28.365 2.675a74.874 74.874 0 0 0 27.755-4.769 52.988 52.988 0 0 0 12.302-6.648 45.68 45.68 0 0 0 9.788-9.943c5.568-7.596 9.126-16.514 12.648-25.33ZM364.782 476.271a63.123 63.123 0 0 1 .88 7.03c.193 2.345.27 4.692.324 7.039.017 2.347.008 4.695-.117 7.044a62.445 62.445 0 0 1-.678 7.053 62.449 62.449 0 0 1-.882-7.03c-.193-2.345-.27-4.692-.321-7.039-.015-2.347-.006-4.695.12-7.044a63.182 63.182 0 0 1 .674-7.053ZM385.281 474.588c.247 2.491.334 4.96.39 7.425.067 2.465.055 4.923.056 7.382-.035 2.459-.058 4.917-.161 7.38-.09 2.464-.215 4.932-.5 7.419a53.989 53.989 0 0 1-1.06-7.383c-.216-2.473-.278-4.952-.277-7.43.038-2.479.136-4.957.388-7.426a54.489 54.489 0 0 1 1.164-7.367ZM389.344 473.775c.192 2.96.245 5.896.273 8.83.04 2.934.009 5.861-.005 8.79-.05 2.928-.083 5.856-.188 8.788-.092 2.932-.211 5.867-.472 8.822a70.609 70.609 0 0 1-1.088-8.793c-.213-2.943-.265-5.892-.25-8.84.053-2.946.17-5.893.45-8.83a71.157 71.157 0 0 1 1.28-8.767ZM285.826 470.205c-1.443 2.788-2.82 5.553-4.05 8.376a91.837 91.837 0 0 0-5.605 17.504c-.64 3.012-1.126 6.063-1.574 9.17a39.681 39.681 0 0 1 .034-9.421 48.726 48.726 0 0 1 5.75-17.94 39.833 39.833 0 0 1 5.445-7.689ZM486.325 418.623c-.37 3.89-.973 7.734-1.31 11.61l-.502 5.81-.254 2.902-.148 2.91-.315 5.812-.102 5.818-.061 2.907.045 2.908c.043 1.937.049 3.876.122 5.812l.292 5.806c.075 1.938.326 3.861.463 5.794.128 1.935.367 3.858.602 5.782l.345 2.887.426 2.876.433 2.877.52 2.861c.308 1.918.745 3.807 1.137 5.71a93.563 93.563 0 0 0 3.075 11.243 97.239 97.239 0 0 1-6.703-22.43 162.09 162.09 0 0 1-2.587-23.332c-.059-1.956-.05-3.915-.077-5.872l-.022-2.936.102-2.934.244-5.864.511-5.846.265-2.92c.108-.97.254-1.938.39-2.906l.833-5.801c.267-1.934.733-3.838 1.09-5.755q.56-2.874 1.186-5.73Z" class="color015a9a svgShape"></path><path fill="#f2a2e4" d="M209.535 177.268c-3.04-1.426-5.505-.197-5.908-.492-3.55-2.604-2.748-10.748-16.986-9.62-4.062.321-6.602 2.906-7.877 2.48-1.866-.622-1.122-4.667-2.462-9.354-.166-.582-2.492-8.299-9.6-12.555-1.337-.8-8.628-5.165-15.264-1.97a14.134 14.134 0 0 0-6.318 6.669 874.296 874.296 0 0 1-2.422 11.52c-.02 1.625-.009 2.69-.368 2.737a.262.262 0 0 1-.214-.116 292.283 292.283 0 0 1-1.796 7.513c-.699 2.75-1.46 5.484-2.255 8.208 35.068.786 82.287 1.337 91.657-1.081 3.736-.964-12.415-.295-20.187-3.94Z" class="color98bce5 svgShape"></path><path fill="#f090d9" d="M330.11 117.051c2.576-.665-8.56-.203-13.92-2.716-2.097-.983-3.796-.136-4.074-.34-2.448-1.795-1.895-7.41-11.713-6.633-2.801.222-4.552 2.004-5.432 1.71-1.287-.428-.774-3.218-1.698-6.45a16.017 16.017 0 0 0-6.62-8.657c-.921-.552-5.949-3.562-10.525-1.358-3.868 1.863-5.119 6.347-5.432 7.469-.983 3.524-.31 6.889-.849 6.96-.242.031-.404-.644-1.188-2.037-.925-1.645-1.46-2.598-2.376-3.226-1.376-.943-3.641-1.176-4.923-.17-.712.56-1.04 1.561-1.698 3.565-.548 1.673-.6 2.477-1.018 2.547-.595.1-.823-1.469-2.207-2.547-1.55-1.206-4.218-1.544-5.602-.34-.95.827-1.067 2.18-1.188 3.566-.22 2.508.555 3.901 0 4.243-.79.487-2.665-2.136-4.074-1.527a2.304 2.304 0 0 0-1.019 1.358c-.408 1.064-.014 1.721-.17 2.376-.182.767-1.147 1.658-4.583 2.207 0 0 79.784 2.716 90.309 0ZM212.556 309.702c2.576-.665-8.56-.203-13.92-2.716-2.097-.984-3.796-.136-4.074-.34-2.448-1.795-1.895-7.41-11.713-6.634-2.8.222-4.552 2.005-5.432 1.711-1.287-.429-.773-3.218-1.697-6.45a16.018 16.018 0 0 0-6.62-8.658c-.922-.551-5.95-3.562-10.525-1.358-3.869 1.863-5.12 6.348-5.433 7.47-.983 3.524-.31 6.888-.848 6.96-.243.031-.405-.644-1.189-2.038-.924-1.645-1.46-2.597-2.376-3.225-1.376-.944-3.641-1.177-4.923-.17-.712.56-1.04 1.561-1.697 3.565-.549 1.673-.601 2.476-1.019 2.546-.594.1-.823-1.468-2.207-2.546-1.549-1.207-4.217-1.544-5.602-.34-.949.826-1.067 2.18-1.188 3.565-.219 2.51.555 3.902 0 4.244-.79.486-2.664-2.137-4.074-1.528a2.304 2.304 0 0 0-1.019 1.358c-.408 1.065-.014 1.722-.17 2.377-.181.766-1.147 1.657-4.583 2.207 0 0 79.785 2.716 90.31 0Z" class="colord5e3f4 svgShape"></path><path fill="#f2a2e4" d="M579.042 190.564c-5.61 2.702-7.423 9.205-7.877 10.831-1.426 5.111-.45 9.99-1.231 10.094-.351.046-.587-.934-1.723-2.955-1.342-2.385-2.118-3.766-3.447-4.677-1.995-1.368-5.28-1.706-7.139-.246-1.032.81-1.509 2.264-2.462 5.17-.795 2.426-.87 3.59-1.477 3.692-.861.145-1.192-2.129-3.2-3.692-2.246-1.75-6.116-2.24-8.124-.493-1.376 1.198-1.547 3.16-1.723 5.17-.317 3.638.805 5.658 0 6.154-1.144.705-3.864-3.098-5.908-2.215a3.34 3.34 0 0 0-1.477 1.969c-.592 1.544-.02 2.497-.246 3.446-.264 1.112-1.665 2.404-6.647 3.2 0 0 27.403.933 57.296 1.437 2.884-12.195 6.114-24.367 7.005-36.723-3.046-1.198-7.461-2.165-11.62-.162ZM489.324 79.994c3.736-.964-12.415-.295-20.187-3.939-3.04-1.426-5.505-.197-5.908-.492-3.55-2.604-2.748-10.748-16.986-9.62-4.062.321-6.602 2.906-7.877 2.48-1.866-.622-1.122-4.667-2.462-9.354-.166-.582-2.492-8.299-9.6-12.555-1.336-.8-8.628-5.165-15.264-1.97-5.61 2.703-7.423 9.206-7.877 10.832-1.426 5.111-.45 9.99-1.231 10.094-.351.046-.587-.934-1.723-2.954-1.342-2.386-2.118-3.767-3.447-4.678-1.995-1.368-5.28-1.706-7.139-.246-1.032.81-1.508 2.264-2.461 5.17-.796 2.426-.871 3.59-1.478 3.692-.861.145-1.192-2.129-3.2-3.692-2.246-1.75-6.116-2.24-8.124-.493-1.376 1.198-1.547 3.16-1.723 5.17-.317 3.638.805 5.658 0 6.154-1.144.705-3.864-3.098-5.908-2.215a3.34 3.34 0 0 0-1.477 1.97c-.592 1.543-.02 2.496-.246 3.446-.264 1.111-1.665 2.403-6.647 3.2 0 0 115.702 3.939 130.965 0Z" class="color98bce5 svgShape"></path><path fill="#ecb3b3" d="M577.72 476.527c-4.653-8.902-14.657-18.786-35.198-9.814a41.513 41.513 0 0 0-6.955 4.124c-1.281.89-3.7 1.616-7.785-.316-6.808-3.22-14.456-17.304-32.035-8.367s-22.826 14.618-28.173 12.455-13.59-7.263-23.433 6.267c-7.57 10.406-.009 23.676 3.889 29.253l83.19 1.583c5.14.098 10.45.165 15.2-1.801 5.476-2.267 9.525-6.942 13.36-11.459 6.012-7.078 12.095-14.39 17.94-21.925ZM299.273 497.258c-6.277-15.508-15.509-12.554-21.22-11.749-5.712.806-9.428-5.975-24.324-18.9s-25.723-1.107-33.108.37c-4.431.886-6.603-.403-7.63-1.576a41.643 41.643 0 0 0-5.825-5.74c-28.361-21.764-42.26 9.645-42.64 10.52a110.784 110.784 0 0 0 13.663 20.942c5.379 6.476 12.73 12.817 21.092 11.844 14.837 2.695 32.543 3.047 50.098 3.38l50.707.965a16.8 16.8 0 0 0-.813-10.056Z" class="colorb3ceec svgShape"></path><path fill="#f090d9" d="M501.003 119.886a28.513 28.513 0 0 1 4.09-34.465 28.505 28.505 0 1 0 28.141 47.338 28.513 28.513 0 0 1-32.23-12.873ZM230.93 219.749a3.843 3.843 0 1 1-3.843-3.843 3.843 3.843 0 0 1 3.842 3.843Z" class="colord5e3f4 svgShape"></path><circle cx="550.874" cy="421.098" r="3.843" fill="#f090d9" class="colord5e3f4 svgShape"></circle><circle cx="264.242" cy="162.293" r="2.046" fill="#f2a2e4" class="color98bce5 svgShape"></circle><circle cx="590.662" cy="358.557" r="2.046" fill="#ecb3b3" class="colorb3ceec svgShape"></circle><circle cx="203.238" cy="269.399" r="2.046" fill="#ecb3b3" class="colorb3ceec svgShape"></circle><path fill="#ecb3b3" d="M549.078 246.01a2.046 2.046 0 1 1-2.046-2.047 2.046 2.046 0 0 1 2.046 2.047Z" class="colorb3ceec svgShape"></path><path fill="#f2a2e4" d="M155.83 214.518a2.046 2.046 0 1 1-2.046-2.046 2.046 2.046 0 0 1 2.047 2.046Z" class="color98bce5 svgShape"></path><circle cx="153.785" cy="374.699" r="3.843" fill="#f090d9" class="colord5e3f4 svgShape"></circle><circle cx="480.158" cy="220.091" r="3.843" fill="#f090d9" class="colord5e3f4 svgShape"></circle><circle cx="316.926" cy="145.212" r="3.843" fill="#f2a2e4" class="color98bce5 svgShape"></circle><circle cx="550.874" cy="320.644" r="3.843" fill="#f2a2e4" class="color98bce5 svgShape"></circle><circle cx="533.234" cy="153.784" r="3.843" fill="#f2a2e4" class="color98bce5 svgShape"></circle><circle cx="199.395" cy="94.532" r="3.843" fill="#ecb3b3" class="colorb3ceec svgShape"></circle><circle cx="122.247" cy="271.097" r="3.843" fill="#f2a2e4" class="color98bce5 svgShape"></circle><path fill="#9a0169" d="M539.519 476.092a98.277 98.277 0 0 1 1.362 30.276.75.75 0 1 1-1.491-.164l.005-.037a97.525 97.525 0 0 0 .124-30.075Z" class="color015a9a svgShape"></path><path fill="#9a0169" d="M552.008 476.015c-1.381 4.637-2.882 9.242-4.563 13.79-.848 2.272-1.742 4.53-2.74 6.754a37.913 37.913 0 0 1-3.55 6.484l-1.18-.926a36.844 36.844 0 0 0 3.716-6.046c1.095-2.137 2.099-4.33 3.058-6.545 1.905-4.435 3.64-8.952 5.259-13.511Z" class="color015a9a svgShape"></path><path fill="#9a0169" d="M533.66 492.574a25.683 25.683 0 0 0 3.31 5.091 36.569 36.569 0 0 0 4.122 4.382l-1.054 1.066a37.594 37.594 0 0 1-3.68-5.015 26.033 26.033 0 0 1-2.698-5.524ZM479.491 477.524a97.517 97.517 0 0 0 .124 30.075.75.75 0 1 1-1.482.239l-.005-.037a98.269 98.269 0 0 1 1.363-30.277Z" class="color015a9a svgShape"></path><path fill="#9a0169" d="M467.002 477.448c1.618 4.559 3.354 9.075 5.259 13.51.959 2.215 1.963 4.408 3.058 6.545a36.856 36.856 0 0 0 3.716 6.047l-1.18.925a37.925 37.925 0 0 1-3.55-6.484c-.998-2.224-1.893-4.481-2.74-6.753-1.681-4.549-3.182-9.153-4.563-13.79Z" class="color015a9a svgShape"></path><path fill="#9a0169" d="M485.35 494.006a26.034 26.034 0 0 1-2.698 5.525 37.603 37.603 0 0 1-3.68 5.015l-1.055-1.067a36.551 36.551 0 0 0 4.122-4.381 25.683 25.683 0 0 0 3.31-5.092ZM200.508 470.205a45.447 45.447 0 0 0-.33 26.203.75.75 0 1 1-1.441.42l-.01-.042a46.193 46.193 0 0 1 1.781-26.581Z" class="color015a9a svgShape"></path><path fill="#9a0169" d="M188.723 483.55a44.954 44.954 0 0 1 10.422 8.294l-1.152.96a44.199 44.199 0 0 0-9.27-9.253Z" class="color015a9a svgShape"></path><path fill="#9a0169" d="M210.33 476.797a6.7 6.7 0 0 0-4.487 2.771 22.374 22.374 0 0 0-2.832 4.607 44.693 44.693 0 0 0-3.364 10.261l-1.465-.323a45.8 45.8 0 0 1 4.164-10.284 22.912 22.912 0 0 1 3.217-4.51 10.256 10.256 0 0 1 2.143-1.76 5.248 5.248 0 0 1 2.625-.762ZM256.48 479.845a36.856 36.856 0 0 1 1.566 21.207.75.75 0 1 1-1.465-.325.908.908 0 0 1 .013-.053 36.107 36.107 0 0 0-.114-20.829Z" class="color015a9a svgShape"></path><path fill="#9a0169" d="M265.864 490.473a35.096 35.096 0 0 0-7.264 7.467l-1.153-.96a35.849 35.849 0 0 1 8.417-6.507Z" class="color015a9a svgShape"></path><path fill="#9a0169" d="M248.657 485.095a5.645 5.645 0 0 1 3.82 1.99 18.455 18.455 0 0 1 2.603 3.579 33.505 33.505 0 0 1 1.945 3.977 35.458 35.458 0 0 1 1.456 4.211l-1.465.323a34.983 34.983 0 0 0-2.601-8.164 17.911 17.911 0 0 0-2.217-3.675 5.466 5.466 0 0 0-3.541-2.241ZM222.903 382.339a71.684 71.684 0 0 1-6.981-7.306 70.944 70.944 0 0 1-5.942-8.212 73.422 73.422 0 0 1-2.537-4.402 5.61 5.61 0 0 1-.933-2.651 2.617 2.617 0 0 1 .583-1.555 4.457 4.457 0 0 1 1.151-.941c.785-.471 1.56-.784 2.146-1.212a2.065 2.065 0 0 0 .971-1.574c.099-.696-.002-1.512.021-2.428a5.18 5.18 0 0 1 .226-1.48 3 3 0 0 1 .985-1.404 7.425 7.425 0 0 1 2.63-1.002 2.192 2.192 0 0 0 .817-.382 1.054 1.054 0 0 0 .334-.6c.143-.58.016-1.397.098-2.401a2.812 2.812 0 0 1 .693-1.687 2.67 2.67 0 0 1 1.684-.77 7.122 7.122 0 0 0 1.086-.143.933.933 0 0 0 .488-.389 1.878 1.878 0 0 0 .2-1.569l-.217-.532c-.082-.211-.182-.412-.247-.633a10.792 10.792 0 0 1-.383-1.326 8.079 8.079 0 0 1-.136-2.85 6.73 6.73 0 0 1 3.164-4.743 9.25 9.25 0 0 1 2.583-1.124 7.957 7.957 0 0 1 1.414-.25 3.838 3.838 0 0 1 1.698.178 1.578 1.578 0 0 1 .656.468 1.743 1.743 0 0 1 .285.563l.214.58.452 1.148q.466 1.143.996 2.259a50.273 50.273 0 0 0 2.346 4.349l-1.74.621a27.933 27.933 0 0 1-.018-6.285 10.348 10.348 0 0 1 .865-3.187 4.26 4.26 0 0 1 1.133-1.471 3.084 3.084 0 0 1 1.863-.685 5.365 5.365 0 0 1 1.785.321c.277.136.561.258.823.419a6.865 6.865 0 0 1 .708.611 5.964 5.964 0 0 1 1.297 3.144c.295 2.11.163 4.135.423 6.076a11 11 0 0 0 .263 1.421l.204.68.26.715 1.022 2.864q1.01 2.869 1.959 5.76a29.961 29.961 0 0 1 .85 2.923c.284.973.561 1.949.817 2.93.259.981.494 1.97.695 2.963a12.597 12.597 0 0 1 .333 3.016 22.186 22.186 0 0 0-1.316-5.895c-.307-.962-.638-1.917-.975-2.87-.408-.93-.735-1.885-1.077-2.835q-1.04-2.848-2.151-5.67l-1.12-2.818-.283-.704-.26-.765a12.132 12.132 0 0 1-.344-1.55c-.343-2.067-.289-4.124-.628-6.018a4.633 4.633 0 0 0-1.028-2.372c-.137-.14-.307-.235-.451-.363-.172-.093-.363-.16-.538-.248a3.982 3.982 0 0 0-1.19-.178 1.901 1.901 0 0 0-1.591 1.314 8.771 8.771 0 0 0-.633 2.67 26.265 26.265 0 0 0 .174 5.832l.542 4.142-2.282-3.52a42.19 42.19 0 0 1-2.488-4.5q-.559-1.16-1.052-2.35l-.478-1.197-.227-.602c-.014-.086-.148-.302.026-.008a.614.614 0 0 0 .137.126 2.377 2.377 0 0 0-.793-.034 6.005 6.005 0 0 0-1.065.197 7.267 7.267 0 0 0-2.019.89 4.794 4.794 0 0 0-2.305 3.349 6.139 6.139 0 0 0 .089 2.158 8.844 8.844 0 0 0 .305 1.098c.051.184.139.362.207.544l.25.637a3.733 3.733 0 0 1-.46 3.26 2.812 2.812 0 0 1-1.486 1.1 7.57 7.57 0 0 1-1.408.198c-.36.046-.48.097-.585.201a1.046 1.046 0 0 0-.217.614 18.327 18.327 0 0 1-.188 2.624 2.817 2.817 0 0 1-.942 1.52 3.844 3.844 0 0 1-1.446.685 6.712 6.712 0 0 0-2.089.673 1.95 1.95 0 0 0-.613 1.626 20.33 20.33 0 0 1-.111 2.61 3.863 3.863 0 0 1-.554 1.466 3.966 3.966 0 0 1-1.111 1.065c-.8.532-1.616.82-2.281 1.2-.688.374-1.112.793-1.14 1.361a4.713 4.713 0 0 0 .718 2.054c.731 1.5 1.52 2.972 2.355 4.419a84.663 84.663 0 0 0 5.51 8.382 85.637 85.637 0 0 0 6.525 7.666Z" class="color015a9a svgShape"></path></svg></g></svg>