<svg xmlns="http://www.w3.org/2000/svg" data-name="Layer 1" viewBox="0 0 32 32"><path fill="#22b573" d="M16.707 15.294a1 1 0 0 0-1.414 0L11 19.587l-.793-.793a1 1 0 1 0-1.414 1.414l.793.792L4.5 26.087l-.793-.793a1 1 0 1 0-1.414 1.414l.793.793-2.793 2.793a1 1 0 1 0 1.414 1.414L7.5 25.915l.793.793a1 1 0 0 0 1.414-1.414l-.793-.794 7.793-7.793a1 1 0 0 0 0-1.413Z"/><path fill="#ed6279" d="M28.03 3.971c5.03 5.04 2.15 7.91 2.15 7.91L23 9l-2.88-7.18s2.87-2.879 7.91 2.151Z"/><path fill="#b20b1f" d="m30.18 11.881-5.03 5.04a7.14 7.14 0 0 1-10.07 0L23 9Z"/><path fill="#d82e42" d="M20.12 1.821 23 9l-7.92 7.92a7.14 7.14 0 0 1 0-10.07Z"/></svg>