<svg xmlns="http://www.w3.org/2000/svg" data-name="Layer 1" viewBox="0 0 222 222"><defs><clipPath id="a"><path fill="none" d="m147.773 107.519 8.249 7.528a7.205 7.205 0 0 1 1.772 8.106c-2.238 5.372-6.777 12.153-13.786 4.14 0 0-4.89-7.493-4.89-8.046s7.01-3.113 7.01-3.113Z"/></clipPath><clipPath id="b"><path fill="none" d="m73.987 106.87-9.226 6.295a7.205 7.205 0 0 0-2.894 7.776c1.46 5.634 5 12.985 13.066 6.038 0 0 5.897-6.732 5.974-7.28s-6.502-4.067-6.502-4.067Z"/></clipPath></defs><path fill="#e8f0fc" d="M145.18 52.47 87.79 36.66l46.93 1.86 10.46 13.95zM166.51 80.91 56.97 50.74l8.24-14.98 9.49.38 75.11 22.5 16.7 22.27zM189.32 111.33 47.08 68.73l8.56-15.55 116.17 34.81 17.51 23.34zM80.42 174.34l34.11 10.22-27.25-1.08-6.86-9.14zM163.06 174.83l-6.27 11.41-20.43-.81h-.01l-60-16.53-16.97-22.62 103.68 28.55zM173.08 156.61l-8.55 15.54-110.59-33.13-17.51-23.35 136.65 40.94zM184.61 135.63l-8.57 15.59-142.34-39.2-6.01-8.01 5.54-10.08 151.38 41.7zM194.31 117.99l-8.3 15.1L36.35 88.25 44 74.34l148.19 40.82 2.12 2.83z"/><path fill="#fff" d="m87.79 36.66-13.09-.52-.42-.13h11.16l2.35.65z"/><path fill="#f49d1a" d="M115.082 160.745h13.766l.01.053a10.746 10.746 0 0 0 5.27 7.298c5.364 2.99 14.513 7.488 21.756 7.966h-42.94v-13.178a2.139 2.139 0 0 1 2.138-2.14Z"/><path fill="#f9bc40" d="m136.54 160.745 8.653 4.687h7.54a10.63 10.63 0 0 1 10.63 10.63h-50.42v-13.178a2.139 2.139 0 0 1 2.14-2.14Z"/><path fill="#fdd39d" d="M116.344 116.212h18.91v39.84h-18.91z"/><path fill="#5ba6e2" d="M116.39 153.85h18.81a1.34 1.34 0 0 1 1.34 1.34v5.555h-21.49v-5.554a1.34 1.34 0 0 1 1.34-1.34ZM161.27 179.311h-46.665a2 2 0 0 1-2-2v-1.25h50.665v1.25a2 2 0 0 1-2 2Z"/><path fill="#e42e21" d="M145.193 165.432h7.54a10.63 10.63 0 0 1 10.63 10.63h-18.17Z"/><path fill="#e42e21" d="M145.193 165.432h7.54a10.63 10.63 0 0 1 10.63 10.63h-18.17Z"/><path fill="#4481d1" d="M126.63 179.311h-12.025a2 2 0 0 1-2-2v-1.25h15.88a22.756 22.756 0 0 1-1.855 3.25Z"/><path fill="#4481d1" d="M158.242 179.311h-43.637a2 2 0 0 1-2-2v-1.25h43.28a16.938 16.938 0 0 0 2.457 0 8.014 8.014 0 0 1-.1 3.25Z"/><path fill="#c71b21" d="M155.884 176.062h-10.69v-2.69a37.904 37.904 0 0 0 10.69 2.69Z"/><path fill="#fff" d="M160.992 173.472a.749.749 0 0 1-.65-.374c-.028-.047-2.82-4.774-6.827-5.06a.75.75 0 1 1 .105-1.496c4.808.342 7.892 5.582 8.02 5.805a.75.75 0 0 1-.648 1.125Z"/><path fill="#4481d1" d="M112.605 177.311v-1.25h46.4a7.428 7.428 0 0 1-.158 3.25h-44.242a2 2 0 0 1-2-2Z"/><path fill="#f49d1a" d="M115.082 160.745h6.03a7.455 7.455 0 0 0 .14 4.448 10.067 10.067 0 0 0 3.545 4.613c7.926 6.027 19.168-2.435 29.898 3.436a18.22 18.22 0 0 1 3.84 2.82h-45.591v-13.178a2.139 2.139 0 0 1 2.138-2.14Z"/><path fill="#c71b21" d="M154.695 173.242a18.22 18.22 0 0 1 3.84 2.82h-13.342v-5.01a18.948 18.948 0 0 1 9.502 2.19Z"/><path fill="#e9b77a" d="M123.478 140.264c-1.217 4.297 1.043 5.43-.077 12.154a30.31 30.31 0 0 1-.847 3.634h-6.21v-37.971a19.696 19.696 0 0 1 3.382-1.869h15.528v12.646c-8.244 3.914-10.877 8.228-11.776 11.406Z"/><path fill="#4481d1" d="M115.38 154.336c.02-.023.03-.052.05-.073a1.345 1.345 0 0 1 .913-.403c.017 0 .03-.01.047-.01h6.73c-.642 2.93-1.557 4.995-2.008 6.895h-6.062v-5.554a1.333 1.333 0 0 1 .104-.513 1.318 1.318 0 0 1 .226-.342Z"/><path fill="#f49d1a" d="M106.918 160.745H93.152l-.01.053a10.746 10.746 0 0 1-5.27 7.298c-5.364 2.99-14.513 7.488-21.756 7.966h42.94v-13.178a2.139 2.139 0 0 0-2.138-2.14Z"/><path fill="#f9bc40" d="m85.46 160.745-8.653 4.687h-7.54a10.63 10.63 0 0 0-10.63 10.63h50.42v-13.178a2.139 2.139 0 0 0-2.14-2.14Z"/><path fill="#fdd39d" d="M86.746 116.212h18.91v39.84h-18.91z"/><path fill="#5ba6e2" d="M106.95 160.745H85.46v-5.554a1.34 1.34 0 0 1 1.34-1.34h18.81a1.34 1.34 0 0 1 1.34 1.34v5.554ZM58.73 176.062h50.665v1.25a2 2 0 0 1-2 2H60.73a2 2 0 0 1-2-2v-1.25Z"/><path fill="#e42e21" d="M76.807 165.432h-7.54a10.63 10.63 0 0 0-10.63 10.63h18.17Z"/><path fill="#e42e21" d="M76.807 165.432h-7.54a10.63 10.63 0 0 0-10.63 10.63h18.17Z"/><path fill="#4481d1" d="M95.37 179.311h12.025a2 2 0 0 0 2-2v-1.25h-15.88a22.756 22.756 0 0 0 1.855 3.25Z"/><path fill="#4481d1" d="M63.758 179.311h43.637a2 2 0 0 0 2-2v-1.25h-43.28a16.938 16.938 0 0 1-2.457 0 8.014 8.014 0 0 0 .1 3.25Z"/><path fill="#c71b21" d="M66.116 176.062h10.69v-2.69a37.904 37.904 0 0 1-10.69 2.69Z"/><path fill="#fff" d="M61.008 173.472a.75.75 0 0 1-.649-1.125c.13-.223 3.213-5.463 8.02-5.805a.75.75 0 1 1 .106 1.497c-4.022.286-6.8 5.01-6.827 5.059a.752.752 0 0 1-.65.374Z"/><path fill="#4481d1" d="M109.395 177.311v-1.25h-46.4a7.428 7.428 0 0 0 .158 3.25h44.242a2 2 0 0 0 2-2Z"/><path fill="#f49d1a" d="M106.918 160.745h-6.03a7.455 7.455 0 0 1-.14 4.448 10.067 10.067 0 0 1-3.545 4.613c-7.926 6.027-19.168-2.435-29.898 3.436a18.22 18.22 0 0 0-3.84 2.82h45.591v-13.178a2.139 2.139 0 0 0-2.138-2.14Z"/><path fill="#c71b21" d="M67.305 173.242a18.22 18.22 0 0 0-3.84 2.82h13.342v-5.01a18.948 18.948 0 0 0-9.502 2.19Z"/><path fill="#e9b77a" d="M98.522 140.264c1.217 4.297-1.043 5.43.077 12.154a30.31 30.31 0 0 0 .847 3.634h6.21v-37.971a19.696 19.696 0 0 0-3.382-1.869H86.746v12.646c8.244 3.914 10.877 8.228 11.776 11.406Z"/><path fill="#4481d1" d="M106.62 154.336c-.02-.023-.03-.052-.05-.073a1.345 1.345 0 0 0-.913-.403c-.017 0-.03-.01-.047-.01h-6.73c.642 2.93 1.557 4.995 2.008 6.895h6.062v-5.554a1.333 1.333 0 0 0-.104-.513 1.318 1.318 0 0 0-.226-.342Z"/><path fill="#f73a5a" d="M111.282 137.157c10.376-5.328 20.62-10.67 26.143-14.996 10.623-8.32 16.607-13.006 20.517-21.84 1.52-3.434 5.69-13.25 2.316-24.82-.887-3.043-3.734-12.808-13.567-18.2-9.825-5.389-19.672-2.598-22.503-1.655a29.977 29.977 0 0 0-12.906 8.604 29.977 29.977 0 0 0-12.906-8.604c-2.831-.943-12.677-3.734-22.502 1.654-9.833 5.393-12.68 15.158-13.568 18.201-3.374 11.57.797 21.386 2.317 24.819 3.91 8.835 9.894 13.521 20.517 21.84 5.523 4.327 15.767 9.669 26.142 14.997Z"/><path fill="#db2d4e" d="M160.258 75.501a33.035 33.035 0 0 0-5.749-11.581c2.222 10.53-1.486 19.266-2.901 22.462-3.91 8.835-9.894 13.522-20.517 21.841q-.414.325-.863.657a42.654 42.654 0 0 1-50.559 0q-.449-.332-.863-.657c-7.7-6.03-12.955-10.157-16.757-15.333a43.098 43.098 0 0 0 2.573 7.43c3.91 8.835 9.894 13.521 20.518 21.84 5.523 4.327 15.767 9.669 26.142 14.997 10.376-5.328 20.62-10.67 26.143-14.996 10.623-8.32 16.607-13.006 20.517-21.84 1.52-3.434 5.69-13.25 2.316-24.82Z"/><path fill="#f95f81" d="M66.126 73.801a10.877 10.877 0 0 0-3.482.578 66.37 66.37 0 0 0-.338 1.122 34.049 34.049 0 0 0 .328 19.537A10.906 10.906 0 1 0 66.126 73.8ZM159.77 95.559a34.211 34.211 0 0 0 .488-20.058 54.14 54.14 0 0 0-.502-1.638 10.908 10.908 0 0 0 .015 21.696Z"/><path fill="#d65476" d="M161.519 83.506q-.022-.703-.076-1.422c-.011-.15-.02-.299-.034-.45a31.965 31.965 0 0 0-.21-1.809c-.015-.101-.035-.204-.051-.305q-.123-.787-.291-1.588a32.06 32.06 0 0 0-.598-2.431l-.006-.017a54.715 54.715 0 0 0-.478-1.56l-.02-.06a10.837 10.837 0 0 0-4.94 1.81 41.061 41.061 0 0 1-3.207 10.708c-.306.693-.63 1.352-.963 1.997a10.91 10.91 0 0 0 9.126 7.18v-.002c.06-.188.119-.386.178-.582a38.247 38.247 0 0 0 .613-2.27c.038-.16.074-.325.11-.488q.107-.48.205-.979.051-.26.099-.524.105-.583.194-1.19l.044-.28c.067-.49.123-.993.171-1.504.015-.157.028-.316.04-.474q.052-.641.08-1.302c.006-.123.014-.244.018-.369q.026-.824.01-1.676c-.003-.137-.01-.275-.014-.413Z"/><ellipse cx="101.727" cy="62.189" fill="#fff" rx="1.412" ry="1.765" transform="rotate(-64.519 101.727 62.189)"/><ellipse cx="100.021" cy="126.875" fill="#fff" rx="1.412" ry="1.765" transform="rotate(-57.728 100.021 126.875)"/><path fill="#fff" d="M70.748 70.188a1 1 0 0 1-.894-1.447c.085-.168 8.622-16.746 26.276-9.477a1 1 0 1 1-.762 1.85c-15.913-6.558-23.415 7.904-23.725 8.523a1.001 1.001 0 0 1-.895.551ZM95.248 124.688a.993.993 0 0 1-.484-.126c-18.052-10.028-24.627-22.123-24.898-22.633a1 1 0 0 1 1.766-.94c.063.12 6.607 12.105 24.102 21.825a1 1 0 0 1-.486 1.874Z"/><path fill="#a05a2a" d="M78.401 105.916c-6.042 10.465-6.794 21.343-1.68 24.296s9.175-3.156 15.217-13.621 11.779-21.325 6.664-24.278-14.159 3.138-20.201 13.603ZM144.36 105.055c6.043 10.465 6.795 21.343 1.68 24.296s-9.174-3.156-15.216-13.621-11.779-21.325-6.664-24.278 14.159 3.138 20.2 13.603Z"/><path fill="#ad602b" d="M98.32 91.568s-7.016 13.004-4.4 36.835c0 0 2.306 10.918 7.937 11.899s16.01 1.498 20.326 0 11.88-12.196 10.06-22.138-8.083-26.712-8.083-26.712Z"/><path fill="#894b21" d="M132.243 118.164c-1.82-9.942-8.083-26.712-8.083-26.712l-1.629.008a111.155 111.155 0 0 1 2.941 11.461c1.82 9.942-5.746 20.64-10.06 22.138s-14.696.981-20.327 0a5.031 5.031 0 0 1-1.51-.53c.088 1.26.2 2.548.345 3.874 0 0 2.306 10.917 7.936 11.899s16.011 1.498 20.326 0 11.88-12.196 10.061-22.138Z"/><path fill="#995425" d="m83.105 122.635 11.458-3.255s11.323 7.75 7.293 20.922c0 0-2.426 4.745-4.441 5.834s-14.31-23.501-14.31-23.501ZM136.544 122.635l-11.458-3.255s-11.323 7.75-7.294 20.922c0 0 2.427 4.745 4.442 5.834s14.31-23.501 14.31-23.501Z"/><path fill="#ad602b" d="M99.842 139.992c0 6.961-6.2 9.609-14.155 9.609-9.091 0-14.154-4.662-14.154-11.624s4.268-15.342 11.572-15.342 16.737 10.396 16.737 17.357Z"/><path fill="#d29658" d="M81.18 131.435c3.56-1.442 10.882.615 12.53 4.683 1.883 4.649.548 8.203-3.012 9.645s-13.413 1.56-14.926-2.174 1.85-10.712 5.409-12.154Z"/><path fill="#ad602b" d="M119.807 139.992c0 6.961 6.2 9.609 14.154 9.609 9.092 0 14.155-4.662 14.155-11.624s-4.268-15.342-11.572-15.342-16.737 10.396-16.737 17.357Z"/><path fill="#d29658" d="M138.468 131.435c-3.56-1.442-10.882.615-12.53 4.683-1.882 4.649-.547 8.203 3.013 9.645s13.413 1.56 14.926-2.174-1.85-10.712-5.409-12.154Z"/><ellipse cx="92.127" cy="58.165" fill="#7f451d" rx="8.954" ry="9.66"/><ellipse cx="129.476" cy="59.026" fill="#7f451d" rx="8.954" ry="9.66"/><ellipse cx="90.543" cy="57.545" fill="#333" rx="2.635" ry="3.409"/><ellipse cx="132.163" cy="59.267" fill="#333" rx="2.635" ry="3.409"/><ellipse cx="111" cy="72.268" fill="#995425" rx="24.589" ry="22.523"/><path fill="#7f451d" d="M115.679 50.157c10.164 6.454 13.086 20.613 6.458 32.094a25.549 25.549 0 0 1-15.759 12.137 26.894 26.894 0 0 0 4.622.403c13.58 0 24.59-10.084 24.59-22.523 0-10.973-8.57-20.109-19.911-22.11Z"/><path fill="#d29658" d="M122.675 81.746c0 4.95-5.713 8.961-12.76 8.961s-12.76-4.012-12.76-8.961S103.954 70.615 111 70.615a11.808 11.808 0 0 1 11.675 11.131Z"/><circle cx="104.394" cy="69.227" r="1.763" fill="#333"/><circle cx="116.25" cy="69.227" r="1.763" fill="#333"/><path fill="#333" d="M112.928 87.998a15.82 15.82 0 0 0 3.936-1.354 5.834 5.834 0 0 0 1.524-1.222 8.518 8.518 0 0 0 1.136-1.763 3.805 3.805 0 0 1-.497 2.212 4.458 4.458 0 0 1-1.672 1.643 5.914 5.914 0 0 1-2.195.678 5.343 5.343 0 0 1-2.232-.194ZM101.547 62.677a2.975 2.975 0 0 1 .884-.97 4.331 4.331 0 0 1 1.15-.597 3.155 3.155 0 0 1 2.576.155c-.427.18-.8.291-1.17.421l-1.091.373a14.62 14.62 0 0 1-2.35.618ZM118.531 62.677a14.62 14.62 0 0 1-2.35-.618l-1.09-.373c-.37-.13-.743-.242-1.17-.421a3.154 3.154 0 0 1 2.576-.155 4.332 4.332 0 0 1 1.15.597 2.975 2.975 0 0 1 .884.97ZM108.055 79.707c-.37-.034-3.284-.338-4.184-2.402a2.75 2.75 0 0 1-.077-2.17 3.296 3.296 0 0 1 2.17-1.472 9.644 9.644 0 0 1 5.036-.155c1.475.228 1.892.501 2.17.775a2.508 2.508 0 0 1 .697 2.402 2.23 2.23 0 0 1-.697 1.007 7.269 7.269 0 0 1-5.115 2.015Z"/><g clip-path="url(#a)"><path fill="#fdd39d" d="M158.356 107.519h.61v27.787h-.61z"/><path fill="#fdd39d" d="M157.806 107.519h.55v27.787h-.55z"/><path fill="#fdd29c" d="M157.256 107.519h.55v27.787h-.55z"/><path fill="#fcd29b" d="M156.707 107.519h.55v27.787h-.55z"/><path fill="#fcd19b" d="M156.157 107.519h.55v27.787h-.55z"/><path fill="#fbd09a" d="M155.607 107.519h.55v27.787h-.55z"/><path fill="#fbd099" d="M155.058 107.519h.55v27.787h-.55z"/><path fill="#facf98" d="M154.508 107.519h.55v27.787h-.55z"/><path fill="#face97" d="M153.958 107.519h.55v27.787h-.55z"/><path fill="#f9cd96" d="M153.409 107.519h.55v27.787h-.55z"/><path fill="#f8cd95" d="M152.859 107.519h.55v27.787h-.55z"/><path fill="#f8cc94" d="M152.309 107.519h.55v27.787h-.55z"/><path fill="#f7cb93" d="M151.76 107.519h.55v27.787h-.55z"/><path fill="#f7ca92" d="M151.21 107.519h.55v27.787h-.55z"/><path fill="#f6c991" d="M150.66 107.519h.55v27.787h-.55z"/><path fill="#f5c890" d="M150.111 107.519h.55v27.787h-.55z"/><path fill="#f5c88f" d="M149.561 107.519h.55v27.787h-.55z"/><path fill="#f4c78e" d="M149.011 107.519h.55v27.787h-.55z"/><path fill="#f4c68d" d="M148.462 107.519h.55v27.787h-.55z"/><path fill="#f3c58c" d="M147.912 107.519h.55v27.787h-.55z"/><path fill="#f2c48b" d="M147.362 107.519h.55v27.787h-.55z"/><path fill="#f2c38a" d="M146.813 107.519h.55v27.787h-.55z"/><path fill="#f1c388" d="M146.263 107.519h.55v27.787h-.55z"/><path fill="#f1c287" d="M145.713 107.519h.55v27.787h-.55z"/><path fill="#f0c186" d="M145.163 107.519h.55v27.787h-.55z"/><path fill="#efc085" d="M144.614 107.519h.55v27.787h-.55z"/><path fill="#efbf84" d="M144.064 107.519h.55v27.787h-.55z"/><path fill="#eebe83" d="M143.514 107.519h.55v27.787h-.55z"/><path fill="#edbd82" d="M142.965 107.519h.55v27.787h-.55z"/><path fill="#edbc81" d="M142.415 107.519h.55v27.787h-.55z"/><path fill="#ecbc80" d="M141.865 107.519h.55v27.787h-.55z"/><path fill="#ecbb7f" d="M141.316 107.519h.55v27.787h-.55z"/><path fill="#ebba7d" d="M140.766 107.519h.55v27.787h-.55z"/><path fill="#eab97c" d="M140.216 107.519h.55v27.787h-.55z"/><path fill="#eab87b" d="M139.667 107.519h.55v27.787h-.55z"/><path fill="#e9b77a" d="M139.117 119.286v-11.767h.55v27.787h-.55v-16.02z"/></g><path fill="#fdd39d" d="M135.816 117.378c-.235 1.122 5.099 2.836 7.497 2.93a2.876 2.876 0 0 0 1.638-.319 3.15 3.15 0 0 0 1.09-1.478c2.705-6.082 1.726-13.09.697-19.666a1.387 1.387 0 0 0-.384-.907 1.355 1.355 0 0 0-1.06-.14 26.52 26.52 0 0 0-5.951 1.628 5.422 5.422 0 0 0-2.892 2.177.61.61 0 0 0 .38.85 37.541 37.541 0 0 0 8.24 1.397 18.02 18.02 0 0 0-7.56 1.861c-.468.232-1 .628-.901 1.14.071.37.443.59.78.758 2.5 1.25 4.456 1.4 7.12 2.244-3.536.92-9.586 1.711-8.432 3.013 1.994 1.777 5.286 2.297 8.158 3.222-.533.116-8.197.222-8.42 1.29Z"/><g clip-path="url(#b)"><path fill="#fdd39d" d="m63.298 106.871-2.195 15.456v-15.456h2.195z"/><path fill="#fdd39d" d="m63.853 106.871-2.75 19.365v-3.909l2.195-15.456h.555z"/><path fill="#fdd29c" d="m64.408 106.871-3.305 23.274v-3.909l2.75-19.365h.555z"/><path fill="#fcd29b" d="m64.963 106.871-3.842 27.055h-.018v-3.781l3.305-23.274h.555z"/><path fill="#fcd19b" d="m65.519 106.871-3.843 27.055h-.555l3.842-27.055h.556z"/><path fill="#fbd09a" d="m66.074 106.871-3.843 27.055h-.555l3.843-27.055h.555z"/><path fill="#fbd099" d="m66.629 106.871-3.843 27.055h-.555l3.843-27.055h.555z"/><path fill="#facf98" d="m67.184 106.871-3.842 27.055h-.556l3.843-27.055h.555z"/><path fill="#face97" d="m67.739 106.871-3.842 27.055h-.555l3.842-27.055h.555z"/><path fill="#f9cd96" d="m68.295 106.871-3.843 27.055h-.555l3.842-27.055h.556z"/><path fill="#f8cd95" d="m68.85 106.871-3.843 27.055h-.555l3.843-27.055h.555z"/><path fill="#f8cc94" d="m69.405 106.871-3.843 27.055h-.555l3.843-27.055h.555z"/><path fill="#f7cb93" d="m69.96 106.871-3.842 27.055h-.556l3.843-27.055h.555z"/><path fill="#f7ca92" d="m70.515 106.871-3.842 27.055h-.555l3.842-27.055h.555z"/><path fill="#f6c991" d="m71.071 106.871-3.843 27.055h-.555l3.842-27.055h.556z"/><path fill="#f5c890" d="m71.626 106.871-3.843 27.055h-.555l3.843-27.055h.555z"/><path fill="#f5c88f" d="m72.181 106.871-3.843 27.055h-.555l3.843-27.055h.555z"/><path fill="#f4c78e" d="m72.736 106.871-3.843 27.055h-.555l3.843-27.055h.555z"/><path fill="#f4c68d" d="m73.291 106.871-3.842 27.055h-.556l3.843-27.055h.555z"/><path fill="#f3c58c" d="m73.846 106.871-3.842 27.055h-.555l3.842-27.055h.555z"/><path fill="#f2c48b" d="m74.402 106.871-3.843 27.055h-.555l3.842-27.055h.556z"/><path fill="#f2c38a" d="m74.957 106.871-3.843 27.055h-.555l3.843-27.055h.555z"/><path fill="#f1c388" d="m75.512 106.871-3.843 27.055h-.555l3.843-27.055h.555z"/><path fill="#f1c287" d="m76.067 106.871-3.842 27.055h-.556l3.843-27.055h.555z"/><path fill="#f0c186" d="m76.622 106.871-3.842 27.055h-.555l3.842-27.055h.555z"/><path fill="#efc085" d="m77.178 106.871-3.843 27.055h-.555l3.842-27.055h.556z"/><path fill="#efbf84" d="m77.733 106.871-3.843 27.055h-.555l3.843-27.055h.555z"/><path fill="#eebe83" d="m78.288 106.871-3.843 27.055h-.555l3.843-27.055h.555z"/><path fill="#edbd82" d="m78.843 106.871-3.842 27.055h-.556l3.843-27.055h.555z"/><path fill="#edbc81" d="m79.398 106.871-3.842 27.055h-.555l3.842-27.055h.555z"/><path fill="#ecbc80" d="m79.954 106.871-3.843 27.055h-.555l3.842-27.055h.556z"/><path fill="#ecbb7f" d="m80.509 106.871-3.843 27.055h-.555l3.843-27.055h.555z"/><path fill="#ebba7d" d="m80.985 107.426-3.764 26.5h-.555l3.843-27.055h.476v.555z"/><path fill="#eab97c" d="m80.985 111.335-3.209 22.591h-.555l3.764-26.5v3.909z"/><path fill="#eab87b" d="m80.985 115.243-2.653 18.683h-.556l3.209-22.591v3.908z"/><path fill="#e9b77a" d="m80.985 119.152-2.098 14.774h-.555l2.653-18.683v3.909z"/><path fill="#e9b77a" d="m78.887 133.926 2.098-14.774v14.774h-2.098z"/></g><path fill="#fdd39d" d="M84.439 118.314c.074 1.144-5.448 2.09-7.835 1.846a2.876 2.876 0 0 1-1.577-.545 3.15 3.15 0 0 1-.871-1.618c-1.823-6.401.131-13.202 2.075-19.568a1.387 1.387 0 0 1 .508-.844 1.356 1.356 0 0 1 1.07.01 26.52 26.52 0 0 1 5.662 2.45 5.422 5.422 0 0 1 2.557 2.561.61.61 0 0 1-.496.788 37.54 37.54 0 0 1-8.354.225 18.02 18.02 0 0 1 7.223 2.905c.431.296.902.762.732 1.256-.123.356-.522.521-.88.64-2.65.887-4.608.76-7.365 1.22 3.372 1.41 9.251 3.043 7.926 4.17-2.225 1.479-5.556 1.53-8.53 2.043.51.19 8.084 1.372 8.155 2.461Z"/></svg>